<svg width="62" height="65" viewBox="0 0 62 65" fill="none" xmlns="http://www.w3.org/2000/svg">
<g clip-path="url(#clip0)">
<path fill-rule="evenodd" clip-rule="evenodd" d="M0 32.6575C0 48.8036 11.1936 62.2298 25.8333 64.9524V41.4965H18.0833V32.4762H25.8333V25.2584C25.8333 17.1393 30.8269 12.6305 37.8897 12.6305C40.1269 12.6305 42.5397 12.9905 44.7769 13.3504V21.6508H40.8167C37.0269 21.6508 36.1667 23.6345 36.1667 26.1623V32.4762H44.4333L43.0564 41.4965H36.1667V64.9524C50.8064 62.2298 62 48.8063 62 32.6575C62 14.6955 48.05 0 31 0C13.95 0 0 14.6955 0 32.6575Z" fill="white"/>
</g>
<defs>
<clipPath id="clip0">
<rect width="62" height="64.9524" fill="white"/>
</clipPath>
</defs>
</svg>
