<svg width="65" height="65" viewBox="0 0 65 65" fill="none" xmlns="http://www.w3.org/2000/svg">
<path d="M42.6562 32.5C42.6562 35.1936 41.5862 37.7769 39.6816 39.6816C37.7769 41.5862 35.1936 42.6562 32.5 42.6562C29.8064 42.6562 27.2231 41.5862 25.3184 39.6816C23.4138 37.7769 22.3437 35.1936 22.3437 32.5C22.3437 31.9211 22.4047 31.3557 22.5096 30.8073H18.9583V44.3388C18.9583 45.2799 19.7201 46.0417 20.6612 46.0417H44.3422C44.7932 46.0408 45.2255 45.861 45.5441 45.5417C45.8627 45.2225 46.0417 44.7898 46.0417 44.3388V30.8073H42.4904C42.5953 31.3557 42.6562 31.9211 42.6562 32.5V32.5ZM32.5 39.2708C33.3894 39.2706 34.27 39.0952 35.0916 38.7547C35.9132 38.4141 36.6597 37.9151 37.2884 37.286C37.9171 36.657 38.4158 35.9102 38.756 35.0885C39.0961 34.2667 39.2711 33.386 39.2708 32.4966C39.2706 31.6072 39.0952 30.7266 38.7547 29.905C38.4141 29.0834 37.9151 28.3369 37.286 27.7082C36.657 27.0795 35.9102 26.5808 35.0885 26.2407C34.2667 25.9005 33.386 25.7256 32.4966 25.7258C30.7004 25.7262 28.978 26.4402 27.7082 27.7106C26.4384 28.981 25.7253 30.7038 25.7258 32.5C25.7262 34.2962 26.4402 36.0186 27.7106 37.2884C28.981 38.5582 30.7038 39.2713 32.5 39.2708V39.2708ZM40.625 25.3906H44.6841C44.9538 25.3906 45.2125 25.2837 45.4035 25.0934C45.5945 24.903 45.7022 24.6447 45.7031 24.375V20.3159C45.7031 20.0456 45.5958 19.7864 45.4047 19.5953C45.2136 19.4042 44.9544 19.2969 44.6841 19.2969H40.625C40.3547 19.2969 40.0956 19.4042 39.9044 19.5953C39.7133 19.7864 39.606 20.0456 39.606 20.3159V24.375C39.6094 24.9336 40.0664 25.3906 40.625 25.3906V25.3906ZM32.5 0C23.8805 0 15.614 3.4241 9.51903 9.51903C3.4241 15.614 0 23.8805 0 32.5C0 41.1195 3.4241 49.386 9.51903 55.481C15.614 61.5759 23.8805 65 32.5 65C36.768 65 40.9941 64.1594 44.9372 62.5261C48.8803 60.8928 52.4631 58.4989 55.481 55.481C58.4989 52.4631 60.8928 48.8803 62.5261 44.9372C64.1594 40.9941 65 36.768 65 32.5C65 28.232 64.1594 24.0059 62.5261 20.0628C60.8928 16.1197 58.4989 12.5369 55.481 9.51903C52.4631 6.50112 48.8803 4.10719 44.9372 2.47392C40.9941 0.840637 36.768 0 32.5 0V0ZM49.4271 45.6659C49.4271 47.7344 47.7344 49.4271 45.6659 49.4271H19.3341C17.2656 49.4271 15.5729 47.7344 15.5729 45.6659V19.3341C15.5729 17.2656 17.2656 15.5729 19.3341 15.5729H45.6659C47.7344 15.5729 49.4271 17.2656 49.4271 19.3341V45.6659V45.6659Z" fill="white"/>
</svg>
