<svg width="207" height="67" viewBox="0 0 207 67" fill="none" xmlns="http://www.w3.org/2000/svg">
<path fill-rule="evenodd" clip-rule="evenodd" d="M15.2172 5.77564C12.5461 8.94551 10.3098 11.6897 10.248 11.8734C10.1745 12.0913 11.0118 12.175 12.6575 12.1135L15.1793 12.0192L20.1185 6.25C22.8349 3.07692 25.0653 0.372756 25.0747 0.240385C25.0844 0.108013 23.9632 0.00288494 22.583 0.00609007L20.0738 0.0121789L15.2172 5.77564ZM25.6896 5.53173C23.135 8.57404 20.845 11.3144 20.6009 11.6215C20.1861 12.142 20.3295 12.1795 22.7287 12.1795H25.301L29.9724 6.67147C32.5415 3.64199 34.8338 0.901602 35.0666 0.58173C35.4652 0.0333329 35.3415 0 32.9119 0H30.3341L25.6896 5.53173ZM35.3528 6.21474C32.7368 9.30192 30.5963 11.9067 30.5963 12.0035C30.5963 12.1003 32.1627 12.1808 34.0768 12.1827C37.0445 12.1853 37.796 12.2962 39.1762 12.9356C40.0666 13.3481 41.4096 14.2965 42.1607 15.0433C42.9119 15.7901 43.9088 17.2013 44.3763 18.1795C44.8438 19.1577 45.3839 20.9 45.5765 22.0513C45.8352 23.5971 45.8271 24.7202 45.5458 26.3458C45.336 27.5567 44.7363 29.3865 44.2131 30.4128C43.6624 31.4926 42.5587 32.9042 41.5922 33.7641C40.5215 34.717 39.3323 35.4237 38.2765 35.734C36.9869 36.1131 34.7464 36.2179 27.9314 36.2179C21.0911 36.2179 19.0455 36.3141 18.3578 36.6683C17.877 36.916 17.1627 37.4586 16.7707 37.8747C16.3783 38.2904 15.8321 39.1647 15.5565 39.8179C15.2807 40.4708 15.0553 41.5913 15.0553 42.3077C15.0553 43.024 15.2807 44.1445 15.5565 44.7974C15.8321 45.4506 16.3783 46.325 16.7707 46.7407C17.1627 47.1567 17.877 47.6994 18.3578 47.9471C19.0494 48.3032 21.149 48.3965 28.3947 48.3926C35.4153 48.3891 38.0414 48.275 39.6285 47.9048C40.7676 47.6388 42.6866 46.908 43.8926 46.2804C45.0986 45.6532 46.9636 44.3532 48.0369 43.3917C49.1102 42.4301 50.6536 40.6532 51.4662 39.4429C52.2792 38.2324 53.3146 36.4128 53.7676 35.399C54.2205 34.3853 54.8998 32.3157 55.2777 30.8003C55.7824 28.774 55.965 27.0269 55.9679 24.1987C55.9702 22.0833 55.7837 19.4872 55.5535 18.4295C55.3236 17.3718 54.6994 15.3801 54.1668 14.0035C53.6342 12.6269 52.479 10.4359 51.5996 9.13429C50.7203 7.83269 49.0645 5.91859 47.9206 4.88077C46.7767 3.84327 44.9238 2.54167 43.8036 1.98878C42.683 1.43558 41.3934 0.897436 40.9379 0.792628C40.1857 0.619872 39.6713 1.11891 35.3528 6.21474ZM63.9447 12.2849C63.9447 12.3715 62.7791 17.5974 61.3545 23.8981C59.9299 30.1987 58.7643 35.4945 58.7643 35.6667C58.7643 35.8599 60.108 35.925 62.275 35.8365C65.1527 35.7192 66.0722 35.5529 67.374 34.9141C68.2476 34.4853 69.261 33.6875 69.6262 33.1407C70.0429 32.5176 70.9187 29.3503 71.9752 24.6471C72.9015 20.5224 73.6594 16.4705 73.6588 15.6429C73.6581 14.516 73.4619 13.9125 72.8772 13.2391C72.1098 12.3548 72.0276 12.3378 68.0206 12.2333C65.7788 12.175 63.9447 12.1981 63.9447 12.2849ZM76.415 12.5801C76.3402 12.8006 76.2353 13.2692 76.1825 13.6218C76.0961 14.1965 76.2955 14.2728 78.1096 14.3583C79.6003 14.4285 80.1345 14.3442 80.1377 14.0378C80.14 13.809 80.23 13.2971 80.3372 12.9006C80.5243 12.2099 80.4482 12.1795 78.5419 12.1795C77.238 12.1795 76.5044 12.3176 76.415 12.5801ZM95.9979 12.7843C94.2897 13.3042 94.203 13.3843 93.8662 14.7561C93.6584 15.6032 93.3081 16.2256 93.0066 16.2837C92.7266 16.3375 92.4041 16.7702 92.2898 17.2452C92.1755 17.7202 92.0062 18.3612 91.9136 18.6699C91.8035 19.0362 91.921 19.2308 92.2529 19.2308C92.532 19.2308 92.7602 19.2792 92.7602 19.3385C92.7602 19.3978 92.0318 22.6667 91.1414 26.6026C90.251 30.5385 89.5225 34.0237 89.5225 34.3474C89.5225 34.6712 89.8139 35.2244 90.1701 35.5769C90.6415 36.0436 91.2492 36.2179 92.4041 36.2179H93.9909L94.3878 34.5792C94.7123 33.241 94.7061 32.8926 94.3558 32.6782C94.0107 32.467 94.2062 31.1484 95.3562 25.9353C96.4742 20.8667 96.9055 19.424 97.3358 19.3125C97.6382 19.2343 97.9778 18.7872 98.0905 18.3192C98.2028 17.851 98.3709 17.2157 98.4635 16.907C98.5768 16.5298 98.4541 16.3462 98.0892 16.3462C97.6887 16.3462 97.5941 16.1574 97.7282 15.625C97.8279 15.2285 98.0079 14.291 98.1284 13.5417C98.2488 12.7923 98.2193 12.1936 98.063 12.2109C97.9066 12.2282 96.9774 12.4862 95.9979 12.7843ZM112.182 12.5801C112.18 12.8006 112.09 13.3054 111.982 13.7019C111.796 14.3917 111.872 14.4231 113.748 14.4231C114.827 14.4231 115.771 14.3147 115.846 14.1827C115.921 14.0506 116.078 13.5458 116.195 13.0609L116.408 12.1795H114.297C112.827 12.1795 112.185 12.301 112.182 12.5801ZM129.185 12.5801C129.108 12.8006 127.9 18.0663 126.5 24.2817C125.101 30.4974 124.028 35.6535 124.115 35.7401C124.202 35.8266 125.054 35.8974 126.008 35.8974C127.5 35.8974 127.783 35.7971 128.043 35.1763C128.209 34.7795 129.444 29.5346 130.788 23.5208C132.132 17.507 133.232 12.4952 133.232 12.383C133.232 12.2712 132.353 12.1795 131.279 12.1795C130.007 12.1795 129.277 12.3192 129.185 12.5801ZM134.694 12.5801C134.619 12.8006 134.514 13.2692 134.461 13.6218C134.375 14.1907 134.575 14.2737 136.228 14.359C137.979 14.4494 138.111 14.4045 138.414 13.617C138.591 13.1561 138.736 12.6439 138.736 12.4792C138.736 12.3144 137.857 12.1795 136.783 12.1795C135.509 12.1795 134.783 12.3189 134.694 12.5801ZM183.092 12.742C182.113 13.0228 181.209 13.4048 181.085 13.591C180.96 13.7769 180.765 14.4731 180.651 15.1378C180.503 16.0074 180.283 16.3462 179.867 16.3462C179.44 16.3462 179.234 16.6936 179.074 17.6817C178.928 18.5878 178.985 19.0949 179.252 19.2583C179.549 19.4401 179.272 21.1753 178.124 26.3359C177.287 30.0965 176.605 33.6385 176.61 34.2074C176.615 34.9426 176.843 35.3885 177.4 35.7494C177.891 36.0679 178.698 36.2202 179.564 36.1574C180.724 36.0737 180.978 35.9298 181.156 35.2564C181.273 34.8157 181.468 34.0583 181.589 33.5737C181.757 32.9032 181.692 32.6923 181.318 32.6923C181.047 32.6923 180.826 32.6237 180.826 32.5397C180.826 32.4554 181.481 29.5112 182.283 25.9965C183.084 22.4814 183.74 19.5381 183.74 19.4558C183.74 19.3731 184.011 19.2353 184.343 19.1494C184.737 19.0474 185.027 18.5724 185.176 17.783C185.332 16.9622 185.279 16.4955 185.012 16.332C184.749 16.1715 184.687 15.6785 184.826 14.8564C184.941 14.1772 185.125 13.2971 185.234 12.9006C185.344 12.5042 185.308 12.191 185.154 12.2054C184.999 12.2196 184.072 12.4609 183.092 12.742ZM83.8504 16.4724C83.3129 16.7042 82.4064 17.4202 81.8356 18.0638C81.2648 18.707 80.5693 20.0125 80.2899 20.9644C79.9927 21.9763 79.8729 23.0737 80.0014 23.607C80.1225 24.1087 80.8507 25.4663 81.62 26.624C82.3889 27.7817 83.1556 29.0872 83.324 29.525C83.492 29.9628 83.5551 30.7058 83.4645 31.1763C83.3735 31.6468 83.1031 32.1926 82.8636 32.3897C82.624 32.5865 82.2597 32.6445 82.0538 32.5186C81.8045 32.366 81.7495 31.7686 81.889 30.7282L82.0982 29.1667H80.1342C78.5636 29.1667 78.1261 29.2788 77.95 29.7276C77.8289 30.0362 77.724 31.1292 77.7172 32.157C77.7059 33.8827 77.7888 34.0997 78.8012 34.9962C79.8208 35.8984 80.0399 35.9577 81.9191 35.8391C83.5202 35.7381 84.1917 35.5221 85.1478 34.8003C85.8364 34.2804 86.6857 33.1849 87.126 32.249C87.6181 31.2026 87.8959 30.0292 87.8933 29.0064C87.8911 28.0878 87.6084 26.7907 87.2312 25.9673C86.8692 25.1772 85.9818 23.7558 85.2595 22.8083C84.1114 21.3032 83.9903 20.9891 84.2988 20.3186C84.5122 19.8551 84.9279 19.5513 85.3491 19.5513C85.9756 19.5513 86.0287 19.6814 85.8727 20.8333L85.6988 22.1154H87.7169H89.7353L90.1079 20.5167C90.355 19.4564 90.3766 18.6465 90.1717 18.1128C90.0014 17.6702 89.3853 17.0199 88.8021 16.6679C88.1446 16.2712 87.1885 16.0324 86.2848 16.0394C85.4835 16.0455 84.3882 16.2404 83.8504 16.4724ZM104.883 16.4962C104.537 16.7551 104.136 16.9715 103.992 16.9769C103.848 16.9827 103.82 16.8429 103.93 16.6667C104.056 16.4654 103.34 16.3462 102.007 16.3462C100.839 16.3462 99.8832 16.4035 99.8832 16.4734C99.8832 16.5433 98.9362 20.7574 97.7787 25.8381C96.6212 30.9186 95.6742 35.2606 95.6742 35.4865C95.6742 35.7747 96.2486 35.8974 97.5951 35.8974C99.1453 35.8974 99.5478 35.7891 99.6815 35.3365C99.7728 35.0279 100.594 31.4609 101.507 27.4093C102.42 23.358 103.32 19.8606 103.507 19.6369C103.695 19.4135 104.033 19.2308 104.259 19.2308C104.485 19.2308 104.746 19.4247 104.838 19.6615C104.929 19.8984 104.804 21.016 104.56 22.1455C104.315 23.2747 104.11 24.451 104.104 24.7596C104.094 25.232 104.395 25.3205 106.009 25.3205H107.926L108.408 23.157C108.674 21.967 108.988 20.5253 109.107 19.9529C109.226 19.3808 109.155 18.4061 108.948 17.7872C108.742 17.1683 108.303 16.5186 107.973 16.3436C107.643 16.1689 106.954 16.0256 106.442 16.0256C105.93 16.0256 105.228 16.2375 104.883 16.4962ZM120.119 16.3987C119.763 16.5933 119.057 17.1298 118.551 17.591C118.045 18.0522 117.353 18.9647 117.013 19.6186C116.674 20.2728 116.395 21.0298 116.395 21.3013C116.395 21.6849 116.786 21.7949 118.151 21.7949C119.862 21.7949 119.916 21.767 120.271 20.7013C120.472 20.1 120.853 19.5256 121.118 19.4247C121.389 19.3221 121.684 19.4583 121.791 19.7349C121.897 20.0064 121.855 20.6683 121.699 21.2061C121.461 22.0237 121.074 22.3183 119.333 23.0074C118.167 23.4689 116.734 24.3439 116.074 24.9978C115.228 25.8356 114.73 26.7458 114.308 28.2266C113.986 29.3606 113.648 31.1856 113.558 32.282C113.433 33.8048 113.521 34.4673 113.931 35.0865C114.358 35.7311 114.735 35.8974 115.767 35.8974C116.481 35.8974 117.425 35.6644 117.864 35.3798C118.598 34.9032 118.662 34.9032 118.662 35.3798C118.662 35.7987 119.032 35.8974 120.605 35.8974C121.673 35.8974 122.547 35.8202 122.547 35.7253C122.547 35.6308 123.348 32.0369 124.328 27.7388C125.307 23.4404 126.109 19.6304 126.109 19.2718C126.109 18.9131 125.934 18.2417 125.722 17.7795C125.509 17.3173 124.934 16.7337 124.443 16.4824C123.952 16.2311 122.924 16.0301 122.159 16.0353C121.393 16.0407 120.475 16.2042 120.119 16.3987ZM144.159 16.5295C143.604 16.8276 143.268 16.8772 143.268 16.6615C143.268 16.4407 142.541 16.35 141.257 16.4109L139.246 16.5064L137.093 25.9615C135.91 31.1619 135.003 35.525 135.077 35.657C135.152 35.7891 136.009 35.8974 136.982 35.8974C138.521 35.8974 138.787 35.8035 139.023 35.1763C139.171 34.7795 139.996 31.3013 140.855 27.4462C141.734 23.4997 142.651 20.1516 142.952 19.783C143.251 19.4179 143.653 19.2304 143.864 19.359C144.07 19.4856 144.24 19.8949 144.24 20.2686C144.24 20.642 143.511 24.1554 142.621 28.076C141.731 31.9965 141.002 35.3603 141.002 35.551C141.002 35.7603 141.762 35.8974 142.923 35.8974C144.472 35.8974 144.876 35.7888 145.013 35.3365C145.106 35.0279 145.911 31.5484 146.802 27.6038C147.792 23.2205 148.636 20.1984 148.971 19.8314C149.273 19.501 149.634 19.2308 149.772 19.2308C149.911 19.2308 150.1 19.483 150.194 19.7917C150.287 20.1003 149.587 23.742 148.639 27.8846C147.691 32.0272 146.977 35.525 147.053 35.657C147.129 35.7891 147.976 35.8974 148.934 35.8974C149.893 35.8974 150.749 35.7814 150.838 35.6401C150.926 35.4984 151.74 32.0728 152.646 28.0279C153.552 23.9827 154.367 20.3433 154.456 19.9401C154.546 19.5365 154.464 18.6378 154.275 17.9423C154.086 17.2468 153.654 16.5308 153.316 16.3516C152.977 16.1724 152.319 16.0256 151.854 16.0256C151.388 16.0256 150.603 16.2324 150.109 16.4853C149.615 16.7381 149.019 17.1747 148.783 17.4554C148.401 17.9103 148.29 17.8603 147.759 16.9958C147.287 16.2279 146.943 16.0282 146.106 16.0385C145.525 16.0455 144.648 16.2663 144.159 16.5295ZM159.103 16.7715C158.318 17.1814 157.277 18.083 156.789 18.7747C156.12 19.7231 155.583 21.4212 154.604 25.6853C153.89 28.7945 153.305 31.7221 153.305 32.1913C153.305 32.6606 153.523 33.4615 153.789 33.9708C154.055 34.4801 154.597 35.1221 154.994 35.3971C155.418 35.6913 156.394 35.8974 157.361 35.8974C158.62 35.8974 159.354 35.6795 160.487 34.9679C161.568 34.2891 162.193 33.5753 162.8 32.3237C163.258 31.3804 163.73 30.0609 163.85 29.3907L164.068 28.1724L162.03 28.2689L159.992 28.3654L159.556 30.2885C159.316 31.3461 158.883 32.3872 158.593 32.6019C158.304 32.8167 157.942 32.9163 157.791 32.8234C157.639 32.7304 157.515 32.1942 157.516 31.6317C157.517 31.0692 157.649 30.1042 157.809 29.4872C157.968 28.8702 158.189 27.9686 158.299 27.484L158.498 26.6026H161.501H164.503L165.202 23.2737C165.739 20.7154 165.827 19.6814 165.583 18.807C165.409 18.1814 164.822 17.2997 164.279 16.8474C163.558 16.2465 162.922 16.0256 161.911 16.0256C161.09 16.0256 159.952 16.3279 159.103 16.7715ZM172.874 16.4962C172.529 16.7551 172.128 16.9715 171.984 16.9769C171.84 16.9827 171.812 16.8429 171.922 16.6667C172.048 16.4654 171.332 16.3462 169.999 16.3462C168.831 16.3462 167.875 16.4067 167.875 16.4808C167.875 16.5548 166.928 20.7994 165.77 25.9128C164.613 31.0266 163.666 35.3651 163.666 35.5538C163.666 35.7596 164.437 35.8974 165.587 35.8974C167.136 35.8974 167.54 35.7891 167.676 35.3365C167.768 35.0279 168.573 31.5695 169.463 27.6506C170.354 23.732 171.24 20.2346 171.433 19.8782C171.626 19.5221 171.987 19.2308 172.236 19.2308C172.484 19.2308 172.766 19.483 172.861 19.7917C172.957 20.1003 172.257 23.742 171.306 27.8846C170.356 32.0272 169.641 35.525 169.717 35.657C169.793 35.7891 170.64 35.8974 171.598 35.8974C172.557 35.8974 173.412 35.7833 173.499 35.6439C173.586 35.5045 174.419 32.0792 175.35 28.0317C176.281 23.9846 177.048 19.9907 177.054 19.1567C177.063 17.9939 176.887 17.4522 176.299 16.833C175.796 16.3032 175.184 16.0256 174.518 16.0256C173.96 16.0256 173.22 16.2375 172.874 16.4962ZM189.214 16.7676C188.242 17.2728 187.475 18.0212 186.809 19.1147C186.072 20.324 185.521 22.1189 184.574 26.3923C183.464 31.4032 183.362 32.2115 183.698 33.3228C183.908 34.0147 184.459 34.8772 184.924 35.2391C185.53 35.7106 186.24 35.8958 187.426 35.8923C188.538 35.8888 189.504 35.6503 190.366 35.1673C191.083 34.7647 192.044 33.8131 192.544 33.009C193.131 32.0638 193.78 30.0865 194.434 27.2436C194.982 24.8638 195.57 22.2029 195.74 21.3304C195.95 20.2561 195.938 19.4061 195.701 18.6968C195.509 18.1205 194.914 17.284 194.378 16.8375C193.668 16.2465 193.028 16.0256 192.022 16.0256C191.205 16.0256 190.058 16.3288 189.214 16.7676ZM200.071 16.8119C199.243 17.3029 198.443 18.1628 197.912 19.1327C197.448 19.9798 196.969 21.2045 196.848 21.8542C196.724 22.5119 196.788 23.5186 196.99 24.1266C197.19 24.7266 198.006 26.1343 198.803 27.2548C199.893 28.7872 200.252 29.5885 200.252 30.4885C200.252 31.1824 200.023 31.9115 199.707 32.224C199.197 32.7292 199.137 32.7292 198.765 32.225C198.488 31.8494 198.456 31.3795 198.662 30.6692C198.824 30.1096 198.957 29.5426 198.957 29.4093C198.957 29.2756 198.028 29.1667 196.893 29.1667C194.84 29.1667 194.828 29.1721 194.627 30.1683C194.515 30.7192 194.424 31.6638 194.424 32.2676C194.424 32.8712 194.644 33.7865 194.913 34.3013C195.182 34.816 195.682 35.3859 196.025 35.5673C196.368 35.749 197.423 35.8968 198.369 35.8958C199.597 35.8945 200.447 35.6801 201.338 35.1465C202.024 34.7353 203.004 33.7817 203.516 33.0279C204.027 32.2737 204.54 31.1577 204.656 30.5478C204.772 29.9378 204.774 28.776 204.662 27.9663C204.55 27.1567 204.109 25.9054 203.682 25.1862C203.255 24.4667 202.454 23.3176 201.903 22.632C201.351 21.9468 200.9 21.1353 200.9 20.8285C200.9 20.5218 201.116 20.0926 201.381 19.8753C201.646 19.6577 202.099 19.5692 202.388 19.6792C202.795 19.8337 202.865 20.1298 202.701 20.9971L202.489 22.1154H204.585H206.681L206.906 20.3276C207.048 19.2058 206.996 18.2442 206.767 17.7468C206.567 17.3106 205.897 16.7449 205.28 16.4897C204.663 16.2346 203.534 16.0269 202.772 16.0285C201.883 16.0308 200.913 16.3119 200.071 16.8119ZM68.6128 16.5407C68.9039 16.6513 69.1221 17.101 69.1185 17.5824C69.1146 18.0484 68.4775 21.1586 67.702 24.4942C66.6909 28.8433 66.1256 30.6795 65.704 30.9846C65.3806 31.2186 64.8425 31.4103 64.5084 31.4103C64.0774 31.4103 63.9531 31.2474 64.0803 30.8494C64.1791 30.5407 64.9215 27.3317 65.7303 23.7179C66.5387 20.1042 67.2646 16.9673 67.343 16.7468C67.4216 16.5266 67.6243 16.3462 67.7933 16.3462C67.9623 16.3462 68.3311 16.4337 68.6128 16.5407ZM75.4463 16.7468C75.3725 16.9673 74.3782 21.2907 73.2366 26.3548C72.0949 31.4192 71.237 35.6378 71.3302 35.7298C71.4231 35.8221 72.2678 35.8974 73.2071 35.8974C74.1464 35.8974 74.9985 35.7628 75.1012 35.5984C75.2038 35.4343 76.2324 31.1641 77.3867 26.1096C78.5412 21.0548 79.4857 16.7904 79.4857 16.6327C79.4857 16.475 78.6069 16.3462 77.533 16.3462C76.258 16.3462 75.5337 16.4853 75.4463 16.7468ZM109.295 25.5609C108.157 30.6292 107.157 35.0353 107.073 35.3529C106.938 35.8711 107.133 35.9202 108.986 35.8336L111.05 35.7372L113.223 26.282C114.418 21.0817 115.402 16.7186 115.41 16.5865C115.418 16.4545 114.511 16.3462 113.395 16.3462H111.365L109.295 25.5609ZM133.725 16.7468C133.651 16.9673 132.657 21.2907 131.515 26.3548C130.374 31.4192 129.516 35.6378 129.609 35.7298C129.702 35.8221 130.547 35.8974 131.486 35.8974C132.425 35.8974 133.277 35.7628 133.38 35.5984C133.482 35.4343 134.511 31.1641 135.665 26.1096C136.82 21.0548 137.764 16.7904 137.764 16.6327C137.764 16.475 136.886 16.3462 135.812 16.3462C134.537 16.3462 133.812 16.4853 133.725 16.7468ZM16.6742 18.4487C15.5167 18.6958 13.4769 19.4279 12.1414 20.076C10.3144 20.9625 9.07173 21.8965 7.12295 23.8481C5.69836 25.275 4.03742 27.2782 3.43229 28.2997C2.82684 29.3215 1.80696 31.6292 1.1659 33.4279L0 36.6987L0.0103611 42.3077C0.020398 47.7529 0.0511556 48.0058 1.05484 50.9615C1.62338 52.6362 2.63873 54.9378 3.31088 56.0763C3.98303 57.2144 5.50248 59.1615 6.68748 60.4032C7.8728 61.6445 9.64091 63.1365 10.6164 63.7186C11.5923 64.301 13.1208 65.0519 14.0131 65.3875L15.6355 65.9977L20.3716 60.4093C22.9767 57.3356 25.1045 54.7423 25.1003 54.6468C25.0961 54.551 23.599 54.4327 21.7739 54.3836C19.1656 54.3141 18.1082 54.1407 16.8361 53.575C15.9457 53.1788 14.536 52.1923 13.7033 51.3827C12.8621 50.5647 11.783 49.0401 11.275 47.9519C10.4393 46.1622 10.3607 45.676 10.3607 42.3077C10.3607 38.9795 10.4448 38.4439 11.2284 36.7891C11.7056 35.7811 12.7672 34.2462 13.5874 33.3779C14.4405 32.4753 15.8013 31.4804 16.7668 31.0535C18.3772 30.3417 18.8972 30.2994 28.0618 30.1375L37.6688 29.9679L38.5348 29.1667C39.0114 28.726 39.6784 27.8301 40.0171 27.1763C40.4014 26.4346 40.6332 25.3269 40.6332 24.2324C40.6332 23.2673 40.4781 22.0715 40.2887 21.5753C40.0993 21.0792 39.5531 20.2587 39.0746 19.7522C38.5964 19.2458 37.7361 18.6327 37.163 18.3901C36.3594 18.0497 34.139 17.9545 27.4499 17.974C21.3187 17.9923 18.1622 18.1311 16.6742 18.4487ZM161.72 19.9519C161.718 20.1724 161.626 20.8936 161.515 21.5545C161.336 22.6266 161.212 22.7564 160.36 22.7564C159.453 22.7564 159.417 22.7051 159.631 21.7147C159.756 21.142 159.991 20.4208 160.154 20.1122C160.318 19.8035 160.737 19.5513 161.087 19.5513C161.437 19.5513 161.722 19.7317 161.72 19.9519ZM191.834 20.1468C191.834 20.474 191.249 23.3228 190.535 26.4769C189.683 30.2372 189.053 32.3458 188.706 32.6019C188.415 32.8167 188.053 32.9163 187.901 32.8234C187.749 32.7304 187.625 32.2545 187.625 31.7654C187.625 31.2763 188.141 28.5955 188.772 25.8083C189.402 23.0212 190.063 20.4731 190.24 20.1462C190.417 19.8189 190.848 19.5513 191.198 19.5513C191.602 19.5513 191.834 19.7686 191.834 20.1468ZM120.6 26.2019C120.597 26.334 120.31 27.5619 119.961 28.9301C119.613 30.2987 119.173 31.7048 118.983 32.0551C118.794 32.4058 118.434 32.6923 118.184 32.6923C117.934 32.6923 117.644 32.5561 117.54 32.3897C117.436 32.2231 117.59 31.0458 117.883 29.7734C118.223 28.2904 118.686 27.191 119.171 26.7106C119.587 26.2987 120.08 25.9615 120.266 25.9615C120.452 25.9615 120.602 26.0699 120.6 26.2019ZM73.7047 38.8045C73.2854 38.9708 72.521 39.4038 72.0062 39.7667C71.4914 40.1295 70.6976 41.0558 70.2423 41.825C69.677 42.7798 68.8967 45.4945 67.7843 50.3779C66.6961 55.1548 66.2091 57.9433 66.3189 58.7699C66.4189 59.5253 66.834 60.3702 67.3838 60.9385C67.8794 61.4503 68.8016 62.0054 69.4332 62.1721C70.0999 62.3481 71.0864 62.3612 71.7841 62.2035C72.4453 62.0542 73.4632 61.6561 74.0457 61.3192C74.6284 60.9824 75.568 60.1061 76.1333 59.3721C76.8233 58.4769 77.3355 57.2689 77.6894 55.7016C77.9798 54.4167 78.2939 53.1131 78.3874 52.8045C78.5383 52.308 78.3003 52.2436 76.314 52.2436H74.07L73.6533 54.2468C73.424 55.3487 73.0362 56.6468 72.7914 57.1314C72.5275 57.6535 72.0813 58.0128 71.6967 58.0128C71.3396 58.0128 70.965 57.8006 70.8643 57.541C70.7639 57.2817 71.3088 54.2413 72.0755 50.7849C72.8422 47.3285 73.7281 44.0792 74.0444 43.5644C74.3607 43.0494 74.8447 42.6282 75.1203 42.6282C75.3955 42.6282 75.7105 42.8599 75.8202 43.1429C75.93 43.426 75.8041 44.6519 75.5405 45.8673L75.061 48.0769H77.2384H79.4154L79.936 45.7939C80.2226 44.5385 80.457 43.0452 80.457 42.476C80.457 41.9067 80.1248 40.9529 79.7188 40.3564C79.3128 39.7603 78.6205 39.092 78.1809 38.8715C77.7409 38.6513 76.7255 38.4779 75.9242 38.4865C75.1228 38.4952 74.124 38.6381 73.7047 38.8045ZM108.052 39.3314C106.441 39.8013 106.327 39.9054 105.998 41.1994C105.784 42.0404 105.43 42.6263 105.081 42.7167C104.7 42.8151 104.439 43.3192 104.29 44.242C104.137 45.1869 104.191 45.6955 104.461 45.8609C104.758 46.0426 104.481 47.7779 103.333 52.9385C102.496 56.699 101.814 60.241 101.819 60.8099C101.824 61.5452 102.052 61.991 102.609 62.3519C103.103 62.6724 103.909 62.8231 104.794 62.7599C106.183 62.6612 106.201 62.6445 106.589 61.0843C106.913 59.7859 106.904 59.4474 106.538 59.1612C106.168 58.8718 106.34 57.7394 107.574 52.3474C108.738 47.2654 109.175 45.8497 109.614 45.7359C109.98 45.641 110.254 45.1205 110.406 44.2301C110.566 43.2891 110.516 42.7949 110.244 42.6282C109.94 42.4423 109.932 42.0048 110.209 40.7288C110.406 39.817 110.568 39.0061 110.568 38.9266C110.568 38.8471 110.386 38.7936 110.163 38.808C109.94 38.8221 108.991 39.0577 108.052 39.3314ZM60.2754 39.9574C60.1566 40.0747 60.0594 40.4875 60.0594 40.8744C60.0594 41.4545 59.9153 41.5506 59.2387 41.4224C58.7313 41.3263 58.1822 41.4782 57.8008 41.8199C57.4171 42.1638 56.9221 43.5093 56.4924 45.3766C56.1123 47.0285 55.8906 48.6593 56 49.0003C56.1094 49.3413 56.3756 49.6801 56.5912 49.7529C56.8071 49.826 57.6444 49.8272 58.4519 49.7558L59.9202 49.6259L60.9683 44.925C61.5449 42.3397 62.0134 40.116 62.0092 39.984C62.0053 39.8519 61.6621 39.7436 61.2467 39.7436C60.831 39.7436 60.3939 39.8397 60.2754 39.9574ZM67.342 40.1442C67.263 40.3647 66.7576 42.5269 66.2192 44.9497C65.6804 47.3721 65.2398 49.4276 65.2398 49.517C65.2398 49.6064 65.6432 49.6795 66.1366 49.6795C67.024 49.6795 67.0428 49.6362 67.9688 45.4327C68.4836 43.0971 68.9712 40.8615 69.0525 40.4647C69.1762 39.8615 69.0602 39.7436 68.3431 39.7436C67.8717 39.7436 67.421 39.924 67.342 40.1442ZM62.5832 42.2535C62.0924 42.8311 61.6058 44.1109 61.2451 45.7734C60.8316 47.6779 60.7695 48.5551 61.0158 49.0109C61.2017 49.3548 61.6262 49.7215 61.959 49.8263C62.2918 49.9308 62.94 49.875 63.3994 49.7019C63.8585 49.5292 64.4455 49.0567 64.7036 48.6522C64.9613 48.2477 65.2702 47.5923 65.3897 47.1955C65.581 46.5612 65.4913 46.4743 64.6456 46.4743C63.8576 46.4743 63.6199 46.657 63.3272 47.4878C63.131 48.0452 62.8889 48.4205 62.7891 48.3218C62.6894 48.2231 62.705 47.6304 62.8235 47.0048C63.0248 45.942 63.1268 45.8606 64.3737 45.7702C65.671 45.6756 65.716 45.6336 65.9886 44.2609C66.1696 43.3497 66.1463 42.5824 65.9232 42.0974C65.6584 41.5218 65.3178 41.3461 64.4659 41.3461C63.6432 41.3461 63.1544 41.5817 62.5832 42.2535ZM59.0862 45.2029C58.8495 46.4445 58.4665 47.707 58.2347 48.009C57.8902 48.458 57.8128 48.4705 57.8083 48.0769C57.805 47.8125 58.0216 46.6586 58.2897 45.5128C58.5575 44.367 58.8501 43.2285 58.9402 42.983C59.0298 42.7375 59.1963 42.6285 59.3099 42.741C59.4235 42.8532 59.3228 43.9612 59.0862 45.2029ZM84.1939 43.3574C83.4888 43.7526 82.5055 44.6516 82.0085 45.3551C81.3095 46.3449 80.7972 47.9869 79.7469 52.6064C78.5085 58.0522 78.4243 58.6955 78.7931 59.9134C79.0706 60.8298 79.5216 61.4445 80.2316 61.8731C80.8562 62.25 81.8511 62.4981 82.7408 62.4987C83.8132 62.4997 84.6194 62.2465 85.6962 61.5705C86.7728 60.8945 87.406 60.1727 88.016 58.9263C88.4777 57.983 88.9511 56.5987 89.0683 55.8493L89.2817 54.4872H87.3128H85.344L85.0069 55.6891C84.8214 56.3503 84.6689 57.0644 84.6679 57.2766C84.667 57.4888 84.497 58.0295 84.2901 58.4785C84.0835 58.9276 83.6464 59.2949 83.3188 59.2949C82.8962 59.2949 82.7234 59.0574 82.7234 58.4766C82.7234 58.0266 82.9536 56.6564 83.2349 55.4317L83.7465 53.2051H86.7465H89.7466L90.4841 49.725C91.1077 46.7843 91.1618 46.0647 90.8345 45.083C90.6214 44.4439 90.0344 43.6301 89.5303 43.2747C88.91 42.8375 88.1051 42.6298 87.0444 42.6333C86.0239 42.6369 85.0273 42.8901 84.1939 43.3574ZM93.2605 42.9253C93.1585 43.0888 92.1312 47.3798 90.9776 52.4606C89.8243 57.5417 88.8792 61.8859 88.8779 62.1147C88.8756 62.4211 89.4008 62.5054 90.873 62.4352L92.8707 62.3397L94.5821 54.8077C95.5236 50.6651 96.4425 46.9513 96.6244 46.5545C96.8064 46.1577 97.1817 45.8333 97.4582 45.8333C97.7347 45.8333 98.0335 46.0208 98.1222 46.2497C98.2112 46.4788 97.497 50.1205 96.5354 54.3426C95.5738 58.5647 94.8495 62.1276 94.9259 62.2596C95.0024 62.3917 95.8613 62.5 96.8346 62.5C98.3735 62.5 98.6396 62.4061 98.875 61.7788C99.0239 61.382 99.9085 57.6926 100.841 53.5798C102.039 48.2942 102.474 45.7756 102.324 44.9885C102.209 44.3756 101.83 43.5942 101.484 43.2513C101.077 42.8484 100.411 42.6282 99.5989 42.6282C98.8556 42.6282 98.1724 42.8324 97.9237 43.1292C97.5427 43.5836 97.4773 43.5836 97.2202 43.1292C97.0182 42.7715 96.438 42.6282 95.1914 42.6282C94.2315 42.6282 93.3625 42.7619 93.2605 42.9253ZM112.161 42.7083C112.147 42.7522 111.145 47.1154 109.935 52.4038C108.724 57.6923 107.796 62.1276 107.875 62.2596C107.952 62.3917 108.8 62.5 109.758 62.5C110.717 62.5 111.587 62.3625 111.692 62.1942C111.797 62.026 112.663 58.4776 113.617 54.3086C114.66 49.7506 115.559 46.5237 115.872 46.2147C116.274 45.8163 116.478 45.7869 116.777 46.083C117.077 46.3795 117.067 46.9538 116.733 48.6333C116.496 49.8256 116.235 50.9817 116.152 51.2019C116.042 51.4965 116.559 51.6026 118.107 51.6026H120.21L120.731 49.3195C121.018 48.0641 121.252 46.3333 121.252 45.4734C121.252 44.3375 121.075 43.7349 120.605 43.2692C120.186 42.8545 119.525 42.6282 118.734 42.6282C118.061 42.6282 117.187 42.8529 116.791 43.1272C116.14 43.5788 116.072 43.5788 116.072 43.1272C116.072 42.7311 115.672 42.6282 114.129 42.6282C113.061 42.6282 112.175 42.6644 112.161 42.7083ZM125.593 43.4577C124.883 43.9138 123.95 44.7942 123.521 45.4144C123.005 46.1599 122.328 48.2929 121.52 51.7163C120.849 54.5625 120.295 57.6625 120.29 58.6058C120.282 60.1455 120.397 60.4356 121.42 61.4484C122.515 62.532 122.635 62.5708 124.491 62.4378C126.033 62.3276 126.668 62.1038 127.642 61.3295C128.312 60.7958 129.174 59.7952 129.558 59.1061C129.941 58.4167 130.779 55.5128 131.42 52.6532C132.06 49.7936 132.584 46.8583 132.584 46.1308C132.584 45.0535 132.379 44.6051 131.483 43.7179C130.503 42.7477 130.191 42.6282 128.634 42.6282C127.302 42.6282 126.578 42.8256 125.593 43.4577ZM64.135 44.149C64.0305 44.2529 63.8537 44.2478 63.7426 44.1378C63.6319 44.0279 63.6543 43.6792 63.7928 43.3631C64.0337 42.8141 64.0512 42.8144 64.1852 43.3744C64.2626 43.6968 64.24 44.0452 64.135 44.149ZM86.9288 46.5545C86.9269 46.775 86.8349 47.4961 86.7245 48.157C86.5452 49.2324 86.4224 49.359 85.5599 49.359C84.6977 49.359 84.6168 49.2756 84.7955 48.5718C84.9052 48.1388 85.1358 47.4176 85.308 46.9692C85.5013 46.4663 85.8724 46.1538 86.2767 46.1538C86.6374 46.1538 86.9308 46.3343 86.9288 46.5545ZM128.375 47.0939C128.375 47.6109 127.849 50.3154 127.206 53.1035C126.563 55.8917 125.902 58.4253 125.738 58.734C125.573 59.0426 125.22 59.2949 124.954 59.2949C124.688 59.2949 124.395 59.1026 124.304 58.8673C124.213 58.632 124.662 56.0721 125.303 53.1782C125.944 50.2843 126.624 47.5199 126.814 47.0352C127.02 46.5077 127.403 46.1538 127.767 46.1538C128.224 46.1538 128.375 46.3878 128.375 47.0939ZM143.847 52.9647C143.756 55.8535 143.735 55.9276 143.002 55.849C142.438 55.7885 142.276 55.909 142.357 56.3298C142.424 56.6801 142.822 56.9314 143.417 56.9987C144.05 57.0702 144.511 56.9151 144.79 56.5368C145.064 56.166 145.211 54.925 145.211 52.9836C145.211 50.2327 145.162 50 144.576 50C143.997 50 143.932 50.2638 143.847 52.9647ZM151.261 52.1256C150.605 53.2945 150.068 54.5205 150.068 54.85C150.068 55.3458 150.318 55.4487 151.525 55.4487C152.863 55.4487 152.982 55.5141 152.982 56.25C152.982 56.8375 153.154 57.0513 153.629 57.0513C154.064 57.0513 154.277 56.8375 154.277 56.4003C154.277 56.042 154.495 55.666 154.762 55.5647C155.029 55.4631 155.248 55.1792 155.248 54.9336C155.248 54.6881 155.029 54.4872 154.762 54.4872C154.377 54.4872 154.277 54.0244 154.277 52.2436V50H153.366C152.578 50 152.293 50.2888 151.261 52.1256ZM156.631 50.8673C156.238 51.4615 156.057 52.359 156.057 53.7183C156.057 55.2192 156.208 55.866 156.674 56.3766C157.067 56.8064 157.684 57.0513 158.374 57.0513C158.999 57.0513 159.712 56.7987 160.061 56.4532C160.394 56.124 160.76 55.2227 160.875 54.45C160.99 53.6772 160.943 52.5622 160.77 51.9721C160.597 51.382 160.286 50.6971 160.079 50.4497C159.871 50.2022 159.14 50 158.454 50C157.454 50 157.091 50.1727 156.631 50.8673ZM162.824 50.2452C162.628 50.3747 162.291 50.8138 162.074 51.2208C161.847 51.6478 161.771 52.3676 161.894 52.9227C162.03 53.5388 162.395 53.9929 162.909 54.1865C163.35 54.3526 164.065 54.4003 164.498 54.2926C165.076 54.149 165.285 54.2282 165.285 54.5897C165.285 54.8609 165.043 55.3221 164.747 55.6151C164.391 55.9679 163.84 56.1051 163.117 56.0215C162.262 55.9227 162.045 56.0038 162.119 56.3933C162.178 56.701 162.637 56.9311 163.32 56.9955C163.928 57.0532 164.749 56.9292 165.143 56.7199C165.538 56.5109 166.023 55.9885 166.221 55.5586C166.418 55.1292 166.58 54.0231 166.58 53.101C166.58 52.1026 166.376 51.1365 166.076 50.7125C165.708 50.1926 165.248 50.0013 164.376 50.0048C163.718 50.0077 163.02 50.1157 162.824 50.2452ZM168.199 51.8878V53.8074L169.413 53.907C170.524 53.9981 170.627 54.0881 170.627 54.9679C170.627 55.8913 170.572 55.9282 169.237 55.901C168.133 55.8779 167.868 55.9769 167.945 56.3817C168.012 56.7317 168.471 56.9218 169.412 56.9894C170.521 57.0692 170.936 56.9346 171.595 56.2827C172.042 55.8401 172.408 55.133 172.408 54.7115C172.408 54.2904 172.131 53.6974 171.793 53.3945C171.455 53.0917 170.726 52.8308 170.174 52.8154C169.352 52.7923 169.17 52.6542 169.17 52.0529C169.17 51.4186 169.357 51.3054 170.546 51.2202C171.509 51.1513 171.922 50.9776 171.922 50.641C171.922 50.2804 171.456 50.1362 170.06 50.0641L168.199 49.9679V51.8878ZM174.027 51.8878V53.8074L175.241 53.907C176.352 53.9981 176.455 54.0881 176.455 54.9679C176.455 55.8913 176.4 55.9282 175.065 55.901C173.961 55.8779 173.695 55.9769 173.773 56.3817C173.84 56.7317 174.299 56.9218 175.24 56.9894C176.349 57.0692 176.764 56.9346 177.423 56.2827C177.87 55.8401 178.236 55.133 178.236 54.7115C178.236 54.2904 177.959 53.6974 177.621 53.3945C177.282 53.0917 176.554 52.8308 176.002 52.8154C175.18 52.7923 174.998 52.6542 174.998 52.0529C174.998 51.4186 175.185 51.3054 176.374 51.2202C177.337 51.1513 177.75 50.9776 177.75 50.641C177.75 50.2804 177.284 50.1362 175.888 50.0641L174.027 49.9679V51.8878ZM179.531 50.641C179.531 51.1872 179.747 51.282 180.988 51.282C181.789 51.282 182.445 51.3635 182.445 51.4635C182.445 51.5631 181.935 52.7372 181.311 54.0724C180.688 55.408 180.178 56.6346 180.178 56.7981C180.178 56.9618 180.49 57.0497 180.871 56.9936C181.401 56.9151 181.858 56.217 182.814 54.0301C183.501 52.4564 184.064 50.9058 184.064 50.5846C184.064 50.0744 183.775 50 181.797 50C179.747 50 179.531 50.0609 179.531 50.641ZM185.747 50.3846C185.533 50.5961 185.359 50.8804 185.359 51.016C185.359 51.1519 185.905 51.2311 186.573 51.1923C187.671 51.1285 187.787 51.1984 187.787 51.9231C187.787 52.559 187.603 52.7452 186.897 52.8256C186.387 52.884 186.006 53.1237 186.006 53.3865C186.006 53.6526 186.32 53.8461 186.751 53.8461C187.16 53.8461 187.67 54.0192 187.884 54.2308C188.098 54.4423 188.273 54.8721 188.273 55.1862C188.273 55.5234 187.951 55.8369 187.486 55.9522C187.054 56.0596 186.399 56.0529 186.029 55.9368C185.56 55.7894 185.359 55.8663 185.359 56.1942C185.359 56.4516 185.589 56.7497 185.871 56.8567C186.152 56.9638 186.881 57.0513 187.49 57.0513C188.165 57.0513 188.849 56.8013 189.244 56.4102C189.6 56.0577 189.891 55.417 189.891 54.9862C189.891 54.5554 189.597 53.9987 189.237 53.749C188.658 53.3481 188.64 53.2481 189.075 52.8904C189.346 52.6676 189.568 52.1529 189.568 51.7465C189.568 51.3401 189.339 50.7808 189.059 50.5035C188.778 50.226 188.009 50 187.343 50C186.679 50 185.961 50.1731 185.747 50.3846ZM191.575 50.3846C191.361 50.5961 191.186 50.8804 191.186 51.016C191.186 51.1519 191.733 51.2311 192.401 51.1923C193.499 51.1285 193.615 51.1984 193.615 51.9231C193.615 52.559 193.431 52.7452 192.724 52.8256C192.215 52.884 191.834 53.1237 191.834 53.3865C191.834 53.6526 192.148 53.8461 192.579 53.8461C192.988 53.8461 193.498 54.0192 193.712 54.2308C193.926 54.4423 194.1 54.8721 194.1 55.1862C194.1 55.5234 193.779 55.8369 193.314 55.9522C192.882 56.0596 192.226 56.0529 191.857 55.9368C191.388 55.7894 191.186 55.8663 191.186 56.1942C191.186 56.4516 191.417 56.7497 191.699 56.8567C191.98 56.9638 192.709 57.0513 193.318 57.0513C193.993 57.0513 194.677 56.8013 195.072 56.4102C195.428 56.0577 195.719 55.417 195.719 54.9862C195.719 54.5554 195.425 53.9987 195.065 53.749C194.486 53.3481 194.468 53.2481 194.903 52.8904C195.174 52.6676 195.395 52.1529 195.395 51.7465C195.395 51.3401 195.167 50.7808 194.887 50.5035C194.606 50.226 193.837 50 193.171 50C192.507 50 191.789 50.1731 191.575 50.3846ZM201.142 50.3461C200.831 50.526 200.576 50.882 200.576 51.1378C200.576 51.3933 200.658 51.6026 200.759 51.6026C200.86 51.6026 201.213 51.459 201.545 51.2833C201.876 51.1077 202.377 51.0509 202.657 51.1574C202.937 51.2635 203.166 51.6801 203.166 52.0827C203.166 52.4852 202.583 53.5128 201.871 54.3663C201.159 55.2195 200.576 56.1727 200.576 56.4846C200.576 56.9731 200.892 57.0513 202.866 57.0513C204.872 57.0513 205.143 56.9817 205.049 56.4904C204.97 56.0795 204.568 55.9029 203.545 55.8298L202.149 55.7301L203.467 54.3144C204.457 53.251 204.785 52.634 204.785 51.834C204.785 51.2484 204.61 50.5961 204.396 50.3846C204.183 50.1731 203.491 50.0045 202.858 50.0096C202.226 50.0151 201.454 50.1663 201.142 50.3461ZM159.395 52.8676C159.45 53.8276 159.411 54.9455 159.308 55.3516C159.194 55.8019 158.878 56.0897 158.499 56.0897C158.156 56.0897 157.794 55.9574 157.693 55.7958C157.592 55.6343 157.425 54.8769 157.322 54.1131C157.219 53.3493 157.293 52.3176 157.487 51.8208C157.752 51.1417 158.02 50.9426 158.567 51.0195C159.205 51.1093 159.307 51.3372 159.395 52.8676ZM165.088 51.4686C165.196 51.7474 165.285 52.2423 165.285 52.5686C165.285 52.8949 164.986 53.2558 164.622 53.3702C164.257 53.4849 163.747 53.4048 163.489 53.1923C163.23 52.9798 163.018 52.5641 163.018 52.2686C163.018 51.9727 163.193 51.5577 163.407 51.3461C163.621 51.1346 164.042 50.9615 164.344 50.9615C164.645 50.9615 164.98 51.1897 165.088 51.4686ZM152.982 52.8846C152.982 54.4583 152.964 54.4872 151.991 54.4872H151.002L151.911 52.8849C152.411 52.0038 152.856 51.2827 152.901 51.2824C152.945 51.282 152.982 52.0032 152.982 52.8846ZM146.506 54.3269C146.506 54.7378 146.79 54.8244 147.882 54.7458C148.639 54.6917 149.258 54.5032 149.258 54.3269C149.258 54.1506 148.639 53.9622 147.882 53.908C146.79 53.8295 146.506 53.916 146.506 54.3269ZM196.691 54.3269C196.691 54.7378 196.975 54.8244 198.067 54.7458C198.823 54.6917 199.443 54.5032 199.443 54.3269C199.443 54.1506 198.823 53.9622 198.067 53.908C196.975 53.8295 196.691 53.916 196.691 54.3269ZM32.8096 54.4202L30.3282 54.5131L25.507 60.1894C22.8553 63.3112 20.5759 66.0458 20.4416 66.266C20.2544 66.5731 20.7945 66.6667 22.7539 66.6667H25.3104L29.9769 61.149C32.5435 58.1144 34.8403 55.3647 35.0812 55.0388C35.3221 54.7125 35.4678 54.4189 35.405 54.3862C35.3421 54.3535 34.1743 54.3689 32.8096 54.4202ZM42.8578 54.4872L40.3881 54.6474L35.492 60.4644C32.7996 63.6635 30.5963 66.3679 30.5963 66.474C30.5963 66.5798 31.6596 66.6667 32.9589 66.6667C35.269 66.6667 35.347 66.6397 36.4705 65.4647C37.1028 64.8038 39.4628 62.0715 41.7149 59.3929C43.9674 56.7144 45.7018 54.4788 45.5691 54.425C45.4363 54.3711 44.2164 54.399 42.8578 54.4872Z" fill="white"/>
</svg>
