<svg width="274" height="105" viewBox="0 0 274 105" fill="none" xmlns="http://www.w3.org/2000/svg">
<path fill-rule="evenodd" clip-rule="evenodd" d="M20.1441 9.09663C16.6081 14.0892 13.6478 18.4113 13.5659 18.7006C13.4687 19.0439 14.577 19.1756 16.7556 19.0787L20.0939 18.9303L26.6322 9.84375C30.2281 4.84615 33.1807 0.587091 33.1931 0.378606C33.206 0.17012 31.7217 0.00454378 29.8946 0.00959185L26.573 0.0191818L20.1441 9.09663ZM34.007 8.71248C30.6254 13.5041 27.5939 17.8202 27.2708 18.3038C26.7217 19.1236 26.9116 19.1827 30.0875 19.1827H33.4927L39.6765 10.5076C43.0774 5.73613 46.1119 1.42002 46.42 0.916225C46.9476 0.0524993 46.7839 0 43.5677 0H40.1552L34.007 8.71248ZM46.7989 9.78822C43.3359 14.6505 40.5024 18.7531 40.5024 18.9056C40.5024 19.058 42.576 19.1847 45.1098 19.1877C49.0383 19.1918 50.0331 19.3664 51.8602 20.3735C53.0389 21.0232 54.8167 22.5169 55.811 23.6931C56.8054 24.8694 58.125 27.092 58.7439 28.6327C59.3628 30.1734 60.0777 32.9175 60.3327 34.7308C60.6752 37.1655 60.6645 38.9343 60.292 41.4947C60.0143 43.4019 59.2205 46.2838 58.5279 47.9002C57.7989 49.6009 56.3378 51.8241 55.0584 53.1785C53.641 54.6793 52.0668 55.7924 50.6691 56.281C48.962 56.8782 45.9962 57.0433 36.9746 57.0433C27.9197 57.0433 25.2118 57.1947 24.3014 57.7525C23.665 58.1427 22.7195 58.9974 22.2005 59.6526C21.681 60.3074 20.958 61.6845 20.5932 62.7133C20.2281 63.7416 19.9298 65.5064 19.9298 66.6346C19.9298 67.7629 20.2281 69.5277 20.5932 70.556C20.958 71.5848 21.681 72.9619 22.2005 73.6166C22.7195 74.2718 23.665 75.1265 24.3014 75.5167C25.2169 76.0776 27.9964 76.2244 37.5879 76.2184C46.8816 76.2128 50.358 76.0331 52.459 75.4501C53.9668 75.0311 56.5071 73.8801 58.1036 72.8917C59.7001 71.9038 62.1688 69.8563 63.5896 68.3419C65.0104 66.8275 67.0535 64.0288 68.1293 62.1226C69.2055 60.216 70.5762 57.3502 71.1758 55.7535C71.7754 54.1568 72.6746 50.8972 73.1748 48.5105C73.843 45.3191 74.0847 42.5674 74.0885 38.113C74.0915 34.7813 73.8447 30.6923 73.5399 29.0264C73.2356 27.3606 72.4093 24.2237 71.7043 22.0556C70.9992 19.8874 69.47 16.4365 68.3059 14.3865C67.1418 12.3365 64.95 9.32178 63.4358 7.68721C61.9215 6.05315 59.4687 4.00313 57.9857 3.13233C56.5024 2.26103 54.7952 1.41346 54.1922 1.24839C53.1966 0.976298 52.5155 1.76228 46.7989 9.78822ZM84.6479 19.3488C84.6479 19.4851 83.1049 27.716 81.2191 37.6395C79.3333 47.563 77.7903 55.9039 77.7903 56.175C77.7903 56.4794 79.569 56.5819 82.4376 56.4425C86.247 56.2578 87.4642 55.9958 89.1876 54.9897C90.3439 54.3143 91.6854 53.0578 92.1689 52.1966C92.7205 51.2153 93.8799 46.2268 95.2784 38.8192C96.5046 32.3228 97.5079 25.9411 97.5071 24.6376C97.5062 22.8627 97.2465 21.9122 96.4724 20.8516C95.4567 19.4588 95.3478 19.4321 90.0435 19.2675C87.0759 19.1756 84.6479 19.212 84.6479 19.3488ZM101.156 19.8137C101.057 20.161 100.918 20.899 100.848 21.4543C100.734 22.3594 100.998 22.4796 103.399 22.6144C105.372 22.7249 106.079 22.5922 106.084 22.1096C106.087 21.7491 106.206 20.943 106.348 20.3185C106.595 19.2306 106.495 19.1827 103.971 19.1827C102.245 19.1827 101.274 19.4003 101.156 19.8137ZM127.079 20.1353C124.818 20.9541 124.703 21.0803 124.257 23.2408C123.982 24.575 123.518 25.5554 123.119 25.6468C122.748 25.7316 122.322 26.4131 122.17 27.1612C122.019 27.9093 121.795 28.9189 121.672 29.405C121.527 29.982 121.682 30.2885 122.121 30.2885C122.491 30.2885 122.793 30.3647 122.793 30.4581C122.793 30.5515 121.829 35.7 120.65 41.899C119.471 48.0981 118.507 53.5874 118.507 54.0972C118.507 54.6071 118.893 55.4784 119.364 56.0337C119.988 56.7687 120.793 57.0433 122.322 57.0433H124.422L124.948 54.4622C125.377 52.3546 125.369 51.8059 124.905 51.4682C124.448 51.1355 124.707 49.0587 126.229 40.848C127.709 32.865 128.28 30.5929 128.85 30.4172C129.25 30.294 129.7 29.5898 129.849 28.8528C129.998 28.1153 130.22 27.1147 130.343 26.6286C130.493 26.0344 130.33 25.7452 129.847 25.7452C129.317 25.7452 129.192 25.4479 129.369 24.6094C129.501 23.9849 129.74 22.5084 129.899 21.3281C130.059 20.1479 130.02 19.2049 129.813 19.2322C129.606 19.2594 128.375 19.6658 127.079 20.1353ZM148.503 19.8137C148.5 20.161 148.381 20.9561 148.239 21.5805C147.991 22.6669 148.093 22.7163 150.576 22.7163C152.004 22.7163 153.254 22.5457 153.353 22.3377C153.452 22.1298 153.66 21.3347 153.815 20.5709L154.097 19.1827H151.303C149.357 19.1827 148.507 19.374 148.503 19.8137ZM171.011 19.8137C170.909 20.161 169.309 28.4545 167.457 38.2437C165.605 48.0335 164.184 56.1543 164.3 56.2906C164.415 56.4269 165.543 56.5385 166.805 56.5385C168.781 56.5385 169.155 56.3805 169.499 55.4026C169.718 54.7777 171.353 46.517 173.133 37.0453C174.912 27.5736 176.368 19.6799 176.368 19.5032C176.368 19.3271 175.204 19.1827 173.783 19.1827C172.1 19.1827 171.133 19.4028 171.011 19.8137ZM178.303 19.8137C178.204 20.161 178.065 20.899 177.995 21.4543C177.882 22.3504 178.145 22.4811 180.335 22.6154C182.653 22.7577 182.827 22.6871 183.228 21.4468C183.462 20.7208 183.654 19.9142 183.654 19.6547C183.654 19.3952 182.491 19.1827 181.069 19.1827C179.383 19.1827 178.421 19.4023 178.303 19.8137ZM242.372 20.0686C241.075 20.5108 239.879 21.1126 239.714 21.4059C239.549 21.6987 239.291 22.7951 239.14 23.8421C238.944 25.2116 238.653 25.7452 238.103 25.7452C237.537 25.7452 237.264 26.2924 237.052 27.8487C236.858 29.2758 236.934 30.0744 237.288 30.3319C237.681 30.6181 237.315 33.3511 235.795 41.479C234.687 47.4019 233.785 52.9806 233.79 53.8766C233.797 55.0346 234.099 55.7368 234.836 56.3052C235.486 56.807 236.554 57.0468 237.701 56.9479C239.237 56.8161 239.573 56.5894 239.809 55.5288C239.963 54.8347 240.221 53.6419 240.382 52.8786C240.604 51.8225 240.518 51.4904 240.022 51.4904C239.665 51.4904 239.371 51.3824 239.371 51.2501C239.371 51.1173 240.239 46.4802 241.3 40.9444C242.361 35.4082 243.229 30.7726 243.229 30.6428C243.229 30.5126 243.588 30.2955 244.028 30.1602C244.549 29.9997 244.932 29.2516 245.13 28.0082C245.337 26.7154 245.266 25.9804 244.913 25.723C244.565 25.4701 244.483 24.6937 244.667 23.3988C244.818 22.3292 245.062 20.943 245.207 20.3185C245.353 19.6941 245.304 19.2009 245.1 19.2236C244.896 19.2458 243.668 19.6259 242.372 20.0686ZM110.998 25.9441C110.287 26.3091 109.087 27.4368 108.331 28.4505C107.576 29.4636 106.655 31.5197 106.285 33.019C105.892 34.6126 105.733 36.3411 105.903 37.1811C106.064 37.9711 107.028 40.1095 108.046 41.9329C109.064 43.7562 110.079 45.8123 110.302 46.5019C110.524 47.1914 110.608 48.3616 110.488 49.1026C110.367 49.8437 110.009 50.7034 109.692 51.0138C109.375 51.3238 108.893 51.4152 108.62 51.2168C108.29 50.9765 108.217 50.0355 108.402 48.3969L108.679 45.9375H106.079C104 45.9375 103.421 46.1142 103.188 46.8209C103.027 47.307 102.889 49.0284 102.88 50.6474C102.865 53.3652 102.974 53.707 104.314 55.1189C105.664 56.54 105.954 56.6334 108.442 56.4466C110.561 56.2876 111.45 55.9473 112.716 54.8105C113.627 53.9917 114.752 52.2663 115.335 50.7922C115.986 49.144 116.354 47.2959 116.35 45.6851C116.347 44.2383 115.973 42.1954 115.474 40.8985C114.995 39.6542 113.82 37.4153 112.864 35.9231C111.344 33.5526 111.184 33.0578 111.592 32.0018C111.874 31.2718 112.425 30.7933 112.982 30.7933C113.812 30.7933 113.882 30.9982 113.675 32.8125L113.445 34.8317H116.117H118.789L119.282 32.3138C119.609 30.6438 119.638 29.3682 119.366 28.5277C119.141 27.8306 118.325 26.8063 117.553 26.252C116.683 25.6271 115.417 25.251 114.221 25.2621C113.16 25.2717 111.71 25.5786 110.998 25.9441ZM138.84 25.9814C138.383 26.3893 137.852 26.7301 137.661 26.7387C137.471 26.7477 137.434 26.5276 137.58 26.25C137.746 25.933 136.798 25.7452 135.033 25.7452C133.487 25.7452 132.222 25.8356 132.222 25.9456C132.222 26.0557 130.968 32.6929 129.436 40.6951C127.904 48.6968 126.65 55.5354 126.65 55.8913C126.65 56.3451 127.411 56.5385 129.193 56.5385C131.245 56.5385 131.778 56.3678 131.955 55.655C132.076 55.1689 133.163 49.5509 134.372 43.1696C135.58 36.7889 136.771 31.2804 137.019 30.9281C137.268 30.5762 137.715 30.2885 138.015 30.2885C138.314 30.2885 138.659 30.5939 138.781 30.9669C138.902 31.34 138.736 33.1002 138.413 34.8792C138.089 36.6576 137.817 38.5103 137.809 38.9964C137.796 39.7405 138.195 39.8798 140.331 39.8798H142.868L143.507 36.4724C143.859 34.598 144.275 32.3274 144.432 31.4258C144.59 30.5247 144.495 28.9896 144.222 28.0148C143.949 27.04 143.368 26.0168 142.931 25.7412C142.494 25.466 141.582 25.2404 140.904 25.2404C140.227 25.2404 139.298 25.5741 138.84 25.9814ZM159.009 25.828C158.538 26.1344 157.604 26.9795 156.934 27.7059C156.265 28.4323 155.348 29.8695 154.898 30.8993C154.449 31.9296 154.081 33.1219 154.081 33.5495C154.081 34.1538 154.598 34.3269 156.404 34.3269C158.669 34.3269 158.741 34.283 159.211 32.6045C159.477 31.6575 159.981 30.7529 160.332 30.5939C160.69 30.4323 161.082 30.6469 161.224 31.0825C161.363 31.5101 161.308 32.5525 161.101 33.3996C160.786 34.6874 160.273 35.1513 157.97 36.2366C156.426 36.9635 154.529 38.3417 153.655 39.3715C152.535 40.691 151.875 42.1247 151.318 44.4569C150.891 46.2429 150.444 49.1173 150.325 50.8442C150.159 53.2426 150.276 54.286 150.819 55.2613C151.383 56.2765 151.882 56.5385 153.248 56.5385C154.194 56.5385 155.444 56.1715 156.024 55.7232C156.997 54.9725 157.081 54.9725 157.081 55.7232C157.081 56.383 157.571 56.5385 159.652 56.5385C161.067 56.5385 162.224 56.4168 162.224 56.2674C162.224 56.1185 163.285 50.4581 164.581 43.6886C165.878 36.9186 166.938 30.918 166.938 30.3531C166.938 29.7882 166.708 28.7306 166.426 28.0027C166.145 27.2748 165.383 26.3555 164.733 25.9597C164.084 25.564 162.723 25.2475 161.71 25.2555C160.696 25.2641 159.481 25.5216 159.009 25.828ZM190.833 26.0339C190.098 26.5034 189.654 26.5817 189.654 26.2419C189.654 25.8941 188.691 25.7513 186.991 25.8472L184.329 25.9976L181.48 40.8894C179.913 49.0799 178.712 55.9519 178.811 56.1599C178.909 56.3678 180.044 56.5385 181.332 56.5385C183.37 56.5385 183.721 56.3906 184.033 55.4026C184.231 54.7777 185.322 49.2995 186.459 43.2277C187.623 37.012 188.836 31.7388 189.235 31.1582C189.631 30.5833 190.164 30.288 190.442 30.4904C190.716 30.6898 190.94 31.3344 190.94 31.923C190.94 32.5111 189.976 38.0448 188.797 44.2196C187.618 50.3944 186.654 55.6924 186.654 55.9928C186.654 56.3224 187.66 56.5385 189.197 56.5385C191.247 56.5385 191.783 56.3673 191.963 55.655C192.086 55.1689 193.152 49.6887 194.332 43.4761C195.643 36.5723 196.759 31.8125 197.203 31.2345C197.603 30.714 198.08 30.2885 198.264 30.2885C198.447 30.2885 198.698 30.6857 198.822 31.1719C198.945 31.658 198.019 37.3936 196.763 43.9183C195.508 50.4429 194.563 55.9519 194.664 56.1599C194.765 56.3678 195.886 56.5385 197.155 56.5385C198.423 56.5385 199.557 56.3557 199.674 56.1331C199.791 55.91 200.868 50.5146 202.068 44.1439C203.267 37.7727 204.346 32.0406 204.464 31.4056C204.583 30.77 204.475 29.3546 204.224 28.2591C203.974 27.1637 203.402 26.036 202.954 25.7538C202.506 25.4716 201.636 25.2404 201.019 25.2404C200.402 25.2404 199.363 25.566 198.71 25.9643C198.055 26.3626 197.266 27.0501 196.954 27.4923C196.449 28.2087 196.302 28.1299 195.599 26.7684C194.974 25.5589 194.518 25.2444 193.411 25.2606C192.641 25.2717 191.481 25.6195 190.833 26.0339ZM210.616 26.4151C209.577 27.0607 208.198 28.4807 207.552 29.5701C206.666 31.0638 205.956 33.7383 204.659 40.4543C203.714 45.3514 202.941 49.9623 202.941 50.7014C202.941 51.4404 203.229 52.7019 203.581 53.5041C203.933 54.3062 204.651 55.3173 205.177 55.7505C205.738 56.2139 207.029 56.5385 208.31 56.5385C209.976 56.5385 210.947 56.1952 212.448 55.0745C213.879 54.0053 214.705 52.8811 215.509 50.9099C216.115 49.4242 216.741 47.3459 216.899 46.2904L217.188 44.3716L214.49 44.5235L211.792 44.6755L211.215 47.7043C210.898 49.3702 210.324 51.0098 209.941 51.348C209.557 51.6863 209.079 51.8432 208.878 51.6969C208.677 51.5505 208.514 50.7059 208.515 49.82C208.516 48.934 208.69 47.4141 208.902 46.4423C209.113 45.4706 209.405 44.0505 209.55 43.2873L209.814 41.899H213.789H217.764L218.689 36.6561C219.4 32.6267 219.517 30.9982 219.194 29.6211C218.963 28.6357 218.186 27.247 217.467 26.5347C216.512 25.5882 215.67 25.2404 214.333 25.2404C213.246 25.2404 211.739 25.7164 210.616 26.4151ZM228.845 25.9814C228.388 26.3893 227.858 26.7301 227.667 26.7387C227.476 26.7477 227.439 26.5276 227.585 26.25C227.751 25.933 226.804 25.7452 225.039 25.7452C223.493 25.7452 222.227 25.8406 222.227 25.9572C222.227 26.0738 220.974 32.759 219.442 40.8127C217.909 48.8669 216.656 55.7 216.656 55.9973C216.656 56.3214 217.676 56.5385 219.199 56.5385C221.249 56.5385 221.784 56.3678 221.964 55.655C222.086 55.1689 223.151 49.722 224.33 43.5498C225.509 37.378 226.682 31.8695 226.937 31.3082C227.192 30.7473 227.67 30.2885 228 30.2885C228.329 30.2885 228.702 30.6857 228.828 31.1719C228.955 31.658 228.029 37.3936 226.77 43.9183C225.511 50.4429 224.565 55.9519 224.666 56.1599C224.767 56.3678 225.888 56.5385 227.156 56.5385C228.425 56.5385 229.557 56.3588 229.673 56.1392C229.788 55.9196 230.89 50.5247 232.123 44.15C233.356 37.7758 234.37 31.4854 234.379 30.1719C234.39 28.3404 234.157 27.4873 233.379 26.512C232.713 25.6775 231.903 25.2404 231.021 25.2404C230.282 25.2404 229.303 25.5741 228.845 25.9814ZM250.475 26.409C249.188 27.2046 248.173 28.3833 247.291 30.1057C246.316 32.0104 245.586 34.8373 244.333 41.5679C242.864 49.46 242.729 50.7332 243.174 52.4833C243.451 53.5732 244.181 54.9317 244.797 55.5016C245.598 56.2442 246.538 56.5359 248.108 56.5304C249.58 56.5248 250.859 56.1493 252 55.3885C252.95 54.7545 254.221 53.2557 254.883 51.9891C255.661 50.5005 256.519 47.3863 257.385 42.9087C258.11 39.1605 258.889 34.9695 259.115 33.5955C259.393 31.9033 259.377 30.5646 259.063 29.4475C258.809 28.5398 258.02 27.2223 257.311 26.5191C256.372 25.5882 255.524 25.2404 254.193 25.2404C253.111 25.2404 251.592 25.7179 250.475 26.409ZM264.847 26.4787C263.751 27.252 262.693 28.6064 261.99 30.134C261.376 31.4682 260.742 33.3971 260.58 34.4203C260.417 35.4562 260.501 37.0418 260.769 37.9994C261.034 38.9444 262.114 41.1615 263.169 42.9263C264.612 45.3398 265.087 46.6018 265.087 48.0193C265.087 49.1122 264.784 50.2607 264.366 50.7529C263.691 51.5484 263.612 51.5484 263.119 50.7544C262.751 50.1627 262.71 49.4227 262.983 48.304C263.197 47.4226 263.373 46.5296 263.373 46.3196C263.373 46.1091 262.143 45.9375 260.64 45.9375C257.923 45.9375 257.907 45.9461 257.64 47.515C257.493 48.3828 257.372 49.8705 257.372 50.8215C257.372 51.7721 257.664 53.2138 258.02 54.0245C258.376 54.8352 259.038 55.7328 259.492 56.0185C259.945 56.3047 261.342 56.5374 262.594 56.5359C264.221 56.5339 265.346 56.1962 266.525 55.3557C267.433 54.708 268.73 53.2062 269.407 52.0189C270.085 50.8311 270.764 49.0734 270.917 48.1127C271.07 47.1521 271.074 45.3221 270.925 44.047C270.777 42.7719 270.193 40.8011 269.628 39.6683C269.062 38.535 268.002 36.7253 267.272 35.6455C266.542 34.5662 265.944 33.288 265.944 32.8049C265.944 32.3218 266.231 31.6459 266.582 31.3036C266.932 30.9609 267.532 30.8215 267.915 30.9947C268.453 31.238 268.546 31.7044 268.329 33.0705L268.048 34.8317H270.823H273.597L273.896 32.0159C274.083 30.2491 274.015 28.7347 273.712 27.9512C273.446 27.2642 272.56 26.3732 271.743 25.9713C270.926 25.5695 269.432 25.2424 268.422 25.2449C267.246 25.2485 265.962 25.6912 264.847 26.4787ZM90.8274 26.0516C91.2127 26.2258 91.5016 26.934 91.4969 27.6922C91.4917 28.4262 90.6482 33.3249 89.6217 38.5784C88.2832 45.4281 87.5349 48.3202 86.9769 48.8008C86.5487 49.1693 85.8364 49.4712 85.3941 49.4712C84.8236 49.4712 84.659 49.2147 84.8275 48.5877C84.9582 48.1016 85.941 43.0475 87.0116 37.3558C88.0818 31.6641 89.0427 26.7235 89.1464 26.3762C89.2506 26.0294 89.5189 25.7452 89.7426 25.7452C89.9663 25.7452 90.4545 25.883 90.8274 26.0516ZM99.8733 26.3762C99.7756 26.7235 98.4594 33.5329 96.9482 41.5088C95.437 49.4853 94.3012 56.1296 94.4246 56.2745C94.5476 56.4198 95.6658 56.5385 96.9092 56.5385C98.1525 56.5385 99.2806 56.3264 99.4165 56.0675C99.5523 55.809 100.914 49.0835 102.442 41.1226C103.97 33.1613 105.221 26.4449 105.221 26.1965C105.221 25.9481 104.057 25.7452 102.636 25.7452C100.948 25.7452 99.9891 25.9643 99.8733 26.3762ZM144.681 40.2584C143.174 48.2409 141.851 55.1805 141.74 55.6808C141.56 56.4971 141.819 56.5743 144.272 56.438L147.005 56.2861L149.881 41.3942C151.463 33.2037 152.766 26.3318 152.776 26.1238C152.786 25.9158 151.586 25.7452 150.108 25.7452H147.422L144.681 40.2584ZM177.021 26.3762C176.923 26.7235 175.607 33.5329 174.096 41.5088C172.584 49.4853 171.449 56.1296 171.572 56.2745C171.695 56.4198 172.813 56.5385 174.057 56.5385C175.3 56.5385 176.428 56.3264 176.564 56.0675C176.7 55.809 178.061 49.0835 179.589 41.1226C181.118 33.1613 182.368 26.4449 182.368 26.1965C182.368 25.9481 181.205 25.7452 179.783 25.7452C178.095 25.7452 177.137 25.9643 177.021 26.3762ZM22.0727 29.0567C20.5405 29.4459 17.8403 30.5989 16.0724 31.6196C13.6538 33.0159 12.0089 34.4869 9.42913 37.5607C7.54331 39.8081 5.3446 42.9632 4.54356 44.572C3.74208 46.1813 2.392 49.8159 1.54338 52.6489L0 57.8005L0.0137157 66.6346C0.0270022 75.2108 0.0677181 75.6091 1.39637 80.2644C2.14898 82.902 3.49307 86.5271 4.38283 88.3201C5.2726 90.1127 7.284 93.1794 8.85267 95.135C10.4218 97.0902 12.7623 99.4401 14.0537 100.357C15.3455 101.274 17.3689 102.457 18.5501 102.985L20.6978 103.946L26.9673 95.1446C30.4158 90.3035 33.2325 86.2191 33.227 86.0687C33.2214 85.9178 31.2396 85.7315 28.8236 85.6543C25.3708 85.5447 23.971 85.2716 22.287 84.3806C21.1084 83.7567 19.2423 82.2029 18.1399 80.9277C17.0264 79.6395 15.5979 77.2381 14.9255 75.5243C13.8192 72.7054 13.7151 71.9396 13.7151 66.6346C13.7151 61.3927 13.8265 60.5492 14.8637 57.9428C15.4955 56.3552 16.9009 53.9377 17.9865 52.5702C19.1159 51.1486 20.9172 49.5817 22.1953 48.9093C24.3272 47.7881 25.0155 47.7215 37.1473 47.4666L49.8647 47.1995L51.0112 45.9375C51.6421 45.2434 52.525 43.8324 52.9733 42.8026C53.482 41.6345 53.7889 39.8899 53.7889 38.166C53.7889 36.646 53.5836 34.7626 53.3329 33.9811C53.0822 33.1997 52.3591 31.9074 51.7256 31.1098C51.0926 30.3122 49.9538 29.3465 49.1952 28.9644C48.1314 28.4282 45.1921 28.2783 36.3373 28.3091C28.221 28.3379 24.0426 28.5565 22.0727 29.0567ZM214.079 31.4243C214.077 31.7716 213.955 32.9074 213.809 33.9483C213.572 35.6369 213.407 35.8413 212.28 35.8413C211.078 35.8413 211.031 35.7606 211.315 34.2007C211.48 33.2986 211.791 32.1628 212.007 31.6767C212.223 31.1906 212.779 30.7933 213.242 30.7933C213.705 30.7933 214.082 31.0775 214.079 31.4243ZM253.944 31.7312C253.944 32.2466 253.17 36.7333 252.224 41.7012C251.096 47.6236 250.263 50.9447 249.803 51.348C249.418 51.6863 248.939 51.8432 248.737 51.6969C248.536 51.5505 248.372 50.8008 248.372 50.0305C248.372 49.2601 249.055 45.0379 249.89 40.6481C250.725 36.2583 251.6 32.2451 251.834 31.7302C252.068 31.2148 252.639 30.7933 253.101 30.7933C253.636 30.7933 253.944 31.1355 253.944 31.7312ZM159.646 41.268C159.642 41.476 159.262 43.4099 158.801 45.565C158.34 47.7205 157.757 49.9351 157.506 50.4868C157.256 51.0391 156.779 51.4904 156.448 51.4904C156.117 51.4904 155.733 51.2758 155.595 51.0138C155.458 50.7513 155.662 48.8972 156.049 46.8931C156.5 44.5574 157.112 42.8259 157.755 42.0692C158.305 41.4205 158.958 40.8894 159.204 40.8894C159.451 40.8894 159.649 41.0601 159.646 41.268ZM97.5679 61.1171C97.0129 61.3791 96.001 62.0611 95.3195 62.6325C94.638 63.2039 93.5871 64.6628 92.9845 65.8744C92.2362 67.3782 91.2033 71.6539 89.7306 79.3452C88.2901 86.8688 87.6455 91.2607 87.7908 92.5626C87.9232 93.7524 88.4727 95.0831 89.2004 95.9781C89.8566 96.7843 91.0773 97.6586 91.9135 97.9211C92.7959 98.1982 94.1019 98.2189 95.0255 97.9706C95.9007 97.7353 97.2482 97.1083 98.0192 96.5778C98.7907 96.0472 100.035 94.6671 100.783 93.5111C101.696 92.1012 102.374 90.1985 102.843 87.73C103.227 85.7063 103.643 83.6532 103.767 83.1671C103.966 82.3851 103.651 82.2837 101.022 82.2837H98.0514L97.4998 85.4387C97.1963 87.1742 96.6829 89.2187 96.3589 89.982C96.0096 90.8043 95.4189 91.3702 94.9098 91.3702C94.437 91.3702 93.9411 91.036 93.8079 90.6271C93.675 90.2187 94.3963 85.4301 95.4112 79.9863C96.4262 74.5424 97.5988 69.4247 98.0175 68.614C98.4363 67.8027 99.077 67.1394 99.4418 67.1394C99.8061 67.1394 100.223 67.5044 100.368 67.9501C100.514 68.3959 100.347 70.3268 99.9981 72.241L99.3633 75.7212H102.246H105.128L105.817 72.1254C106.196 70.1481 106.506 67.7962 106.506 66.8996C106.506 66.0031 106.067 64.5008 105.529 63.5613C104.992 62.6224 104.075 61.5699 103.493 61.2226C102.911 60.8758 101.567 60.6027 100.506 60.6163C99.4452 60.6299 98.123 60.8551 97.5679 61.1171ZM143.036 61.947C140.904 62.687 140.752 62.8511 140.316 64.889C140.033 66.2136 139.564 67.1364 139.102 67.2788C138.599 67.4337 138.253 68.2278 138.055 69.6811C137.853 71.1693 137.925 71.9704 138.282 72.2309C138.675 72.5171 138.309 75.2502 136.789 83.3781C135.681 89.301 134.779 94.8796 134.784 95.7757C134.791 96.9337 135.093 97.6359 135.83 98.2043C136.485 98.7091 137.551 98.9464 138.723 98.8469C140.561 98.6914 140.585 98.6652 141.1 96.2078C141.528 94.1628 141.516 93.6297 141.032 93.1789C140.541 92.7231 140.769 90.9396 142.403 82.4472C143.943 74.443 144.522 72.2132 145.104 72.034C145.588 71.8846 145.951 71.0648 146.152 69.6625C146.364 68.1803 146.298 67.4019 145.937 67.1394C145.535 66.8466 145.524 66.1576 145.891 64.1479C146.152 62.7118 146.366 61.4346 146.366 61.3094C146.366 61.1842 146.125 61.0999 145.83 61.1226C145.536 61.1448 144.278 61.5159 143.036 61.947ZM79.7906 62.9329C79.6333 63.1176 79.5047 63.7678 79.5047 64.3771C79.5047 65.2908 79.314 65.4423 78.4182 65.2403C77.7466 65.0889 77.0197 65.3282 76.5148 65.8663C76.0069 66.408 75.3516 68.5271 74.7829 71.4681C74.2797 74.0699 73.9861 76.6384 74.131 77.1755C74.2758 77.7126 74.6281 78.2462 74.9136 78.3608C75.1995 78.4759 76.3078 78.4779 77.3767 78.3653L79.3204 78.1609L80.7078 70.7569C81.4711 66.6851 82.0913 63.1827 82.0857 62.9748C82.0806 62.7668 81.6263 62.5962 81.0764 62.5962C80.5261 62.5962 79.9475 62.7476 79.7906 62.9329ZM89.1451 63.2272C89.0406 63.5745 88.3715 66.9799 87.6588 70.7957C86.9456 74.6111 86.3623 77.8484 86.3623 77.9893C86.3623 78.1301 86.8963 78.2452 87.5495 78.2452C88.7243 78.2452 88.7491 78.177 89.9749 71.5565C90.6564 67.878 91.3018 64.3569 91.4094 63.732C91.5731 62.7819 91.4197 62.5962 90.4704 62.5962C89.8463 62.5962 89.2497 62.8804 89.1451 63.2272ZM82.8456 66.5493C82.1959 67.459 81.5517 69.4747 81.0742 72.0931C80.5269 75.0927 80.4446 76.4743 80.7708 77.1922C81.0168 77.7338 81.5787 78.3113 82.0193 78.4764C82.4599 78.641 83.3179 78.5531 83.9261 78.2805C84.5339 78.0084 85.3109 77.2644 85.6525 76.6273C85.9937 75.9902 86.4026 74.9579 86.5607 74.3329C86.814 73.3339 86.6953 73.1971 85.5758 73.1971C84.5326 73.1971 84.218 73.4849 83.8305 74.7933C83.5708 75.6712 83.2502 76.2623 83.1182 76.1068C82.9862 75.9514 83.0068 75.018 83.1637 74.0326C83.4302 72.3586 83.5652 72.2304 85.2158 72.0881C86.9332 71.9391 86.9927 71.873 87.3536 69.7109C87.5932 68.2757 87.5623 67.0672 87.267 66.3035C86.9164 65.3968 86.4656 65.1202 85.3379 65.1202C84.2489 65.1202 83.6017 65.4912 82.8456 66.5493ZM78.2164 71.1946C77.9031 73.1502 77.396 75.1386 77.0891 75.6141C76.6331 76.3214 76.5307 76.3411 76.5247 75.7212C76.5204 75.3047 76.8071 73.4874 77.162 71.6827C77.5165 69.878 77.9039 68.0849 78.0231 67.6982C78.1418 67.3116 78.3621 67.1399 78.5125 67.3171C78.663 67.4938 78.5297 69.2389 78.2164 71.1946ZM111.453 68.2879C110.52 68.9103 109.218 70.3263 108.56 71.4343C107.635 72.9932 106.957 75.5793 105.566 82.8551C103.927 91.4323 103.816 92.4454 104.304 94.3637C104.671 95.8069 105.268 96.7752 106.208 97.4501C107.035 98.0438 108.352 98.4345 109.53 98.4355C110.949 98.437 112.016 98.0382 113.442 96.9736C114.867 95.9089 115.705 94.7721 116.513 92.8089C117.124 91.3232 117.751 89.143 117.906 87.9627L118.188 85.8173H115.582H112.976L112.529 87.7103C112.284 88.7518 112.082 89.8765 112.081 90.2107C112.079 90.5448 111.854 91.3964 111.58 92.1037C111.307 92.8109 110.728 93.3894 110.295 93.3894C109.735 93.3894 109.506 93.0154 109.506 92.1007C109.506 91.3919 109.811 89.2339 110.184 87.305L110.861 83.7981H114.832H118.804L119.78 78.3169C120.605 73.6853 120.677 72.552 120.244 71.0057C119.962 69.9992 119.185 68.7175 118.517 68.1576C117.696 67.4691 116.631 67.142 115.227 67.1475C113.876 67.1531 112.556 67.5519 111.453 68.2879ZM123.455 67.6074C123.32 67.8648 121.96 74.6232 120.433 82.6254C118.906 90.6281 117.655 97.4703 117.654 97.8307C117.651 98.3133 118.346 98.4461 120.295 98.3355L122.939 98.1851L125.205 86.3221C126.451 79.7975 127.667 73.9483 127.908 73.3233C128.149 72.6984 128.646 72.1875 129.012 72.1875C129.378 72.1875 129.774 72.4828 129.891 72.8432C130.009 73.2042 129.063 78.9398 127.79 85.5896C126.518 92.2395 125.559 97.8509 125.66 98.0589C125.761 98.2669 126.898 98.4375 128.186 98.4375C130.224 98.4375 130.576 98.2896 130.887 97.3017C131.085 96.6767 132.256 90.8659 133.49 84.3882C135.076 76.0634 135.651 72.0966 135.454 70.8568C135.3 69.8916 134.8 68.6609 134.341 68.1208C133.802 67.4862 132.921 67.1394 131.846 67.1394C130.862 67.1394 129.957 67.461 129.628 67.9284C129.124 68.6443 129.037 68.6443 128.697 67.9284C128.429 67.3651 127.661 67.1394 126.011 67.1394C124.741 67.1394 123.59 67.3499 123.455 67.6074ZM148.475 67.2656C148.457 67.3348 147.13 74.2067 145.528 82.5361C143.925 90.8654 142.697 97.8509 142.801 98.0589C142.904 98.2669 144.026 98.4375 145.294 98.4375C146.563 98.4375 147.715 98.2209 147.854 97.9559C147.993 97.6909 149.14 92.1022 150.403 85.5361C151.784 78.3573 152.974 73.2749 153.387 72.7882C153.919 72.1607 154.19 72.1143 154.586 72.5808C154.982 73.0477 154.969 73.9523 154.528 76.5975C154.214 78.4754 153.868 80.2962 153.759 80.643C153.613 81.107 154.297 81.274 156.346 81.274H159.131L159.82 77.6783C160.199 75.701 160.51 72.975 160.51 71.6206C160.51 69.8316 160.275 68.8825 159.652 68.149C159.098 67.4958 158.224 67.1394 157.176 67.1394C156.286 67.1394 155.128 67.4933 154.605 67.9254C153.742 68.6367 153.652 68.6367 153.652 67.9254C153.652 67.3015 153.122 67.1394 151.08 67.1394C149.666 67.1394 148.494 67.1965 148.475 67.2656ZM166.257 68.4459C165.316 69.1642 164.081 70.5509 163.514 71.5277C162.83 72.7019 161.933 76.0614 160.864 81.4532C159.975 85.9359 159.243 90.8184 159.236 92.3041C159.225 94.7292 159.378 95.186 160.732 96.7812C162.181 98.488 162.34 98.5491 164.797 98.3396C166.838 98.1659 167.68 97.8136 168.968 96.5939C169.856 95.7534 170.997 94.1774 171.505 93.0921C172.012 92.0063 173.121 87.4327 173.969 82.9288C174.817 78.4249 175.51 73.8019 175.51 72.656C175.51 70.9593 175.24 70.2531 174.053 68.8558C172.756 67.3277 172.342 67.1394 170.282 67.1394C168.518 67.1394 167.56 67.4504 166.257 68.4459ZM84.8999 69.5347C84.7615 69.6983 84.5274 69.6902 84.3804 69.5171C84.2339 69.3439 84.2634 68.7947 84.4469 68.2969C84.7658 67.4322 84.7889 67.4327 84.9663 68.3146C85.0688 68.8225 85.0388 69.3712 84.8999 69.5347ZM115.074 73.3233C115.071 73.6706 114.949 74.8064 114.803 75.8474C114.566 77.541 114.403 77.7404 113.261 77.7404C112.12 77.7404 112.013 77.6091 112.25 76.5006C112.395 75.8186 112.7 74.6828 112.928 73.9765C113.184 73.1845 113.675 72.6923 114.21 72.6923C114.688 72.6923 115.076 72.9765 115.074 73.3233ZM169.939 74.1729C169.939 74.9872 169.242 79.2467 168.391 83.6381C167.54 88.0294 166.665 92.0199 166.447 92.506C166.23 92.9921 165.762 93.3894 165.41 93.3894C165.057 93.3894 164.67 93.0865 164.549 92.716C164.429 92.3455 165.024 88.3136 165.873 83.7557C166.721 79.1978 167.621 74.8438 167.872 74.0805C168.145 73.2496 168.652 72.6923 169.133 72.6923C169.739 72.6923 169.939 73.0608 169.939 74.1729ZM190.42 83.4195C190.3 87.9693 190.272 88.0859 189.301 87.9622C188.555 87.8668 188.341 88.0566 188.448 88.7194C188.536 89.2712 189.064 89.667 189.851 89.773C190.689 89.8856 191.299 89.6412 191.669 89.0456C192.031 88.4615 192.226 86.5069 192.226 83.4493C192.226 79.1165 192.16 78.75 191.385 78.75C190.618 78.75 190.532 79.1655 190.42 83.4195ZM200.234 82.0979C199.366 83.9389 198.655 85.8698 198.655 86.3888C198.655 87.1697 198.986 87.3317 200.583 87.3317C202.355 87.3317 202.512 87.4347 202.512 88.5938C202.512 89.5191 202.74 89.8558 203.369 89.8558C203.945 89.8558 204.226 89.5191 204.226 88.8305C204.226 88.2661 204.516 87.674 204.869 87.5145C205.223 87.3545 205.512 86.9072 205.512 86.5205C205.512 86.1338 205.223 85.8173 204.869 85.8173C204.359 85.8173 204.226 85.0884 204.226 82.2837V78.75H203.02C201.978 78.75 201.6 79.2048 200.234 82.0979ZM207.344 80.116C206.823 81.0519 206.584 82.4654 206.584 84.6063C206.584 86.9703 206.783 87.989 207.4 88.7932C207.92 89.4701 208.737 89.8558 209.65 89.8558C210.478 89.8558 211.422 89.458 211.884 88.9138C212.324 88.3954 212.809 86.9758 212.961 85.7588C213.113 84.5417 213.051 82.7854 212.822 81.8561C212.593 80.9267 212.181 79.848 211.907 79.4582C211.632 79.0685 210.664 78.75 209.756 78.75C208.433 78.75 207.952 79.0221 207.344 80.116ZM215.541 79.1362C215.282 79.3401 214.835 80.0317 214.548 80.6728C214.247 81.3452 214.147 82.479 214.31 83.3533C214.49 84.3236 214.973 85.0389 215.654 85.3438C216.237 85.6053 217.184 85.6805 217.757 85.5109C218.522 85.2847 218.799 85.4094 218.799 85.9789C218.799 86.4059 218.478 87.1323 218.086 87.5937C217.615 88.1495 216.885 88.3656 215.928 88.2338C214.798 88.0783 214.51 88.2061 214.608 88.8194C214.686 89.304 215.293 89.6665 216.198 89.7679C217.003 89.8588 218.089 89.6634 218.611 89.3338C219.134 89.0047 219.775 88.1818 220.037 87.5049C220.299 86.8284 220.513 85.0864 220.513 83.634C220.513 82.0615 220.243 80.5401 219.846 79.8722C219.359 79.0534 218.75 78.752 217.596 78.7576C216.725 78.7621 215.801 78.9322 215.541 79.1362ZM222.656 81.7233V84.7466L224.263 84.9036C225.734 85.047 225.871 85.1888 225.871 86.5745C225.871 88.0289 225.798 88.0869 224.031 88.044C222.569 88.0077 222.218 88.1637 222.32 88.8012C222.409 89.3525 223.017 89.6518 224.262 89.7583C225.73 89.884 226.279 89.672 227.152 88.6452C227.744 87.9481 228.228 86.8345 228.228 86.1707C228.228 85.5074 227.861 84.5735 227.414 84.0964C226.966 83.6194 226.002 83.2085 225.271 83.1842C224.182 83.1479 223.942 82.9303 223.942 81.9833C223.942 80.9843 224.189 80.8061 225.763 80.6718C227.038 80.5633 227.585 80.2897 227.585 79.7596C227.585 79.1917 226.968 78.9645 225.121 78.851L222.656 78.6995V81.7233ZM230.371 81.7233V84.7466L231.978 84.9036C233.449 85.047 233.585 85.1888 233.585 86.5745C233.585 88.0289 233.512 88.0869 231.746 88.044C230.284 88.0077 229.932 88.1637 230.035 88.8012C230.124 89.3525 230.731 89.6518 231.977 89.7583C233.445 89.884 233.994 89.672 234.866 88.6452C235.458 87.9481 235.943 86.8345 235.943 86.1707C235.943 85.5074 235.576 84.5735 235.129 84.0964C234.681 83.6194 233.716 83.2085 232.986 83.1842C231.897 83.1479 231.657 82.9303 231.657 81.9833C231.657 80.9843 231.904 80.8061 233.478 80.6718C234.753 80.5633 235.3 80.2897 235.3 79.7596C235.3 79.1917 234.683 78.9645 232.835 78.851L230.371 78.6995V81.7233ZM237.657 79.7596C237.657 80.6198 237.943 80.7692 239.586 80.7692C240.646 80.7692 241.514 80.8975 241.514 81.055C241.514 81.2119 240.839 83.0611 240.014 85.1641C239.189 87.2676 238.514 89.1995 238.514 89.457C238.514 89.7149 238.927 89.8533 239.431 89.7649C240.132 89.6412 240.738 88.5418 242.003 85.0975C242.913 82.6188 243.657 80.1766 243.657 79.6708C243.657 78.8671 243.275 78.75 240.657 78.75C237.943 78.75 237.657 78.8459 237.657 79.7596ZM245.886 79.3558C245.603 79.6889 245.372 80.1367 245.372 80.3502C245.372 80.5643 246.095 80.689 246.979 80.6279C248.433 80.5274 248.586 80.6375 248.586 81.7788C248.586 82.7804 248.343 83.0737 247.408 83.2004C246.733 83.2923 246.229 83.6699 246.229 84.0838C246.229 84.5028 246.645 84.8077 247.215 84.8077C247.757 84.8077 248.432 85.0803 248.715 85.4135C248.998 85.7466 249.229 86.4236 249.229 86.9183C249.229 87.4494 248.803 87.9431 248.188 88.1248C247.616 88.2939 246.748 88.2833 246.26 88.1006C245.638 87.8683 245.372 87.9895 245.372 88.5059C245.372 88.9113 245.677 89.3808 246.05 89.5494C246.423 89.718 247.387 89.8558 248.193 89.8558C249.086 89.8558 249.992 89.462 250.515 88.8462C250.986 88.2909 251.372 87.2818 251.372 86.6033C251.372 85.9248 250.982 85.048 250.505 84.6547C249.74 84.0232 249.715 83.8657 250.291 83.3024C250.65 82.9515 250.943 82.1408 250.943 81.5007C250.943 80.8606 250.64 79.9797 250.27 79.5431C249.899 79.1059 248.88 78.75 247.999 78.75C247.12 78.75 246.169 79.0226 245.886 79.3558ZM253.601 79.3558C253.318 79.6889 253.086 80.1367 253.086 80.3502C253.086 80.5643 253.81 80.689 254.694 80.6279C256.147 80.5274 256.301 80.6375 256.301 81.7788C256.301 82.7804 256.057 83.0737 255.122 83.2004C254.448 83.2923 253.944 83.6699 253.944 84.0838C253.944 84.5028 254.359 84.8077 254.929 84.8077C255.472 84.8077 256.147 85.0803 256.43 85.4135C256.712 85.7466 256.944 86.4236 256.944 86.9183C256.944 87.4494 256.518 87.9431 255.903 88.1248C255.331 88.2939 254.463 88.2833 253.975 88.1006C253.353 87.8683 253.086 87.9895 253.086 88.5059C253.086 88.9113 253.392 89.3808 253.764 89.5494C254.137 89.718 255.102 89.8558 255.907 89.8558C256.801 89.8558 257.707 89.462 258.23 88.8462C258.701 88.2909 259.087 87.2818 259.087 86.6033C259.087 85.9248 258.697 85.048 258.22 84.6547C257.455 84.0232 257.43 83.8657 258.006 83.3024C258.365 82.9515 258.658 82.1408 258.658 81.5007C258.658 80.8606 258.355 79.9797 257.985 79.5431C257.613 79.1059 256.595 78.75 255.713 78.75C254.834 78.75 253.884 79.0226 253.601 79.3558ZM266.266 79.2952C265.854 79.5784 265.516 80.1392 265.516 80.5421C265.516 80.9444 265.625 81.274 265.758 81.274C265.892 81.274 266.36 81.0479 266.799 80.7713C267.237 80.4946 267.9 80.4053 268.271 80.5729C268.641 80.7399 268.945 81.3962 268.945 82.0302C268.945 82.6643 268.173 84.2827 267.23 85.627C266.287 86.9708 265.516 88.4721 265.516 88.9633C265.516 89.7326 265.934 89.8558 268.547 89.8558C271.203 89.8558 271.561 89.7462 271.437 88.9724C271.332 88.3252 270.8 88.047 269.446 87.9319L267.598 87.775L269.343 85.5452C270.653 83.8703 271.088 82.8985 271.088 81.6385C271.088 80.7162 270.856 79.6889 270.573 79.3558C270.29 79.0226 269.374 78.7571 268.537 78.7651C267.7 78.7737 266.678 79.012 266.266 79.2952ZM211.002 83.2665C211.075 84.7784 211.023 86.5392 210.887 87.1788C210.736 87.888 210.318 88.3414 209.815 88.3414C209.362 88.3414 208.882 88.1329 208.749 87.8784C208.615 87.624 208.394 86.4311 208.257 85.2282C208.121 84.0252 208.219 82.4003 208.476 81.6178C208.827 80.5481 209.182 80.2346 209.906 80.3558C210.751 80.4971 210.886 80.8561 211.002 83.2665ZM218.539 81.063C218.682 81.5022 218.799 82.2816 218.799 82.7955C218.799 83.3094 218.404 83.8778 217.921 84.0581C217.438 84.2388 216.763 84.1126 216.421 83.7779C216.078 83.4432 215.799 82.7885 215.799 82.323C215.799 81.8571 216.03 81.2034 216.313 80.8702C216.596 80.537 217.154 80.2644 217.553 80.2644C217.952 80.2644 218.395 80.6238 218.539 81.063ZM202.512 83.2933C202.512 85.7719 202.488 85.8173 201.201 85.8173H199.891L201.094 83.2938C201.756 81.9061 202.346 80.7702 202.405 80.7697C202.464 80.7692 202.512 81.905 202.512 83.2933ZM193.94 85.5649C193.94 86.2121 194.316 86.3484 195.762 86.2247C196.763 86.1394 197.583 85.8426 197.583 85.5649C197.583 85.2873 196.763 84.9904 195.762 84.9051C194.316 84.7814 193.94 84.9177 193.94 85.5649ZM260.373 85.5649C260.373 86.2121 260.748 86.3484 262.194 86.2247C263.196 86.1394 264.016 85.8426 264.016 85.5649C264.016 85.2873 263.196 84.9904 262.194 84.9051C260.748 84.7814 260.373 84.9177 260.373 85.5649ZM43.4323 85.7118L40.1475 85.8582L33.7653 94.7983C30.2551 99.7152 27.2378 104.022 27.0599 104.369C26.8122 104.853 27.5271 105 30.1209 105H33.5051L39.6825 96.3097C43.08 91.5302 46.1205 87.1995 46.4393 86.6861C46.7582 86.1722 46.9511 85.7098 46.8679 85.6583C46.7848 85.6068 45.2388 85.631 43.4323 85.7118ZM56.7338 85.8173L53.4645 86.0697L46.9832 95.2315C43.419 100.27 40.5024 104.53 40.5024 104.697C40.5024 104.863 41.9099 105 43.6299 105C46.6879 105 46.7912 104.958 48.2784 103.107C49.1155 102.066 52.2395 97.7626 55.2209 93.5439C58.2026 89.3252 60.4986 85.8042 60.3229 85.7194C60.1471 85.6346 58.5322 85.6785 56.7338 85.8173Z" fill="white"/>
</svg>
