<svg width="65" height="65" viewBox="0 0 65 65" fill="none" xmlns="http://www.w3.org/2000/svg">
<path d="M32.5 0C14.5505 0 0 14.5505 0 32.5C0 50.4495 14.5505 65 32.5 65C50.4495 65 65 50.4495 65 32.5C65 14.5505 50.4495 0 32.5 0ZM45.7201 26.6229C45.7336 26.9005 45.737 27.1781 45.737 27.449C45.737 35.9125 39.3013 45.6659 27.5268 45.6659C24.0476 45.6717 20.6408 44.6724 17.7159 42.7883C18.2135 42.8492 18.7247 42.8729 19.2427 42.8729C22.2422 42.8729 25.0013 41.8539 27.1917 40.1341C25.8569 40.1079 24.5635 39.6659 23.4918 38.8697C22.4201 38.0735 21.6235 36.9628 21.213 35.6924C22.1716 35.8747 23.1591 35.8365 24.1008 35.5807C22.652 35.2878 21.3491 34.5027 20.4131 33.3588C19.477 32.2148 18.9655 30.7823 18.9651 29.3042V29.2263C19.8284 29.7036 20.8169 29.9948 21.8664 30.0286C20.5082 29.1245 19.5467 27.7356 19.1785 26.146C18.8104 24.5564 19.0635 22.8863 19.8859 21.4771C21.4939 23.4542 23.4991 25.0715 25.7717 26.2245C28.0444 27.3774 30.5338 28.0403 33.0789 28.1701C32.7553 26.7966 32.8946 25.3548 33.475 24.0686C34.0555 22.7825 35.0446 21.7242 36.2885 21.0582C37.5325 20.3922 38.9616 20.1558 40.3538 20.3859C41.746 20.6159 43.0231 21.2994 43.9867 22.3302C45.4193 22.0468 46.7932 21.5213 48.0492 20.7763C47.5717 22.2596 46.5721 23.5191 45.2359 24.3208C46.5049 24.168 47.7441 23.8268 48.9125 23.3086C48.0542 24.5947 46.9731 25.7171 45.7201 26.6229V26.6229Z" fill="white"/>
</svg>
