<svg width="38" height="32" viewBox="0 0 38 32" fill="none" xmlns="http://www.w3.org/2000/svg">
<path d="M37.9851 22.6277V17.2569C37.9851 16.457 37.7141 15.6571 37.3066 14.9715L33.2462 9.14357C32.839 8.45793 31.8892 8.00084 30.9394 8.00084H24.833C23.8832 8.00084 23.0688 8.68648 23.0688 9.48638V21.7136H21.7118V5.71539C21.7118 4.45839 20.4907 3.42993 18.9978 3.42993H0V23.999H4.07097C4.74946 22.0564 6.78494 20.5708 9.36305 20.5708C11.9415 20.5708 14.1125 22.0564 14.6555 23.999H24.5616C25.2401 22.0564 27.2756 20.5708 29.8537 20.5708C32.025 20.5708 33.7888 21.5993 34.6031 23.0848C35.0103 23.6562 35.6785 23.999 36.357 23.999C37.3066 23.999 38.1209 23.3134 37.9851 22.6277ZM25.7828 15.9999V10.2863H31.2107L35.1458 15.9999H25.7828Z" fill="white"/>
<path d="M29.8538 21.7136C27.547 21.7136 25.7829 23.1992 25.7829 25.1418C25.7829 27.0844 27.547 28.57 29.8538 28.57C32.1606 28.57 33.9248 27.0844 33.9248 25.1418C33.9248 23.1992 32.1606 21.7136 29.8538 21.7136ZM29.8538 26.7416C28.7682 26.7416 27.9542 26.056 27.9542 25.1418C27.9542 24.2276 28.7682 23.542 29.8538 23.542C30.9395 23.542 31.7534 24.2276 31.7534 25.1418C31.7534 26.056 30.9395 26.7416 29.8538 26.7416Z" fill="white"/>
<path d="M9.49897 21.7136C7.19218 21.7136 5.42801 23.1992 5.42801 25.1418C5.42801 27.0844 7.19218 28.57 9.49897 28.57C11.8058 28.57 13.5699 27.0844 13.5699 25.1418C13.5699 23.1992 11.8058 21.7136 9.49897 21.7136ZM9.49897 26.7416C8.4133 26.7416 7.59936 26.056 7.59936 25.1418C7.59936 24.2276 8.41338 23.542 9.49897 23.542C10.5846 23.542 11.3986 24.2276 11.3986 25.1418C11.3986 26.056 10.5846 26.7416 9.49897 26.7416Z" fill="white"/>
<path d="M9.49896 25.713C9.87368 25.713 10.1775 25.4572 10.1775 25.1417C10.1775 24.8261 9.87368 24.5703 9.49896 24.5703C9.12424 24.5703 8.82047 24.8261 8.82047 25.1417C8.82047 25.4572 9.12424 25.713 9.49896 25.713Z" fill="#EBE7E7"/>
<path d="M29.8538 25.713C30.2285 25.713 30.5322 25.4572 30.5322 25.1417C30.5322 24.8261 30.2285 24.5703 29.8538 24.5703C29.479 24.5703 29.1753 24.8261 29.1753 25.1417C29.1753 25.4572 29.479 25.713 29.8538 25.713Z" fill="white"/>
</svg>
