<svg width="25" height="25" viewBox="0 0 25 25" fill="none" xmlns="http://www.w3.org/2000/svg">
<g id="editar 1" clip-path="url(#clip0)">
<path id="Vector" d="M23.074 15.7049C22.7301 15.7049 22.4514 15.9836 22.4514 16.3276V21.8558C22.4502 22.8871 21.6147 23.7227 20.5835 23.7237H3.11315C2.08192 23.7227 1.24648 22.8871 1.24526 21.8558V5.63073C1.24648 4.59974 2.08192 3.76405 3.11315 3.76284H8.64142C8.98532 3.76284 9.26405 3.48411 9.26405 3.14021C9.26405 2.79655 8.98532 2.51758 8.64142 2.51758H3.11315C1.39459 2.51952 0.00194572 3.91217 0 5.63073V21.8561C0.00194572 23.5746 1.39459 24.9673 3.11315 24.9692H20.5835C22.3021 24.9673 23.6947 23.5746 23.6966 21.8561V16.3276C23.6966 15.9836 23.4179 15.7049 23.074 15.7049Z" fill="#A7A7A7"/>
<path id="Vector_2" d="M23.4501 0.915394C22.3559 -0.178829 20.5819 -0.178829 19.4876 0.915394L8.37953 12.0235C8.3034 12.0996 8.24843 12.194 8.21974 12.2976L6.75899 17.5712C6.69891 17.7874 6.75996 18.019 6.91854 18.1778C7.07736 18.3364 7.3089 18.3974 7.52511 18.3376L12.7987 16.8766C12.9023 16.8479 12.9967 16.7929 13.0728 16.7168L24.1807 5.60846C25.2732 4.51351 25.2732 2.74096 24.1807 1.64601L23.4501 0.915394ZM9.73618 12.4282L18.8273 3.33684L21.7593 6.26879L12.6679 15.3602L9.73618 12.4282ZM9.15052 13.6034L11.4929 15.9461L8.25281 16.8438L9.15052 13.6034ZM23.3003 4.72803L22.6399 5.38835L19.7077 2.45616L20.3683 1.79583C20.9761 1.18804 21.9616 1.18804 22.5694 1.79583L23.3003 2.52645C23.9071 3.13497 23.9071 4.11975 23.3003 4.72803Z" fill="#A7A7A7"/>
</g>
<defs>
<clipPath id="clip0">
<rect width="25" height="25" fill="white"/>
</clipPath>
</defs>
</svg>
