<svg width="499" height="307" viewBox="0 0 499 307" fill="none" xmlns="http://www.w3.org/2000/svg">
<g clip-path="url(#clip0)">
<path opacity="0.1" d="M499 197.179C499.008 205.497 498.002 213.785 496.004 221.859C495.332 224.579 494.551 227.243 493.662 229.851C492.573 233.069 491.311 236.227 489.882 239.309C489.162 240.869 488.401 242.397 487.599 243.894C487.612 252.424 485.856 260.863 482.443 268.68C476.272 282.704 465.269 294.043 451.439 300.631C442.792 304.758 433.342 306.928 423.761 306.987H94.7267C80.0873 307.019 65.7008 303.172 53.0297 295.838L52.8348 295.728C51.03 294.672 49.2704 293.553 47.556 292.372C43.6986 289.707 40.0745 286.718 36.7229 283.439C32.1865 279.005 28.1891 274.051 24.8137 268.68C16.886 256.089 12.6864 241.51 12.7011 226.63C4.6727 212.54 -0.00878906 195.662 -0.00878906 177.525C-0.00878906 154.642 7.43075 133.768 19.6535 117.966C22.2017 114.665 24.9929 111.558 28.0039 108.673C30.9748 105.818 34.168 103.203 37.5533 100.855C40.2618 98.9734 43.0924 97.2746 46.0265 95.7695C47.2509 95.1466 48.4796 94.5575 49.7294 94.0109C50.8267 93.5236 51.9367 93.0702 53.0594 92.6422C54.4066 92.1308 55.7708 91.6605 57.152 91.231C58.5331 90.8016 59.8959 90.4259 61.2403 90.1039C63.2174 89.6208 65.2284 89.2281 67.2733 88.9258C68.968 88.6758 70.6626 88.502 72.3573 88.3707C73.7045 88.269 75.0645 88.2139 76.4329 88.1969H77.1743C78.6826 88.1969 80.1823 88.2563 81.6694 88.358C81.8262 88.0444 81.9956 87.7266 82.1524 87.4172C82.7455 86.2858 83.3598 85.1586 83.9784 84.0568C83.977 84.047 83.977 84.037 83.9784 84.0272C84.0843 83.8322 84.1902 83.6415 84.3004 83.4551C84.8003 82.5525 85.3214 81.6584 85.8552 80.7727C86.1009 80.3489 86.3424 79.9506 86.5924 79.5523C86.6453 79.4533 86.7032 79.3571 86.7661 79.2641C87.0203 78.8404 87.2787 78.4166 87.5414 77.9928C88.8491 75.9023 90.2091 73.8485 91.6213 71.8314L91.9814 71.3144C92.2017 71.0008 92.405 70.6957 92.6508 70.3822C93.2354 69.5643 93.837 68.7422 94.4429 67.9371C94.8665 67.3608 95.2902 66.7887 95.7478 66.242C96.8493 64.8295 97.9791 63.417 99.1371 62.0045C100.295 60.5919 101.498 59.1978 102.747 57.822C102.916 57.6313 103.086 57.4448 103.264 57.2584L105.073 55.2837C105.162 55.1904 105.238 55.1057 105.323 55.0209C105.539 54.7879 105.746 54.5548 105.979 54.3302C106.949 53.3005 107.945 52.2919 108.945 51.2876C114.033 46.2184 119.454 41.4943 125.171 37.1468C125.396 36.9688 125.625 36.7993 125.849 36.6298C126.925 35.8204 128.018 35.0195 129.111 34.2313C135.124 29.9173 141.408 25.9964 147.926 22.4932C148.375 22.2348 148.833 21.9932 149.295 21.7559C155.138 18.6638 161.148 15.8967 167.296 13.4672C170.647 12.1408 174.075 10.895 177.523 9.75508C179.82 9.00079 182.124 8.28464 184.459 7.61087C188.108 6.55995 191.783 5.61779 195.483 4.7844C206.383 2.33798 217.472 0.826741 228.63 0.267139C232.019 0.0948108 235.447 0.00582279 238.912 0.000172683C255.634 -0.0219703 272.291 2.08551 288.481 6.27179C288.648 6.52481 288.877 6.73108 289.146 6.87119C289.415 7.0113 289.716 7.08064 290.019 7.07269H291.442C292.061 7.2422 292.675 7.4117 293.294 7.58968C296.748 8.5841 300.153 9.67033 303.508 10.8484L304.356 11.1535C312.637 14.099 320.695 17.6396 328.466 21.7474C335.472 25.4416 342.216 29.6097 348.654 34.2229C349.645 34.9348 350.623 35.6524 351.586 36.3756C352.755 35.6269 353.944 34.9094 355.153 34.2229C359.821 31.5635 364.78 29.4492 369.93 27.9216C380.699 24.7342 392.093 24.2884 403.078 26.6249C417.165 29.6124 429.917 37.0282 440.216 47.5755C444.41 51.891 448.143 56.6316 451.354 61.7205C451.587 62.085 451.82 62.4536 452.045 62.8265C454.805 67.3306 457.178 72.0613 459.137 76.9674C459.209 77.1496 459.281 77.3191 459.345 77.4971C461.153 82.0911 462.612 86.8153 463.708 91.6294C463.759 91.8752 463.819 92.1167 463.869 92.3625C464.895 97.0214 465.591 101.747 465.954 106.503C465.954 106.673 465.954 106.847 465.988 107.025C466.166 109.485 466.256 111.971 466.259 114.483C466.259 116.729 466.183 118.958 466.043 121.17C466.043 121.411 466.009 121.661 465.988 121.911C465.95 122.551 465.895 123.182 465.84 123.827C469.075 126.437 472.104 129.295 474.897 132.374C476.132 133.721 477.326 135.12 478.482 136.569C482 140.98 485.093 145.715 487.718 150.71C494.882 164.236 499 180.148 499 197.179Z" fill="#F97826"/>
<path opacity="0.1" d="M451.126 299.063C451.126 301.957 441.158 304.669 423.762 307H94.7274C80.088 307.031 65.7014 303.184 53.0303 295.851L52.8354 295.741C57.8347 293.918 66.8587 292.219 79.1408 290.685L79.6915 290.617C85.1992 289.944 91.355 289.304 98.0828 288.698C98.2522 288.698 98.4259 288.672 98.5954 288.651C103.934 288.177 109.612 287.732 115.631 287.316C115.822 287.316 116.008 287.282 116.199 287.274C118.52 287.107 120.89 286.949 123.308 286.799L124.24 286.74C141.843 285.647 161.853 284.774 183.553 284.197H183.578C186.617 284.113 189.689 284.038 192.793 283.973C196.244 283.891 199.738 283.819 203.274 283.757C205.973 283.697 208.706 283.655 211.447 283.613H211.51C223.877 283.426 236.655 283.333 249.721 283.333C282.029 283.333 312.567 283.922 339.626 284.981H339.703C343.863 285.142 347.947 285.32 351.93 285.503L355.319 285.664C359.813 285.878 364.19 286.109 368.453 286.354C418.572 289.206 451.126 293.838 451.126 299.063Z" fill="#F97826"/>
<g opacity="0.2">
<path opacity="0.2" d="M288.211 281.388C288.197 281.845 288.145 282.3 288.054 282.748C285.105 282.279 282.139 281.855 279.157 281.477C279.157 281.358 279.157 281.235 279.157 281.112C279.184 279.842 279.55 278.601 280.216 277.519C281.089 276.138 282.415 275.273 283.876 275.32C285.338 275.366 286.605 276.311 287.389 277.739C287.981 278.861 288.265 280.12 288.211 281.388V281.388Z" fill="#3F3D56"/>
<path opacity="0.2" d="M288.454 274.146C288.557 270.869 286.613 268.149 284.11 268.069C281.608 267.99 279.496 270.583 279.392 273.86C279.289 277.137 281.233 279.858 283.736 279.937C286.238 280.016 288.35 277.424 288.454 274.146Z" fill="#3F3D56"/>
<path opacity="0.2" d="M288.685 266.892C288.788 263.614 286.844 260.894 284.341 260.814C281.839 260.735 279.727 263.328 279.623 266.605C279.519 269.882 281.464 272.603 283.966 272.682C286.469 272.761 288.581 270.169 288.685 266.892Z" fill="#3F3D56"/>
<path opacity="0.2" d="M288.912 259.637C289.015 256.36 287.071 253.639 284.568 253.56C282.066 253.481 279.954 256.073 279.85 259.35C279.747 262.628 281.691 265.348 284.194 265.427C286.696 265.506 288.808 262.914 288.912 259.637Z" fill="#3F3D56"/>
<path opacity="0.2" d="M289.139 252.382C289.243 249.105 287.298 246.384 284.796 246.305C282.293 246.226 280.181 248.818 280.077 252.095C279.974 255.373 281.918 258.093 284.421 258.173C286.923 258.252 289.035 255.659 289.139 252.382Z" fill="#3F3D56"/>
<path opacity="0.2" d="M269.188 202.043C268.591 201.235 268.053 200.386 267.578 199.501L279.551 197.92L266.663 197.611C265.513 194.882 264.931 191.948 264.954 188.987C264.976 186.026 265.603 183.1 266.794 180.389L283.792 189.903L268.222 177.682C269.793 175.141 271.87 172.951 274.325 171.249C276.78 169.548 279.559 168.37 282.489 167.791C285.419 167.212 288.437 167.243 291.354 167.883C294.272 168.523 297.026 169.758 299.445 171.51C301.863 173.263 303.895 175.495 305.413 178.068C306.93 180.641 307.901 183.499 308.265 186.464C308.628 189.43 308.377 192.438 307.525 195.301C306.674 198.165 305.242 200.822 303.318 203.107C304.246 204.364 305.035 205.718 305.67 207.146L289.956 214.688L306.619 209.675C307.668 213.138 307.837 216.809 307.111 220.354C306.384 223.899 304.785 227.207 302.458 229.978C304.877 233.261 306.324 237.158 306.633 241.225C306.942 245.292 306.1 249.363 304.204 252.974C302.308 256.584 299.435 259.589 295.912 261.643C292.39 263.697 288.36 264.718 284.285 264.59C280.21 264.461 276.253 263.188 272.866 260.916C269.48 258.644 266.802 255.465 265.137 251.742C263.472 248.019 262.889 243.902 263.453 239.863C264.017 235.824 265.707 232.025 268.328 228.901C265.438 224.978 263.95 220.197 264.104 215.326C264.257 210.455 266.043 205.777 269.175 202.043H269.188Z" fill="#F97826"/>
<path opacity="0.1" d="M307.542 216.697C307.394 221.571 305.602 226.251 302.458 229.977C304.877 233.26 306.324 237.158 306.633 241.225C306.941 245.291 306.1 249.363 304.204 252.974C302.308 256.584 299.435 259.589 295.912 261.643C292.39 263.697 288.36 264.718 284.285 264.59C280.21 264.461 276.253 263.188 272.866 260.916C269.48 258.644 266.802 255.465 265.137 251.742C263.472 248.019 262.889 243.902 263.453 239.863C264.017 235.824 265.707 232.025 268.328 228.901C265.544 225.117 307.618 214.26 307.542 216.697Z" fill="black"/>
</g>
<g opacity="0.2">
<path opacity="0.2" d="M223.813 281.388C223.8 281.845 223.747 282.3 223.657 282.748C220.708 282.279 217.742 281.855 214.76 281.477C214.76 281.358 214.76 281.235 214.76 281.112C214.787 279.842 215.153 278.601 215.819 277.519C216.692 276.138 218.018 275.273 219.479 275.32C220.941 275.366 222.208 276.311 222.992 277.739C223.584 278.861 223.868 280.12 223.813 281.388V281.388Z" fill="#3F3D56"/>
<path opacity="0.2" d="M224.052 274.148C224.156 270.871 222.211 268.15 219.709 268.071C217.206 267.992 215.094 270.585 214.99 273.862C214.887 277.139 216.831 279.86 219.334 279.939C221.836 280.018 223.949 277.426 224.052 274.148Z" fill="#3F3D56"/>
<path opacity="0.2" d="M224.283 266.894C224.387 263.616 222.442 260.896 219.94 260.816C217.437 260.737 215.325 263.33 215.221 266.607C215.118 269.884 217.062 272.605 219.565 272.684C222.067 272.763 224.18 270.171 224.283 266.894Z" fill="#3F3D56"/>
<path opacity="0.2" d="M224.51 259.639C224.614 256.361 222.669 253.641 220.167 253.562C217.664 253.482 215.552 256.075 215.448 259.352C215.345 262.629 217.289 265.35 219.792 265.429C222.294 265.508 224.407 262.916 224.51 259.639Z" fill="#3F3D56"/>
<path opacity="0.2" d="M224.737 252.384C224.841 249.107 222.896 246.386 220.394 246.307C217.891 246.228 215.779 248.82 215.675 252.097C215.572 255.375 217.516 258.095 220.019 258.174C222.521 258.254 224.634 255.661 224.737 252.384Z" fill="#3F3D56"/>
<path opacity="0.2" d="M204.791 202.043C204.194 201.235 203.656 200.386 203.181 199.501L215.154 197.92L202.266 197.611C201.116 194.882 200.534 191.948 200.557 188.987C200.579 186.026 201.206 183.1 202.397 180.389L219.395 189.903L203.825 177.682C205.396 175.141 207.473 172.951 209.928 171.249C212.383 169.548 215.162 168.37 218.092 167.791C221.022 167.212 224.04 167.243 226.957 167.883C229.875 168.523 232.629 169.758 235.048 171.51C237.467 173.263 239.498 175.495 241.016 178.068C242.533 180.641 243.504 183.499 243.868 186.464C244.231 189.43 243.98 192.438 243.129 195.301C242.277 198.165 240.845 200.822 238.921 203.107C239.849 204.364 240.638 205.718 241.273 207.146L225.559 214.688L242.222 209.675C243.271 213.138 243.44 216.809 242.714 220.354C241.987 223.899 240.388 227.207 238.061 229.978C240.48 233.261 241.927 237.158 242.236 241.225C242.545 245.292 241.703 249.363 239.807 252.974C237.911 256.584 235.038 259.589 231.515 261.643C227.993 263.697 223.963 264.718 219.888 264.59C215.813 264.461 211.856 263.188 208.469 260.916C205.083 258.644 202.405 255.465 200.74 251.742C199.076 248.019 198.492 243.902 199.056 239.863C199.62 235.824 201.31 232.025 203.931 228.901C201.041 224.978 199.553 220.197 199.707 215.326C199.86 210.455 201.646 205.777 204.778 202.043H204.791Z" fill="#F97826"/>
<path opacity="0.1" d="M243.145 216.697C242.997 221.571 241.205 226.251 238.061 229.977C240.48 233.26 241.927 237.158 242.236 241.225C242.545 245.291 241.703 249.363 239.807 252.974C237.911 256.584 235.038 259.589 231.515 261.643C227.993 263.697 223.963 264.718 219.888 264.59C215.813 264.461 211.856 263.188 208.469 260.916C205.083 258.644 202.405 255.465 200.74 251.742C199.076 248.019 198.492 243.902 199.056 239.863C199.62 235.824 201.31 232.025 203.931 228.901C201.147 225.117 243.221 214.26 243.145 216.697Z" fill="black"/>
</g>
<g opacity="0.2">
<path opacity="0.2" d="M399.718 286.024C399.686 286.89 399.583 287.752 399.409 288.601C393.732 287.694 388.014 286.883 382.255 286.168C382.255 285.94 382.255 285.707 382.255 285.469C382.309 283.022 383.014 280.633 384.297 278.549C385.992 275.892 388.534 274.227 391.342 274.312C394.151 274.396 396.596 276.223 398.121 278.973C399.271 281.139 399.823 283.574 399.718 286.024V286.024Z" fill="#3F3D56"/>
<path opacity="0.2" d="M400.179 272.073C400.379 265.762 396.633 260.522 391.813 260.369C386.993 260.217 382.924 265.21 382.725 271.521C382.525 277.832 386.271 283.072 391.091 283.224C395.911 283.376 399.98 278.384 400.179 272.073Z" fill="#3F3D56"/>
<path opacity="0.2" d="M400.62 258.105C400.819 251.794 397.074 246.555 392.254 246.402C387.434 246.25 383.365 251.243 383.165 257.554C382.966 263.865 386.712 269.104 391.532 269.257C396.352 269.409 400.421 264.416 400.62 258.105Z" fill="#3F3D56"/>
<path opacity="0.2" d="M401.065 244.138C401.264 237.827 397.518 232.587 392.698 232.435C387.878 232.283 383.809 237.275 383.61 243.586C383.411 249.897 387.156 255.137 391.976 255.29C396.796 255.442 400.865 250.449 401.065 244.138Z" fill="#3F3D56"/>
<path opacity="0.2" d="M401.008 229.535C401.197 223.221 397.442 217.985 392.619 217.84C387.797 217.696 383.734 222.697 383.545 229.011C383.355 235.326 387.111 240.562 391.933 240.706C396.756 240.851 400.819 235.85 401.008 229.535Z" fill="#3F3D56"/>
<path opacity="0.2" d="M363.093 133.276C361.95 131.721 360.915 130.088 359.996 128.39L383.043 125.348L358.238 124.75C356.022 119.498 354.901 113.848 354.943 108.148C354.985 102.447 356.19 96.8146 358.483 91.5955L391.211 109.906L361.241 86.379C364.272 81.499 368.274 77.2956 373 74.0307C377.726 70.7658 383.073 68.5094 388.709 67.4021C394.344 66.2949 400.148 66.3604 405.757 67.5948C411.366 68.8291 416.661 71.2058 421.312 74.5767C425.963 77.9476 429.869 82.2404 432.789 87.1876C435.708 92.1349 437.577 97.6305 438.28 103.332C438.983 109.033 438.504 114.819 436.874 120.327C435.243 125.835 432.496 130.949 428.803 135.349C430.588 137.77 432.106 140.377 433.332 143.124L403.078 157.655L435.154 147.993C437.175 154.653 437.505 161.711 436.112 168.529C434.719 175.347 431.648 181.711 427.176 187.043C431.833 193.363 434.617 200.866 435.211 208.695C435.804 216.523 434.184 224.361 430.534 231.312C426.884 238.262 421.352 244.045 414.571 247.999C407.79 251.954 400.034 253.919 392.188 253.672C384.343 253.424 376.726 250.974 370.207 246.6C363.689 242.227 358.532 236.107 355.327 228.94C352.122 221.773 350.999 213.849 352.084 206.074C353.17 198.298 356.421 190.985 361.466 184.971C355.905 177.418 353.042 168.215 353.337 158.84C353.632 149.465 357.068 140.46 363.093 133.272V133.276Z" fill="#F97826"/>
<path opacity="0.1" d="M436.938 161.482C436.66 170.859 433.226 179.868 427.193 187.051C431.85 193.372 434.634 200.875 435.228 208.703C435.821 216.532 434.201 224.369 430.551 231.32C426.901 238.271 421.369 244.054 414.588 248.008C407.807 251.962 400.051 253.928 392.205 253.68C384.36 253.433 376.743 250.982 370.224 246.609C363.706 242.235 358.549 236.115 355.344 228.948C352.139 221.782 351.016 213.858 352.101 206.082C353.187 198.307 356.438 190.993 361.483 184.979C356.086 177.686 437.086 156.791 436.938 161.482Z" fill="black"/>
</g>
<path d="M66.8628 286.77L71.307 286.757H77.573L85.4955 158.028L163.954 27.0737L160.543 23.4125V14.1406L75.692 154.994L66.8628 286.77Z" fill="#F1C0C0"/>
<path opacity="0.1" d="M71.7812 286.757H77.5727L85.4953 158.028L163.954 27.0739L160.543 23.4126L79.6148 156.066L71.7812 286.757Z" fill="black"/>
<path d="M53.7671 287.842L257.062 303.402L257.236 303.415L453.981 291.313L454.13 291.304V282.994L237.341 279.015L56.4743 278.841H55.1525L55.0084 279.774L53.7671 287.842Z" fill="#F1C0C0"/>
<path opacity="0.1" d="M53.7671 287.842L257.062 303.402L257.236 303.415L453.981 291.313L454.13 291.151V283.168H453.956L257.062 289.745L56.4743 278.841H56.4446L56.0888 279.074L55.0084 279.774L53.7671 287.842Z" fill="black"/>
<path opacity="0.1" d="M53.7671 287.842L257.062 303.402V289.744L56.0888 279.074L55.0084 279.773L53.7671 287.842Z" fill="black"/>
<path d="M160.518 23.2389L250.144 119.457L247.373 288.706L254.986 289.626L255.113 289.643H262.727L263.637 126.725L431.463 182.797L434.294 282.634L440.42 283.32L442.496 283.553L437.691 175.872L262.252 114.266L166.055 14.2383H160.518V23.2389Z" fill="#F1C0C0"/>
<path opacity="0.1" d="M262.947 123.61L263.638 126.725L431.464 182.797L434.294 282.634L440.42 283.321L435.616 180.72L262.947 123.61Z" fill="black"/>
<path opacity="0.1" d="M160.518 23.2389L250.144 119.457L247.373 288.706L254.986 289.626L257.062 113.919L160.518 14.2383V23.2389Z" fill="black"/>
<path d="M263.273 191.534L324.828 203.658L324.849 203.662L432.659 224.905L437.594 222.926L437.577 222.579L437.255 215.693L263.337 180.542L263.273 191.534Z" fill="#F1C0C0"/>
<path opacity="0.1" d="M324.849 203.663L432.658 224.906L437.594 222.927L437.577 222.579L324.849 203.663Z" fill="black"/>
<path d="M328.971 148.553L330.636 240.229L331.496 287.261L339.075 287.007L343.845 286.846L342.363 149.879L339.075 148.786L338.355 148.553H328.971Z" fill="#F1C0C0"/>
<path opacity="0.1" d="M329.039 148.532V148.553L330.636 240.229L331.496 287.262L339.075 287.007V148.532H329.039Z" fill="black"/>
<path d="M210.248 171.965C210.692 172.207 211.117 172.483 211.519 172.791C211.993 173.207 212.42 173.675 212.79 174.186C214.607 176.537 216.285 179.271 216.107 182.237C216.111 182.669 216.029 183.097 215.867 183.497C215.705 183.897 215.465 184.261 215.162 184.568C214.412 185.208 213.336 185.237 212.353 185.237C211.286 185.237 210.163 185.237 209.239 184.686C208.316 184.135 207.545 183.063 206.452 183.089C206.297 183.114 206.14 183.114 205.986 183.089C205.609 182.966 205.532 182.47 205.287 182.156C204.863 181.593 203.969 181.733 203.304 181.979C202.639 182.224 201.901 182.593 201.245 182.309C200.864 182.108 200.552 181.796 200.351 181.415C198.779 178.872 198.444 175.817 198.148 172.863C197.966 171.067 196.576 164.939 200.41 166.333C202.105 166.944 203.689 168.164 205.231 169.058L210.248 171.965Z" fill="#3F3D56"/>
<path d="M206.46 172.571C206.802 172.818 207.217 172.942 207.639 172.925C208.06 172.908 208.464 172.751 208.786 172.478C209.417 171.908 209.819 171.128 209.917 170.283C210.341 170.152 210.557 170.707 210.828 171.046C211.302 171.622 212.268 171.614 212.7 172.228C213.001 172.652 212.934 173.241 213.145 173.72C213.421 174.338 214.103 174.66 214.569 175.16C215.009 175.707 215.327 176.341 215.501 177.021L216.196 179.106C216.528 179.973 216.742 180.881 216.831 181.805C216.875 182.267 216.826 182.733 216.688 183.176C216.55 183.619 216.325 184.03 216.026 184.386C215.094 185.39 213.565 185.496 212.213 185.466C211.762 185.476 211.311 185.423 210.874 185.309C209.676 184.936 208.909 183.729 208.591 182.513C208.273 181.296 208.307 180.021 208.121 178.775C207.919 177.551 207.563 176.358 207.062 175.224C206.689 174.343 205.663 173.029 205.68 172.092C205.985 172.092 206.206 172.372 206.46 172.571Z" fill="#3F3D56"/>
<path d="M207.981 168.279C207.783 167.677 207.667 167.051 207.638 166.418C207.638 165.147 208.218 163.952 208.803 162.816L203.96 163.473C203.376 163.554 202.723 163.672 202.393 164.16C202.267 164.401 202.202 164.669 202.202 164.942C202.202 165.214 202.267 165.482 202.393 165.723C202.635 166.207 202.829 166.714 202.969 167.236C202.98 167.693 203.032 168.149 203.126 168.596C203.276 168.925 203.488 169.223 203.748 169.474C205.134 171.008 206.172 172.817 207.206 174.61C207.176 174.559 210.125 172.275 210.006 171.529C209.938 171.105 209.087 170.597 208.815 170.19C208.441 169.599 208.159 168.955 207.981 168.279V168.279Z" fill="#BE6F72"/>
<path d="M249.5 151.722V155.896L178.04 169.838L174.333 172.084H161.543V169.732L231.753 152.765L249.5 151.722Z" fill="#F1C0C0"/>
<path opacity="0.1" d="M249.5 155.896L178.04 169.838L174.333 172.084H161.543L232.274 156.943L249.5 155.896Z" fill="black"/>
<path d="M192.127 270.214C191.331 269.249 190.232 268.583 189.009 268.323C187.786 268.063 186.511 268.224 185.391 268.781C185.151 268.894 184.94 269.059 184.773 269.265C184.349 269.858 184.62 270.676 184.658 271.409C184.756 273.197 183.332 274.65 182.053 275.901C181.366 276.57 180.667 277.286 180.358 278.197C180.049 279.108 180.277 280.265 181.108 280.74C181.47 280.922 181.864 281.031 182.269 281.062C183.623 281.326 185.011 281.365 186.378 281.176C187.73 280.918 189.056 280.151 189.64 278.905C189.753 278.567 189.94 278.259 190.187 278.002C190.933 277.413 192.076 278.104 192.924 277.685C193.623 277.337 193.653 276.79 193.661 276.07C193.686 274.078 193.39 271.824 192.127 270.214Z" fill="#F97826"/>
<path d="M202.295 270.138C202.816 271.51 202.888 273.006 202.956 274.473C202.994 275.32 203.02 276.227 202.562 276.943C202.105 277.659 201.211 278.036 200.355 278.214C198.588 278.579 196.542 278.236 195.402 276.833C194.53 275.761 194.347 274.29 194.508 272.9C194.644 271.761 194.932 270.426 194.114 269.616C193.903 269.4 193.627 269.248 193.432 269.015C193.009 268.498 193.076 267.718 193.305 267.082C193.603 266.474 193.826 265.833 193.97 265.171C194.004 264.858 199.707 265.391 200.232 265.65C200.948 266.002 200.838 266.591 201.054 267.303C201.355 268.294 201.931 269.188 202.295 270.138Z" fill="#F97826"/>
<path d="M203.342 209.26C204.46 209.985 204.892 211.409 205.066 212.731C205.545 216.354 204.706 220.015 204.642 223.672C204.583 228.795 206.066 234.012 204.799 238.974C204.041 241.94 204.685 245.33 203.973 248.326C203.761 249.216 203.371 250.055 203.168 250.945C202.744 252.873 203.189 254.89 203.787 256.776C203.977 257.284 204.099 257.816 204.147 258.357C204.118 259.189 203.907 260.005 203.528 260.747L200.986 266.76C200.702 267.434 199.584 267.544 198.868 267.633C197.521 267.794 196.017 267.908 194.945 267.073C193.873 266.239 193.615 264.84 193.449 263.535C193.132 261.029 192.991 258.505 193.026 255.979C193.072 255.32 193.014 254.658 192.852 254.017C192.619 253.293 192.106 252.666 191.966 251.899C191.789 250.907 192.293 249.932 192.479 248.932C192.607 248.019 192.593 247.091 192.437 246.182C192.271 244.826 192.081 243.47 191.865 242.122C191.56 240.237 191.996 238.376 192.288 236.487C192.564 234.711 192.212 232.902 191.865 231.139C191.895 232.569 191.716 233.997 191.335 235.376C191.111 236.05 190.789 236.694 190.594 237.381C189.725 240.461 191.577 243.695 191.314 246.886C191.191 248.377 190.607 249.852 190.772 251.322C190.886 252.399 191.386 253.386 191.729 254.411C192.072 255.437 192.25 256.611 191.729 257.568C190.352 260.17 191.382 263.709 192.615 266.378C192.865 266.852 193.083 267.342 193.267 267.845C193.631 269.048 193.326 270.341 193.424 271.595C193.069 271.653 192.706 271.629 192.361 271.526C192.017 271.422 191.701 271.242 191.437 270.997C191.25 270.802 191.098 270.574 190.916 270.37C190.407 269.885 189.804 269.509 189.145 269.264C188.758 269.047 188.317 268.946 187.874 268.972C187.408 269.102 186.989 269.362 186.666 269.722C186.247 270.09 185.803 270.429 185.336 270.735C185.137 270.887 184.905 270.991 184.658 271.035C184.534 271.055 184.407 271.034 184.296 270.977C184.184 270.92 184.093 270.829 184.035 270.718C184.009 270.647 183.993 270.573 183.989 270.497C183.832 269.218 183.748 267.93 183.739 266.641C183.739 264.425 181.087 262.899 180.752 260.709C180.485 258.941 180.981 257.14 180.816 255.361C180.735 254.445 180.481 253.547 180.498 252.632C180.498 252.038 180.633 251.458 180.68 250.869C180.719 250.215 180.709 249.559 180.65 248.907L180.519 246.86C180.392 244.839 180.252 242.775 179.456 240.927C178.511 238.77 177.952 236.464 177.803 234.113C177.719 232.63 177.774 231.147 177.604 229.66C177.452 228.316 177.113 226.982 177.21 225.634C177.291 224.592 177.634 223.583 177.714 222.541C177.88 220.536 177.117 218.587 176.52 216.667C175.922 214.748 175.482 212.62 176.265 210.769C176.377 210.465 176.564 210.194 176.808 209.98C177.108 209.782 177.45 209.654 177.808 209.608C185.077 208.08 192.527 207.605 199.931 208.196C201.138 208.265 202.31 208.63 203.342 209.26Z" fill="#3F3D56"/>
<path d="M179.291 164.253C183.039 164.253 186.078 161.214 186.078 157.464C186.078 153.715 183.039 150.676 179.291 150.676C175.542 150.676 172.503 153.715 172.503 157.464C172.503 161.214 175.542 164.253 179.291 164.253Z" fill="#BE6F72"/>
<path d="M177.977 165.944C178.075 166.332 178.075 166.738 177.977 167.126C177.87 167.397 177.72 167.649 177.532 167.872C176.875 168.719 176.148 169.51 175.359 170.236C175.761 171.135 176.485 171.85 177.388 172.241C178.285 172.622 179.226 172.891 180.189 173.041C180.669 173.168 181.17 173.202 181.663 173.143C182.118 173.029 182.548 172.834 182.934 172.567L186.705 170.308C187.274 170 187.8 169.62 188.272 169.177C188.964 168.466 189.355 167.516 189.365 166.524C189.383 166.346 189.335 166.168 189.23 166.024C189.085 165.898 188.904 165.822 188.713 165.808C187.387 165.516 186.34 164.439 185.747 163.219C185.211 161.968 184.864 160.644 184.718 159.291L180.697 161.409C180.1 161.727 179.507 162.045 178.888 162.32C178.494 162.498 177.698 162.647 177.418 163.007C176.884 163.672 177.837 165.143 177.977 165.944Z" fill="#BE6F72"/>
<path d="M175.384 169.003C174.812 169.473 174.365 170.077 174.084 170.762C173.821 171.609 174.084 172.504 174.321 173.343C175.433 176.919 176.282 180.571 176.863 184.271C177.219 186.814 177.35 189.395 177.524 191.967C177.88 197.213 178.396 205.578 179.087 210.79C181.629 210.905 184.107 210.163 186.628 209.892C191.339 209.392 196.19 210.536 200.804 209.468C199.686 205.048 198.567 197.501 197.449 193.085C196.954 191.346 196.611 189.566 196.423 187.767C196.326 186.475 196.385 185.178 196.402 183.877C196.44 181.335 196.301 178.792 196.161 176.25C196 173.283 195.839 170.317 195.135 167.414C195.086 167.044 194.913 166.702 194.644 166.444C194.22 166.135 193.67 166.245 193.165 166.312C191.622 166.509 190.059 166.138 188.768 165.27C188.209 164.889 187.459 164.423 186.938 164.846C186.715 165.102 186.568 165.414 186.514 165.749C186.283 166.348 185.927 166.892 185.47 167.343C185.013 167.793 184.464 168.142 183.862 168.363C182.654 168.801 181.39 169.061 180.108 169.135C179.716 169.219 179.307 169.173 178.943 169.003C178.341 168.635 178.299 167.308 177.541 167.219C176.876 167.143 175.833 168.575 175.384 169.003Z" fill="#3F3D56"/>
<path d="M185.408 179.351C183.845 177.855 183.158 175.686 182.019 173.842C181.243 172.603 180.251 171.512 179.091 170.622C178.508 170.237 177.973 169.783 177.498 169.27C177.096 168.774 176.791 168.113 176.181 167.923C175.928 167.868 175.667 167.875 175.418 167.944C175.169 168.012 174.941 168.14 174.753 168.317C174.379 168.673 174.026 169.049 173.694 169.444C171.897 171.304 168.741 171.563 167.318 173.715C166.933 174.172 166.672 174.719 166.559 175.304C166.149 178.438 166.959 181.608 168.822 184.161C169.182 184.753 169.736 185.202 170.389 185.432C170.3 186.222 170.405 187.022 170.694 187.763C171.479 190.445 172.442 193.071 173.579 195.624C173.307 196.622 173.118 197.641 173.012 198.67C172.715 201.26 172.99 203.887 172.711 206.48C172.482 208.599 171.863 210.663 171.842 212.786C171.842 213.125 171.872 213.527 172.164 213.701C172.32 213.781 172.494 213.818 172.668 213.807L177.879 213.964C180.904 214.053 183.959 214.142 186.937 213.582C187.334 213.524 187.719 213.402 188.077 213.222C189.085 212.659 189.42 211.387 189.581 210.256C189.791 208.788 189.875 207.305 189.831 205.823C190.462 207.819 191.212 209.883 193.119 210.748C194.127 211.205 195.279 211.171 196.385 211.142C198.768 211.035 201.144 210.791 203.498 210.409C203.644 210.427 203.791 210.41 203.929 210.361C204.066 210.312 204.191 210.231 204.291 210.125C204.392 210.019 204.467 209.891 204.51 209.752C204.552 209.612 204.561 209.464 204.536 209.319L204.562 207.006C204.613 202.306 203.448 197.814 202.994 193.136C202.85 191.661 202.863 190.17 202.503 188.725C202.355 188.119 202.138 187.526 202.007 186.915C201.894 186.318 201.823 185.713 201.795 185.106L201.465 180.445C201.308 178.288 201.084 176.207 200.918 174.054C200.827 171.958 200.524 169.877 200.012 167.842C199.643 166.571 198.876 165.13 197.55 164.973C196.843 164.893 196.156 165.202 195.483 165.418C193.827 165.939 192.05 165.932 190.399 165.397C189.889 165.195 189.357 165.053 188.814 164.973C188.541 164.936 188.263 164.972 188.008 165.078C187.754 165.184 187.532 165.355 187.365 165.575C187.201 165.906 187.124 166.274 187.141 166.643C186.942 170.876 186.573 175.237 185.408 179.351Z" fill="#F97826"/>
<path d="M178.591 179.479C176.638 177.419 174.634 175.321 172.118 174.012C171.127 173.495 170 173.105 168.902 173.3C167.805 173.495 166.784 174.448 166.835 175.563C166.869 176.254 167.288 176.864 167.419 177.542C167.572 178.305 167.352 179.118 167.589 179.856C167.782 180.342 168.07 180.784 168.436 181.157L171.436 184.712C172.707 186.195 173.978 187.699 175.613 188.725C177.248 189.75 179.367 190.229 181.163 189.5C182.441 188.906 183.504 187.931 184.205 186.708C184.951 185.521 185.476 184.225 186.175 183C187.263 181.043 188.699 179.301 190.412 177.86C189.53 177.631 188.425 177.309 187.87 176.588C187.712 176.359 187.577 176.115 187.467 175.86L186.781 174.376C186.547 174.364 186.314 174.401 186.095 174.483C185.877 174.565 185.677 174.692 185.51 174.855C185.216 175.196 184.9 175.517 184.565 175.817C183.968 176.266 183.159 176.389 182.616 176.902C182.406 177.122 182.217 177.36 182.049 177.614C181.638 178.153 181.118 178.599 180.522 178.92C179.925 179.242 179.267 179.432 178.591 179.479V179.479Z" fill="#3F3D56"/>
<path d="M190.568 170.618C192.039 167.935 191.971 164.719 192.39 161.689C192.436 160.887 192.717 160.116 193.199 159.473C194.047 158.515 195.542 158.503 196.822 158.625C197.199 158.668 197.669 158.846 197.648 159.223C197.618 159.358 197.552 159.483 197.457 159.583C196.217 161.184 195.488 163.121 195.364 165.143C196.029 165.605 197.059 164.656 197.699 165.143C198.122 165.499 197.927 166.202 197.673 166.711C197.083 167.889 196.474 169.058 195.847 170.219C195.347 171.243 194.694 172.184 193.911 173.012C193.373 173.529 192.742 173.936 192.195 174.444C190.924 175.635 190.157 177.317 188.844 178.479C188.733 178.599 188.583 178.675 188.42 178.695C188.253 178.683 188.096 178.612 187.976 178.495C187.319 177.962 186.775 177.304 186.374 176.559C185.874 175.635 185.95 175.364 186.738 174.711C188.213 173.546 189.649 172.296 190.568 170.618Z" fill="#BE6F72"/>
<path d="M176.134 177.656C176.388 177.813 176.702 177.991 176.982 177.86C177.096 177.791 177.193 177.696 177.265 177.584C177.75 176.938 178.154 176.235 178.469 175.491C178.523 175.386 178.553 175.27 178.558 175.152C178.558 174.881 178.316 174.682 178.092 174.525C176.888 173.758 175.595 173.143 174.24 172.694C173.122 172.27 171.953 171.902 170.766 172.008C170.321 172.038 169.886 172.157 169.487 172.36C169.089 172.562 168.736 172.843 168.449 173.186C167.602 174.275 169.021 174.605 169.911 174.999C171.97 175.936 174.198 176.478 176.134 177.656Z" fill="#F97826"/>
<path opacity="0.1" d="M174.8 184.86C174.785 184.957 174.794 185.056 174.825 185.148C174.856 185.241 174.908 185.325 174.978 185.394C175.1 184.792 174.939 184.157 175.067 183.551C175.253 182.64 176.138 181.953 176.215 181.038C174.592 180.72 174.812 183.877 174.8 184.86Z" fill="black"/>
<path opacity="0.2" d="M249.5 151.722V155.896L232.274 156.943L231.753 152.765L249.5 151.722Z" fill="black"/>
<path d="M173.181 158.473C174.258 157.596 173.635 155.757 174.363 154.578C174.787 153.934 175.503 153.595 176.206 153.307C177.055 152.91 177.965 152.658 178.897 152.561C179.363 152.517 179.834 152.577 180.274 152.74C180.715 152.902 181.112 153.161 181.439 153.498C181.714 153.811 181.9 154.193 182.159 154.519C182.479 154.9 182.896 155.187 183.366 155.349C183.836 155.512 184.341 155.544 184.828 155.443C185.391 155.316 185.976 154.888 185.938 154.311C185.874 153.961 185.695 153.642 185.43 153.405L184.218 152.061C182.841 150.536 181.312 148.917 179.291 148.536C177.884 148.269 176.444 148.646 175.088 149.099C174.541 149.281 173.927 149.553 173.775 150.108C173.673 150.489 173.825 150.904 173.736 151.29C173.563 152.057 172.58 152.316 172.122 152.96C171.665 153.604 171.804 154.367 171.673 155.078C171.542 155.79 171.161 156.485 171.114 157.223C171.084 157.668 171.309 158.494 171.809 158.655C172.309 158.816 172.872 157.943 173.181 158.473Z" fill="#3F3D56"/>
<path d="M185.527 153.701C185.169 151.837 184.399 150.076 183.273 148.549C182.271 147.121 180.878 146.014 179.261 145.362C178.452 145.046 177.583 144.917 176.718 144.986C175.853 145.054 175.014 145.317 174.266 145.756C173.154 146.55 172.289 147.641 171.77 148.905C170.673 151.269 170.266 154.159 171.541 156.43C172.05 155.812 172.923 156.091 173.694 155.867C174.66 155.591 175.477 154.947 176.397 154.545C179.172 153.32 182.561 154.312 185.527 153.701Z" fill="#FED253"/>
<path opacity="0.1" d="M172.19 153.57C172.092 152.807 172.029 151.922 172.571 151.379C172.598 151.346 172.632 151.32 172.671 151.302C172.71 151.284 172.753 151.276 172.796 151.278C172.834 151.29 172.868 151.31 172.898 151.336C172.928 151.362 172.952 151.394 172.969 151.43C173.282 151.924 173.549 152.446 173.766 152.99C173.45 152.917 173.12 152.94 172.818 153.058C172.516 153.175 172.256 153.38 172.071 153.646" fill="black"/>
<path opacity="0.1" d="M182.091 151.417L181.938 149.904C181.914 149.779 181.924 149.65 181.968 149.531C182.032 149.431 182.13 149.359 182.245 149.328C182.359 149.296 182.481 149.308 182.586 149.362C182.795 149.477 182.967 149.649 183.082 149.858C183.435 150.399 183.727 150.977 183.955 151.582C183.272 151.451 182.571 151.459 181.892 151.608" fill="black"/>
<path opacity="0.1" d="M185.882 212.815V216.273L182.963 216.468H167.61V212.815H185.882Z" fill="black"/>
<path d="M185.882 212.815V216.468H167.61L119.066 155.646V152.773H129.243L185.882 212.815Z" fill="#F1C0C0"/>
<path opacity="0.1" d="M185.882 212.815V216.468H167.61L119.066 155.646V152.773H129.243L185.882 212.815Z" fill="black"/>
<path opacity="0.1" d="M185.882 212.815V216.468H167.61L119.066 155.646V152.773L167.872 212.815H185.882Z" fill="black"/>
<path d="M125.43 273.777C125.462 273.949 125.458 274.126 125.419 274.296C125.379 274.466 125.305 274.627 125.201 274.767C125.097 274.908 124.965 275.025 124.813 275.112C124.662 275.199 124.494 275.254 124.32 275.273C123.142 275.671 121.893 276.065 121.058 276.968C120.223 277.871 120.058 279.545 121.058 280.278C121.569 280.586 122.156 280.746 122.753 280.74C124.672 280.871 126.672 280.846 128.413 280.032C129.658 279.456 130.832 278.472 132.2 278.561C132.908 278.604 133.662 278.934 134.293 278.612C134.925 278.29 135.102 277.392 135.107 276.642C135.123 275.076 134.887 273.518 134.408 272.027C134.344 271.824 131.65 271.667 131.328 271.603L128.061 271.18C127.443 271.099 126.108 270.633 125.621 271.15C125.134 271.667 125.43 273.163 125.43 273.777Z" fill="#F97826"/>
<path d="M144.923 263.201C145.061 263.964 145.286 264.709 145.592 265.421C146.046 266.574 146.626 267.798 147.736 268.358C148.744 268.862 149.981 268.68 151.007 268.201C151.435 268.024 151.81 267.739 152.095 267.375C152.426 266.798 152.574 266.134 152.519 265.472C152.519 263.832 152.422 262.137 151.672 260.679C151.028 259.408 149.905 258.315 149.888 256.908L146.029 257.654C145.822 257.673 145.625 257.751 145.461 257.878C145.339 258.007 145.254 258.167 145.215 258.34C144.803 259.926 144.704 261.577 144.923 263.201V263.201Z" fill="#F97826"/>
<path d="M98.8326 222.943C98.6716 224.308 98.7394 225.77 99.4511 226.948C100.163 228.126 101.663 228.906 102.959 228.435C103.025 228.418 103.088 228.388 103.142 228.347C103.197 228.305 103.243 228.253 103.277 228.194C103.311 228.05 103.292 227.9 103.222 227.77C102.649 226.242 102.697 224.551 103.353 223.058C103.438 222.863 103.62 222.634 103.819 222.71C103.902 222.752 103.969 222.821 104.01 222.905C104.215 223.26 104.318 223.665 104.306 224.075C104.247 224.446 104.235 224.824 104.272 225.198C104.353 225.562 104.743 225.905 105.082 225.749C105.18 225.688 105.264 225.609 105.331 225.515C105.397 225.421 105.443 225.314 105.467 225.202C106.412 222.469 105.984 219.481 105.552 216.621C105.556 216.555 105.545 216.489 105.52 216.428C105.496 216.367 105.458 216.313 105.41 216.268C105.362 216.223 105.304 216.189 105.242 216.169C105.179 216.149 105.113 216.142 105.048 216.15C103.048 215.951 101.955 215.472 100.811 217.333C99.8282 218.901 98.8326 221.058 98.8326 222.943Z" fill="#F97826"/>
<path d="M122.21 215.989C121.617 218.456 121.02 220.952 120.981 223.486C120.992 225.064 121.111 226.64 121.337 228.202L121.782 231.872C121.935 233.109 122.083 234.342 122.299 235.567C122.437 236.198 122.512 236.841 122.524 237.487C122.482 238.123 122.381 238.754 122.223 239.372C121.956 240.67 121.807 241.989 121.778 243.313C121.731 245.432 121.994 247.551 122.159 249.67C122.489 253.892 122.439 258.135 122.011 262.348C121.84 263.486 122.087 264.646 122.706 265.616C122.957 265.921 123.164 266.261 123.32 266.624C123.638 267.595 122.896 268.565 122.706 269.561C122.584 270.337 122.775 271.131 123.237 271.766C123.7 272.402 124.395 272.828 125.171 272.951C128.561 273.353 132.043 273.171 135.098 274.722C135.42 273.781 134.717 272.714 135.039 271.756C135.242 271.163 135.801 270.777 136.183 270.277C136.695 269.515 136.95 268.609 136.911 267.692C136.926 266.495 136.713 265.305 136.284 264.188C135.924 263.255 135.407 262.336 135.437 261.336C135.437 260.844 135.611 260.327 135.411 259.874C135.275 259.613 135.089 259.382 134.865 259.191C133.599 257.804 132.821 256.041 132.649 254.17C132.484 252.313 132.544 250.444 132.827 248.602C133.035 246.847 133.314 244.996 134.429 243.627C133.912 239.477 134.216 235.265 135.322 231.232C135.433 230.859 135.606 230.427 135.988 230.338C136.139 230.322 136.292 230.343 136.434 230.399C136.575 230.456 136.701 230.545 136.801 230.66C137.466 231.283 137.784 232.185 138.072 233.05C138.39 233.986 138.712 234.986 138.47 235.944C138.369 236.368 138.165 236.741 138.047 237.148C137.789 237.965 137.834 238.848 138.174 239.635C138.339 239.923 138.443 240.242 138.479 240.572C138.439 240.855 138.354 241.13 138.225 241.385C138.067 241.887 138.018 242.415 138.078 242.937C138.139 243.459 138.308 243.963 138.576 244.415C139.116 245.315 139.783 246.133 140.555 246.843C140.186 248.47 140.281 250.167 140.83 251.742C140.87 251.813 140.895 251.891 140.904 251.972C140.914 252.052 140.907 252.134 140.885 252.212C140.809 252.373 140.614 252.433 140.462 252.547C140.038 252.894 140.301 253.551 140.584 254.005C141.362 255.249 142.221 256.441 143.156 257.573C144.003 258.586 143.927 260.539 145.19 260.903C145.72 261.018 146.269 261.018 146.8 260.903C148.045 260.713 149.435 260.353 150.045 259.251C150.295 258.797 150.396 258.246 150.786 257.907C151.176 257.568 151.68 257.509 151.896 257.102C152.112 256.696 151.871 256.162 151.943 255.691C152.015 255.221 152.426 254.844 152.557 254.348C152.871 253.204 151.536 252.263 151.354 251.093C151.091 249.398 153.227 248.127 153.138 246.432C152.951 242.75 152.833 239.05 152.642 235.368C152.403 232.069 152.369 228.759 152.54 225.456C152.688 223.401 152.964 221.248 152.21 219.337C151.125 216.642 148.134 215.129 145.24 214.841C142.347 214.553 139.462 215.239 136.593 215.688C131.833 216.422 126.997 216.523 122.21 215.989V215.989Z" fill="#3F3D56"/>
<path d="M130.811 175.487C134.559 175.487 137.598 172.448 137.598 168.698C137.598 164.949 134.559 161.91 130.811 161.91C127.062 161.91 124.023 164.949 124.023 168.698C124.023 172.448 127.062 175.487 130.811 175.487Z" fill="#FBBEBE"/>
<path d="M128.048 176.754C127.817 177.291 127.43 177.745 126.936 178.058C126.442 178.37 125.865 178.526 125.282 178.504C125.036 179.521 125.625 180.547 126.298 181.347C127.697 182.976 129.505 184.201 131.535 184.897C133.565 185.594 135.744 185.736 137.847 185.31C138.666 185.163 139.442 184.839 140.122 184.36C141.039 183.595 141.655 182.529 141.86 181.352C142.055 180.183 142.11 178.995 142.025 177.813C142.049 177.58 141.982 177.346 141.838 177.161C141.669 177.029 141.459 176.961 141.245 176.966C139.813 176.839 138.318 176.784 137.059 176.08C135.801 175.377 134.907 173.788 135.513 172.482C135.416 172.686 132.941 172.783 132.615 172.826C131.594 172.97 130.573 173.131 129.556 173.317C129.068 173.344 128.585 173.435 128.12 173.588C127.506 173.906 127.735 173.749 127.879 174.326C128.095 175.207 128.412 175.839 128.048 176.754Z" fill="#FBBEBE"/>
<path d="M133.213 180.881C132.299 180.891 131.387 180.79 130.497 180.58C129.599 180.37 128.807 179.842 128.269 179.093C127.955 178.618 127.752 178.021 127.252 177.754C126.434 177.33 125.502 178.046 124.85 178.703C124.256 179.351 123.567 179.905 122.808 180.347C121.901 180.826 120.842 180.995 119.986 181.559C119.317 182.064 118.744 182.684 118.291 183.39L112.288 191.568C109.877 194.857 107.78 198.386 105.632 201.857C103.772 204.861 102.798 208.319 101.396 211.561C101.285 211.759 101.239 211.988 101.264 212.214C101.315 212.434 101.582 212.612 101.769 212.485C101.137 213.112 101.692 214.18 101.544 215.061C101.375 215.678 101.024 216.229 100.536 216.642C101.468 216.52 102.415 216.565 103.332 216.773C104.28 217.042 105.174 217.472 105.975 218.045C106.488 217.964 106.442 217.053 106.823 216.714C107.052 216.515 107.391 216.54 107.691 216.481C108.823 216.261 109.272 214.9 110.14 214.133C110.865 213.493 111.89 213.286 112.657 212.684C113.902 211.705 114.169 209.963 114.822 208.518C115.377 207.294 116.249 206.226 116.737 204.972C117.054 204.158 117.207 203.277 117.66 202.527C118.385 201.315 119.749 200.67 121.049 200.09C121.871 199.721 122.744 199.34 123.63 199.399C123.583 201.37 123.333 203.31 123.761 205.234C123.909 205.912 124.117 206.573 124.295 207.247C125.104 210.281 125.295 213.443 125.333 216.57C127.279 216.124 129.267 215.886 131.264 215.858C132.836 215.811 134.403 216.015 135.975 215.985C137.839 215.951 139.682 215.591 141.546 215.464C143.41 215.337 145.359 215.464 147.007 216.311C146.874 213.626 146.949 210.934 147.232 208.26L147.681 204.048C147.782 202.824 147.971 201.609 148.244 200.412C148.49 199.446 148.846 198.514 149.117 197.552C150.07 194.162 149.897 190.543 149.715 187.013C149.621 185.199 148.922 183.415 148.1 181.801C147.803 181.201 147.463 180.623 147.084 180.072C146.09 178.703 144.767 177.608 143.236 176.889C141.706 176.17 140.018 175.851 138.331 175.961C138.115 175.968 137.903 176.014 137.704 176.097C137.346 176.326 137.067 176.658 136.903 177.05C136.026 178.626 134.755 179.946 133.213 180.881Z" fill="#3F3D56"/>
<path d="M124.841 170.948C125.032 170.524 125.544 170.368 125.858 170.029C126.46 169.385 126.188 168.355 126.282 167.486C126.434 166.215 127.489 165.151 128.697 164.698C129.928 164.303 131.238 164.22 132.51 164.456C133.122 164.501 133.713 164.698 134.23 165.028C134.45 165.189 134.653 165.397 134.861 165.545C135.239 165.774 135.692 165.846 136.123 165.745C136.553 165.645 136.928 165.38 137.166 165.007C135.666 163.202 134.005 161.295 131.726 160.74C130.944 160.58 130.147 160.505 129.349 160.515C128.294 160.494 127.205 160.477 126.231 160.88C124.905 161.426 123.973 162.685 123.494 164.041C123.075 165.415 122.851 166.842 122.829 168.279C122.742 169.237 122.742 170.202 122.829 171.16C122.993 172.469 123.479 173.717 124.244 174.792C124.347 174.959 124.494 175.095 124.668 175.186C126.599 176.033 124.684 171.3 124.841 170.948Z" fill="#3F3D56"/>
<path d="M136.945 163.96C136.712 161.964 135.288 160.316 133.776 158.99C132.557 157.84 131.105 156.965 129.518 156.426C127.921 155.956 126.082 156.057 124.714 157.011C123.612 157.778 122.913 158.998 122.375 160.227C121.668 161.677 121.318 163.275 121.354 164.888C121.46 166.49 122.24 168.113 123.629 168.923C124.129 168.185 124.998 167.804 125.832 167.503C129.47 166.122 133.179 164.94 136.945 163.96V163.96Z" fill="#FED253"/>
<path opacity="0.1" d="M124.096 163.13C124.231 163.13 124.32 163.27 124.388 163.384C124.733 163.922 125.029 164.489 125.273 165.079C124.778 165.185 123.926 165.304 123.68 164.868C123.549 164.647 123.706 163.109 124.096 163.13Z" fill="black"/>
<path opacity="0.1" d="M133.751 162.172C133.649 162.27 133.531 162.07 133.531 161.926V160.282C133.528 160.236 133.538 160.191 133.56 160.151C133.578 160.131 133.599 160.114 133.623 160.103C133.647 160.091 133.674 160.084 133.7 160.083C134.043 160.045 134.327 160.337 134.548 160.617C134.882 161.07 135.173 161.554 135.416 162.062L133.624 162.007" fill="black"/>
<path d="M156.116 189.399C156.506 189.028 156.922 188.687 157.361 188.377C158.535 187.593 159.954 187.284 161.272 186.784C162.589 186.284 163.928 185.475 164.441 184.161C164.697 183.34 164.781 182.474 164.687 181.618C164.699 181.26 164.635 180.904 164.5 180.572C164.339 180.279 164.109 180.028 163.831 179.843C162.043 178.521 159.645 178.415 157.425 178.55C152.531 178.854 147.733 180.052 143.27 182.085C143.034 182.163 142.828 182.31 142.677 182.508C142.59 182.692 142.551 182.895 142.563 183.097C142.484 184.347 142.646 185.6 143.042 186.788C143.626 188.297 144.829 189.513 145.334 191.051C145.562 191.742 145.639 192.475 145.838 193.17C146.001 193.888 146.425 194.519 147.028 194.941C148.702 195.941 150.282 194.598 151.443 193.556L156.116 189.399Z" fill="#3F3D56"/>
<path d="M134.2 195.268L132.052 190.581C131.737 189.931 131.465 189.262 131.239 188.577C130.993 187.759 130.874 186.911 130.645 186.089C129.891 183.352 127.989 181.072 127.061 178.389C127.003 178.147 126.883 177.924 126.714 177.741C126.578 177.645 126.424 177.58 126.26 177.551C126.097 177.522 125.929 177.529 125.769 177.572C124.473 177.796 123.46 178.784 122.274 179.343C121.723 179.597 121.13 179.767 120.579 180.059C120.304 180.189 120.06 180.378 119.864 180.611C119.668 180.844 119.525 181.117 119.444 181.411C119.312 182.059 119.634 182.682 119.906 183.313C121.058 185.915 121.321 188.822 121.371 191.67C121.41 193.585 121.312 195.641 120.181 197.179C118.007 200.145 119.397 204.501 120.211 208.091C120.308 208.514 120.422 208.972 120.49 209.421C120.562 209.983 120.594 210.55 120.588 211.116C120.588 213.019 120.482 214.981 119.685 216.706C120.472 217.124 121.338 217.37 122.227 217.426C124.687 217.74 127.157 217.96 129.637 218.087C130.414 218.16 131.197 218.12 131.963 217.968C132.872 217.723 133.673 217.181 134.24 216.429C134.807 215.677 135.108 214.757 135.094 213.816C135.229 214.989 135.479 216.265 136.331 217.079C137.183 217.892 138.424 218.015 139.58 218.079C142.845 218.252 146.118 218.16 149.367 217.803C149.575 217.794 149.778 217.746 149.969 217.663C150.596 217.35 150.63 216.485 150.579 215.79C150.486 214.489 150.388 213.188 150.231 211.896C150.098 211.072 150.03 210.239 150.028 209.404C150.093 208.546 150.234 207.695 150.452 206.862C151.019 204.217 151.468 201.518 151.278 198.81C151.202 198.151 151.176 197.486 151.197 196.823C151.307 195.327 152.096 193.903 151.947 192.416C151.524 188.043 151.18 183.555 149.96 179.334C149.74 178.58 149.46 177.771 148.804 177.339C147.956 176.771 146.766 177.067 145.796 176.707C145.34 176.495 144.908 176.238 144.503 175.94C143.626 175.391 142.619 175.081 141.584 175.042C140.805 175.012 139.936 175.186 139.466 175.813C139.248 176.166 139.104 176.56 139.042 176.97C138.428 179.555 137.708 182.11 136.988 184.665L136.297 187.115L134.446 193.691C134.263 194.391 134.386 194.607 134.2 195.268Z" fill="#F97826"/>
<path d="M145.033 169.609L186.014 212.684V216.337H167.741L136.945 176.135" fill="#F1C0C0"/>
<path opacity="0.1" d="M145.033 169.609L186.014 212.684V216.337H167.741L136.945 176.135" fill="black"/>
<path opacity="0.1" d="M137.598 175.567L137.729 175.614L168.004 212.684H186.014V216.337H167.741L136.945 176.135L137.598 175.567Z" fill="black"/>
<path d="M142.313 176.474C140.83 177.122 139.182 177.953 138.737 179.512C138.65 179.786 138.631 180.077 138.682 180.36C138.791 180.692 138.997 180.984 139.275 181.197C139.552 181.409 139.888 181.533 140.237 181.551C140.935 181.568 141.628 181.441 142.275 181.178L151.024 178.288C151.261 178.211 151.532 178.097 151.591 177.864C151.607 177.717 151.577 177.57 151.507 177.44C151.235 176.779 150.969 175.427 150.401 174.965C149.935 174.593 149.011 174.724 148.448 174.732C146.279 174.749 144.241 175.627 142.313 176.474Z" fill="#F97826"/>
<path d="M150.113 178.631C151.586 178.627 153.052 178.854 154.455 179.305C155.865 179.762 157.113 180.616 158.052 181.763C158.325 182.083 158.52 182.463 158.62 182.873C158.704 183.297 160.086 183.551 159.781 183.839C160.708 183.691 160.488 184.127 161.429 184.119C162.369 184.11 163.386 183.869 163.949 183.119C164.341 182.502 164.515 181.773 164.445 181.046C164.457 180.543 164.362 180.043 164.165 179.58C163.742 178.69 162.767 178.211 161.869 177.8L154.303 174.338C153.864 174.105 153.392 173.938 152.904 173.843C152.494 173.804 152.08 173.814 151.672 173.872L148.244 174.266C148.994 174.751 149.604 175.424 150.015 176.216C150.426 177.009 150.623 177.895 150.587 178.788" fill="#3F3D56"/>
</g>
<defs>
<clipPath id="clip0">
<rect width="499" height="307" fill="white"/>
</clipPath>
</defs>
</svg>
