<svg width="149" height="114" viewBox="0 0 149 114" fill="none" xmlns="http://www.w3.org/2000/svg">
<path opacity="0.1" d="M52.2677 113.752C66.6221 113.752 78.2587 111.559 78.2587 108.853C78.2587 106.147 66.6221 103.954 52.2677 103.954C37.9133 103.954 26.2768 106.147 26.2768 108.853C26.2768 111.559 37.9133 113.752 52.2677 113.752Z" fill="#FF661B"/>
<path opacity="0.1" d="M86.5707 16.3584C77.0185 16.0295 67.921 12.9604 59.2337 9.60339C50.5464 6.24644 41.9418 2.52824 32.6184 0.749901C26.6218 -0.394049 19.7632 -0.55705 14.9325 2.63837C10.2819 5.72219 8.77938 11.0308 7.97205 15.9605C7.36397 19.6699 7.0068 23.5746 8.67163 27.0475C9.82875 29.4588 11.8803 31.4853 13.3001 33.7952C18.24 41.8308 14.748 51.7401 9.39631 59.5862C6.88725 63.2662 3.97231 66.7818 2.03442 70.6953C0.0965412 74.6088 -0.799342 79.1082 0.89649 83.1113C2.57609 87.0762 6.58026 90.0485 10.918 92.141C19.7277 96.3923 30.1049 97.6082 40.2312 98.2984C62.6401 99.8227 85.1671 99.1633 107.635 98.501C115.95 98.2573 124.301 98.0091 132.481 96.7301C137.024 96.0193 141.713 94.8915 145.011 92.1689C149.197 88.7136 150.234 82.8632 147.429 78.5311C142.724 71.2621 129.718 69.4574 126.425 61.6582C124.615 57.3644 126.474 52.583 129.105 48.6019C134.749 40.0598 144.208 32.5661 144.706 22.8036C145.048 16.0985 140.501 9.38312 133.469 6.20973C126.1 2.88361 115.879 3.30213 110.445 8.80748C104.844 14.47 95.0056 16.6507 86.5707 16.3584Z" fill="#FF661B"/>
<path d="M78.9804 53.12L74.4597 50.0876L76.74 46.71L64.7998 45.7629L60.5093 49.064L55.1384 46.0683L50.659 46.6043L50.6059 45.4295C50.5504 44.2048 50.4267 42.9841 50.2354 41.773C50.2546 41.4059 50.2679 40.9844 50.2664 40.5263C50.2664 38.5952 50.0037 36.0356 48.8495 34.3292L49.1152 31.9532L46.9603 29.4201C47.3064 28.7343 47.701 28.0737 48.1411 27.4435C48.2149 27.3378 48.2887 27.235 48.3684 27.1351C51.1652 26.934 53.3717 24.6461 53.3717 21.8486C53.3717 21.7194 53.3717 21.5901 53.357 21.4624C53.357 21.411 53.3466 21.3581 53.3407 21.3067C53.6138 21.4536 53.8898 21.6004 54.1658 21.7473C54.2174 21.8207 54.2765 21.8941 54.3414 21.9808L54.3547 21.9969L54.4373 22.0982L54.4639 22.1291C54.4934 22.1643 54.5244 22.1981 54.5554 22.2333L54.5761 22.2568C54.6543 22.3435 54.737 22.4316 54.8255 22.5182C54.8361 22.5268 54.8459 22.5361 54.855 22.5461L54.9657 22.6489L54.9967 22.6768C55.0912 22.7605 55.1915 22.8413 55.2919 22.9177L55.3244 22.9411L55.4513 23.0278L55.4926 23.0542C55.5413 23.0836 55.5915 23.1144 55.6402 23.1423L55.6579 23.1526C55.7155 23.1834 55.7745 23.2128 55.8336 23.2407L55.8631 23.2525C55.9133 23.274 55.9625 23.2946 56.0107 23.3141L56.0564 23.3303C56.1081 23.3479 56.1583 23.3641 56.2114 23.3788L56.2439 23.3876C56.3088 23.4037 56.3738 23.4169 56.4402 23.4272H56.4475C56.5101 23.4373 56.5732 23.4437 56.6365 23.4463H56.6793C56.7358 23.4492 56.7925 23.4492 56.849 23.4463H56.8859C56.9567 23.4422 57.0272 23.4339 57.0969 23.4213C57.4272 23.3781 57.7443 23.265 58.0268 23.0895C58.0987 23.0416 58.1625 22.9826 58.2157 22.9147C58.5109 22.53 58.1862 22.1085 58.1862 22.1085C58.0711 21.8354 57.3242 21.643 57.3242 21.643C57.3242 21.643 54.9628 20.6621 54.9628 19.8808C54.9628 19.0996 54.3724 15.0466 48.2783 14.12C48.2783 14.12 44.314 13.8982 43.1997 16.0099L43.1761 16.2566C42.8484 16.4607 42.5769 16.8704 42.2536 16.9908C42.114 17.0207 41.9793 17.0701 41.8536 17.1377V17.1098C41.8163 17.1423 41.7858 17.1817 41.7636 17.2258C41.6942 17.3633 41.6526 17.5129 41.6411 17.6664C41.6079 17.8538 41.5425 18.0341 41.4478 18.1994C41.4214 18.2464 41.3918 18.2915 41.3592 18.3345V18.3345L41.3341 18.3742C41.5055 18.3874 41.6775 18.3598 41.8359 18.2934C41.811 18.4944 41.7614 18.6917 41.6883 18.8808C41.7822 18.8838 41.8749 18.8599 41.9555 18.812C42.0361 18.7641 42.1011 18.6942 42.1429 18.6106V18.5988L42.1621 18.5724C42.1992 18.5044 42.2299 18.4331 42.2536 18.3595L42.2374 18.3771C42.2669 18.2816 42.2935 18.1847 42.3259 18.0907C42.3408 18.0378 42.3653 17.988 42.3983 17.9439C42.4377 17.9044 42.4858 17.8746 42.5389 17.857C42.592 17.8394 42.6484 17.8345 42.7038 17.8426L42.6433 19.1157H42.6698C42.6343 19.2084 42.5908 19.2978 42.54 19.383C42.3304 19.7208 41.9496 19.9513 41.8094 20.3214C41.7489 20.4999 41.7258 20.6888 41.7415 20.8765C41.7415 20.9866 41.7548 21.0982 41.7636 21.2083V21.1995C41.7843 21.4932 41.7902 21.7722 41.6308 22.0087C41.5216 22.1702 41.3459 22.2921 41.2854 22.4756C41.2687 22.5268 41.2612 22.5805 41.2633 22.6342C41.2751 22.7952 41.3089 22.9537 41.3636 23.1056C41.3643 23.1027 41.3643 23.0997 41.3636 23.0968C41.4005 23.2085 41.4091 23.3275 41.3887 23.4434C41.3223 23.7371 40.9637 23.9823 40.9814 24.2628C40.9804 24.2997 40.9859 24.3365 40.9976 24.3715C41.0666 24.5085 41.1861 24.6137 41.3312 24.6651C41.5587 24.7939 41.8201 24.8512 42.0809 24.8296C42.1787 24.812 42.2733 24.7799 42.3614 24.7342C42.258 24.9706 42.1518 25.2041 42.044 25.4258C42.0278 25.4611 42.0101 25.4963 41.9924 25.5316C41.9924 25.5316 41.0803 24.9251 40.5622 26.1615C40.411 26.4185 40.3028 26.6982 40.2419 26.9898C40.216 27.1064 40.1794 27.2204 40.1327 27.3304C39.9027 27.7178 39.5585 28.0255 39.1468 28.2115C38.0901 28.6932 33.8217 33.99 33.7464 35.3616C33.7095 35.897 33.6185 36.4273 33.4748 36.9446C33.1388 38.1628 33.0525 39.4357 33.221 40.6878C33.2737 41.0924 33.3611 41.4918 33.4822 41.8817C33.9353 43.2518 34.2379 45.8084 34.2379 45.8084L34.7279 50.2462C34.7097 50.8586 34.7364 51.4716 34.8076 52.0803C34.3073 52.6486 32.2985 55.0173 33.066 55.6619C33.6564 56.17 34.6895 56.0863 35.2696 55.9821C34.781 57.1847 34.0121 59.2759 33.9102 60.712C33.7627 62.8369 34.1626 65.652 34.7958 66.7328C35.429 67.8136 37.5395 70.5861 37.5395 70.5861C37.5395 70.5861 37.4406 74.3895 38.1948 75.7714C38.949 77.1532 39.2531 80.0197 39.2531 80.0197C39.2531 80.0197 39.9571 82.4397 39.6043 83.3296C39.2516 84.2195 40.2582 84.9597 39.2014 85.5515C38.1447 86.1433 36.7927 99.4815 36.7927 99.4815C36.7927 99.4815 36.2481 108.223 36.7927 108.668C36.8219 108.689 36.853 108.708 36.8857 108.723V111.66C36.8857 111.66 36.5079 112.276 38.0443 112.401C39.0966 112.485 42.0795 112.674 43.8491 112.784L45.2202 112.87C45.2202 112.87 48.4672 113.513 49.9018 112.87C51.3364 112.226 53.8794 112.241 53.5016 110.542C53.4515 110.311 53.3844 110.084 53.3009 109.862C52.8861 108.808 52.1821 108.687 50.8848 108.394C50.8095 108.378 50.7372 108.363 50.6708 108.351C49.3041 108.115 48.8554 108.748 48.0894 107.924C47.4238 107.212 45.3044 106.414 44.5826 106.162C44.6003 106.109 44.6225 106.057 44.6402 106.003C44.4358 105.969 44.2457 105.876 44.0926 105.737L46.0482 105.861L47.2127 105.933C47.2127 105.933 49.9727 106.48 51.1977 105.933C52.4227 105.385 54.5776 105.399 54.2558 103.956C54.2134 103.759 54.1567 103.566 54.0861 103.377C53.7333 102.482 53.1341 102.383 52.0316 102.135C51.9681 102.122 51.9091 102.109 51.8501 102.098C50.6885 101.897 50.3077 102.435 49.6568 101.736C49.0989 101.139 47.3382 100.471 46.705 100.244C46.705 99.9176 46.2622 99.4536 45.9833 98.9881C45.6556 98.4447 46.2607 96.5431 46.2607 96.5431L46.6061 88.6529C46.7376 88.5946 46.8768 88.5551 47.0194 88.5354C47.0194 88.5354 48.5809 87.0523 48.2281 85.4722C48.1563 84.9943 48.1188 84.5119 48.116 84.0286C48.6296 83.5543 49.3366 82.8539 49.5373 82.4221C49.8649 81.7187 49.5373 78.3104 49.5373 78.3104V65.2776L52.1497 65.5404L54.52 65.7827L55.2417 65.8561L57.612 66.094L63.0597 66.6418L67.9686 65.7166L70.0924 65.3172L74.4597 64.4949V53.863L78.9804 53.12ZM43.0255 17.8896L42.7215 17.8573C42.8219 17.8617 42.9281 17.8807 43.0255 17.8896Z" fill="url(#paint0_linear)"/>
<path d="M68.3848 60.0234C66.9088 62.1248 61.6029 61.0117 61.6029 61.0117L57.491 57.1834L56.9375 56.665L57.8659 54.7031C57.8659 54.7031 58.1611 54.7839 58.6673 54.9278C61.3254 55.6958 69.6304 58.2569 68.3848 60.0234Z" fill="#EFB7B9"/>
<path opacity="0.1" d="M58.6644 54.9278C58.4828 55.5563 57.9854 56.4976 57.491 57.1834L56.9375 56.665L57.8659 54.7031C57.8659 54.7031 58.164 54.7839 58.6644 54.9278Z" fill="black"/>
<path d="M44.562 32.8034C44.562 32.8034 40.7718 34.476 40.9578 38.5834C41.0916 41.2295 41.3814 43.8656 41.8256 46.4779C41.8256 46.4779 41.0507 52.6588 44.2771 54.2521C47.5035 55.8454 50.4893 57.1553 50.4893 57.1553C50.4893 57.1553 55.5369 57.6957 56.1642 57.9189C56.7914 58.1421 58.7515 54.7294 58.3899 54.1978C58.0283 53.6662 53.3953 52.5516 52.805 51.6646C52.2146 50.7777 50.8494 50.2299 50.8494 50.2299C50.8494 50.2299 49.4399 49.3811 49.3439 48.6146C49.248 47.848 49.6199 47.2768 49.7144 46.9405C49.8089 46.6042 50.048 43.3574 50.048 43.3574C50.048 43.3574 51.639 31.8004 44.562 32.8034Z" fill="#DCE6F2"/>
<path opacity="0.1" d="M47.0636 46.3091C47.0636 46.3091 41.864 47.1755 42.3673 48.9861C42.3673 48.9861 44.255 47.0316 47.0636 46.3091Z" fill="black"/>
<path opacity="0.1" d="M47.1035 47.042C47.1035 47.042 44.2446 49.3637 44.804 49.4826C45.3634 49.6016 47.1035 47.042 47.1035 47.042Z" fill="black"/>
<path opacity="0.1" d="M48.4776 47.8516C48.4776 47.8516 47.7116 49.4126 48.1824 49.3068C48.6532 49.2011 48.4776 47.8516 48.4776 47.8516Z" fill="black"/>
<path opacity="0.1" d="M58.8562 55.0936L58.5404 55.004C58.6304 54.7103 58.6555 54.4724 58.5817 54.3623C58.2201 53.8307 53.5902 52.7176 53.0013 51.8292C52.4124 50.9407 51.0457 50.3945 51.0457 50.3945C51.0457 50.3945 49.6362 49.5457 49.5402 48.7791C49.4443 48.0126 49.8162 47.4413 49.9107 47.1051C50.0052 46.7688 50.2442 43.5205 50.2442 43.5205C50.2442 43.5205 51.8309 31.965 44.7538 32.968C44.7538 32.968 40.9637 34.642 41.1482 38.7494C41.282 41.3956 41.5723 44.0317 42.0175 46.644C42.0175 46.644 41.2426 52.8248 44.469 54.4181C47.6953 56.0114 50.6811 57.3213 50.6811 57.3213C50.6811 57.3213 55.7273 57.8602 56.356 58.0849C56.5937 58.1701 57.0231 57.731 57.4438 57.1275L57.6829 57.3492L61.7948 61.1761C61.7948 61.1761 67.1007 62.2907 68.5766 60.1893C69.8238 58.4212 61.5203 55.8602 58.8562 55.0936Z" fill="black"/>
<path d="M42.3805 17.3871C42.2361 17.4152 42.0977 17.4683 41.9717 17.5442C41.8241 17.6661 41.8241 17.8746 41.7872 18.0567C41.7439 18.31 41.6429 18.5501 41.492 18.7586C41.66 18.7709 41.8285 18.7432 41.9835 18.6779C41.9583 18.8788 41.9087 19.0761 41.8359 19.2652C41.9279 19.2676 42.0186 19.2435 42.0971 19.1958C42.1756 19.1481 42.2387 19.0789 42.2787 18.9965C42.3568 18.831 42.4186 18.6584 42.4632 18.4811C42.4771 18.428 42.5011 18.3782 42.534 18.3342C42.6698 18.1742 42.9222 18.2461 43.1318 18.2667C43.3062 18.2813 43.4814 18.2493 43.6392 18.1739C43.797 18.0985 43.9316 17.9825 44.0292 17.8379C44.252 17.5016 44.2653 16.6411 43.734 16.55C43.179 16.459 42.8337 17.2196 42.3805 17.3871Z" fill="#965D7B"/>
<g opacity="0.1">
<path opacity="0.1" d="M41.957 17.7247C41.9702 17.6527 41.9791 17.5778 41.9953 17.5059C41.8551 17.6277 41.8477 17.8348 41.8108 18.0184C41.7923 18.1243 41.7631 18.2281 41.7238 18.3282C41.84 18.1439 41.9192 17.939 41.957 17.7247V17.7247Z" fill="black"/>
<path opacity="0.1" d="M42.0042 18.9375C42.0777 18.7485 42.1273 18.5512 42.1518 18.3501C42.004 18.412 41.844 18.4396 41.6839 18.4309C41.6373 18.5341 41.5805 18.6325 41.5142 18.7246C41.6815 18.7374 41.8496 18.7103 42.0042 18.6453C41.9797 18.8464 41.9301 19.0437 41.8566 19.2327C41.9485 19.2348 42.0391 19.2106 42.1176 19.163C42.1961 19.1153 42.2592 19.0462 42.2994 18.9639C42.3361 18.8972 42.3658 18.8268 42.3879 18.7539C42.3446 18.8141 42.2868 18.8625 42.2197 18.8946C42.1526 18.9267 42.0785 18.9414 42.0042 18.9375V18.9375Z" fill="black"/>
<path opacity="0.1" d="M43.3001 17.9389C43.0905 17.9183 42.8366 17.8464 42.7008 18.0064C42.6685 18.0507 42.6445 18.1005 42.63 18.1533C42.6167 18.1915 42.6049 18.2311 42.5946 18.2708C42.7348 18.1606 42.9621 18.2194 43.1525 18.2385C43.3268 18.2526 43.5018 18.2204 43.6595 18.145C43.8172 18.0697 43.9519 17.9539 44.0498 17.8097C44.0946 17.7384 44.1279 17.6606 44.1487 17.5791C44.0476 17.7036 43.9174 17.8015 43.7694 17.8642C43.6215 17.9269 43.4603 17.9526 43.3001 17.9389Z" fill="black"/>
</g>
<path d="M46.8231 29.5156L49.0739 32.2088L48.7801 34.927L46.06 30.6904L46.8231 29.5156Z" fill="#DCE6F2"/>
<path opacity="0.1" d="M49.0724 32.2088L48.7964 34.7654L48.7787 34.927L46.3242 31.1031L46.06 30.6904L46.1368 30.5715L46.8216 29.5156L46.9736 29.6977L49.0724 32.2088Z" fill="black"/>
<path d="M50.2413 25.8692C49.4797 26.0865 48.7521 26.8325 48.1189 27.7386C47.691 28.3637 47.3082 29.0183 46.9736 29.6975C46.7655 30.1116 46.5825 30.5096 46.4305 30.8561L46.3242 31.1029C46.0674 31.7064 45.9242 32.1102 45.9242 32.1102C45.9242 32.1102 40.0944 27.7488 41.0168 27.4551C41.3268 27.3568 41.7341 26.6959 42.137 25.8633L42.1872 25.7576C42.4425 25.223 42.6935 24.6268 42.9163 24.0659C43.3724 22.9131 43.7104 21.9116 43.7104 21.9116C43.7104 21.9116 52.5659 25.2084 50.2413 25.8692Z" fill="#EFB7B9"/>
<path d="M53.7289 21.6665C53.7289 21.6665 55.0749 24.0895 56.8829 23.7591C58.6909 23.4287 57.9471 22.458 57.9471 22.458L53.7289 21.6665Z" fill="#444053"/>
<path d="M51.1209 105.539C49.9284 106.081 47.2319 105.539 47.2319 105.539L46.0954 105.469C44.6195 105.375 42.1488 105.216 41.2751 105.146C39.9999 105.041 40.3128 104.521 40.3128 104.521V101.38L46.4998 99.8208C46.4998 99.8208 48.9454 100.653 49.6155 101.38C50.2516 102.073 50.6236 101.54 51.7585 101.74C51.8146 101.75 51.8737 101.762 51.9357 101.777C53.0131 102.022 53.5975 102.119 53.9429 103.007C54.0123 103.194 54.068 103.385 54.1097 103.58C54.4285 105.01 52.312 105 51.1209 105.539Z" fill="#A36468"/>
<path opacity="0.1" d="M53.9429 103.008C53.7212 103.145 53.4882 103.264 53.2463 103.363C52.4345 103.731 51.6626 104.181 50.842 104.529C50.0214 104.877 49.1373 105.125 48.2488 105.059C47.7839 105.025 47.3086 104.912 46.8644 105.044C46.5896 105.15 46.3309 105.293 46.0954 105.469C44.6195 105.375 42.1488 105.216 41.2751 105.146C39.9999 105.041 40.3128 104.522 40.3128 104.522V104.154C40.3585 104.154 40.4102 104.141 40.4692 104.137C40.7747 104.132 41.0788 104.177 41.3695 104.27C42.0101 104.444 42.6477 104.614 43.2882 104.784C43.3409 104.587 43.4335 104.402 43.5604 104.24C43.6873 104.079 43.8457 103.946 44.0262 103.848C44.3918 103.654 44.8021 103.561 45.2158 103.576C46.2091 103.589 47.1492 104.057 48.1411 104.104C48.4183 104.13 48.6975 104.083 48.9513 103.969C49.0871 103.902 49.2067 103.803 49.3395 103.729C49.5521 103.626 49.7767 103.551 50.0081 103.504C50.6585 103.343 51.2971 103.138 51.9194 102.89C52.0965 102.821 52.3032 102.696 52.2795 102.508C52.2485 102.259 51.8545 102.229 51.7512 102C51.7329 101.959 51.7245 101.914 51.7266 101.869C51.7286 101.824 51.7411 101.78 51.763 101.74C51.8191 101.751 51.8781 101.762 51.9401 101.777C53.0131 102.022 53.5975 102.119 53.9429 103.008Z" fill="black"/>
<path d="M49.8605 112.412C48.4584 113.049 45.2852 112.412 45.2852 112.412L43.9495 112.334C42.2197 112.224 39.3062 112.04 38.2775 111.954C36.7765 111.83 37.1455 111.219 37.1455 111.219V107.517L44.4262 105.682C44.4262 105.682 47.3042 106.661 48.0924 107.517C48.8406 108.332 49.2731 107.705 50.6147 107.94C50.6811 107.952 50.7505 107.967 50.8228 107.983C52.0906 108.276 52.7784 108.387 53.1843 109.432C53.2665 109.652 53.3321 109.877 53.3806 110.106C53.7466 111.789 51.2626 111.776 49.8605 112.412Z" fill="#A36468"/>
<path opacity="0.1" d="M53.1813 109.432C52.9205 109.594 52.6465 109.734 52.3622 109.85C51.4073 110.284 50.4981 110.812 49.5329 111.222C48.5676 111.632 47.5271 111.922 46.4807 111.846C45.9346 111.806 45.3752 111.67 44.8571 111.828C44.5325 111.954 44.2271 112.124 43.9495 112.334C42.2197 112.223 39.3062 112.04 38.2775 111.953C36.7765 111.83 37.1455 111.219 37.1455 111.219V110.787C37.2066 110.777 37.2681 110.771 37.33 110.767C37.6895 110.76 38.0476 110.813 38.3897 110.924L40.6463 111.529C40.7092 111.296 40.8192 111.077 40.9697 110.888C41.1202 110.698 41.308 110.541 41.5216 110.426C41.9517 110.198 42.4351 110.087 42.9222 110.106C44.0911 110.122 45.1966 110.673 46.3641 110.729C46.6892 110.758 47.0165 110.704 47.3146 110.571C47.4754 110.491 47.6097 110.375 47.7721 110.288C48.0217 110.166 48.2861 110.078 48.5588 110.024C49.3199 109.833 50.0674 109.591 50.7963 109.301C51.0044 109.219 51.2479 109.072 51.2198 108.852C51.1829 108.558 50.7195 108.523 50.597 108.253C50.5764 108.204 50.567 108.151 50.5695 108.098C50.5721 108.045 50.5865 107.994 50.6118 107.947C50.6782 107.959 50.7475 107.974 50.8199 107.99C52.0877 108.272 52.7755 108.386 53.1813 109.432Z" fill="black"/>
<path d="M46.6873 87.0083L46.2932 96.2348C46.2932 96.2348 45.7029 98.1188 46.0231 98.6578C46.3434 99.1967 46.8836 99.7342 46.6873 100.053C46.491 100.372 44.1295 103.817 43.3665 102.495C42.6034 101.173 41.8507 95.4462 41.8507 95.4462L42.5547 88.3725L46.6873 87.0083Z" fill="#444053"/>
<path d="M48.3964 64.0205L49.4915 65.4772V78.1473C49.4915 78.1473 49.8118 81.5249 49.4915 82.2224C49.1712 82.9199 47.5477 84.315 47.5477 84.315L46.1825 77.3397L46.4777 69.9605L48.3964 64.0205Z" fill="#444053"/>
<path opacity="0.1" d="M46.6873 87.0083L46.2932 96.2348C46.2932 96.2348 45.7029 98.1188 46.0231 98.6578C46.3434 99.1967 46.8836 99.7342 46.6873 100.053C46.491 100.372 44.1295 103.817 43.3665 102.495C42.6034 101.173 41.8507 95.4462 41.8507 95.4462L42.5547 88.3725L46.6873 87.0083Z" fill="black"/>
<path opacity="0.1" d="M48.3964 64.0205L49.4915 65.4772V78.1473C49.4915 78.1473 49.8118 81.5249 49.4915 82.2224C49.1712 82.9199 47.5477 84.315 47.5477 84.315L46.1825 77.3397L46.4777 69.9605L48.3964 64.0205Z" fill="black"/>
<path d="M49.4915 58.6166V65.4701L48.2621 70.8051C48.2621 70.8051 47.868 83.6793 48.2119 85.2447C48.5558 86.8101 47.0312 88.28 47.0312 88.28C47.0312 88.28 46.1456 88.3784 46.1456 89.0627C46.1456 89.7471 44.6697 91.706 44.6697 91.706L44.7184 95.5241C44.7184 95.5241 45.359 102.671 44.3745 104.041C43.3901 105.411 44.7184 105.608 44.7184 105.608C43.489 109.622 37.5853 108.692 37.0525 108.251C36.5197 107.811 37.0525 99.1468 37.0525 99.1468C37.0525 99.1468 38.372 85.9305 39.4051 85.3431C40.4382 84.7557 39.4553 84.0214 39.7992 83.1403C40.1431 82.2592 39.4553 79.8612 39.4553 79.8612C39.4553 79.8612 39.1601 77.0212 38.4221 75.6511C37.6842 74.281 37.7816 70.5114 37.7816 70.5114C37.7816 70.5114 35.7153 67.7697 35.1013 66.6933C34.4873 65.6169 34.0918 62.8268 34.2394 60.721C34.3397 59.298 35.091 57.226 35.5677 56.0336C35.7965 55.4623 35.9618 55.0923 35.9618 55.0923L36.102 55.129L44.1635 57.2289L49.4915 58.6166Z" fill="#444053"/>
<path opacity="0.1" d="M50.2413 25.8697C49.4797 26.087 48.7521 26.833 48.1189 27.7391H47.9536C47.0256 27.7397 46.1138 27.4966 45.3104 27.0343C44.507 26.572 43.8405 25.9068 43.3783 25.1061C43.1851 24.7743 43.0297 24.4221 42.9149 24.0561C43.3709 22.9034 43.7089 21.9019 43.7089 21.9019C43.7089 21.9019 52.5659 25.2089 50.2413 25.8697Z" fill="black"/>
<path d="M53.2301 22.1981C53.2314 23.0016 53.0473 23.7947 52.692 24.5162C52.3367 25.2378 51.8197 25.8686 51.1808 26.36C50.5419 26.8515 49.7981 27.1904 49.0068 27.3508C48.2155 27.5112 47.3977 27.4887 46.6165 27.2851C45.8353 27.0815 45.1115 26.7022 44.5009 26.1764C43.8902 25.6506 43.409 24.9923 43.0943 24.2524C42.7796 23.5124 42.6398 22.7104 42.6857 21.9082C42.7317 21.106 42.962 20.325 43.3591 19.6253C43.519 19.341 43.7058 19.0726 43.917 18.8235C44.265 18.411 44.6741 18.0535 45.1302 17.7633C45.9006 17.2762 46.7847 16.9963 47.6963 16.9509C48.6079 16.9055 49.5158 17.0961 50.3312 17.5042C51.1466 17.9123 51.8416 18.5239 52.3484 19.2792C52.8552 20.0344 53.1565 20.9076 53.2227 21.8134C53.2256 21.9426 53.2301 22.0704 53.2301 22.1981Z" fill="#EFB7B9"/>
<path opacity="0.1" d="M48.7964 34.7655L48.7787 34.927L46.3242 31.109C46.0674 31.7125 45.9242 32.1163 45.9242 32.1163C45.9242 32.1163 40.0944 27.7491 41.0168 27.4554C41.3268 27.357 41.7341 26.6962 42.137 25.8635L42.1872 25.7578C42.6152 27.0266 45.1022 29.5627 46.1368 30.5788C46.2563 30.6963 46.3552 30.7932 46.432 30.8637L46.5899 31.0106L46.6725 31.0928C47.0489 31.479 48.637 33.1825 48.7964 34.7655Z" fill="black"/>
<path d="M50.6309 47.7202L50.3623 56.3211L50.3151 57.8527C50.3151 57.8527 47.133 57.559 44.1635 57.2359C41.7725 56.976 39.5187 56.6955 39.1719 56.5311C38.7291 56.324 37.7801 56.1639 37.0318 56.0626C36.4533 55.9848 35.9987 55.9437 35.9987 55.9437C35.9987 55.9437 35.8289 55.9936 35.5677 56.0406C34.998 56.1434 33.9973 56.2271 33.4143 55.7234C32.669 55.0787 34.6275 52.7365 35.1161 52.1741L35.2238 52.0522L35.0393 50.3561L34.5596 45.958C34.5596 45.958 34.2645 43.4248 33.8217 42.0665C33.7033 41.6803 33.6179 41.2848 33.5664 40.8844C33.4018 39.6437 33.4861 38.383 33.8143 37.175C33.9545 36.6617 34.0435 36.1358 34.08 35.6052C34.1538 34.2468 38.3232 28.997 39.3564 28.5197C39.8211 28.3041 40.1951 27.933 40.4131 27.4712C40.4851 27.326 40.5391 27.1727 40.574 27.0145C41.0168 25.1055 42.137 25.8632 42.137 25.8632C42.4071 27.3567 46.5884 31.3098 46.5884 31.3098L46.671 31.3921C47.0858 31.815 48.9336 33.8004 48.8023 35.495C48.776 36.1258 48.8707 36.7557 49.0812 37.3512C49.9317 40.0157 50.4206 42.7813 50.535 45.5747L50.6309 47.7202Z" fill="#DCE6F2"/>
<path opacity="0.1" d="M44.7066 37.5073C44.7066 37.5073 43.6735 40.0038 42.8986 40.4076C42.1237 40.8114 45.0756 41.2593 44.7066 37.5073Z" fill="black"/>
<path opacity="0.1" d="M45.4815 42.1694C45.4815 42.1694 43.12 42.4631 43.12 42.9037C43.12 43.3442 45.4815 42.1694 45.4815 42.1694Z" fill="black"/>
<path opacity="0.1" d="M47.9536 45.0332C47.9536 45.0332 44.5221 52.3022 43.5628 52.5225C42.6034 52.7427 47.9536 45.0332 47.9536 45.0332Z" fill="black"/>
<path opacity="0.1" d="M46.5234 31.6787L43.6853 32.9064L40.2596 27.7578C40.3316 27.6126 40.3856 27.4593 40.4205 27.3012C40.8633 25.3921 41.9835 26.1499 41.9835 26.1499C42.2536 27.6433 46.4349 31.5965 46.4349 31.5965L46.5234 31.6787Z" fill="black"/>
<path d="M46.671 31.3848L43.8328 32.6124L40.4072 27.4639C40.4792 27.3187 40.5332 27.1654 40.5681 27.0072C41.0109 25.0982 42.1311 25.8559 42.1311 25.8559C42.4012 27.3494 46.5825 31.3025 46.5825 31.3025L46.671 31.3848Z" fill="#DCE6F2"/>
<path opacity="0.1" d="M50.3151 57.8532C50.3151 57.8532 47.133 57.5595 44.1635 57.2365L49.4916 58.6242V60.2395C49.2584 60.4495 49.0562 60.5582 48.9248 60.5024C48.3108 60.2454 43.3001 59.4377 43.3001 59.4377C43.3001 59.4377 40.3896 57.9693 37.2488 56.2071C37.1726 56.1651 37.0987 56.119 37.0274 56.069C36.6612 55.8217 36.3457 55.5072 36.0976 55.1424C35.5176 54.3069 35.2342 53.2334 35.1117 52.1805C35.0428 51.5771 35.0172 50.9695 35.0349 50.3625C35.0501 49.6742 35.1133 48.9877 35.2238 48.3081C34.9201 45.6758 34.7723 43.0279 34.7811 40.3783C34.818 36.2665 38.6923 34.798 38.6923 34.798C45.8136 34.1739 43.6056 45.6281 43.6056 45.6281C43.6056 45.6281 43.1938 48.8588 43.0816 49.1892C42.9695 49.5196 42.5665 50.0703 42.6212 50.8412C42.6758 51.6122 44.0366 52.5344 44.0366 52.5344C44.0366 52.5344 45.3649 53.1541 45.9125 54.0719C46.311 54.7489 48.8997 55.6667 50.3624 56.3216L50.3151 57.8532Z" fill="black"/>
<path opacity="0.1" d="M52.7002 18.9378C52.7029 19.1797 52.6525 19.4192 52.5526 19.6397C52.4769 19.8197 52.3891 19.9943 52.2899 20.1625C52.1345 20.4719 51.914 20.7443 51.6434 20.9614C51.3025 21.2037 50.8715 21.2712 50.4627 21.3696C50.0538 21.468 49.6288 21.6251 49.3956 21.9717C49.2692 22.1945 49.1847 22.4383 49.1462 22.6912C49.1071 22.944 49.0056 23.1831 48.851 23.3873C48.7704 23.487 48.6589 23.5572 48.5339 23.587C48.4088 23.6168 48.2774 23.6044 48.1602 23.5518C48.0368 23.469 47.9432 23.3491 47.8931 23.2096C47.7248 22.8322 47.682 22.4137 47.6141 22.0069C47.5463 21.6001 47.4503 21.1816 47.1994 20.8542C46.9485 20.5267 46.5043 20.3108 46.1102 20.4386C45.9783 20.4891 45.858 20.5656 45.7566 20.6635C45.6551 20.7614 45.5746 20.8787 45.5198 21.0084C45.4108 21.2679 45.3358 21.5403 45.2969 21.819C45.1139 22.8156 44.898 23.8063 44.649 24.7912C44.6414 24.8315 44.6248 24.8697 44.6003 24.9028C44.5611 24.9417 44.5081 24.9638 44.4527 24.9644C44.1221 25.0085 43.8048 24.7779 43.4712 24.8029C43.4369 24.8052 43.4028 24.8106 43.3694 24.8191C42.8301 23.8865 42.592 22.8116 42.6873 21.7399C42.7826 20.6681 43.2067 19.6515 43.9022 18.8277L43.9288 18.8203C44.1507 18.7419 44.3523 18.6155 44.5191 18.4503C44.7322 18.2381 44.9295 18.0109 45.1095 17.7703L45.2276 17.6235C45.5668 17.2169 45.9533 16.8516 46.3788 16.5353C46.495 16.4407 46.6282 16.3689 46.7714 16.3239C46.8939 16.3001 47.0195 16.2962 47.1433 16.3121C47.653 16.373 48.1669 16.3922 48.6798 16.3694C49.0371 16.3135 49.3973 16.2772 49.7587 16.2607C50.6929 16.2872 51.4899 16.9436 52.0803 17.6631C52.3976 18.0317 52.681 18.4561 52.7002 18.9378Z" fill="black"/>
<path d="M42.6698 19.7649C42.4647 20.0997 42.0942 20.3273 41.9555 20.6945C41.7518 21.2275 42.0957 21.8913 41.7799 22.3671C41.6751 22.5271 41.5024 22.6461 41.4434 22.8296C41.343 23.1395 41.6175 23.4699 41.5467 23.7885C41.4758 24.1072 41.0537 24.3759 41.1659 24.6873C41.2322 24.823 41.3484 24.9282 41.4906 24.981C41.7142 25.1086 41.9716 25.1655 42.2285 25.144C42.6315 25.0779 42.9311 24.6843 43.3399 24.655C43.672 24.6315 43.9893 24.8605 44.3199 24.818C44.3753 24.816 44.428 24.7935 44.4675 24.7548C44.4926 24.7221 44.5093 24.6838 44.5162 24.6432C44.7642 23.6593 44.9806 22.6686 45.1656 21.671C45.2033 21.3923 45.2777 21.1197 45.387 20.8604C45.4422 20.731 45.5229 20.614 45.6243 20.5161C45.7257 20.4182 45.8457 20.3416 45.9774 20.2906C46.3714 20.1643 46.8142 20.3787 47.0666 20.7062C47.319 21.0337 47.4149 21.4522 47.4828 21.859C47.5507 22.2657 47.5935 22.6842 47.7603 23.0616C47.811 23.2016 47.905 23.322 48.0289 23.4053C48.2503 23.533 48.5484 23.4317 48.7182 23.2408C48.8737 23.0365 48.9751 22.7967 49.0133 22.5433C49.0518 22.2908 49.1364 22.0474 49.2628 21.8252C49.496 21.4786 49.9225 21.3215 50.3299 21.2231C50.7372 21.1247 51.1667 21.0557 51.5106 20.8134C51.7809 20.5966 52.0013 20.3247 52.157 20.016C52.3755 19.6371 52.5792 19.226 52.5615 18.7898C52.5423 18.314 52.2589 17.8896 51.9563 17.5196C51.366 16.8 50.5675 16.1436 49.6332 16.1187C49.2718 16.1337 48.9115 16.17 48.5543 16.2273C48.0414 16.2503 47.5275 16.2306 47.0179 16.1686C46.894 16.1538 46.7685 16.1583 46.646 16.1818C46.5026 16.2254 46.3696 16.2973 46.2548 16.3933C45.8289 16.709 45.442 17.0738 45.1022 17.4799C44.8831 17.769 44.6454 18.0437 44.3908 18.3023C44.2239 18.4678 44.0223 18.5947 43.8004 18.6738C43.6528 18.7149 43.5052 18.6856 43.365 18.7311C42.9296 18.8677 42.872 19.433 42.6698 19.7649Z" fill="#965D7B"/>
<path opacity="0.1" d="M56.8829 23.7576C55.7022 23.9735 54.7236 23.0234 54.182 22.3303C54.0156 22.1198 53.8642 21.898 53.7289 21.6665L57.7818 22.4272L57.9456 22.458C57.9456 22.458 58.6909 23.4287 56.8829 23.7576Z" fill="black"/>
<g opacity="0.1">
<path opacity="0.1" d="M41.5466 23.3681C41.5632 23.176 41.5338 22.9828 41.461 22.8042C41.461 22.8189 41.4478 22.8336 41.4433 22.8483C41.3799 23.045 41.4655 23.2492 41.5201 23.4533C41.5318 23.4258 41.5407 23.3973 41.5466 23.3681V23.3681Z" fill="black"/>
<path opacity="0.1" d="M41.8979 20.9644C41.8827 21.1674 41.8867 21.3714 41.9097 21.5738C41.9249 21.3707 41.9209 21.1667 41.8979 20.9644Z" fill="black"/>
<path opacity="0.1" d="M52.1482 19.5912C51.9929 19.9006 51.7724 20.1731 51.5017 20.3901C51.1608 20.6324 50.7313 20.6999 50.321 20.7983C49.9107 20.8967 49.4871 21.0538 49.2539 21.4004C49.1277 21.6233 49.0432 21.8671 49.0045 22.1199C48.966 22.3733 48.8646 22.6131 48.7093 22.8175C48.5396 23.0084 48.2414 23.1112 48.02 22.9819C47.8962 22.8986 47.8021 22.7783 47.7514 22.6383C47.5847 22.2609 47.5404 21.8439 47.474 21.4356C47.4075 21.0274 47.3087 20.6103 47.0577 20.2829C46.8068 19.9554 46.3626 19.7395 45.9685 19.8673C45.8367 19.918 45.7166 19.9946 45.6152 20.0925C45.5137 20.1904 45.4331 20.3076 45.3781 20.4371C45.2689 20.6964 45.1944 20.969 45.1568 21.2477C44.9728 22.2453 44.7563 23.236 44.5074 24.2199C44.5004 24.2605 44.4837 24.2988 44.4586 24.3315C44.4191 24.3702 44.3665 24.3927 44.3111 24.3946C43.9804 24.4372 43.6631 24.2081 43.331 24.2316C42.9222 24.261 42.6226 24.6546 42.2197 24.7192C41.9627 24.7421 41.7048 24.6851 41.4817 24.5562C41.3791 24.5122 41.2871 24.4472 41.2116 24.3653C41.1771 24.4145 41.1542 24.4708 41.1448 24.5301C41.1353 24.5894 41.1395 24.65 41.157 24.7074C41.222 24.8441 41.3387 24.9497 41.4817 25.0011C41.7048 25.1301 41.9627 25.187 42.2197 25.1641C42.6226 25.0995 42.9222 24.7059 43.331 24.6766C43.6631 24.6531 43.9804 24.8822 44.3111 24.8396C44.3665 24.8377 44.4191 24.8151 44.4586 24.7764C44.4837 24.7437 44.5004 24.7054 44.5074 24.6648C44.7553 23.6858 44.9718 22.6951 45.1568 21.6926C45.1944 21.4139 45.2689 21.1414 45.3781 20.882C45.4331 20.7525 45.5137 20.6353 45.6152 20.5375C45.7166 20.4396 45.8367 20.363 45.9685 20.3122C46.3626 20.1845 46.8054 20.4004 47.0577 20.7278C47.3101 21.0553 47.4061 21.4738 47.474 21.8806C47.5418 22.2874 47.5847 22.7059 47.7514 23.0833C47.8021 23.2232 47.8962 23.3436 48.02 23.4269C48.2414 23.5547 48.5396 23.4533 48.7093 23.2624C48.8646 23.058 48.966 22.8182 49.0045 22.5649C49.0432 22.312 49.1277 22.0682 49.2539 21.8453C49.4871 21.4988 49.9137 21.3431 50.321 21.2433C50.7284 21.1434 51.1579 21.0773 51.5017 20.835C51.7724 20.618 51.9929 20.3455 52.1482 20.0362C52.3666 19.6588 52.5703 19.2476 52.5526 18.8115C52.5497 18.7554 52.5438 18.6995 52.5349 18.644C52.4637 18.9802 52.3327 19.3009 52.1482 19.5912V19.5912Z" fill="black"/>
</g>
<path opacity="0.1" d="M52.5585 19.6354C52.937 20.305 53.1613 21.0498 53.2153 21.8161C51.9003 21.0819 50.6634 20.2757 50.0391 19.9952C48.9514 19.5062 44.8837 19.5796 43.3547 19.6251C43.5146 19.3408 43.7014 19.0724 43.9126 18.8233C44.262 18.4104 44.6726 18.0529 45.1302 17.7631C45.7363 17.3804 46.4144 17.1247 47.1232 17.0116C47.832 16.8985 48.5565 16.9304 49.2525 17.1054C49.9484 17.2803 50.6012 17.5947 51.1709 18.0292C51.7406 18.4637 52.2153 19.0092 52.5659 19.6325L52.5585 19.6354Z" fill="black"/>
<path opacity="0.1" d="M57.2519 23.135C56.542 23.3523 55.3834 22.9323 54.182 22.3303C54.0156 22.1198 53.8642 21.898 53.7289 21.6665L57.7818 22.4272C58.0504 22.6093 58.1183 22.8692 57.2519 23.135Z" fill="black"/>
<path d="M48.268 14.5443C48.268 14.5443 44.3937 14.324 43.3045 16.4166L43.1288 18.2713L42.8337 18.239L42.7746 19.5004C42.7746 19.5004 48.696 19.2434 50.0435 19.8484C51.391 20.4534 55.5782 23.502 57.2563 22.988C58.9345 22.4741 57.1087 21.9968 57.1087 21.9968C57.1087 21.9968 54.7989 21.0232 54.7989 20.2596C54.7989 19.496 54.2263 15.4621 48.268 14.5443Z" fill="#444053"/>
<path opacity="0.1" d="M40.7954 83.2988C40.7954 83.2988 43.2676 85.6851 44.3376 85.5016C44.3376 85.5016 41.312 85.2446 40.7954 83.2988Z" fill="black"/>
<path opacity="0.1" d="M40.2788 84.4048C40.2788 84.4048 40.5002 85.6324 41.0906 85.512C41.681 85.3916 40.2788 84.4048 40.2788 84.4048Z" fill="black"/>
<path opacity="0.1" d="M44.1531 104.922C44.1531 104.922 40.6434 107.639 41.2352 107.712C41.8271 107.786 44.1531 104.922 44.1531 104.922Z" fill="black"/>
<path d="M48.848 51.0041L60.2126 49.1641V59.8693L49.4148 59.3069L48.848 51.0041Z" fill="#3F3D56"/>
<path opacity="0.05" d="M48.848 51.0041L60.2126 49.1641V59.8693L49.4148 59.3069L48.848 51.0041Z" fill="#65617D"/>
<path d="M60.2126 49.1641L73.8413 50.1788L73.0871 59.4949L60.2126 59.8693V49.1641Z" fill="#3F3D56"/>
<path opacity="0.1" d="M60.2126 49.1641L73.8413 50.1788L73.0871 59.4949L60.2126 59.8693V49.1641Z" fill="black"/>
<path d="M64.4028 45.8965L60.2126 49.1639L73.8413 50.1786L76.0685 46.8348L64.4028 45.8965Z" fill="#02528A"/>
<path d="M44.7332 47.4357L54.9642 46.1963L60.2126 49.1641L48.848 51.0041L44.7332 47.4357Z" fill="#02528A"/>
<path d="M62.704 51.9437V66.5801L57.3803 66.0368L55.0646 65.8018L54.3591 65.7284L52.0449 65.492L48.848 65.166V51.0039L60.2111 51.7734L62.704 51.9437Z" fill="#02528A"/>
<path d="M73.8413 50.1787V64.4524L69.5744 65.2674L67.4992 65.6639L62.704 66.5802V51.9438L73.8413 50.1787Z" fill="#02528A"/>
<path opacity="0.05" d="M73.8413 50.1787V64.4524L69.5744 65.2674L67.4992 65.6639L62.704 66.5802V51.9438L73.8413 50.1787Z" fill="#02528A"/>
<path d="M44.7332 54.0848L48.848 51.0039L62.7039 51.9437L60.6642 55.3624L44.7332 54.0848Z" fill="#0068B1"/>
<path opacity="0.1" d="M44.7332 54.0848L48.848 51.0039L62.7039 51.9437L60.6642 55.3624L44.7332 54.0848Z" fill="white"/>
<path d="M73.8412 50.1787L62.704 51.9438L66.3288 55.1745L78.2587 53.1832L73.8412 50.1787Z" fill="#0068B1"/>
<path opacity="0.1" d="M73.8412 50.1787L62.704 51.9438L66.3288 55.1745L78.2587 53.1832L73.8412 50.1787Z" fill="#0068B1"/>
<path opacity="0.1" d="M69.5744 65.2671L67.4993 65.6636V62.6135L69.4431 62.126L69.5744 65.2671Z" fill="white"/>
<path opacity="0.1" d="M57.3804 64.019V66.0367L55.0646 65.8018V64.019H57.3804Z" fill="white"/>
<path opacity="0.1" d="M54.3591 64.6548V65.7282L52.0449 65.4918V64.6548H54.3591Z" fill="white"/>
<path opacity="0.1" d="M61.3107 62.9487C59.7241 64.9678 54.4846 63.5728 54.4846 63.5728L50.5911 59.5315L50.0627 58.9837L51.0959 57.0747C51.0959 57.0747 51.391 57.1716 51.884 57.342C54.4934 58.2495 62.6464 61.2496 61.3107 62.9487Z" fill="black"/>
<path d="M61.1631 62.6547C59.5765 64.6738 54.337 63.2788 54.337 63.2788L50.4435 59.2375L49.9151 58.6898L50.9482 56.7808C50.9482 56.7808 51.2434 56.8777 51.7364 57.048C54.3458 57.9555 62.4988 60.9557 61.1631 62.6547Z" fill="#EFB7B9"/>
<path opacity="0.1" d="M51.7305 57.048C51.515 57.6648 50.9675 58.5782 50.4376 59.2375L49.9092 58.6898L50.9424 56.7808C50.9424 56.7808 51.239 56.8777 51.7305 57.048Z" fill="black"/>
<path d="M38.8398 34.2102C38.8398 34.2102 34.9656 35.6787 34.9287 39.7905C34.9198 42.4401 35.0677 45.0879 35.3714 47.7203C35.3714 47.7203 34.2645 53.8512 37.4008 55.6134C40.5371 57.3756 43.4521 58.8441 43.4521 58.8441C43.4521 58.8441 48.4628 59.6517 49.0783 59.9087C49.6938 60.1657 51.8324 56.8616 51.5003 56.3109C51.1682 55.7602 46.6061 54.4019 46.0645 53.4841C45.5228 52.5663 44.1886 51.9481 44.1886 51.9481C44.1886 51.9481 42.8278 51.0244 42.7732 50.2534C42.7186 49.4825 43.12 48.9318 43.2337 48.6014C43.3473 48.271 43.7591 45.0403 43.7591 45.0403C43.7591 45.0403 45.9612 33.5788 38.8398 34.2102Z" fill="#DCE6F2"/>
<path opacity="0.1" d="M40.6109 47.8232C40.6109 47.8232 35.3714 48.4106 35.7773 50.2462C35.7773 50.2462 37.7683 48.3945 40.6109 47.8232Z" fill="black"/>
<path opacity="0.1" d="M40.6109 48.5571C40.6109 48.5571 37.637 50.7232 38.183 50.87C38.7291 51.0168 40.6109 48.5571 40.6109 48.5571Z" fill="black"/>
<path opacity="0.1" d="M41.9393 49.4385C41.9393 49.4385 41.0906 50.9569 41.5703 50.8776C42.05 50.7983 41.9393 49.4385 41.9393 49.4385Z" fill="black"/>
<path d="M96.4922 16.5033C96.4922 16.5033 90.8837 16.167 91.539 20.082C91.539 20.082 91.4077 20.7737 92.0379 21.0879C92.0379 21.0879 92.0482 20.7942 92.6135 20.8956C92.8148 20.9293 93.0194 20.9391 93.2231 20.9249C93.499 20.9066 93.7614 20.7988 93.9699 20.618V20.618C93.9699 20.618 95.5476 19.9704 96.1616 17.4035C96.1616 17.4035 96.6162 16.8425 96.6044 16.6986L95.6569 17.1025C95.6569 17.1025 95.9801 17.7824 95.7247 18.3477C95.7247 18.3477 95.6952 17.1274 95.5122 17.1553C95.4753 17.1553 95.0207 17.3918 95.0207 17.3918C95.0207 17.3918 95.5772 18.5754 95.1565 19.4374C95.1565 19.4374 95.3159 17.9777 94.8466 17.4769L94.1795 17.8646C94.1795 17.8646 94.8303 19.0879 94.389 20.0864C94.389 20.0864 94.5027 18.5548 94.0392 17.9586L93.4341 18.427C93.4341 18.427 94.0466 19.6341 93.6732 20.4624C93.6732 20.4624 93.6245 18.6796 93.3028 18.5445C93.3028 18.5445 92.7744 19.0086 92.6947 19.1995C92.6947 19.1995 93.1124 20.0805 92.8526 20.5372C92.8526 20.5372 92.6932 19.3492 92.5574 19.3434C92.5574 19.3434 92.0305 20.1305 91.9759 20.665C92.0014 20.1667 92.1576 19.6837 92.429 19.2641C92.1253 19.3212 91.8452 19.4657 91.6232 19.6797C91.6232 19.6797 91.7043 19.1231 92.5589 19.0746C92.5589 19.0746 93.0017 18.477 93.1109 18.4403C93.1109 18.4403 92.2608 18.3698 91.7457 18.5974C91.7457 18.5974 92.1988 18.0731 93.2673 18.3037L93.8577 17.8191C93.8577 17.8191 92.739 17.6722 92.2637 17.8352C92.2637 17.8352 92.8098 17.3712 94.0186 17.7089L94.668 17.3227C94.668 17.3227 93.7145 17.1171 93.1463 17.192C93.1463 17.192 93.7455 16.8704 94.8584 17.2185L95.3233 17.0114C95.3233 17.0114 94.6237 16.8748 94.42 16.8528C94.2164 16.8308 94.2045 16.775 94.2045 16.775C94.6471 16.7017 95.1015 16.7526 95.5166 16.9218C95.5166 16.9218 96.5129 16.565 96.4922 16.5033Z" fill="#FF661B"/>
<path opacity="0.1" d="M113.533 36.0839C113.533 36.0839 107.925 35.7476 108.58 39.6626C108.58 39.6626 108.449 40.3542 109.079 40.6685C109.079 40.6685 109.089 40.3748 109.656 40.4761C109.857 40.5098 110.062 40.5197 110.265 40.5055C110.538 40.4858 110.797 40.3786 111.003 40.2001V40.2001C111.003 40.2001 112.583 39.551 113.197 36.9841C113.197 36.9841 113.65 36.4246 113.632 36.2807L112.684 36.683C112.684 36.683 113.008 37.3629 112.754 37.9283C112.754 37.9283 112.723 36.708 112.541 36.7359C112.504 36.7359 112.048 36.9723 112.048 36.9723C112.048 36.9723 112.606 38.1574 112.186 39.0179C112.186 39.0179 112.345 37.5582 111.874 37.0575L111.214 37.4408C111.214 37.4408 111.865 38.664 111.424 39.6626C111.424 39.6626 111.538 38.131 111.074 37.5348L110.471 38.0047C110.471 38.0047 111.082 39.2103 110.71 40.0385C110.71 40.0385 110.661 38.2558 110.339 38.1207C110.339 38.1207 109.811 38.5847 109.73 38.7756C109.73 38.7756 110.149 39.6567 109.889 40.1134C109.889 40.1134 109.73 38.9254 109.594 38.9195C109.594 38.9195 109.067 39.7066 109.012 40.2412C109.039 39.7428 109.195 39.2599 109.467 38.8402C109.163 38.8975 108.882 39.042 108.66 39.2558C108.66 39.2558 108.742 38.6993 109.597 38.6508C109.597 38.6508 110.032 38.0531 110.149 38.0164C110.149 38.0164 109.299 37.9459 108.784 38.1735C108.784 38.1735 109.237 37.6493 110.304 37.8872L110.894 37.4026C110.894 37.4026 109.774 37.2557 109.3 37.4187C109.3 37.4187 109.846 36.9547 111.055 37.2924L111.704 36.9062C111.704 36.9062 110.75 36.7021 110.181 36.7755C110.181 36.7755 110.782 36.4539 111.895 36.802L112.36 36.5949C112.36 36.5949 111.66 36.4584 111.455 36.4363C111.25 36.4143 111.24 36.3585 111.24 36.3585C111.683 36.2852 112.137 36.336 112.553 36.5053C112.553 36.5053 113.551 36.1456 113.533 36.0839Z" fill="#FF661B"/>
<path opacity="0.1" d="M79.4616 32.6083C79.4616 32.6083 80.753 27.1617 76.7621 27.1426C76.7621 27.1426 76.0994 26.8959 75.6817 27.4598C75.6817 27.4598 75.9666 27.52 75.7732 28.0575C75.7063 28.2475 75.6618 28.4446 75.6404 28.6449C75.6118 28.9178 75.6734 29.1926 75.816 29.4276V29.4276C75.816 29.4276 76.1894 31.0869 78.6203 32.1266C78.6203 32.1266 79.0985 32.667 79.2431 32.6729L79.007 31.6758C79.007 31.6758 78.2779 31.877 77.7613 31.529C77.7613 31.529 78.976 31.7066 78.9775 31.529C78.9775 31.4923 78.8299 31.0062 78.8299 31.0062C78.8299 31.0062 77.562 31.3498 76.7798 30.7903C76.7798 30.7903 78.1982 31.1956 78.7753 30.8212L78.5096 30.0987C78.5096 30.0987 77.1813 30.5289 76.2721 29.9254C76.2721 29.9254 77.7702 30.2984 78.4402 29.9459L78.0786 29.2734C78.0786 29.2734 76.7798 29.6669 76.0226 29.1603C76.0226 29.1603 77.7938 29.4158 77.9856 29.1251C77.9856 29.1251 77.6167 28.5274 77.441 28.4158C77.441 28.4158 76.5023 28.6772 76.0891 28.3438C76.0891 28.3438 77.2919 28.3893 77.32 28.263C77.32 28.263 76.6307 27.6125 76.1053 27.4657C76.5949 27.5766 77.0471 27.8124 77.4174 28.15C77.412 27.8422 77.3166 27.5427 77.1429 27.288C77.1429 27.288 77.6801 27.4642 77.5857 28.3159C77.5857 28.3159 78.1022 28.8446 78.1185 28.965C78.1185 28.965 78.3325 28.1441 78.1952 27.5993C78.1952 27.5993 78.638 28.1338 78.2203 29.1397L78.5982 29.8079C78.5982 29.8079 78.9406 28.7359 78.8535 28.2425C78.8535 28.2425 79.221 28.8563 78.6793 29.9841L78.9524 30.6875C78.9524 30.6875 79.3169 29.7859 79.3405 29.219C79.3405 29.219 79.5575 29.8622 79.0217 30.8946L79.1487 31.3851C79.1487 31.3851 79.4025 30.7228 79.4586 30.526C79.5147 30.3292 79.5723 30.3277 79.5723 30.3277C79.57 30.7745 79.4428 31.2118 79.2048 31.5906C79.2048 31.5906 79.3981 32.6156 79.4616 32.6083Z" fill="#FF661B"/>
<path opacity="0.1" d="M67.179 34.4644C67.179 34.4644 62.6744 31.1118 61.0642 34.7434C61.0642 34.7434 60.5727 35.25 60.9255 35.8565C60.9255 35.8565 61.0937 35.6201 61.5158 36.0122C61.6654 36.1505 61.8308 36.2708 62.0088 36.3705C62.2499 36.504 62.5281 36.5556 62.8014 36.5173V36.5173C62.8014 36.5173 64.478 36.8389 66.4085 35.0312C66.4085 35.0312 67.0978 34.8109 67.1627 34.6817L66.1458 34.504C66.1458 34.504 66.0395 35.2485 65.5156 35.5819C65.5156 35.5819 66.1635 34.5451 65.9953 34.4702C65.9613 34.4541 65.4536 34.3968 65.4536 34.3968C65.4536 34.3968 65.2647 35.692 64.4382 36.181C64.4382 36.181 65.3783 35.0488 65.2617 34.3733L64.4898 34.3322C64.4898 34.3322 64.3585 35.7111 63.4375 36.3044C63.4375 36.3044 64.3776 35.087 64.323 34.3352L63.5585 34.3968C63.5585 34.3968 63.4035 35.7375 62.6346 36.2251C62.6346 36.2251 63.5777 34.7096 63.3844 34.4218C63.3844 34.4218 62.6862 34.5202 62.5136 34.6347C62.5136 34.6347 62.3792 35.5951 61.907 35.8389C61.907 35.8389 62.4309 34.7595 62.3246 34.6846C62.3246 34.6846 61.4494 35.0532 61.1055 35.4732C61.403 35.0711 61.8009 34.7532 62.2597 34.551C61.9742 34.433 61.6603 34.4003 61.3564 34.457C61.3564 34.457 61.7313 34.037 62.4722 34.4644C62.4722 34.4644 63.1659 34.2045 63.284 34.2368C63.284 34.2368 62.6124 33.7125 62.056 33.6215C62.056 33.6215 62.7261 33.4306 63.4862 34.2089L64.2522 34.131C64.2522 34.131 63.4006 33.3968 62.9121 33.2734C62.9121 33.2734 63.6249 33.1839 64.447 34.1266L65.2027 34.1604C65.2027 34.1604 64.5193 33.4673 64.0042 33.2176C64.0042 33.2176 64.6817 33.2764 65.4196 34.1766L65.9229 34.2573C65.9229 34.2573 65.4137 33.761 65.2543 33.6317C65.0949 33.5025 65.1171 33.4482 65.1171 33.4482C65.5277 33.6291 65.8797 33.9199 66.134 34.2882C66.134 34.2882 67.1598 34.5246 67.179 34.4644Z" fill="#FF661B"/>
<path opacity="0.1" d="M82.1758 3.31611C82.1758 3.31611 77.6713 -0.0379138 76.061 3.59512C76.061 3.59512 75.5695 4.10175 75.9223 4.70823C75.9223 4.70823 76.0905 4.4718 76.5127 4.86389C76.663 5.00157 76.8289 5.12133 77.0071 5.22073C77.2481 5.35438 77.5264 5.40595 77.7997 5.36758V5.36758C77.7997 5.36758 79.4763 5.68918 81.4068 3.88C81.4068 3.88 82.0961 3.6612 82.1595 3.53051L81.1426 3.35576C81.1426 3.35576 81.0378 4.10028 80.5124 4.43362C80.5124 4.43362 81.1618 3.39687 80.9936 3.32198C80.9596 3.30583 80.4519 3.24856 80.4519 3.24856C80.4519 3.24856 80.2571 4.5467 79.4306 5.03276C79.4306 5.03276 80.3692 3.90056 80.2541 3.22506L79.4822 3.18394C79.4822 3.18394 79.3494 4.56285 78.4299 5.15465C78.4299 5.15465 79.37 3.93728 79.3154 3.18541L78.5524 3.24709C78.5524 3.24709 78.3959 4.58928 77.627 5.07682C77.627 5.07682 78.5716 3.56134 78.3782 3.27352C78.3782 3.27352 77.6801 3.37191 77.5074 3.48645C77.5074 3.48645 77.3731 4.44684 76.9008 4.69061C76.9008 4.69061 77.4248 3.61127 77.3185 3.53491C77.3185 3.53491 76.4433 3.90497 76.0994 4.32495C76.3964 3.9224 76.7944 3.60441 77.2536 3.40275C76.9678 3.28381 76.6532 3.25112 76.3488 3.30876C76.3488 3.30876 76.7252 2.88878 77.4661 3.31611C77.4661 3.31611 78.1598 3.05472 78.2779 3.08849C78.2779 3.08849 77.6063 2.56424 77.0499 2.47173C77.0499 2.47173 77.7185 2.28229 78.4786 3.05912L79.2446 2.98129C79.2446 2.98129 78.3945 2.24705 77.9045 2.12223C77.9045 2.12223 78.6173 2.03412 79.4409 2.97689L80.1966 3.00919C80.1966 3.00919 79.5132 2.31607 78.9966 2.06789C78.9966 2.06789 79.6756 2.12663 80.4135 3.02681L80.9153 3.10758C80.9153 3.10758 80.4047 2.61711 80.2453 2.49082C80.0859 2.36453 80.108 2.30873 80.108 2.30873C80.5187 2.48943 80.8708 2.78027 81.1249 3.1487C81.1249 3.1487 82.1507 3.37191 82.1758 3.31611Z" fill="#FF661B"/>
<path opacity="0.1" d="M99.3879 7.56446C99.3879 7.56446 97.5873 2.26176 94.1912 4.34554C94.1912 4.34554 93.4975 4.49239 93.4429 5.18405C93.4429 5.18405 93.716 5.08419 93.837 5.64221C93.882 5.84071 93.9498 6.03338 94.0392 6.21639C94.1612 6.46269 94.36 6.66309 94.6059 6.78763V6.78763C94.6059 6.78763 95.8044 7.99913 98.4256 7.59823C98.4256 7.59823 99.1178 7.80676 99.2448 7.7348L98.5068 7.01378C98.5068 7.01378 97.9961 7.5674 97.3733 7.54537C97.3733 7.54537 98.4994 7.05783 98.4064 6.9007C98.3873 6.86987 98.002 6.53652 98.002 6.53652C98.002 6.53652 97.1076 7.49544 96.1483 7.4323C96.1483 7.4323 97.5666 7.02993 97.8559 6.40436L97.2449 5.93591C97.2449 5.93591 96.3505 6.99616 95.2539 6.96385C95.2539 6.96385 96.7298 6.49247 97.1032 5.84046L96.439 5.46012C96.439 5.46012 95.5535 6.47778 94.6355 6.44547C94.6355 6.44547 96.2767 5.73032 96.2811 5.38376C96.2811 5.38376 95.6509 5.07097 95.4428 5.06804C95.4428 5.06804 94.7845 5.78319 94.2621 5.71858C94.2621 5.71858 95.307 5.12384 95.2627 5.00196C95.2627 5.00196 94.3329 4.81252 93.809 4.96524C94.2829 4.80108 94.7917 4.76311 95.2849 4.85511C95.1165 4.5965 94.8759 4.39238 94.5927 4.26771C94.5927 4.26771 95.1417 4.13408 95.5092 4.90357C95.5092 4.90357 96.2295 5.08125 96.3062 5.17377C96.3062 5.17377 96.0524 4.36463 95.6465 3.97402C95.6465 3.97402 96.3062 4.19576 96.4863 5.26922L97.1622 5.63634C97.1622 5.63634 96.8833 4.54819 96.5468 4.16786C96.5468 4.16786 97.1859 4.4968 97.3246 5.73767L97.9297 6.19143C97.9297 6.19143 97.7615 5.23398 97.4781 4.73763C97.4781 4.73763 98.0035 5.16936 98.098 6.328L98.4655 6.6775C98.4655 6.6775 98.3297 5.98143 98.2736 5.78466C98.2175 5.58788 98.2633 5.57466 98.2633 5.57466C98.4979 5.95561 98.622 6.39371 98.6219 6.8405C98.6219 6.8405 99.3363 7.60264 99.3879 7.56446Z" fill="#FF661B"/>
<path opacity="0.1" d="M87.6367 7.82638C87.6367 7.82638 82.043 7.20668 82.5049 11.1554C82.5049 11.1554 82.3382 11.8397 82.9477 12.1834C82.9477 12.1834 82.9728 11.8897 83.5381 12.0218C83.7378 12.0646 83.9418 12.0848 84.1462 12.082C84.4221 12.0771 84.689 11.9827 84.9063 11.8133V11.8133C84.9063 11.8133 86.5165 11.245 87.2677 8.71188C87.2677 8.71188 87.7489 8.17588 87.7385 8.0305L86.7718 8.38587C86.7718 8.38587 87.067 9.08047 86.7718 9.63262C86.7718 9.63262 86.8028 8.41231 86.6242 8.4314C86.5873 8.4314 86.1209 8.64286 86.1209 8.64286C86.1209 8.64286 86.6168 9.85436 86.1534 10.6987C86.1534 10.6987 86.3866 9.24787 85.9424 8.72509L85.256 9.07753C85.256 9.07753 85.8464 10.3331 85.352 11.3082C85.352 11.3082 85.5439 9.78387 85.1114 9.16564L84.4841 9.60618C84.4841 9.60618 85.0332 10.8412 84.6184 11.6503C84.6184 11.6503 84.6613 9.86757 84.3469 9.71632C84.3469 9.71632 83.7949 10.1569 83.7049 10.339C83.7049 10.339 84.0783 11.2347 83.7964 11.6826C83.7964 11.6826 83.6975 10.4887 83.5676 10.477C83.5676 10.477 83.0008 11.2362 82.9182 11.7722C82.9694 11.2753 83.1505 10.8004 83.4436 10.3948C83.1374 10.4369 82.8501 10.567 82.6171 10.7692C82.6171 10.7692 82.7263 10.2185 83.5824 10.2127C83.5824 10.2127 84.0473 9.63849 84.1727 9.60765C84.1727 9.60765 83.327 9.49458 82.8001 9.69576C82.8001 9.69576 83.2798 9.19354 84.3336 9.48577L84.955 9.03201C84.955 9.03201 83.8318 8.80586 83.3565 8.95271C83.3565 8.95271 83.9262 8.51216 85.1158 8.916L85.7844 8.56209C85.7844 8.56209 84.8413 8.30951 84.2701 8.35504C84.2701 8.35504 84.8856 8.06134 85.9793 8.46811L86.4545 8.28455C86.4545 8.28455 85.7623 8.11273 85.5586 8.08043C85.3549 8.04812 85.3476 7.99232 85.3476 7.99232C85.7937 7.94138 86.2454 8.01458 86.6523 8.20378C86.6523 8.20378 87.647 7.88806 87.6367 7.82638Z" fill="#FF661B"/>
<path opacity="0.1" d="M136.578 51.0247C136.578 51.0247 130.987 50.405 131.449 54.3493C131.449 54.3493 131.283 55.0336 131.892 55.3773C131.892 55.3773 131.917 55.0836 132.483 55.2143C132.682 55.2585 132.886 55.2787 133.091 55.2745C133.367 55.2703 133.634 55.1758 133.851 55.0057V55.0057C133.851 55.0057 135.461 54.4374 136.205 51.9058C136.205 51.9058 136.686 51.3683 136.676 51.2244L135.709 51.5783C135.709 51.5783 136.004 52.2744 135.709 52.8265C135.709 52.8265 135.74 51.6047 135.561 51.6253C135.524 51.6253 135.058 51.8353 135.058 51.8353C135.058 51.8353 135.554 53.0468 135.09 53.8912C135.09 53.8912 135.324 52.4418 134.879 51.9175L134.193 52.2714C134.193 52.2714 134.783 53.527 134.291 54.502C134.291 54.502 134.481 52.9778 134.048 52.3581L133.421 52.7986C133.421 52.7986 133.97 54.0336 133.556 54.8413C133.556 54.8413 133.598 53.0585 133.284 52.9087C133.284 52.9087 132.733 53.3493 132.642 53.5314C132.642 53.5314 133.017 54.4272 132.733 54.875C132.733 54.875 132.635 53.6812 132.505 53.6694C132.505 53.6694 131.938 54.4286 131.855 54.9646C131.906 54.4677 132.088 53.9928 132.381 53.5872C132.074 53.6285 131.787 53.7588 131.554 53.9616C131.554 53.9616 131.663 53.4095 132.519 53.4036C132.519 53.4036 132.986 52.8294 133.11 52.8001C133.11 52.8001 132.264 52.6855 131.737 52.8867C131.737 52.8867 132.217 52.386 133.272 52.6782L133.892 52.2244C133.892 52.2244 132.782 52.0159 132.3 52.1598C132.3 52.1598 132.869 51.7193 134.059 52.1216L134.727 51.7692C134.727 51.7692 133.784 51.5166 133.213 51.5621C133.213 51.5621 133.829 51.2684 134.922 51.6752L135.397 51.4902C135.397 51.4902 134.705 51.3184 134.502 51.2875C134.298 51.2567 134.291 51.1994 134.291 51.1994C134.737 51.1476 135.188 51.2203 135.595 51.4094C135.595 51.4094 136.593 51.0878 136.578 51.0247Z" fill="#FF661B"/>
<path opacity="0.1" d="M145.125 56.2198C145.125 56.2198 139.534 55.6016 139.996 59.5444C139.996 59.5444 139.831 60.2287 140.439 60.5724C140.439 60.5724 140.464 60.2787 141.03 60.4108C141.229 60.454 141.432 60.4737 141.636 60.4696C141.911 60.464 142.176 60.3702 142.393 60.2023V60.2023C142.393 60.2023 144.002 59.634 144.746 57.1009C144.746 57.1009 145.229 56.5649 145.217 56.4195L144.25 56.7734C144.25 56.7734 144.545 57.4695 144.25 58.0216C144.25 58.0216 144.281 56.8013 144.102 56.8204C144.066 56.8204 143.599 57.0304 143.599 57.0304C143.599 57.0304 144.095 58.2419 143.632 59.0863C143.632 59.0863 143.865 57.6369 143.421 57.1141L142.734 57.4665C142.734 57.4665 143.325 58.7221 142.832 59.6972C142.832 59.6972 143.022 58.1729 142.59 57.5547L141.962 57.9952C141.962 57.9952 142.511 59.2302 142.098 60.0393C142.098 60.0393 142.139 58.2551 141.825 58.1053C141.825 58.1053 141.275 58.5459 141.183 58.728C141.183 58.728 141.558 59.6237 141.275 60.0716C141.275 60.0716 141.176 58.8777 141.046 58.866C141.046 58.866 140.479 59.6252 140.398 60.1612C140.449 59.6645 140.63 59.1897 140.922 58.7838C140.616 58.8259 140.328 58.956 140.095 59.1582C140.095 59.1582 140.206 58.6061 141.062 58.6017C141.062 58.6017 141.527 58.0275 141.652 57.9967C141.652 57.9967 140.807 57.8836 140.28 58.0848C140.28 58.0848 140.759 57.5826 141.815 57.8748L142.435 57.421C142.435 57.421 141.325 57.2125 140.842 57.3564C140.842 57.3564 141.412 56.9159 142.601 57.3197L143.27 56.9658C143.27 56.9658 142.327 56.7132 141.756 56.7587C141.756 56.7587 142.371 56.465 143.465 56.8718L143.94 56.6882C143.94 56.6882 143.248 56.5164 143.046 56.4841C142.843 56.4518 142.833 56.396 142.833 56.396C143.279 56.3451 143.731 56.4183 144.138 56.6075C144.138 56.6075 145.14 56.2829 145.125 56.2198Z" fill="#FF661B"/>
<path opacity="0.1" d="M126.149 12.4575C126.149 12.4575 121.645 9.10499 120.035 12.7366C120.035 12.7366 119.543 13.2432 119.896 13.8497C119.896 13.8497 120.064 13.6132 120.486 14.0053C120.636 14.1437 120.801 14.264 120.979 14.3636C121.22 14.4971 121.499 14.5486 121.772 14.5105V14.5105C121.772 14.5105 123.448 14.8321 125.38 13.0244C125.38 13.0244 126.068 12.8041 126.133 12.6749L125.119 12.4928C125.119 12.4928 125.013 13.2373 124.489 13.5707C124.489 13.5707 125.137 12.5339 124.969 12.459C124.935 12.4429 124.428 12.3856 124.428 12.3856C124.428 12.3856 124.238 13.6808 123.411 14.1698C123.411 14.1698 124.352 13.0376 124.235 12.3621L123.463 12.321C123.463 12.321 123.332 13.6999 122.411 14.2931C122.411 14.2931 123.352 13.0758 123.296 12.3239L122.532 12.3856C122.532 12.3856 122.384 13.7263 121.608 14.2139C121.608 14.2139 122.553 12.6984 122.358 12.4106C122.358 12.4106 121.66 12.5089 121.487 12.6235C121.487 12.6235 121.354 13.5839 120.882 13.8276C120.882 13.8276 121.404 12.7483 121.298 12.6734C121.298 12.6734 120.423 13.042 120.079 13.462C120.376 13.0599 120.774 12.742 121.233 12.5398C120.948 12.4217 120.634 12.3891 120.33 12.4458C120.33 12.4458 120.706 12.0258 121.447 12.4531C121.447 12.4531 122.139 12.1932 122.257 12.2255C122.257 12.2255 121.586 11.7013 121.029 11.6102C121.029 11.6102 121.699 11.4193 122.46 12.1976L123.226 12.1198C123.226 12.1198 122.375 11.3855 121.885 11.2622C121.885 11.2622 122.598 11.1726 123.42 12.1154L124.177 12.1492C124.177 12.1492 123.493 11.456 122.978 11.2064C122.978 11.2064 123.656 11.2651 124.393 12.1653L124.896 12.2461C124.896 12.2461 124.387 11.7497 124.228 11.6205C124.068 11.4913 124.092 11.4487 124.092 11.4487C124.502 11.6299 124.853 11.9207 125.107 12.2887C125.107 12.2887 126.13 12.5178 126.149 12.4575Z" fill="#FF661B"/>
<path opacity="0.1" d="M129.63 36.6609C129.63 36.6609 128.077 31.2818 124.585 33.2129C124.585 33.2129 123.885 33.3201 123.798 34.0161C123.798 34.0161 124.076 33.9295 124.172 34.4919C124.207 34.694 124.267 34.8912 124.349 35.0793C124.458 35.3324 124.648 35.5428 124.889 35.6785V35.6785C124.889 35.6785 126.031 36.9414 128.667 36.6594C128.667 36.6594 129.349 36.8973 129.479 36.8327L128.781 36.0779C128.781 36.0779 128.245 36.6095 127.625 36.5596C127.625 36.5596 128.771 36.119 128.682 35.9619C128.664 35.9296 128.295 35.5786 128.295 35.5786C128.295 35.5786 127.36 36.4979 126.403 36.3907C126.403 36.3907 127.839 36.0529 128.155 35.445L127.565 34.9486C127.565 34.9486 126.623 35.9678 125.529 35.8885C125.529 35.8885 127.017 35.4817 127.427 34.8488L126.781 34.4391C126.781 34.4391 125.844 35.4156 124.935 35.3422C124.935 35.3422 126.607 34.7005 126.627 34.3554C126.627 34.3554 126.011 34.0147 125.802 34.0029C125.802 34.0029 125.113 34.6872 124.589 34.5991C124.589 34.5991 125.661 34.0514 125.622 33.928C125.622 33.928 124.701 33.6975 124.172 33.8252C124.651 33.6837 125.16 33.669 125.647 33.7827C125.491 33.5169 125.26 33.3025 124.983 33.1659C124.983 33.1659 125.538 33.0558 125.869 33.8414C125.869 33.8414 126.579 34.0499 126.653 34.1468C126.653 34.1468 126.436 33.326 126.047 32.9192C126.047 32.9192 126.697 33.1688 126.828 34.2496L127.486 34.6476C127.486 34.6476 127.256 33.5462 126.937 33.1585C126.937 33.1585 127.56 33.5154 127.644 34.7607L128.235 35.2409C128.235 35.2409 128.109 34.2775 127.85 33.7724C127.85 33.7724 128.356 34.2276 128.397 35.3877L128.748 35.7548C128.748 35.7548 128.645 35.0529 128.601 34.8532C128.557 34.6535 128.601 34.6256 128.601 34.6256C128.819 35.0162 128.924 35.4596 128.903 35.9061C128.903 35.9061 129.576 36.6961 129.63 36.6609Z" fill="#FF661B"/>
<path opacity="0.1" d="M95.0311 48.7823C95.0311 48.7823 92.0158 44.0568 89.2159 46.885C89.2159 46.885 88.5754 47.1787 88.6876 47.8763C88.6876 47.8763 88.9311 47.7147 89.182 48.2287C89.2721 48.4108 89.3842 48.5814 89.5156 48.7368C89.6915 48.9488 89.9327 49.0974 90.2019 49.1597V49.1597C90.2019 49.1597 91.6556 50.0525 94.1057 49.0422C94.1057 49.0422 94.8274 49.0804 94.9337 48.982L94.0481 48.4534C94.0481 48.4534 93.6836 49.1142 93.074 49.239C93.074 49.239 94.0511 48.5048 93.9197 48.3697C93.8946 48.3432 93.44 48.1112 93.44 48.1112C93.44 48.1112 92.801 49.2537 91.8534 49.4196C91.8534 49.4196 93.136 48.6927 93.2688 48.0202L92.5619 47.7103C92.5619 47.7103 91.9464 48.9512 90.8749 49.1788C90.8749 49.1788 92.1884 48.3726 92.4025 47.6501L91.6645 47.4386C91.6645 47.4386 91.0417 48.6384 90.1487 48.822C90.1487 48.822 91.5715 47.7382 91.4933 47.4005C91.4933 47.4005 90.8055 47.2463 90.6077 47.2933C90.6077 47.2933 90.1399 48.1435 89.6115 48.2052C89.6115 48.2052 90.4852 47.3799 90.4129 47.2712C90.4129 47.2712 89.4639 47.308 88.9916 47.5796C89.4129 47.3081 89.8984 47.1511 90.3996 47.1244C90.1752 46.9131 89.8935 46.7717 89.5893 46.7176C89.5893 46.7176 90.0897 46.4577 90.6225 47.1185C90.6225 47.1185 91.3605 47.1185 91.4623 47.1919C91.4623 47.1919 91.0195 46.4577 90.5339 46.1831C90.5339 46.1831 91.2276 46.2418 91.6586 47.2419L92.4039 47.4386C92.4039 47.4386 91.8711 46.4474 91.4564 46.164C91.4564 46.164 92.1545 46.3314 92.5869 47.5047L93.2836 47.7984C93.2836 47.7984 92.891 46.91 92.4969 46.4944C92.4969 46.4944 93.1109 46.7881 93.4784 47.8909L93.9212 48.145C93.9212 48.145 93.626 47.5003 93.5212 47.3226C93.4164 47.145 93.4577 47.1038 93.4577 47.1038C93.7771 47.4177 94.0025 47.8138 94.1086 48.2478C94.1086 48.2478 94.9912 48.8322 95.0311 48.7823Z" fill="#FF661B"/>
<path d="M114.848 24.6375C114.848 24.6375 111.98 19.8223 109.092 22.5625C109.092 22.5625 108.443 22.8415 108.534 23.5376C108.534 23.5376 108.781 23.3819 109.017 23.9032C109.101 24.0885 109.208 24.2631 109.334 24.4231C109.504 24.6396 109.74 24.7945 110.007 24.8636V24.8636C110.007 24.8636 111.431 25.8005 113.912 24.8636C113.912 24.8636 114.633 24.9238 114.742 24.8284L113.876 24.2733C113.876 24.2733 113.492 24.9209 112.878 25.0281C112.878 25.0281 113.877 24.3188 113.752 24.1852C113.725 24.1573 113.279 23.9106 113.279 23.9106C113.279 23.9106 112.605 25.0339 111.656 25.1705C111.656 25.1705 112.96 24.4833 113.113 23.8166L112.416 23.4906C112.416 23.4906 111.762 24.7138 110.683 24.9091C110.683 24.9091 112.022 24.144 112.258 23.4289L111.529 23.1939C111.529 23.1939 110.868 24.3687 109.97 24.5303C109.97 24.5303 111.426 23.4906 111.358 23.1513C111.358 23.1513 110.676 22.9751 110.472 23.0162C110.472 23.0162 109.978 23.8518 109.448 23.8973C109.448 23.8973 110.347 23.1014 110.279 22.9898C110.279 22.9898 109.328 22.9972 108.849 23.2541C109.278 22.9963 109.768 22.8545 110.27 22.843C110.052 22.6247 109.774 22.4746 109.471 22.4112C109.471 22.4112 109.981 22.166 110.505 22.843C110.505 22.843 111.243 22.8679 111.341 22.9428C111.341 22.9428 110.924 22.2086 110.446 21.9061C110.446 21.9061 111.136 21.9854 111.536 22.9986L112.274 23.2189C112.274 23.2189 111.774 22.2115 111.367 21.9149C111.367 21.9149 112.06 22.1043 112.456 23.2894L113.142 23.608C113.142 23.608 112.777 22.7079 112.404 22.2864C112.404 22.2864 113.008 22.5992 113.343 23.7123L113.775 23.9796C113.775 23.9796 113.498 23.3261 113.4 23.1455C113.303 22.9648 113.344 22.9252 113.344 22.9252C113.654 23.2487 113.867 23.6514 113.96 24.0882C113.96 24.0882 114.805 24.6859 114.848 24.6375Z" fill="#FF661B"/>
<path d="M96.7047 34.7624C96.7047 34.7624 96.8523 29.1675 92.9456 29.956C92.9456 29.956 92.246 29.8488 91.9508 30.4862C91.9508 30.4862 92.246 30.4862 92.1633 31.0515C92.1363 31.2531 92.1333 31.4572 92.1545 31.6595C92.1812 31.9339 92.2979 32.1919 92.4866 32.3937C92.4866 32.3937 93.1906 33.9415 95.7897 34.4672C95.7897 34.4672 96.3668 34.9004 96.5114 34.877L96.0686 33.9489C96.0686 33.9489 95.3971 34.2925 94.82 34.059C94.82 34.059 96.045 33.987 96.0111 33.8079C96.0111 33.7712 95.7572 33.3248 95.7572 33.3248C95.7572 33.3248 94.5853 33.9195 93.7072 33.5289C93.7072 33.5289 95.1831 33.639 95.6657 33.1559L95.2539 32.5053C95.2539 32.5053 94.0466 33.1926 93.0282 32.7873C93.0282 32.7873 94.5706 32.849 95.155 32.3688L94.6635 31.7814C94.6635 31.7814 93.4725 32.4305 92.6283 32.0868C92.6283 32.0868 94.4171 31.9796 94.5469 31.6551C94.5469 31.6551 94.0628 31.1455 93.868 31.0677C93.868 31.0677 93.0031 31.5082 92.5308 31.2703C92.5308 31.2703 93.7116 31.0736 93.719 30.9429C93.719 30.9429 92.9116 30.4451 92.367 30.4083C92.8692 30.4173 93.3603 30.557 93.7913 30.8136C93.724 30.5135 93.5701 30.2394 93.3485 30.0251C93.3485 30.0251 93.9108 30.0882 93.9876 30.9355C93.9876 30.9355 94.603 31.3496 94.6429 31.4642C94.6429 31.4642 94.6857 30.6169 94.4392 30.1117C94.4392 30.1117 94.9823 30.5449 94.7787 31.614L95.2849 32.1926C95.2849 32.1926 95.4 31.0736 95.2155 30.6081C95.2155 30.6081 95.6996 31.1352 95.4015 32.3482L95.8103 32.9811C95.8103 32.9811 95.9845 32.0251 95.8915 31.4627C95.8915 31.4627 96.2339 32.0501 95.921 33.1676L96.1454 33.6229C96.1454 33.6229 96.259 32.9224 96.2738 32.7183C96.2885 32.5142 96.3446 32.5009 96.3446 32.5009C96.4335 32.939 96.3982 33.393 96.2428 33.8123C96.2428 33.8123 96.6398 34.7815 96.7047 34.7624Z" fill="#FF661B"/>
<path opacity="0.1" d="M103.163 105.855C105.358 105.855 107.138 105.556 107.138 105.187C107.138 104.818 105.358 104.519 103.163 104.519C100.968 104.519 99.1887 104.818 99.1887 105.187C99.1887 105.556 100.968 105.855 103.163 105.855Z" fill="#FF661B"/>
<path opacity="0.1" d="M13.7477 110.802C15.9429 110.802 17.7224 110.503 17.7224 110.134C17.7224 109.765 15.9429 109.466 13.7477 109.466C11.5526 109.466 9.77307 109.765 9.77307 110.134C9.77307 110.503 11.5526 110.802 13.7477 110.802Z" fill="#FF661B"/>
<path d="M122.96 107.184C126.238 107.184 128.895 106.737 128.895 106.185C128.895 105.634 126.238 105.187 122.96 105.187C119.682 105.187 117.025 105.634 117.025 106.185C117.025 106.737 119.682 107.184 122.96 107.184Z" fill="#FF661B"/>
<path d="M125.42 104.551C125.691 104.332 125.888 104.036 125.986 103.702C126.059 103.364 125.915 102.96 125.591 102.837C125.228 102.699 124.84 102.949 124.545 103.201C124.25 103.454 123.915 103.743 123.53 103.69C123.727 103.511 123.875 103.285 123.959 103.032C124.043 102.78 124.06 102.51 124.008 102.25C123.991 102.142 123.945 102.04 123.875 101.956C123.673 101.741 123.308 101.834 123.066 102.003C122.299 102.54 122.085 103.577 122.08 104.511C122.003 104.175 122.068 103.824 122.067 103.483C122.065 103.142 121.97 102.749 121.676 102.57C121.496 102.47 121.292 102.419 121.085 102.423C120.74 102.411 120.355 102.445 120.12 102.696C119.825 103.007 119.903 103.532 120.157 103.871C120.411 104.21 120.799 104.429 121.156 104.667C121.442 104.837 121.686 105.068 121.871 105.344C121.892 105.382 121.909 105.422 121.922 105.464H124.086C124.57 105.221 125.019 104.914 125.42 104.551V104.551Z" fill="#FF661B"/>
<path d="M11.0792 107.028C11.0792 107.028 13.3448 106.959 14.0311 106.475C14.7174 105.99 17.5187 105.413 17.6884 106.19C17.8581 106.967 21.0948 110.05 18.5356 110.071C15.9763 110.091 12.5891 109.674 11.9072 109.26C11.2253 108.846 11.0792 107.028 11.0792 107.028Z" fill="#A8A8A8"/>
<path opacity="0.2" d="M18.5784 109.8C16.0191 109.821 12.6319 109.404 11.95 108.99C11.4305 108.675 11.2239 107.546 11.1545 107.025H11.0792C11.0792 107.025 11.2268 108.844 11.9043 109.257C12.5817 109.67 15.9734 110.088 18.5326 110.068C19.2706 110.068 19.5259 109.8 19.5126 109.413C19.4093 109.649 19.1274 109.796 18.5784 109.8Z" fill="black"/>
<defs>
<linearGradient id="paint0_linear" x1="32.9125" y1="63.6461" x2="78.9804" y2="63.6461" gradientUnits="userSpaceOnUse">
<stop stop-color="#808080" stop-opacity="0.25"/>
<stop offset="0.54" stop-color="#808080" stop-opacity="0.12"/>
<stop offset="1" stop-color="#808080" stop-opacity="0.1"/>
</linearGradient>
</defs>
</svg>
