<svg width="151" height="101" viewBox="0 0 151 101" fill="none" xmlns="http://www.w3.org/2000/svg">
<path d="M98.8737 85.0021L71.9493 75.3864V75.2505H71.5689H27.08H27.0686L0 85.0021H0.0778806V87.6025H98.9516V85.0021H98.8737Z" fill="#E6E6E6"/>
<path d="M117.724 101C136.102 101 151 99.7819 151 98.2797C151 96.7774 136.102 95.5596 117.724 95.5596C99.3461 95.5596 84.4479 96.7774 84.4479 98.2797C84.4479 99.7819 99.3461 101 117.724 101Z" fill="#E6E6E6"/>
<path d="M100.674 49.2676L99.0063 50.8358C99.0063 50.8358 94.4877 54.5305 96.5851 55.8859C98.6825 57.2413 101.021 51.8069 101.021 51.8069L101.922 50.4049L100.674 49.2676Z" fill="#9F616A"/>
<path d="M110.339 22.3101L107.983 22.8661C107.983 22.8661 107.428 25.2291 107.567 27.4531C107.706 29.6772 107.024 33.8049 107.024 33.8049L105.426 37.5318L98.7349 50.2255L102.894 52.0389L110.339 37.4612L111.033 28.1481L110.339 22.3101Z" fill="#E6E6E6"/>
<path d="M113.843 15.7072C117.918 15.7072 121.222 12.191 121.222 7.85359C121.222 3.51617 117.918 0 113.843 0C109.768 0 106.465 3.51617 106.465 7.85359C106.465 12.191 109.768 15.7072 113.843 15.7072Z" fill="#2F2E41"/>
<path d="M120.39 19.7382C122.534 19.7382 124.271 17.9957 124.271 15.8461C124.271 13.6966 122.534 11.9541 120.39 11.9541C118.246 11.9541 116.508 13.6966 116.508 15.8461C116.508 17.9957 118.246 19.7382 120.39 19.7382Z" fill="#2F2E41"/>
<path d="M117.687 10.6338L119.766 16.0549L114.498 18.2789L114.036 17.2278L112.419 13.5529L117.687 10.6338Z" fill="#9F616A"/>
<path d="M124.757 40.38L126.697 49.5541L129.331 70.1263L127.39 88.8916C127.39 88.8916 121.568 90.8376 119.35 87.2235L121.984 71.7943L116.716 53.5851L115.884 71.5163L117.271 87.0845C117.271 87.0845 112.973 89.5866 109.508 87.0845L107.151 56.2261C107.151 56.2261 105.349 42.743 109.508 38.2949L124.757 40.38Z" fill="#2F2E41"/>
<path d="M113.528 14.1783C116.093 14.1783 118.172 12.0935 118.172 9.52179C118.172 6.95005 116.093 4.86523 113.528 4.86523C110.963 4.86523 108.884 6.95005 108.884 9.52179C108.884 12.0935 110.963 14.1783 113.528 14.1783Z" fill="#9F616A"/>
<path d="M113.528 18.5565L113.982 17.1052C113.982 17.1052 118.166 16.414 119.382 15.0527L121.568 17.3055C121.568 17.3055 127.529 19.2515 128.361 20.0855C129.193 20.9195 125.034 33.8467 125.034 33.8467C125.034 33.8467 126.004 36.0707 124.341 37.0437C124.341 37.0437 126.836 40.7967 124.895 41.2138C122.954 41.6308 108.953 38.7117 108.953 38.7117C108.953 38.7117 107.983 37.0437 110.201 36.3487C110.201 36.3487 109.369 34.4027 110.339 33.7077C111.31 33.0127 110.478 29.1206 110.478 29.1206C110.478 29.1206 107.567 23.2825 107.983 22.8655C108.399 22.4485 113.528 18.5565 113.528 18.5565Z" fill="#E6E6E6"/>
<path d="M127.113 52.6118L126.975 53.7239C126.975 53.7239 127.113 60.3959 124.618 60.1179C122.123 59.8399 123.648 53.3069 123.648 53.3069L124.063 51.7778L127.113 52.6118Z" fill="#9F616A"/>
<path d="M124.063 87.6405C124.063 87.6405 123.509 93.2005 124.479 93.6175C125.45 94.0345 131.965 97.5096 130.024 99.0386C128.084 100.568 121.568 96.5366 120.875 97.2316C120.182 97.9266 117.964 97.3706 117.825 96.1196C117.687 94.8685 117.964 92.6445 119.073 91.2545C120.182 89.8645 120.182 87.0845 120.182 87.0845L124.063 87.6405Z" fill="#2F2E41"/>
<path d="M116.162 85.5557L117.132 90.1427C117.132 90.1427 119.211 94.7298 117.409 95.7028C115.607 96.6758 115.33 96.8148 115.191 97.3708C115.053 97.9268 111.31 100.846 110.201 98.6218C109.092 96.3978 113.112 93.2007 113.112 93.2007L113.805 91.6717L113.112 86.2507L116.162 85.5557Z" fill="#2F2E41"/>
<path d="M109.732 9.0109C112.651 7.05788 113.524 6.59101 116.869 7.3454L117.07 2.45117L108.424 4.26978L109.732 9.0109Z" fill="#2F2E41"/>
<path d="M127.113 20.2244L128.499 20.0854C128.499 20.0854 129.886 23.6995 129.886 25.5065V37.4607L127.668 53.1678L123.37 52.4728L125.727 38.4337L125.034 29.9546L127.113 20.2244Z" fill="#E6E6E6"/>
<path d="M142.319 42.4277H139.968V97.736H142.319V42.4277Z" fill="#3F3D56"/>
<path d="M147.654 27.0137H134.633V44.4222H147.654V27.0137Z" fill="#3F3D56"/>
<path d="M145.665 37.7131C145.581 37.7149 145.499 37.7425 145.431 37.7922L144.69 31.7242C144.66 31.4754 144.539 31.2463 144.352 31.0801C144.165 30.914 143.924 30.8223 143.674 30.8223H138.614C138.364 30.8223 138.122 30.914 137.935 31.0801C137.748 31.2463 137.628 31.4754 137.597 31.7242L136.857 37.7922C136.788 37.7425 136.707 37.7149 136.623 37.7131C136.223 37.7131 135.899 38.3626 135.899 39.1638C135.899 39.9651 136.223 40.6146 136.623 40.6146C136.926 40.6146 137.186 40.2393 137.293 39.7079H144.995C145.102 40.2393 145.361 40.6146 145.665 40.6146C146.064 40.6146 146.388 39.9651 146.388 39.1638C146.388 38.3626 146.064 37.7131 145.665 37.7131ZM138.793 38.0758C138.614 38.0758 138.439 38.0226 138.29 37.923C138.142 37.8234 138.026 37.6818 137.957 37.5161C137.889 37.3504 137.871 37.1681 137.906 36.9922C137.941 36.8164 138.027 36.6548 138.153 36.528C138.28 36.4012 138.441 36.3148 138.616 36.2798C138.792 36.2449 138.974 36.2628 139.139 36.3314C139.304 36.4001 139.445 36.5163 139.545 36.6654C139.644 36.8145 139.697 36.9898 139.697 37.1691C139.697 37.2882 139.674 37.4061 139.628 37.5161C139.583 37.6261 139.516 37.7261 139.432 37.8103C139.348 37.8944 139.248 37.9612 139.139 38.0068C139.029 38.0524 138.911 38.0758 138.793 38.0758ZM143.314 38.0758C143.135 38.0758 142.96 38.0226 142.812 37.923C142.663 37.8234 142.547 37.6818 142.479 37.5161C142.41 37.3504 142.392 37.1681 142.427 36.9922C142.462 36.8164 142.548 36.6548 142.675 36.528C142.801 36.4012 142.962 36.3148 143.138 36.2798C143.313 36.2449 143.495 36.2628 143.66 36.3314C143.825 36.4001 143.966 36.5163 144.066 36.6654C144.165 36.8145 144.218 36.9898 144.218 37.1691C144.218 37.2882 144.195 37.4061 144.149 37.5161C144.104 37.6261 144.037 37.7261 143.953 37.8103C143.869 37.8944 143.77 37.9612 143.66 38.0068C143.55 38.0524 143.433 38.0758 143.314 38.0758ZM144.399 34.6118C144.399 34.6857 144.385 34.7588 144.356 34.8271C144.328 34.8954 144.287 34.9574 144.235 35.0096C144.183 35.0619 144.121 35.1033 144.053 35.1316C143.985 35.1598 143.912 35.1744 143.838 35.1744H138.45C138.376 35.1744 138.303 35.1598 138.235 35.1316C138.167 35.1033 138.105 35.0619 138.053 35.0096C138.001 34.9574 137.959 34.8954 137.931 34.8271C137.903 34.7588 137.888 34.6857 137.888 34.6118V32.8356C137.888 32.7617 137.903 32.6885 137.931 32.6203C137.959 32.552 138.001 32.49 138.053 32.4378C138.105 32.3855 138.167 32.3441 138.235 32.3158C138.303 32.2875 138.376 32.273 138.45 32.273H143.838C143.912 32.273 143.985 32.2875 144.053 32.3158C144.121 32.3441 144.183 32.3855 144.235 32.4378C144.287 32.49 144.328 32.552 144.356 32.6203C144.385 32.6885 144.399 32.7617 144.399 32.8356V34.6118Z" fill="#FF661B"/>
<path d="M96.7671 48.5523L97.2948 49.5805C97.2997 49.59 97.3006 49.601 97.2973 49.6112C97.2941 49.6214 97.2869 49.6298 97.2775 49.6348L97.252 49.6479L100.001 55.0038C100.077 55.152 100.091 55.3244 100.041 55.4832C99.9899 55.6419 99.8783 55.7739 99.7305 55.8502L96.393 57.5726C96.3198 57.6103 96.2399 57.6333 96.1579 57.6401C96.0759 57.6469 95.9933 57.6374 95.9149 57.6122C95.8366 57.587 95.7639 57.5466 95.7011 57.4932C95.6383 57.4399 95.5866 57.3746 95.549 57.3013L92.8964 52.1332L92.878 52.1427C92.8713 52.1462 92.8635 52.1468 92.8564 52.1446C92.8492 52.1423 92.8432 52.1372 92.8397 52.1306L92.5394 51.5454C92.5377 51.5421 92.5367 51.5385 92.5364 51.5347C92.536 51.531 92.5365 51.5272 92.5376 51.5237C92.5388 51.5201 92.5406 51.5168 92.543 51.5139C92.5454 51.5111 92.5484 51.5087 92.5517 51.507L92.5701 51.4975L92.457 51.2771L92.4384 51.2867C92.4314 51.2903 92.4232 51.2909 92.4157 51.2885C92.4082 51.2861 92.402 51.2807 92.3984 51.2737L92.1021 50.6965C92.0986 50.6895 92.0979 50.6814 92.1003 50.6739C92.1027 50.6664 92.108 50.6601 92.1149 50.6565L92.1335 50.6469L91.9791 50.346L91.9602 50.3558C91.9571 50.3574 91.9538 50.3583 91.9503 50.3586C91.9469 50.3589 91.9434 50.3585 91.9401 50.3575C91.9368 50.3564 91.9338 50.3547 91.9311 50.3525C91.9285 50.3502 91.9263 50.3475 91.9247 50.3444L91.7631 50.0294C91.7599 50.0232 91.7592 50.0159 91.7614 50.0092C91.7635 50.0025 91.7681 49.997 91.7744 49.9937L91.7933 49.984L91.4659 49.3462C91.3899 49.1981 91.3757 49.0257 91.4264 48.867C91.4771 48.7083 91.5886 48.5763 91.7364 48.5L95.0739 46.7777C95.2217 46.7014 95.3936 46.6871 95.5519 46.738C95.7102 46.7888 95.8419 46.9006 95.918 47.0487L96.6875 48.5481L96.713 48.5349C96.7225 48.5301 96.7335 48.5292 96.7436 48.5324C96.7538 48.5357 96.7622 48.5428 96.7671 48.5523Z" fill="#3F3D56"/>
<path d="M95.7079 47.2974L99.758 55.1882C99.8062 55.2823 99.8152 55.3916 99.783 55.4923C99.7508 55.593 99.68 55.6767 99.5863 55.7251L96.3914 57.3738C96.345 57.3979 96.2943 57.4125 96.2423 57.4169C96.1902 57.4213 96.1378 57.4153 96.0881 57.3993C96.0383 57.3833 95.9922 57.3577 95.9524 57.3238C95.9125 57.2899 95.8797 57.2485 95.8559 57.2019L91.8058 49.311C91.7819 49.2645 91.7674 49.2137 91.7631 49.1615C91.7588 49.1093 91.7647 49.0568 91.7807 49.0069C91.7966 48.957 91.8222 48.9108 91.856 48.8708C91.8897 48.8309 91.931 48.798 91.9774 48.774L92.4556 48.5273L92.4872 48.5888C92.5269 48.6662 92.5957 48.7246 92.6784 48.7512C92.7611 48.7778 92.8509 48.7703 92.9282 48.7305L94.553 47.892C94.6302 47.8521 94.6885 47.7831 94.715 47.7002C94.7415 47.6173 94.734 47.5272 94.6943 47.4498L94.6627 47.3883L95.1723 47.1253C95.2187 47.1013 95.2694 47.0867 95.3214 47.0824C95.3735 47.0781 95.4259 47.0841 95.4756 47.1001C95.5254 47.1161 95.5715 47.1417 95.6113 47.1756C95.6512 47.2094 95.684 47.2508 95.7079 47.2974Z" fill="#FF661B"/>
<path d="M66.6346 66.9247C66.3157 66.9315 66.0066 67.0359 65.7487 67.224L62.9429 44.2474C62.8278 43.3051 62.3729 42.4376 61.664 41.8085C60.955 41.1794 60.041 40.832 59.0942 40.832H39.9353C38.9885 40.832 38.0745 41.1794 37.3655 41.8085C36.6566 42.4376 36.2016 43.3051 36.0866 44.2474L33.2808 67.224C33.0229 67.0359 32.7137 66.9315 32.3949 66.9247C30.8821 66.9247 29.6558 69.3841 29.6558 72.4179C29.6558 75.4517 30.8821 77.9111 32.3949 77.9111C33.5442 77.9111 34.5266 76.4901 34.9331 74.4779H64.0963C64.5029 76.4901 65.4853 77.9111 66.6346 77.9111C68.1474 77.9111 69.3737 75.4517 69.3737 72.4179C69.3737 69.3841 68.1474 66.9247 66.6346 66.9247ZM40.6124 68.298C39.9352 68.298 39.2733 68.0966 38.7102 67.7194C38.1471 67.3421 37.7083 66.8059 37.4491 66.1786C37.19 65.5513 37.1222 64.8609 37.2543 64.195C37.3864 63.529 37.7125 62.9172 38.1913 62.4371C38.6702 61.9569 39.2803 61.6299 39.9445 61.4975C40.6086 61.365 41.2971 61.433 41.9227 61.6928C42.5484 61.9527 43.0831 62.3927 43.4594 62.9573C43.8356 63.5219 44.0364 64.1857 44.0364 64.8648C44.0364 65.3156 43.9478 65.7621 43.7758 66.1786C43.6037 66.5951 43.3515 66.9736 43.0336 67.2924C42.7156 67.6112 42.3382 67.8641 41.9227 68.0367C41.5073 68.2092 41.0621 68.298 40.6124 68.298ZM57.7323 68.298C57.0551 68.298 56.3931 68.0966 55.83 67.7194C55.2669 67.3421 54.8281 66.8059 54.5689 66.1786C54.3098 65.5513 54.242 64.8609 54.3741 64.195C54.5062 63.529 54.8323 62.9172 55.3111 62.4371C55.79 61.9569 56.4001 61.6299 57.0643 61.4975C57.7285 61.365 58.4169 61.433 59.0425 61.6928C59.6682 61.9527 60.2029 62.3927 60.5792 62.9573C60.9554 63.5219 61.1562 64.1857 61.1562 64.8648C61.1562 65.3156 61.0677 65.7621 60.8956 66.1786C60.7235 66.5951 60.4713 66.9736 60.1534 67.2924C59.8354 67.6112 59.458 67.8641 59.0426 68.0367C58.6271 68.2092 58.1819 68.298 57.7323 68.298ZM61.841 55.1814C61.841 55.4611 61.7861 55.7381 61.6793 55.9966C61.5725 56.255 61.4161 56.4899 61.2188 56.6877C61.0215 56.8855 60.7873 57.0424 60.5296 57.1495C60.2718 57.2565 59.9956 57.3116 59.7166 57.3116H39.3129C39.0339 57.3116 38.7577 57.2565 38.4999 57.1495C38.2422 57.0424 38.008 56.8855 37.8107 56.6877C37.6134 56.4899 37.457 56.255 37.3502 55.9966C37.2434 55.7381 37.1885 55.4611 37.1885 55.1814V48.4555C37.1885 48.1757 37.2434 47.8987 37.3502 47.6403C37.457 47.3818 37.6134 47.147 37.8107 46.9492C38.008 46.7514 38.2422 46.5944 38.4999 46.4874C38.7577 46.3803 39.0339 46.3252 39.3129 46.3252H59.7166C59.9956 46.3252 60.2718 46.3803 60.5296 46.4874C60.7873 46.5944 61.0215 46.7514 61.2188 46.9492C61.4161 47.147 61.5725 47.3818 61.6793 47.6403C61.7861 47.8987 61.841 48.1757 61.841 48.4555V55.1814Z" fill="#3F3D56"/>
<path d="M53.1011 41.9188H45.9281L47.4653 39.6069H51.5641L53.1011 41.9188Z" fill="#FF661B"/>
<path d="M48.6451 36.2798C53.0862 36.2798 56.6865 32.6697 56.6865 28.2166C56.6865 23.7634 53.0862 20.1533 48.6451 20.1533C44.2039 20.1533 40.6036 23.7634 40.6036 28.2166C40.6036 32.6697 44.2039 36.2798 48.6451 36.2798Z" fill="#FF661B"/>
<path d="M47.8787 31.6203L45.4719 28.5173L46.8716 27.4257L48.0112 28.8949L51.861 24.8198L53.1484 26.0429L47.8787 31.6203Z" fill="white"/>
<path d="M50.2473 75.481H48.6265V76.4561H50.2473V75.481Z" fill="white"/>
<path d="M50.2473 84.853H48.6265V82.7538H50.2473V84.853ZM50.2473 80.6544H48.6265V78.5552H50.2473V80.6544Z" fill="white"/>
<path d="M50.2473 86.9521H48.6265V87.9273H50.2473V86.9521Z" fill="white"/>
</svg>
