<svg width="156" height="96" viewBox="0 0 156 96" fill="none" xmlns="http://www.w3.org/2000/svg">
<g clip-path="url(#clip0)">
<path opacity="0.1" d="M156 61.6002C156.002 64.1987 155.688 66.7879 155.063 69.3103C154.853 70.1593 154.609 70.9916 154.331 71.8071C153.99 72.8124 153.596 73.7987 153.15 74.7619C152.924 75.2482 152.686 75.7256 152.436 76.1943C152.44 78.859 151.891 81.4955 150.824 83.9375C148.894 88.3182 145.454 91.8604 141.131 93.9193C138.425 95.2097 135.466 95.8877 132.468 95.905H29.6138C25.0373 95.9152 20.5397 94.714 16.5783 92.4233C15.9929 92.0844 15.4225 91.7234 14.8671 91.3404C13.6612 90.5077 12.5282 89.5741 11.4804 88.5497C10.0618 87.1629 8.81216 85.6134 7.75726 83.9335C5.27888 80.0001 3.96597 75.4454 3.97057 70.797C1.46068 66.3952 -0.00286865 61.1223 -0.00286865 55.4562C-0.00286865 48.3075 2.32292 41.7862 6.14405 36.8496C6.94068 35.8182 7.81329 34.8478 8.7546 33.9464C9.68337 33.0544 10.6816 32.2377 11.74 31.5039C12.5864 30.9157 13.4714 30.385 14.3889 29.9153C14.7717 29.7194 15.1558 29.5367 15.5465 29.3659C15.8896 29.2136 16.2366 29.072 16.5876 28.9383C17.0088 28.7777 17.4352 28.6307 17.867 28.4974C18.2988 28.3642 18.7248 28.2468 19.1452 28.1453C19.7632 27.9944 20.3919 27.8717 21.0312 27.7773C21.561 27.6992 22.0908 27.6449 22.6206 27.6025C23.0418 27.5725 23.4665 27.5549 23.8947 27.5496H24.1265C24.598 27.5496 25.0669 27.5681 25.5318 27.5999C25.5808 27.5019 25.6338 27.4026 25.6828 27.3047C25.8682 26.9525 26.0603 26.6004 26.2536 26.2548V26.2456C26.2867 26.186 26.3199 26.1264 26.3543 26.0682C26.5106 25.7862 26.6735 25.5069 26.8404 25.2302C26.9172 25.0978 26.9927 24.9734 27.0708 24.8476C27.0881 24.8171 27.1053 24.788 27.1251 24.7576C27.2046 24.6252 27.2854 24.4928 27.3675 24.3604C27.7763 23.7082 28.2015 23.0661 28.643 22.4342C28.6814 22.38 28.7172 22.327 28.7556 22.274C28.8245 22.1761 28.888 22.0794 28.9648 21.9828C29.1476 21.7273 29.3357 21.4705 29.5251 21.2176C29.6576 21.0389 29.79 20.8602 29.933 20.6881C30.2774 20.2433 30.631 19.8011 30.9926 19.3642C31.3542 18.9274 31.7357 18.4878 32.1211 18.0576C32.1741 17.998 32.227 17.9398 32.2827 17.8802L32.8482 17.2646C32.876 17.2355 32.8999 17.209 32.9264 17.1825C32.9939 17.1097 33.0588 17.0369 33.1317 16.9654C33.435 16.6451 33.7462 16.3286 34.0588 16.0162C35.6554 14.4306 37.3563 12.9534 39.1501 11.5946C39.2203 11.539 39.2918 11.486 39.362 11.4331C39.6984 11.1789 40.0402 10.9287 40.3819 10.6824C42.2618 9.33517 44.2265 8.11029 46.2639 7.0154C46.4043 6.93596 46.5473 6.8605 46.6917 6.78505C48.5188 5.81959 50.3975 4.95514 52.3194 4.1956C53.3666 3.78168 54.4324 3.39512 55.5167 3.03591C56.2346 2.80159 56.9551 2.57786 57.6849 2.37399C58.8133 2.05009 59.9559 1.75796 61.1126 1.49761C64.5204 0.73333 67.9873 0.261209 71.4754 0.0863856C72.535 0.030784 73.6065 0.00298363 74.6899 0.00298363C79.9176 -0.00393398 85.125 0.654456 90.1863 1.96227C90.2386 2.04132 90.3102 2.10576 90.3943 2.14953C90.4785 2.1933 90.5723 2.21497 90.6671 2.21248H91.1121C91.3055 2.26411 91.4976 2.31839 91.6909 2.37399C92.7708 2.68554 93.8353 3.02488 94.8843 3.39203L95.1492 3.48735C97.7382 4.40753 100.257 5.51361 102.687 6.79696C104.876 7.95151 106.985 9.25366 108.998 10.6944C109.308 10.9168 109.613 11.1414 109.914 11.3682C110.28 11.1326 110.652 10.9079 111.03 10.6944C112.489 9.86399 114.039 9.20392 115.649 8.72713C119.016 7.73135 122.578 7.59211 126.012 8.32203C130.416 9.25534 134.403 11.5721 137.623 14.8671C138.934 16.211 140.103 17.6875 141.109 19.2729C141.181 19.3867 141.254 19.5019 141.325 19.6184C142.188 21.0264 142.929 22.5051 143.542 24.0387C143.564 24.0943 143.587 24.1486 143.607 24.2042C144.172 25.6394 144.628 27.1153 144.971 28.6192C144.987 28.6947 145.005 28.7715 145.021 28.8483C145.342 30.3037 145.559 31.7799 145.673 33.2659C145.673 33.3189 145.673 33.3732 145.683 33.4274C145.739 34.1962 145.767 34.9733 145.768 35.7587C145.768 36.4604 145.744 37.1567 145.701 37.8464C145.701 37.9219 145.69 38.0013 145.683 38.0781C145.671 38.2793 145.654 38.4753 145.637 38.6778C146.649 39.4929 147.595 40.3852 148.469 41.3467C148.855 41.7677 149.228 42.205 149.589 42.6586C150.69 44.0364 151.656 45.5156 152.477 47.0763C154.712 51.3099 156 56.2797 156 61.6002Z" fill="#FF661B"/>
<path opacity="0.1" d="M141.033 87.6572C141.033 90.6663 137.913 93.4821 132.468 95.9074H29.614C24.8552 95.9074 20.3983 94.1864 16.5785 91.1852C15.6183 90.0467 15.1123 88.8671 15.1123 87.6558C15.1123 84.4574 18.6407 81.4721 24.7413 78.9489L24.9135 78.8801C26.6353 78.1744 28.5598 77.5085 30.663 76.8824C30.716 76.8665 30.7703 76.8519 30.8233 76.8334C32.4921 76.3436 34.2674 75.8793 36.149 75.4407C36.2086 75.4275 36.2669 75.4129 36.3265 75.4023C37.0523 75.2302 37.7927 75.07 38.549 74.9098L38.8404 74.8489C44.3436 73.7078 50.5991 72.8023 57.3831 72.188H57.3911C58.3412 72.0998 59.3014 72.0208 60.2718 71.951C61.3513 71.865 62.444 71.7922 63.5486 71.7247C64.3923 71.6704 65.2466 71.6241 66.1035 71.5817C66.1066 71.5803 66.11 71.5797 66.1134 71.5797C66.1168 71.5797 66.1202 71.5803 66.1234 71.5817C69.9895 71.3871 73.9842 71.2852 78.0689 71.2852C88.1693 71.2852 97.7162 71.9047 106.176 73.0062C106.184 73.0048 106.192 73.0048 106.2 73.0062C107.5 73.1756 108.777 73.3543 110.022 73.545C110.378 73.6006 110.733 73.6562 111.082 73.7131C112.486 73.9399 113.855 74.1795 115.187 74.4319C130.856 77.4093 141.033 82.2267 141.033 87.6572Z" fill="#FF661B"/>
<path d="M115.428 32.2068C115.428 32.2068 114.027 31.6388 109.569 33.6815C105.111 35.7242 104.554 35.4661 103.401 35.1589C102.247 34.8518 101.604 34.7724 100.366 33.0659C100.366 33.0659 99.4936 28.3385 98.6446 27.6051C97.7957 26.8717 94.2116 28.0234 94.2116 28.0234C94.2116 28.0234 89.9084 29.0097 89.0885 23.2576C89.0885 23.2576 89.67 18.9259 88.8779 17.5968C88.8779 17.5968 90.4779 18.2852 93.1163 17.1732C95.7546 16.0611 97.8672 18.3712 97.8672 18.3712C97.8672 18.3712 98.5294 20.0922 98.4632 21.1195C98.397 22.1468 98.8155 22.5321 100.074 22.0356C100.074 22.0356 100.692 21.1566 99.8168 19.703C98.9413 18.2494 98.3162 17.1679 98.5599 16.0399C98.8036 14.912 99.5069 13.3459 101.765 12.5635C104.023 11.7811 107.09 11.6368 108.561 11.0186C110.033 10.4004 110.395 10.0059 110.395 10.0059C110.395 10.0059 109.489 10.9127 111.623 14.7585C113.757 18.6042 112.397 20.2723 112.397 20.2723C112.397 20.2723 111.262 22.9769 106.25 22.7571C106.25 22.7571 101.421 22.9332 104.054 24.9799C104.054 24.9799 105.74 24.637 108.26 23.8361C110.781 23.0352 112.601 26.3408 113.052 28.6403C113.504 30.9398 115.428 32.2068 115.428 32.2068Z" fill="#FF661B"/>
<path d="M108.937 12.9181L108.964 12.9102C109.157 13.6436 106.999 16.5931 105.154 18.9376L105.133 18.9204C107.735 15.6187 109.087 13.486 108.937 12.9181Z" fill="#444053"/>
<path d="M105.17 18.8755L105.182 18.9046C103.708 20.7765 101.855 23.0085 100.372 24.6673C100.23 24.8248 100.09 24.9903 99.9546 25.1598L99.9122 25.1254C100.045 24.9559 100.189 24.7891 100.331 24.6316C101.813 22.9794 103.695 20.7487 105.17 18.8755Z" fill="#444053"/>
<path d="M99.948 25.083L99.9772 25.1333C97.2779 28.5025 97.0991 33.7383 97.0925 33.7793L96.5229 33.1174C96.5296 33.0751 97.2302 28.476 99.948 25.083Z" fill="#444053"/>
<path d="M112.304 30.3797C112.304 30.3797 109.125 28.7249 106.641 29.3206C104.156 29.9163 98.5679 27.2157 98.5679 27.2157C98.5679 27.2157 96.1971 26.2532 95.7203 25.1558C95.7203 25.1558 94.0925 23.4348 93.9985 22.5465C93.9044 21.6582 92.3217 19.4195 91.2886 19.3335" stroke="#444053" stroke-miterlimit="10"/>
<path d="M111.837 31.9722C111.837 31.9722 110.234 30.8919 110.421 29.6343" stroke="#444053" stroke-miterlimit="10"/>
<path d="M109.378 33.3663C109.378 33.3663 107.086 32.5349 106.862 29.2729" stroke="#444053" stroke-miterlimit="10"/>
<path d="M105.682 34.2106C105.682 34.2106 103.491 32.3943 104.218 29.2197" stroke="#444053" stroke-miterlimit="10"/>
<path d="M101.233 33.3237C101.233 33.3237 99.7757 30.2656 101.072 28.2759" stroke="#444053" stroke-miterlimit="10"/>
<path d="M112.335 28.3633C112.335 28.3633 110.678 28.8928 111.033 29.7613" stroke="#444053" stroke-miterlimit="10"/>
<path d="M110.335 25.3623C110.335 25.3623 108.116 26.0653 108.064 29.2015" stroke="#444053" stroke-miterlimit="10"/>
<path d="M107.241 24.6313C107.241 24.6313 105.221 27.1228 105.369 29.3866" stroke="#444053" stroke-miterlimit="10"/>
<path d="M103.704 25.6084C103.704 25.6084 101.699 27.5253 101.955 28.591" stroke="#444053" stroke-miterlimit="10"/>
<path d="M102.495 24.932C102.495 24.932 100.614 25.2683 100.351 24.6514" stroke="#444053" stroke-miterlimit="10"/>
<path d="M100.051 22.6631C100.051 22.6631 101.001 23.9207 101.243 23.6388" stroke="#444053" stroke-miterlimit="10"/>
<path d="M109.471 21.8673C109.471 21.8673 104.729 22.2115 103.656 20.7817" stroke="#444053" stroke-miterlimit="10"/>
<path d="M99.0592 16.3242C99.0592 16.3242 101.283 21.0967 102.9 21.7043" stroke="#444053" stroke-miterlimit="10"/>
<path d="M101.388 14.0513C101.388 14.0513 102.753 18.4411 104.446 19.8113" stroke="#444053" stroke-miterlimit="10"/>
<path d="M111.466 18.2441C111.466 18.2441 107.86 19.7904 105.696 18.2256" stroke="#444053" stroke-width="0.75" stroke-miterlimit="10"/>
<path d="M104.598 13.1152C104.598 13.1152 105.422 16.3414 106.532 17.1212" stroke="#444053" stroke-width="0.75" stroke-miterlimit="10"/>
<path d="M110.921 14.6284C110.921 14.6284 108.895 15.3962 108.14 14.8085" stroke="#444053" stroke-width="0.75" stroke-miterlimit="10"/>
<path d="M98.3149 23.7168C98.3149 23.7168 98.3149 26.53 97.5493 26.7299" stroke="#444053" stroke-miterlimit="10"/>
<path d="M92.0514 27.3615C92.0514 27.3615 95.0977 27.6263 96.4977 26.0522" stroke="#444053" stroke-miterlimit="10"/>
<path d="M97.5309 20.394C97.5309 20.394 96.7945 23.2469 94.7627 24.0161" stroke="#444053" stroke-miterlimit="10"/>
<path d="M90.2263 24.3563C90.2263 24.3563 92.3799 25.1042 94.2329 23.1992" stroke="#444053" stroke-miterlimit="10"/>
<path d="M95.1347 17.9409C95.1347 17.9409 94.9321 20.3636 93.6143 21.4981" stroke="#444053" stroke-miterlimit="10"/>
<path d="M90.3083 20.6638C90.3083 20.6638 92.0951 20.6758 92.5136 20.0933" stroke="#444053" stroke-miterlimit="10"/>
<path d="M103.231 29.8633H52.3448V55.5379H103.231V29.8633Z" fill="#33323D"/>
<path d="M119.244 63.3379H36.4934V80.2381H119.244V63.3379Z" fill="#33323D"/>
<path d="M56.2467 67.5625H98.6791L107.133 96H47.3052L56.2467 67.5625Z" fill="white"/>
<path d="M34.1359 53.2622V62.038V63.8861V80.2369H49.9872V64.638H105.751V80.2369H121.602V63.8861V62.038V53.2622H34.1359Z" fill="#504F60"/>
<path opacity="0.1" d="M121.602 53.2622H34.1359V62.0366H121.602V53.2622Z" fill="#33323D"/>
<path opacity="0.8" d="M116.888 58.9506C117.606 58.9506 118.189 58.3686 118.189 57.6506C118.189 56.9326 117.606 56.3506 116.888 56.3506C116.17 56.3506 115.587 56.9326 115.587 57.6506C115.587 58.3686 116.17 58.9506 116.888 58.9506Z" fill="#8CCF4D"/>
<path opacity="0.8" d="M111.035 58.9506C111.754 58.9506 112.336 58.3686 112.336 57.6506C112.336 56.9326 111.754 56.3506 111.035 56.3506C110.317 56.3506 109.735 56.9326 109.735 57.6506C109.735 58.3686 110.317 58.9506 111.035 58.9506Z" fill="#FA5959"/>
<path d="M101.363 23.6875H54.215V51.6365H101.363V23.6875Z" fill="white"/>
<path d="M108.535 64.4807C108.634 65.5623 107.817 66.6121 108.055 67.6712C108.105 67.8976 108.203 68.1121 108.239 68.3331C108.337 68.962 107.962 69.5577 107.603 70.0846L104.527 74.6095C104.403 74.808 104.256 74.9903 104.087 75.1523C103.498 75.6818 102.615 75.6209 101.843 75.7771C101.3 75.8871 100.788 76.1129 100.34 76.439C100.321 76.4545 100.308 76.4767 100.304 76.5013C100.3 76.5259 100.306 76.551 100.32 76.5714C100.447 76.746 100.616 76.8859 100.812 76.9784C101.007 77.0708 101.222 77.113 101.438 77.101C101.519 77.2069 101.438 77.3657 101.327 77.4399C101.161 77.5537 100.929 77.5842 100.902 77.8648C100.89 77.9623 100.909 78.061 100.957 78.1468C101.082 78.3363 101.275 78.4702 101.496 78.5201C102.556 78.8458 103.712 78.2739 104.509 77.4955C105.307 76.717 105.879 75.7348 106.662 74.9418C107.095 74.5036 107.589 74.1276 108.034 73.7027C108.924 72.8554 109.623 71.8241 110.286 70.7902C110.504 70.4904 110.669 70.1549 110.773 69.7986C110.855 69.4465 110.818 69.0745 110.913 68.725C111.038 68.2683 111.373 67.9042 111.651 67.5203C112.198 66.7683 112.562 65.8496 112.489 64.9229C112.417 63.9962 111.844 63.0841 110.97 62.769C110.699 62.6611 110.401 62.643 110.119 62.7174C109.76 62.8273 109.496 63.1238 109.251 63.4071L108.667 64.0809C108.521 64.2301 108.406 64.4058 108.327 64.5986C108.289 64.6957 108.28 64.8017 108.302 64.9037C108.323 65.0057 108.374 65.0992 108.447 65.1731" fill="#FBBEBE"/>
<path opacity="0.05" d="M108.535 64.4807C108.634 65.5623 107.817 66.6121 108.055 67.6712C108.105 67.8976 108.203 68.1121 108.239 68.3331C108.337 68.962 107.962 69.5577 107.603 70.0846L104.527 74.6095C104.403 74.808 104.256 74.9903 104.087 75.1523C103.498 75.6818 102.615 75.6209 101.843 75.7771C101.3 75.8871 100.788 76.1129 100.34 76.439C100.321 76.4545 100.308 76.4767 100.304 76.5013C100.3 76.5259 100.306 76.551 100.32 76.5714C100.447 76.746 100.616 76.8859 100.812 76.9784C101.007 77.0708 101.222 77.113 101.438 77.101C101.519 77.2069 101.438 77.3657 101.327 77.4399C101.161 77.5537 100.929 77.5842 100.902 77.8648C100.89 77.9623 100.909 78.061 100.957 78.1468C101.082 78.3363 101.275 78.4702 101.496 78.5201C102.556 78.8458 103.712 78.2739 104.509 77.4955C105.307 76.717 105.879 75.7348 106.662 74.9418C107.095 74.5036 107.589 74.1276 108.034 73.7027C108.924 72.8554 109.623 71.8241 110.286 70.7902C110.504 70.4904 110.669 70.1549 110.773 69.7986C110.855 69.4465 110.818 69.0745 110.913 68.725C111.038 68.2683 111.373 67.9042 111.651 67.5203C112.198 66.7683 112.562 65.8496 112.489 64.9229C112.417 63.9962 111.844 63.0841 110.97 62.769C110.699 62.6611 110.401 62.643 110.119 62.7174C109.76 62.8273 109.496 63.1238 109.251 63.4071L108.667 64.0809C108.521 64.2301 108.406 64.4058 108.327 64.5986C108.289 64.6957 108.28 64.8017 108.302 64.9037C108.323 65.0057 108.374 65.0992 108.447 65.1731" fill="black"/>
<path d="M110.864 92.3194C110.192 92.7284 109.354 92.7549 108.573 92.6583C108.441 92.6437 108.299 92.6345 108.218 92.7311C108.102 92.8727 108.239 93.0793 108.381 93.1931C108.843 93.5386 109.385 93.7613 109.956 93.8405C110.466 93.9116 110.98 93.9457 111.495 93.9424C112.899 93.9663 114.311 93.9901 115.701 93.7875C115.782 93.7815 115.86 93.7585 115.931 93.72C116.02 93.6574 116.082 93.5625 116.104 93.4552C116.201 93.0952 116.017 92.7059 115.74 92.4557C115.463 92.2055 115.107 92.0652 114.758 91.9262L113.537 91.4509C113.25 91.3384 112.79 91.0432 112.478 91.0657C111.907 91.112 111.349 92.0361 110.864 92.3194Z" fill="#3F3D56"/>
<path opacity="0.05" d="M110.864 92.3194C110.192 92.7284 109.354 92.7549 108.573 92.6583C108.441 92.6437 108.299 92.6345 108.218 92.7311C108.102 92.8727 108.239 93.0793 108.381 93.1931C108.843 93.5386 109.385 93.7613 109.956 93.8405C110.466 93.9116 110.98 93.9457 111.495 93.9424C112.899 93.9663 114.311 93.9901 115.701 93.7875C115.782 93.7815 115.86 93.7585 115.931 93.72C116.02 93.6574 116.082 93.5625 116.104 93.4552C116.201 93.0952 116.017 92.7059 115.74 92.4557C115.463 92.2055 115.107 92.0652 114.758 91.9262L113.537 91.4509C113.25 91.3384 112.79 91.0432 112.478 91.0657C111.907 91.112 111.349 92.0361 110.864 92.3194Z" fill="black"/>
<path d="M111.716 76.1091C111.209 76.7856 110.682 77.5653 110.807 78.4033C110.875 78.8547 111.128 79.2532 111.313 79.6702C111.545 80.2439 111.717 80.8402 111.826 81.4495C112.017 82.3351 112.207 83.2234 112.324 84.1223C112.456 85.1377 111.834 88.0753 111.776 89.0987C111.761 89.3449 111.733 89.6123 111.561 89.7897C111.493 89.8599 111.403 89.9221 111.374 90.0081C111.356 90.0957 111.37 90.1871 111.414 90.265C111.701 90.9123 112.288 91.3929 112.94 91.6682C113.591 91.9436 115.177 92.4162 115.884 92.4414C115.978 92.4527 116.073 92.4399 116.161 92.4043C116.256 92.3472 116.331 92.2615 116.376 92.1594C116.887 91.1837 116.395 87.7099 116.403 86.6072C116.403 85.6805 116.627 84.775 116.587 83.8562C116.554 83.1188 116.357 82.4 116.285 81.6639C116.168 80.4579 116.389 79.2479 116.611 78.0565C116.781 77.1443 116.95 76.2309 117.168 75.328C117.3 74.7786 117.454 74.2226 117.757 73.7394C117.997 73.3595 118.323 73.0431 118.597 72.6803C119.357 71.6847 119.694 70.4302 119.536 69.188C119.52 69.0662 117.772 69.6315 117.619 69.6977C116.992 69.9644 116.414 70.336 115.912 70.7965C115.515 71.1804 115.19 71.6954 114.835 72.127C114.334 72.7359 113.84 73.3498 113.353 73.9684C112.799 74.6789 112.254 75.3925 111.716 76.1091Z" fill="#464353"/>
<path opacity="0.05" d="M111.716 76.0656C111.209 76.7421 110.682 77.5218 110.807 78.3611C110.875 78.8112 111.128 79.2097 111.313 79.6267C111.545 80.2005 111.717 80.7968 111.826 81.406C112.017 82.2916 112.207 83.1799 112.324 84.0788C112.456 85.0942 111.834 88.0331 111.776 89.0565C111.761 89.3014 111.733 89.5701 111.561 89.7462C111.493 89.8164 111.403 89.8786 111.374 89.9646C111.354 90.0548 111.368 90.1491 111.414 90.2294C111.701 90.8754 112.288 91.3573 112.94 91.6314C113.591 91.9054 115.177 92.1609 115.884 92.1834C115.978 92.1947 116.073 92.182 116.161 92.1463C116.256 92.0892 116.331 92.0035 116.376 91.9014C116.887 90.9257 116.395 87.6731 116.403 86.5716C116.403 85.6449 116.627 84.7381 116.587 83.8193C116.554 83.082 116.357 82.3631 116.285 81.6271C116.168 80.421 116.389 79.211 116.611 78.0209C116.781 77.1074 116.95 76.194 117.168 75.2911C117.3 74.7417 117.454 74.1857 117.757 73.7025C117.997 73.3239 118.323 73.0062 118.597 72.6514C119.356 71.6554 119.693 70.4012 119.536 69.1591C119.52 69.036 117.772 69.6012 117.619 69.6688C116.991 69.9357 116.414 70.3082 115.912 70.7702C115.515 71.1554 115.19 71.6691 114.835 72.094C114.334 72.703 113.84 73.3173 113.353 73.9368C112.799 74.6429 112.254 75.3525 111.716 76.0656Z" fill="black"/>
<path d="M106.062 61.2147C107.637 61.2147 108.913 59.9386 108.913 58.3644C108.913 56.7903 107.637 55.5142 106.062 55.5142C104.487 55.5142 103.21 56.7903 103.21 58.3644C103.21 59.9386 104.487 61.2147 106.062 61.2147Z" fill="#FBBEBE"/>
<path d="M108.629 58.2451C108.892 58.6654 109.237 59.0285 109.644 59.3128C110.051 59.5971 110.51 59.7967 110.996 59.8999L110.781 60.677C110.41 62.018 109.986 63.4358 108.957 64.3652C109.07 63.9111 108.924 63.4226 108.667 63.0321C108.392 62.6522 108.066 62.3118 107.699 62.0207L106.058 60.5936C106.009 60.5574 105.967 60.5126 105.935 60.4612C105.895 60.3608 105.895 60.2491 105.935 60.1487C106.144 59.4987 106.741 59.0897 107.225 58.6528C107.468 58.4251 107.686 58.1717 107.874 57.8969C108.21 57.4296 108.413 57.8969 108.629 58.2451Z" fill="#FBBEBE"/>
<path d="M102.304 55.4996L102.241 54.9701C102.691 55.0866 103.118 54.7053 103.405 54.3081C103.692 53.911 103.96 53.445 104.398 53.2808C104.928 53.0796 105.495 53.4013 106.004 53.6661C106.574 53.9832 107.2 54.1877 107.847 54.2684C107.951 54.2719 108.053 54.2888 108.152 54.3187C108.483 54.4365 108.641 54.8483 108.688 55.2282C108.736 55.6082 108.723 56.0053 108.887 56.3416C109.01 56.5957 109.223 56.785 109.353 57.0353C109.701 57.7104 109.365 58.6318 109.733 59.2937L108.819 58.4557C108.735 58.379 108.617 58.2995 108.525 58.3644C108.434 58.4293 108.447 58.5272 108.417 58.6159C108.328 58.8807 108.004 58.9548 107.766 58.8529C107.529 58.751 107.358 58.5259 107.185 58.3234C106.781 57.8468 106.3 57.4284 105.728 57.2246C105.48 57.1297 105.215 57.0887 104.951 57.1045C104.686 57.1202 104.428 57.1923 104.193 57.3159C103.767 57.5569 103.454 58.1182 102.932 58.138C102.216 58.1645 101.918 56.8314 101.585 56.3045C101.706 56.2129 101.791 56.0819 101.826 55.9341C101.86 55.7863 101.841 55.6311 101.773 55.4956C101.831 55.4731 102.295 55.4135 102.304 55.4996Z" fill="#464353"/>
<path d="M114.19 92.2973C113.626 92.7996 112.895 93.0722 112.14 93.0612C111.948 93.0612 111.682 93.0982 111.68 93.2902C111.684 93.3473 111.703 93.4023 111.736 93.4491C111.975 93.8462 112.352 94.1412 112.795 94.2778C113.206 94.4022 113.646 94.381 114.075 94.3599L115.326 94.295C115.562 94.2818 115.799 94.2698 116.035 94.2407C116.271 94.2116 116.525 94.1626 116.771 94.1269C117.375 94.0406 117.985 94.0118 118.594 94.0408C118.756 94.0474 118.942 94.0408 119.043 93.919C119.144 93.7972 119.089 93.5775 119.052 93.4014C118.978 93.0387 119.052 92.6587 118.983 92.2947C118.863 91.6552 118.313 91.1667 117.707 90.9351C117.144 90.7206 116.145 90.4757 115.611 90.8318C115.039 91.2157 114.695 91.8406 114.19 92.2973Z" fill="#3F3D56"/>
<path d="M115.43 70.9024C115.541 71.4319 116.048 71.8291 116.064 72.3586C116.076 72.7875 115.769 73.1529 115.549 73.517C115.339 73.8984 115.162 74.297 115.019 74.7084C114.601 75.7764 114.083 76.8025 113.472 77.7731C113.178 78.2378 112.85 78.7435 112.917 79.2903C112.964 79.5454 113.053 79.7908 113.182 80.0157L114.063 81.7645C114.256 82.1138 114.408 82.4849 114.513 82.8699C114.589 83.2022 114.597 83.5464 114.646 83.8853C114.785 84.9577 115.288 86.0379 114.991 87.0771C114.965 87.1671 114.872 87.2757 114.802 87.2095C115.092 87.7523 115.332 88.3004 115.304 88.9159C115.292 89.239 115.193 89.5779 115.313 89.8771C115.381 89.9935 115.426 90.1221 115.446 90.2557C115.446 90.3431 115.405 90.4265 115.395 90.5204C115.372 90.768 115.598 90.9745 115.835 91.05C116.072 91.1254 116.328 91.1228 116.566 91.1943C117.026 91.3267 117.352 91.7238 117.745 91.9992C118.143 92.2753 118.614 92.4286 119.099 92.44C119.167 92.4473 119.237 92.4335 119.297 92.4003C119.332 92.3702 119.36 92.333 119.379 92.2912C119.398 92.2494 119.408 92.204 119.409 92.158C119.43 91.9388 119.396 91.7177 119.312 91.5143C119.227 91.311 119.094 91.1315 118.924 90.9917C118.85 90.9446 118.788 90.88 118.745 90.8038C118.723 90.7359 118.717 90.6638 118.728 90.5933C118.799 89.6308 118.782 88.6639 118.676 87.7046C118.628 87.4009 118.613 87.0929 118.63 86.7859C118.656 86.5304 118.733 86.2762 118.704 86.0207C118.675 85.7652 118.546 85.5348 118.469 85.2886C118.337 84.8517 118.371 84.3831 118.357 83.9251C118.333 83.1307 118.152 82.3523 117.97 81.5792C117.9 81.276 117.82 80.957 117.605 80.7319C117.422 80.5413 117.126 80.3573 117.195 80.1031C117.233 80.009 117.29 79.9238 117.362 79.8529C117.448 79.7462 117.51 79.6231 117.547 79.4913C117.583 79.3596 117.592 79.2218 117.573 79.0864C117.65 79.107 117.733 79.0997 117.805 79.0658C117.878 79.0319 117.936 78.9736 117.97 78.9011C119.402 78.2272 120.56 76.8769 121.069 75.3783C121.098 75.2678 121.143 75.1621 121.202 75.0646C121.334 74.8792 121.565 74.7998 121.769 74.6965C122.41 74.3748 122.854 73.7698 123.26 73.1781C123.497 72.8339 123.733 72.4791 123.835 72.0753C123.891 71.8143 123.917 71.5479 123.914 71.281L123.95 69.9016C123.957 69.8124 123.948 69.7227 123.924 69.6368C123.89 69.5545 123.839 69.4801 123.775 69.4184C123.387 69.005 122.876 68.7266 122.318 68.624C121.942 68.5565 121.558 68.5698 121.178 68.538C120.44 68.4771 119.712 68.2494 118.974 68.3024C117.814 68.3871 116.782 69.1907 116.235 70.2166C116.043 70.5833 115.842 70.9024 115.43 70.9024Z" fill="#464353"/>
<path d="M108.993 61.9323C109.01 62.145 108.981 62.3588 108.909 62.5598C108.819 62.7531 108.592 62.9027 108.394 62.8245C108.454 62.6922 108.295 62.5346 108.148 62.5518C108.075 62.568 108.007 62.6017 107.951 62.6499C107.894 62.6981 107.85 62.7594 107.822 62.8285C107.723 63.0252 107.69 63.2484 107.728 63.4653C107.774 63.7301 107.931 63.9948 107.89 64.2596C107.856 64.4847 107.691 64.7097 107.78 64.9215C107.837 65.0167 107.908 65.1024 107.992 65.1757C108.108 65.3184 108.165 65.5003 108.151 65.6839C108.137 65.8675 108.053 66.0386 107.916 66.162L110.139 66.2057C110.058 66.5777 110.223 66.9576 110.414 67.2872C110.948 68.1933 111.684 68.9635 112.565 69.5377C113.446 70.1119 114.449 70.4744 115.493 70.5968C115.437 70.6301 115.389 70.6755 115.352 70.7296C115.315 70.7838 115.291 70.8454 115.281 70.9101C115.271 70.9748 115.275 71.0409 115.293 71.1037C115.312 71.1665 115.344 71.2244 115.387 71.2733C115.568 71.452 115.874 71.4295 116.1 71.313C116.326 71.1965 116.505 71.0046 116.712 70.8563C117.076 70.5967 117.522 70.4765 117.968 70.5174C118.246 70.5439 118.516 70.6339 118.795 70.6498C119.619 70.6935 120.326 70.1017 121.114 69.8555C121.692 69.6781 122.345 69.6781 122.836 69.318C123.046 69.1631 123.216 68.9089 123.156 68.6561C123.104 68.511 123.022 68.3784 122.916 68.2669C122.636 67.9068 122.472 67.4726 122.273 67.0635C121.877 66.2527 121.332 65.5235 120.667 64.9136C120.166 64.4745 119.635 64.0706 119.077 63.7049C118.942 63.6038 118.797 63.5152 118.646 63.4401C118.443 63.3743 118.246 63.2942 118.055 63.2005C117.79 63.0364 117.643 62.7464 117.443 62.5121C117.002 61.9985 116.325 61.7615 115.782 61.3577C115.418 61.093 115.097 60.7302 114.662 60.5992C114.451 60.5356 114.226 60.5303 114.014 60.4668C113.534 60.3212 113.185 59.8949 112.713 59.7228C112.34 59.5904 111.929 59.6222 111.535 59.5732C111.1 59.5194 110.686 59.3618 110.325 59.1138C110.206 59.0174 110.072 58.9406 109.928 58.8861C109.333 58.7047 109.284 59.8128 109.229 60.198C109.14 60.7872 108.993 61.3538 108.993 61.9323Z" fill="#FF661B"/>
<path d="M109.573 65.652C109.672 66.7336 108.855 67.782 109.093 68.8424C109.144 69.0688 109.242 69.2833 109.278 69.5044C109.377 70.1332 109.001 70.7289 108.642 71.2545L105.565 75.7688C105.442 75.9673 105.294 76.1496 105.125 76.3116C104.536 76.8411 103.654 76.7802 102.882 76.9364C102.339 77.0467 101.826 77.2725 101.378 77.5984C101.359 77.6138 101.346 77.6361 101.342 77.6606C101.339 77.6852 101.344 77.7103 101.358 77.7308C101.486 77.9056 101.654 78.0457 101.85 78.1382C102.045 78.2307 102.261 78.2727 102.476 78.2603C102.557 78.3675 102.476 78.5251 102.365 78.5992C102.2 78.7144 101.968 78.7448 101.94 79.0255C101.928 79.123 101.948 79.2217 101.996 79.3075C102.12 79.4966 102.314 79.6303 102.535 79.6808C103.594 80.0064 104.75 79.4345 105.548 78.6561C106.345 77.8777 106.917 76.8954 107.701 76.1024C108.135 75.6642 108.629 75.2882 109.072 74.8633C109.964 74.016 110.655 72.9848 111.324 71.9508C111.542 71.6509 111.707 71.3154 111.811 70.9593C111.893 70.6071 111.856 70.2351 111.952 69.8856C112.076 69.4289 112.411 69.0635 112.689 68.6809C113.236 67.929 113.601 67.0102 113.528 66.0835C113.455 65.1568 112.883 64.2447 112.009 63.9296C111.738 63.8211 111.439 63.803 111.157 63.878C110.799 63.9879 110.534 64.2844 110.289 64.5677L109.705 65.2416C109.56 65.3904 109.445 65.5663 109.366 65.7592C109.328 65.856 109.32 65.9617 109.341 66.0635C109.362 66.1653 109.412 66.2587 109.485 66.3324" fill="#FBBEBE"/>
<path d="M111.131 61.208C110.725 61.2318 110.28 61.2715 109.994 61.5601C109.875 61.6926 109.778 61.8438 109.708 62.0076C109.431 62.5728 109.161 63.1633 109.141 63.7921C109.124 64.2952 109.274 64.7863 109.347 65.2841C109.41 65.6971 109.249 66.1181 109.214 66.5364C109.716 66.3829 110.378 66.1737 110.834 65.9142C111.132 65.719 111.45 65.554 111.781 65.4218C112.264 65.2616 113.076 65.5369 113.532 65.7633C113.557 65.4403 113.316 64.8803 113.341 64.5573C113.345 64.4221 113.369 64.2882 113.413 64.1601C113.481 64.0245 113.562 63.8955 113.655 63.7749C113.831 63.4907 113.912 63.1582 113.886 62.8251C113.861 62.4921 113.73 62.1757 113.513 61.9215C113.107 61.4635 112.468 61.2914 111.86 61.2212C111.477 61.1765 111.091 61.1627 110.705 61.1802" fill="#FF661B"/>
<path d="M51.125 51.9461L48.5131 48.1599C48.5131 48.1599 48.4641 47.2226 48.2932 47.0042C48.1224 46.7858 48.2561 46.2986 48.2561 46.2986C48.2561 46.2986 48.4402 46.0338 48.2813 46.006C48.1224 45.9782 48.2561 45.3851 48.2561 45.3851L48.2442 44.4359C48.2442 44.4359 48.3912 43.5225 48.2694 43.3041C48.2334 43.2448 48.2154 43.1763 48.2175 43.107C48.2196 43.0377 48.2418 42.9705 48.2813 42.9135C48.2813 42.9135 48.427 42.3906 48.2813 42.2516C48.1356 42.1126 48.1714 41.3024 48.2071 40.6564C48.2429 40.0103 47.9515 39.6463 47.9515 39.5496C47.9515 39.453 46.9873 38.5025 46.9873 38.4164C46.9873 38.3304 46.3767 37.9782 46.0098 37.8869C45.6429 37.7955 45.4615 37.7161 45.4734 37.6671C45.4853 37.6181 44.8999 37.4249 44.8999 37.4249C44.8999 37.4249 44.3873 37.3878 44.1913 37.1323C43.9953 36.8768 43.3966 36.8026 43.382 36.8L43.3701 36.7497C43.3701 36.7312 43.3635 36.7126 43.3595 36.6941C43.4079 36.6171 43.4521 36.5375 43.492 36.4558L43.5264 36.3817C43.7409 36.383 43.9506 36.3178 44.1264 36.195C44.213 36.1233 44.2837 36.0343 44.3341 35.9338C44.3845 35.8333 44.4134 35.7235 44.4191 35.6112C44.4296 35.3861 44.3802 35.1623 44.2761 34.9625C44.1688 34.7441 44.0112 34.5164 44.0668 34.2781C44.0906 34.1761 44.1516 34.0861 44.1834 33.9855C44.2308 33.7891 44.1994 33.5819 44.0959 33.4083C44.0032 33.2322 43.8748 33.076 43.7714 32.9053C43.6404 32.6866 43.5527 32.4448 43.5132 32.193C43.5058 32.0591 43.4739 31.9276 43.4191 31.8051C43.3637 31.7188 43.2906 31.6453 43.2046 31.5894C42.8224 31.3168 42.3612 31.1773 41.892 31.1922C41.5596 31.2028 41.2298 31.2928 40.8986 31.2518C40.7014 31.2179 40.5073 31.1674 40.3185 31.1009C39.9093 30.9791 39.4364 30.9301 39.0801 31.1644C38.7238 31.3987 38.5821 31.8594 38.3397 32.2235C38.1265 32.5412 37.81 32.8086 37.651 33.1502C37.651 33.1502 37.651 33.1369 37.651 33.1316C37.611 33.2094 37.5803 33.2916 37.5596 33.3765C37.5142 33.6463 37.5328 33.9229 37.6139 34.1841C37.6319 34.3247 37.7024 34.4534 37.8113 34.5442C37.9318 34.6223 38.0974 34.6037 38.2378 34.6289L38.2219 34.6977C38.0789 35.3821 38.1985 36.0951 38.557 36.6954C38.9154 37.2957 39.4865 37.7394 40.1569 37.9385C40.1569 37.9637 40.1569 37.9875 40.1569 38.0126C40.1566 38.0826 40.1522 38.1524 40.1437 38.2218C40.1437 38.2218 38.9159 37.969 38.5861 38.1397C38.2563 38.3105 37.61 38.4442 37.5119 38.5369C37.4139 38.6296 37.1702 38.562 36.9504 39.1339C36.7305 39.7058 36.7067 40.2897 36.4206 40.5584C36.1345 40.8271 35.9941 41.0085 35.9808 41.2031C35.9676 41.3977 36.0179 41.4467 35.908 41.5076C35.7981 41.5685 35.6431 41.824 35.6881 41.922C35.705 41.9889 35.7014 42.0594 35.6778 42.1243C35.6541 42.1892 35.6116 42.2455 35.5557 42.286C35.4978 42.3267 35.4515 42.3818 35.4215 42.4459C35.3916 42.51 35.3789 42.5809 35.3848 42.6514C35.3848 42.6514 35.3107 42.9162 35.1398 42.981C34.9689 43.0459 34.859 43.4431 34.859 43.4431L34.3054 44.0785L33.2087 42.8659C33.1263 42.7752 33.0114 42.7209 32.8891 42.7147C32.7667 42.7085 32.6469 42.7509 32.5557 42.8328L32.0167 43.3173C31.8089 43.3677 31.6212 43.4793 31.4776 43.6377C31.3608 43.7588 31.2662 43.8995 31.1981 44.0533L30.9041 44.3181C30.8112 44.4331 30.7544 44.573 30.7407 44.7202C30.727 44.8674 30.7572 45.0154 30.8273 45.1455L31.5306 45.9226V45.9292C31.2814 45.9512 31.0447 46.0476 30.8511 46.2059C29.8021 47.1326 29.7915 47.9838 29.9478 48.3731C30.1041 48.7623 31.4366 50.2595 31.4366 50.2595C31.4366 50.2595 32.21 51.2643 33.3266 51.7978L33.3186 51.8071C33.2957 51.8311 33.274 51.8563 33.2537 51.8826L33.2352 51.9064L33.218 51.9302L33.1981 51.9593C33.1928 51.967 33.1879 51.9749 33.1835 51.9832L33.1623 52.0176C33.1574 52.0253 33.153 52.0332 33.1491 52.0414C33.1398 52.0573 33.1319 52.0732 33.1239 52.0891C33.121 52.0942 33.1184 52.0995 33.116 52.105C33.1054 52.1262 33.0948 52.1473 33.0855 52.1712L33.0749 52.195C33.0683 52.2109 33.063 52.2268 33.0564 52.244C33.0523 52.2544 33.0487 52.265 33.0458 52.2757L33.0299 52.3234C33.0256 52.3346 33.0221 52.3461 33.0193 52.3578C33.0193 52.375 33.0087 52.3922 33.0047 52.4108C33.0008 52.4293 32.9981 52.432 32.9955 52.4439C32.9928 52.4558 32.9822 52.5008 32.9769 52.5313C32.9769 52.5418 32.9769 52.5538 32.9703 52.5657C32.9637 52.5776 32.9637 52.6067 32.9597 52.6279C32.9557 52.6491 32.9597 52.657 32.9597 52.6729L32.9518 52.7325V52.7801C32.9518 52.8026 32.9518 52.8251 32.9451 52.849C32.9385 52.8728 32.9451 52.8768 32.9451 52.8913C32.9451 52.9297 32.9451 52.9681 32.9451 53.0092C32.9213 54.4336 33.0047 54.6401 33.0047 54.6401C33.0592 54.7717 33.1481 54.8862 33.262 54.9717C33.376 55.0572 33.5108 55.1105 33.6524 55.126C33.7219 55.1314 33.7918 55.1279 33.8603 55.1154C34.4961 55.0055 35.9795 54.75 36.5093 54.8506C36.8259 54.9089 37.41 54.8215 37.8258 54.7434L37.9358 54.7222L38.0113 54.9645L38.2523 54.8983L38.4576 55.0161L38.5901 55.0916C38.8311 55.9071 39.8086 55.629 39.8086 55.629L40.0404 55.7614L42.3966 55.8223C42.6611 55.9816 42.9406 56.1147 43.2311 56.2195C43.2694 56.232 43.3089 56.2409 43.3489 56.246C43.5692 56.2639 43.7904 56.2679 44.0112 56.2579C44.1913 56.2579 44.3304 56.246 44.3304 56.246C44.3304 56.246 44.3065 55.6065 44.2721 54.8903C45.0025 54.8723 45.7312 54.8126 46.4548 54.7116C47.7131 54.4919 48.2376 53.3481 48.431 52.7364C48.4888 52.9863 48.53 53.2397 48.5541 53.495C48.6056 53.7195 48.671 53.9406 48.7502 54.1569C48.8176 54.3298 48.9066 54.4935 49.0151 54.6441C49.9422 54.3277 49.3806 53.8498 49.1859 53.6459C48.9912 53.4421 49.3184 53.2686 49.3184 53.2686C49.3184 53.2686 49.5753 53.0979 49.5502 52.9403C49.525 52.7828 49.5131 52.612 50.3448 52.6239C51.1766 52.6358 51.125 51.9461 51.125 51.9461ZM38.2351 44.1738C38.2457 44.2427 38.3676 44.9933 38.4656 45.1905C38.4948 45.3208 38.5042 45.4547 38.4934 45.5877C38.002 45.548 37.4894 45.5268 37.4894 45.5268C37.5038 45.5447 37.513 45.5662 37.5159 45.589L37.4378 45.5718L37.3265 45.5453L38.2325 44.1672L38.2351 44.1738ZM36.4391 47.028L37.2908 47.1604L37.3623 47.171C37.3382 47.3022 37.3236 47.4349 37.3186 47.5682C37.3186 47.5814 37.3371 47.596 37.3649 47.6132C37.3531 47.68 37.3477 47.7478 37.349 47.8157C37.3623 47.8819 37.7596 48.0275 38.2166 48.148C38.2099 48.1732 38.2046 48.197 38.198 48.2182C37.7941 48.0063 37.1596 47.9071 37.0868 47.7495C37.0139 47.592 34.8524 46.8374 34.8524 46.8374L34.6378 46.7302L35.206 46.8374L35.3623 46.8215C35.7164 46.9136 36.0761 46.9826 36.4391 47.028Z" fill="url(#paint0_linear)"/>
<path d="M48.3462 52.4759C48.3462 52.4759 48.0085 54.5199 46.2906 54.8218C44.5728 55.1236 38.8378 55.064 38.8378 55.064C38.8378 55.064 35.5584 54.5914 34.373 51.8233C33.1875 49.0551 32.4246 47.9523 33.4458 47.9047C34.467 47.857 39.9437 49.7581 40.2576 49.7793C40.5715 49.8004 48.6495 45.5707 48.3462 52.4759Z" fill="#65617D"/>
<path opacity="0.05" d="M48.3462 52.4759C48.3462 52.4759 48.0085 54.5199 46.2906 54.8218C44.5728 55.1236 38.8378 55.064 38.8378 55.064C38.8378 55.064 35.5584 54.5914 34.373 51.8233C33.1875 49.0551 32.4246 47.9523 33.4458 47.9047C34.467 47.857 39.9437 49.7581 40.2576 49.7793C40.5715 49.8004 48.6495 45.5707 48.3462 52.4759Z" fill="black"/>
<path d="M32.9677 54.7513C33.0209 54.8822 33.1086 54.9963 33.2215 55.0813C33.3344 55.1664 33.4682 55.2194 33.6087 55.2345C33.6783 55.2388 33.7481 55.2348 33.8167 55.2226C34.4458 55.1141 35.9213 54.8599 36.4418 54.9579C36.7544 55.0148 37.3332 54.9287 37.7451 54.852C38.0192 54.8003 38.2206 54.7513 38.2206 54.7513C38.2206 54.7513 37.7358 53.1429 37.6762 53.0952C37.6166 53.0475 35.4974 51.7713 35.4974 51.7713L33.8206 51.6509C33.5949 51.6846 33.3909 51.8041 33.2511 51.9845C33.075 52.199 32.9226 52.5498 32.912 53.1256C32.8842 54.5435 32.9677 54.7513 32.9677 54.7513Z" fill="#3F3D56"/>
<path opacity="0.05" d="M32.9676 54.7517C33.0208 54.8826 33.1086 54.9966 33.2214 55.0817C33.3343 55.1668 33.4681 55.2197 33.6087 55.2349C33.4444 55.023 33.2923 54.802 33.153 54.573L33.1623 53.4C33.129 53.0783 33.1715 52.7533 33.2865 52.451C33.4015 52.1487 33.5858 51.8775 33.8246 51.6592C33.8246 51.6592 32.9411 51.7188 32.916 53.1339C32.8908 54.5491 32.9676 54.7517 32.9676 54.7517Z" fill="black"/>
<path opacity="0.1" d="M40.2404 52.1862L41.8019 50.9643L44.2575 48.5456L43.5953 48.5151C43.4959 48.5787 43.2178 48.7799 43.2072 49.0208C43.1953 49.3161 42.545 49.042 42.2046 49.2102C41.8642 49.3783 40.2086 51.5004 39.9185 51.4859C39.6284 51.4713 39.398 51.3389 39.2761 51.5454L39.2682 51.5587L40.2404 52.1862Z" fill="black"/>
<path opacity="0.1" d="M33.2471 51.9873C33.3027 52.0138 33.3597 52.0403 33.4166 52.0641C34.602 52.5725 36.0656 53.6369 36.1755 53.8301C36.2417 53.948 37.0907 54.4629 37.745 54.8495C38.0192 54.7979 38.2205 54.7489 38.2205 54.7489C38.2205 54.7489 37.7357 53.1404 37.6761 53.0928C37.6165 53.0451 35.4974 51.7689 35.4974 51.7689L33.8206 51.6484C33.5926 51.6825 33.3868 51.8041 33.2471 51.9873Z" fill="black"/>
<path d="M29.9571 48.5218C30.1134 48.9084 31.4326 50.3964 31.4326 50.3964C31.4326 50.3964 32.267 51.4846 33.4537 51.985C34.6405 52.4854 36.1027 53.5577 36.2113 53.751C36.2815 53.8754 37.2272 54.4447 37.8921 54.8352L38.0417 54.9226L38.3715 55.1145L38.5464 55.2138C38.5464 55.2138 38.9516 54.8895 39.3556 54.5625C39.7596 54.2355 40.1503 53.9151 40.1503 53.9006C40.1503 53.886 40.3198 53.4531 40.2827 53.4293C40.2457 53.4055 40.1808 53.2492 40.0271 53.0546C39.865 52.8389 39.6539 52.6646 39.4112 52.5463C39.0602 52.3659 38.7802 52.0726 38.6165 51.7136C38.6165 51.7136 38.5636 51.6752 38.4841 51.6236C38.3194 51.5104 38.1353 51.4283 37.9411 51.3813C37.6762 51.3482 37.1782 50.8041 37.1782 50.8041C36.9845 50.6781 36.823 50.5085 36.7067 50.309C36.5742 50.0442 34.7027 48.7548 34.5292 48.6356L39.0775 51.556L40.1662 52.255L41.7278 51.0345L44.1833 48.6158L43.3728 48.5787C42.1807 48.5271 40.0616 48.4463 39.7967 48.5072C39.5797 48.5572 39.3561 48.5719 39.1344 48.5509C39.1344 48.5509 38.5305 48.5774 38.1305 48.3669C37.7305 48.1564 37.1013 48.0571 37.0285 47.9009C36.9557 47.7447 34.8153 46.9954 34.8153 46.9954C34.8153 46.9954 31.9014 45.4478 30.8591 46.3666C29.8167 47.2853 29.7995 48.1326 29.9571 48.5218Z" fill="#65617D"/>
<path d="M39.3569 39.645L39.7318 40.8908L40.2165 43.696L41.9953 43.8165L42.5039 42.9692L43.0178 42.1167C43.0178 42.1167 43.3383 40.9835 43.5688 39.8873C43.7714 38.9169 43.9052 37.9744 43.684 37.8724C43.4867 37.7824 43.3582 37.4554 43.2734 37.1033C43.2628 37.0609 43.2535 37.0159 43.2456 36.9709C43.1863 36.6733 43.1465 36.3721 43.1264 36.0693C43.1264 36.0693 39.4006 35.8761 39.9212 37.4117C40.014 37.674 40.0615 37.9503 40.0616 38.2285C40.0616 38.3 40.0616 38.3702 40.0483 38.4364C40.0225 38.6745 39.9477 38.9048 39.8288 39.1128C39.7098 39.3208 39.5492 39.502 39.3569 39.645Z" fill="#EE8E9E"/>
<path d="M38.5835 39.4399L38.7159 41.558L39.0179 43.3598L39.357 44.1951L39.6603 48.7597C39.6603 48.7597 42.5742 49.0973 43.2867 48.7531C43.3393 48.733 43.3851 48.6986 43.4192 48.6538C44.2761 47.3604 43.9953 43.6139 43.9953 43.6139L44.3211 41.1953L44.1039 39.9403L43.5741 39.8847L43.1688 39.841C43.1688 39.841 43.0775 39.9535 42.945 40.1283C42.5861 40.6009 41.9265 41.5329 41.9715 41.9207C42.0311 42.4503 41.8987 42.997 41.6921 43.0818C41.4854 43.1665 41.3172 43.3121 41.2815 43.1665C41.23 43.0444 41.217 42.9095 41.2444 42.7799C41.2815 42.5734 41.0868 41.9446 41.0868 41.9446C41.0868 41.9446 40.7609 41.2072 40.7848 40.8934C40.8086 40.5797 40.749 40.2156 40.6523 40.1309C40.5556 40.0462 40.4219 39.9615 40.5305 39.5749C40.6391 39.1883 40.0537 38.4351 40.0537 38.4351L38.5835 39.4399Z" fill="#E3E8F4"/>
<path opacity="0.1" d="M42.4364 44.7249L42.5582 48.3403L43.2562 48.7282C43.3086 48.7072 43.3544 48.6724 43.3887 48.6276C44.2456 47.3342 43.9648 43.5877 43.9648 43.5877L44.2919 41.169L44.0734 39.914L43.5436 39.8584C43.7476 38.888 43.88 37.9468 43.6588 37.8435C43.4615 37.7535 43.333 37.4265 43.2496 37.0757L42.8721 39.6334C42.8721 39.6334 42.9039 39.8637 42.9145 40.102C42.9302 40.2527 42.9199 40.4049 42.884 40.5521C42.8351 40.7501 42.827 40.9559 42.8602 41.1571C42.6416 41.541 42.533 42.2532 42.4801 42.9403C42.4085 43.8538 42.4364 44.7249 42.4364 44.7249Z" fill="black"/>
<path d="M43.2602 37.0117C43.2602 37.0117 43.8708 37.0872 44.0642 37.3414C44.2576 37.5955 44.7662 37.6326 44.7662 37.6326C44.7662 37.6326 45.3463 37.8259 45.3344 37.8735C45.3224 37.9212 45.5039 37.9953 45.8642 38.092C46.2244 38.1886 46.8324 38.5394 46.8324 38.6215C46.8324 38.7036 47.7873 39.6488 47.7873 39.7455C47.7873 39.8421 48.0774 40.2048 48.0416 40.8456C48.0058 41.4863 47.9688 42.3018 48.1145 42.4342C48.2601 42.5666 48.1145 43.0868 48.1145 43.0868C48.0753 43.1435 48.0534 43.2102 48.0512 43.279C48.0491 43.3478 48.0669 43.4158 48.1025 43.4747C48.2231 43.6918 48.0774 44.5987 48.0774 44.5987L48.0906 45.5426C48.0906 45.5426 47.9582 46.1343 48.1145 46.1595C48.2707 46.1846 48.0906 46.4494 48.0906 46.4494C48.0906 46.4494 47.9582 46.9326 48.1264 47.151C48.2946 47.3695 48.3436 48.2988 48.3436 48.2988L50.9329 52.0599C50.9329 52.0599 50.97 52.7496 50.1475 52.7377C49.325 52.7258 49.3356 52.8952 49.3608 53.0514C49.386 53.2076 49.1303 53.3784 49.1303 53.3784C49.1303 53.3784 48.8045 53.5479 48.9979 53.7531C49.1913 53.9583 49.7475 54.4309 48.8283 54.7446C48.72 54.5953 48.631 54.433 48.5635 54.2614C48.4855 54.0481 48.421 53.8301 48.3701 53.6088C48.3701 53.6088 48.2853 52.6887 48.1158 52.5682C47.9462 52.4478 47.9701 51.8666 47.9701 51.8666C47.9701 51.8666 48.2125 51.3953 47.8734 51.2047C47.5343 51.014 42.6232 48.2922 42.6232 48.2922L42.504 44.6755C42.504 44.6755 42.4192 42.0026 42.9278 41.1077C42.8946 40.9065 42.9027 40.7007 42.9516 40.5027C43.0364 40.2856 42.9397 39.5839 42.9397 39.5839L43.2602 37.0117Z" fill="#3F3D56"/>
<path opacity="0.1" d="M40.0894 38.4682C40.0894 38.4682 38.8735 38.218 38.5464 38.3875C38.2192 38.5569 37.5795 38.6893 37.4868 38.7846C37.3941 38.88 37.149 38.8098 36.9305 39.3777C36.712 39.9457 36.6894 40.5268 36.41 40.7929C36.1305 41.059 35.9875 41.2404 35.9755 41.4337C35.9636 41.6269 36.0113 41.6759 35.9027 41.7355C35.7941 41.7951 35.6378 42.0506 35.6842 42.1472C35.7305 42.2439 38.2007 44.3726 38.2007 44.3726C38.2007 44.3726 38.3225 45.1828 38.4311 45.388C38.5397 45.5932 38.3106 48.4236 38.0682 48.6168C37.8258 48.8101 39.696 48.7942 39.696 48.7942C39.696 48.7942 39.7808 46.9409 39.8536 46.8402C39.9265 46.7396 39.8046 44.7605 39.8046 44.7605C39.8046 44.7605 39.7927 43.0673 39.9503 42.6198C40.1079 42.1724 40.0828 40.6844 40.0828 40.6844C40.0828 40.6844 40.2218 39.7921 40.3914 39.5842C40.5609 39.3764 40.0894 38.4682 40.0894 38.4682Z" fill="black"/>
<path d="M40.0536 38.4327C40.0536 38.4327 38.8377 38.1825 38.5106 38.3506C38.1835 38.5187 37.5424 38.6537 37.451 38.7477C37.3596 38.8417 37.1119 38.7716 36.8947 39.3408C36.6775 39.9101 36.6524 40.4886 36.3742 40.7547C36.0961 41.0208 35.9504 41.2022 35.9385 41.3954C35.9265 41.5887 35.9755 41.6377 35.8656 41.6986C35.7557 41.7595 35.6007 42.0123 35.6484 42.109C35.6961 42.2056 38.1649 44.3344 38.1649 44.3344C38.1649 44.3344 38.2854 45.1446 38.3954 45.3498C38.5053 45.555 38.2735 48.3853 38.0311 48.5786C37.7888 48.7719 39.6655 48.7547 39.6655 48.7547C39.6655 48.7547 39.7503 46.9013 39.8218 46.802C39.8934 46.7027 39.7742 44.7209 39.7742 44.7209C39.7742 44.7209 39.7622 43.0291 39.9198 42.5816C40.0775 42.1341 40.0589 40.6461 40.0589 40.6461C40.0589 40.6461 40.198 39.7539 40.3675 39.546C40.5371 39.3382 40.0536 38.4327 40.0536 38.4327Z" fill="#3F3D56"/>
<path opacity="0.1" d="M39.9265 37.4094C40.0194 37.6717 40.0669 37.948 40.0669 38.2262C40.6612 38.4002 41.2966 38.371 41.8724 38.1432C42.4482 37.9154 42.9315 37.502 43.2457 36.9686C43.1863 36.671 43.1465 36.3698 43.1265 36.067C43.1265 36.067 39.406 35.8724 39.9265 37.4094Z" fill="black"/>
<path d="M38.0868 35.4975C38.0863 36.2072 38.3584 36.8901 38.8468 37.4053C39.3353 37.9205 40.0029 38.2286 40.712 38.2662C41.4212 38.3039 42.1177 38.068 42.6579 37.6074C43.1982 37.1468 43.541 36.4965 43.6157 35.7907C43.6904 35.0849 43.4912 34.3773 43.0593 33.814C42.6273 33.2506 41.9956 32.8744 41.2943 32.7629C40.593 32.6514 39.8756 32.8132 39.2902 33.2149C38.7047 33.6165 38.2958 34.2274 38.1477 34.9216C38.1071 35.1109 38.0867 35.3039 38.0868 35.4975Z" fill="#EE8E9E"/>
<path d="M36.308 41.9102L35.6458 42.1154C35.6627 42.1821 35.6591 42.2524 35.6355 42.3171C35.6119 42.3818 35.5693 42.4379 35.5133 42.4781C35.4557 42.5183 35.4098 42.573 35.3802 42.6368C35.3507 42.7005 35.3386 42.7709 35.3451 42.8408C35.3451 42.8408 35.2723 43.1056 35.1027 43.1678C34.9332 43.23 34.8246 43.6272 34.8246 43.6272L34.2683 44.2679C34.2683 44.2679 34.0617 44.4374 34.0988 44.5221C34.1359 44.6068 33.8802 44.6307 33.8802 44.6307L34.0127 46.7832L35.1623 47.0017L35.8762 46.9288L36.4564 46.7117L36.965 46.4086L37.1941 45.8168L38.2113 44.2679L36.308 41.9102Z" fill="#3F3D56"/>
<path d="M34.0458 44.7961C34.0458 44.7961 32.5703 42.6687 31.4684 43.8164C30.3664 44.9642 31.916 46.8282 32.279 46.7673C32.6419 46.7064 34.373 46.6097 34.373 46.6097L34.0458 44.7961Z" fill="#EE8E9E"/>
<path d="M37.5218 43.8763L31.0039 40.5512C30.9036 40.5 30.7807 40.5398 30.7295 40.6401L28.188 45.6172C28.1368 45.7175 28.1766 45.8403 28.2769 45.8915L34.7948 49.2166C34.8951 49.2678 35.018 49.228 35.0692 49.1277L37.6107 44.1506C37.6619 44.0503 37.6221 43.9275 37.5218 43.8763Z" fill="#3F3D56"/>
<path d="M36.9155 44.172L31.1315 41.2212L28.9066 45.5781L34.6907 48.5289L36.9155 44.172Z" fill="#FF661B"/>
<path d="M29.7969 43.39C29.8554 43.39 29.9028 43.3426 29.9028 43.2841C29.9028 43.2256 29.8554 43.1782 29.7969 43.1782C29.7384 43.1782 29.6909 43.2256 29.6909 43.2841C29.6909 43.3426 29.7384 43.39 29.7969 43.39Z" fill="#E6E8EC"/>
<path d="M36.0576 46.6666C36.1549 46.6666 36.2338 46.5878 36.2338 46.4905C36.2338 46.3933 36.1549 46.3145 36.0576 46.3145C35.9603 46.3145 35.8815 46.3933 35.8815 46.4905C35.8815 46.5878 35.9603 46.6666 36.0576 46.6666Z" fill="#E6E8EC"/>
<path d="M33.0909 45.244C33.0776 46.8405 36.3809 47.1794 36.3809 47.1794L37.2246 47.3118L37.6034 47.3714L37.761 45.8119C37.761 45.8119 37.5875 45.7854 37.3716 45.7351C37.0511 45.661 36.6365 45.5326 36.5504 45.3512C36.4113 45.0507 33.1001 43.6474 33.0909 45.244Z" fill="#EE8E9E"/>
<path opacity="0.1" d="M38.1477 34.9216C38.2237 34.9272 38.2953 34.959 38.3504 35.0116C38.4431 35.1109 38.4484 35.287 38.5702 35.3479C38.6158 35.3671 38.6659 35.3726 38.7146 35.3637C39.0364 35.3187 39.2219 34.956 39.5318 34.8554C39.712 34.8091 39.9025 34.8254 40.0722 34.9017C40.1411 34.924 40.2031 34.9637 40.2523 35.0169C40.3556 35.1493 40.2828 35.3479 40.3305 35.5094C40.3967 35.7344 40.6655 35.8231 40.8973 35.8522C41.1291 35.8814 41.3914 35.8986 41.5463 36.0733C41.5976 36.1388 41.6344 36.2145 41.6543 36.2953C41.6741 36.3761 41.6766 36.4602 41.6616 36.542C41.6476 36.5989 41.6476 36.6584 41.6616 36.7154C41.7251 36.8968 42.039 36.869 42.1211 36.726C42.1821 36.6214 42.1635 36.5353 42.3053 36.5062C42.4065 36.4982 42.5081 36.5159 42.6006 36.5579C42.8472 36.6424 43.1069 36.6823 43.3675 36.6757C43.5333 36.3223 43.6224 35.9379 43.6292 35.5477C43.6359 35.1575 43.56 34.7702 43.4065 34.4113C43.253 34.0525 43.0254 33.7301 42.7385 33.4653C42.4517 33.2005 42.1121 32.9993 41.742 32.8749C41.3719 32.7505 40.9796 32.7057 40.591 32.7434C40.2023 32.7812 39.826 32.9005 39.4868 33.0938C39.1476 33.287 38.853 33.5498 38.6225 33.8648C38.3919 34.1798 38.2306 34.5399 38.149 34.9216H38.1477Z" fill="black"/>
<path d="M41.6603 36.6427C41.6464 36.5857 41.6464 36.5262 41.6603 36.4692C41.6754 36.3876 41.6729 36.3037 41.6531 36.2232C41.6332 36.1426 41.5964 36.0672 41.545 36.0019C41.3901 35.8258 41.1291 35.81 40.896 35.7795C40.6629 35.7491 40.3954 35.6617 40.3291 35.4366C40.2815 35.2751 40.3543 35.0779 40.251 34.9455C40.2026 34.8914 40.1403 34.8515 40.0709 34.8303C39.9013 34.7537 39.7108 34.7369 39.5305 34.7827C39.2206 34.8833 39.0351 35.246 38.7133 35.291C38.6647 35.3005 38.6143 35.295 38.5689 35.2751C38.4471 35.2142 38.4365 35.0382 38.349 34.9389C38.202 34.784 37.9226 34.8846 37.7438 34.7694C37.6353 34.679 37.5653 34.5507 37.5477 34.4107C37.4676 34.151 37.4495 33.8763 37.4948 33.6084C37.5994 33.1596 38.002 32.8512 38.2577 32.4659C38.4974 32.1085 38.6325 31.6557 38.9914 31.4188C39.3504 31.1818 39.8126 31.2348 40.2192 31.3552C40.4061 31.4219 40.5985 31.4724 40.794 31.5061C41.1212 31.5459 41.4497 31.4572 41.7781 31.4466C42.2437 31.4315 42.7011 31.5712 43.0788 31.8437C43.1639 31.8992 43.2362 31.9724 43.2907 32.0582C43.3453 32.1799 43.3776 32.3103 43.3861 32.4434C43.4247 32.6934 43.5116 32.9334 43.6417 33.1504C43.7423 33.3211 43.8708 33.4747 43.9622 33.6508C44.0644 33.8234 44.0957 34.0288 44.0496 34.224C44.0178 34.3233 43.9569 34.4133 43.9331 34.5152C43.8801 34.7509 44.035 34.9773 44.141 35.1944C44.2441 35.3931 44.293 35.6155 44.2827 35.8391C44.2771 35.9505 44.2484 36.0596 44.1985 36.1594C44.1485 36.2592 44.0785 36.3476 43.9927 36.4189C43.8128 36.5437 43.5983 36.6089 43.3794 36.6056C43.114 36.6137 42.8492 36.5738 42.598 36.4878C42.5053 36.4465 42.4038 36.4288 42.3026 36.4361C42.1609 36.4653 42.1794 36.5513 42.1185 36.6559C42.0377 36.7962 41.7252 36.824 41.6603 36.6427Z" fill="#3F3D56"/>
<path opacity="0.1" d="M40.1676 52.2574L41.7291 51.0368L44.1847 48.6181L43.3742 48.5811C43.279 48.6671 43.2183 48.7847 43.2033 48.912C43.1914 49.2072 42.5411 48.9319 42.2007 49.1013C41.8603 49.2708 40.2047 51.3916 39.9146 51.377C39.6245 51.3624 39.3941 51.2301 39.2722 51.4353L39.2643 51.4485C39.216 51.5042 39.1509 51.5427 39.0789 51.5584L40.1676 52.2574Z" fill="black"/>
<path d="M37.0219 52.173L37.8059 54.6764L37.9291 55.0736L38.3026 54.9716L39.1265 54.7453L42.7926 53.7391C43.2544 53.7191 43.7064 53.599 44.1171 53.387C44.8102 52.9988 45.6033 52.826 46.3952 52.8905C46.88 52.9356 47.419 52.7264 47.8667 51.9003C47.8667 51.9003 48.8826 48.9018 46.3184 48.0426C43.7542 47.1834 43.631 48.4994 43.631 48.4994L43.5952 48.5205C43.4959 48.5841 43.2178 48.7853 43.2072 49.0262C43.1953 49.3215 42.5449 49.0474 42.2045 49.2156C41.8642 49.3837 40.2086 51.5058 39.9185 51.4912C39.6284 51.4767 39.398 51.3443 39.2761 51.5508L39.2682 51.5641C39.1781 51.6872 38.9092 51.7163 38.7304 51.7203C38.6748 51.7232 38.6191 51.7232 38.5635 51.7203L38.5397 51.7269L38.3543 51.7825L37.0219 52.173Z" fill="#65617D"/>
<path opacity="0.1" d="M37.2245 47.313L37.6033 47.3726L37.7609 45.8131C37.7609 45.8131 37.5874 45.7866 37.3715 45.7363C37.4285 45.9548 37.2987 46.7954 37.2245 47.313Z" fill="black"/>
<path opacity="0.1" d="M47.1184 40.0237C47.1184 40.0237 48.2429 39.6967 47.9647 42.8898C47.7717 44.8387 46.9428 46.6701 45.6058 48.1018C45.6058 48.1018 43.2099 49.1529 42.1331 48.9834C41.0563 48.814 40.2708 48.7783 40.2708 48.7783C39.9316 48.607 39.5603 48.5083 39.1808 48.4883C38.5768 48.4645 37.3067 48.0912 37.2815 47.9681C37.2563 47.8449 37.5967 46.0697 37.451 45.9373C37.451 45.9373 39.145 46.0061 39.3146 46.1279C39.4841 46.2497 39.7265 46.1637 39.9079 46.1279C40.0894 46.0922 40.6457 45.6103 41.7463 46.0339C41.7463 46.0339 42.1211 46.0697 42.2668 45.973C42.3856 45.9177 42.5209 45.9092 42.6456 45.9492C42.7398 45.9179 42.829 45.8733 42.9105 45.8168C42.9463 45.7692 43.2377 45.8168 43.2377 45.8168C43.255 45.8246 43.2738 45.8285 43.2928 45.8283C43.3118 45.8282 43.3306 45.8239 43.3478 45.8159C43.365 45.8079 43.3803 45.7962 43.3926 45.7817C43.4049 45.7673 43.4139 45.7504 43.4191 45.7321C43.4574 45.6334 43.5151 45.5434 43.5887 45.4673C43.5887 45.4673 43.9145 43.6298 44.5317 42.9401C44.581 42.897 44.6188 42.8425 44.6419 42.7813C44.6651 42.7201 44.6727 42.6541 44.6641 42.5893C44.6138 42.3933 45.6668 39.6358 47.1184 40.0237Z" fill="black"/>
<path d="M47.0879 39.7776C47.0879 39.7776 48.2137 39.452 47.9356 42.6438C47.743 44.5928 46.914 46.4243 45.5767 47.8557C45.5767 47.8557 43.1807 48.9082 42.1039 48.7387C41.0271 48.5693 40.2403 48.5296 40.2403 48.5296C39.9016 48.3582 39.5308 48.2595 39.1516 48.2396C38.5463 48.2145 37.2762 47.8425 37.2523 47.7194C37.2285 47.5963 37.5662 45.821 37.4218 45.6873C37.4218 45.6873 39.1159 45.7574 39.2854 45.8792C39.4549 46.001 39.696 45.9137 39.8774 45.8792C40.0589 45.8448 40.6152 45.3616 41.7171 45.7839C41.7171 45.7839 42.092 45.821 42.2363 45.7243C42.3552 45.6695 42.4901 45.6605 42.6151 45.6992C42.709 45.6672 42.7981 45.6227 42.88 45.5668C42.9158 45.5178 43.2059 45.5668 43.2059 45.5668C43.2232 45.5746 43.242 45.5785 43.261 45.5783C43.28 45.5782 43.2987 45.5739 43.3159 45.5659C43.3332 45.5578 43.3484 45.5462 43.3608 45.5317C43.3731 45.5173 43.3821 45.5003 43.3873 45.4821C43.4256 45.3834 43.4832 45.2934 43.5568 45.2173C43.5568 45.2173 43.884 43.3798 44.5012 42.6901C44.5505 42.647 44.5883 42.5925 44.6115 42.5313C44.6346 42.4701 44.6422 42.4041 44.6336 42.3393C44.5846 42.1486 45.6363 39.395 47.0879 39.7776Z" fill="#3F3D56"/>
<path opacity="0.1" d="M38.3503 51.7758L39.9477 53.7086L39.9583 53.6981C39.9702 53.661 40.1278 53.2506 40.0907 53.2254C40.0536 53.2003 39.7768 52.5966 39.2205 52.3424C38.9376 52.2045 38.7 51.9887 38.5358 51.7202L38.3503 51.7758Z" fill="black"/>
<path opacity="0.1" d="M38.3716 55.121L38.5464 55.2203C38.5464 55.2203 38.9517 54.896 39.3556 54.569C39.7596 54.242 40.1503 53.9216 40.1503 53.9071C40.1503 53.8925 40.3199 53.4596 40.2828 53.4358C40.2457 53.4119 40.1808 53.2557 40.0272 53.0611C38.9437 52.758 39.6298 53.5099 39.7252 53.5443C39.7252 53.5443 38.4073 53.2412 38.3345 54.6775C38.3282 54.8263 38.3406 54.9753 38.3716 55.121Z" fill="black"/>
<path d="M39.7079 55.7286L39.9384 55.861L42.2734 55.9206C42.5352 56.0797 42.812 56.2128 43.0999 56.3178C43.138 56.3291 43.177 56.3375 43.2164 56.3429C43.4332 56.3606 43.6508 56.3646 43.8681 56.3548C44.0469 56.3548 44.1846 56.3429 44.1846 56.3429C44.1846 56.3429 44.0747 53.4 43.9913 53.0902C43.9515 52.9419 43.7555 52.9737 43.5621 53.0478C43.4172 53.1071 43.2772 53.178 43.1436 53.2597C43.1436 53.2597 42.1529 53.3563 41.9953 53.441C41.8377 53.5258 41.39 53.392 41.1118 53.441C40.8337 53.49 40.337 53.114 40.337 53.114C38.9821 52.6666 39.745 53.5006 39.8417 53.5377C39.8417 53.5377 38.5172 53.2345 38.4496 54.6709C38.3821 56.1073 39.7079 55.7286 39.7079 55.7286Z" fill="#3F3D56"/>
<path d="M43.0841 54.5928C43.1092 55.2018 43.5847 55.9577 43.8682 56.3575C44.047 56.3575 44.1847 56.3456 44.1847 56.3456C44.1847 56.3456 44.0748 53.4027 43.9914 53.0929C43.9516 52.9446 43.7556 52.9764 43.5622 53.0505C43.3278 53.4901 43.0629 54.1004 43.0841 54.5928Z" fill="#565387"/>
<path opacity="0.1" d="M43.0841 54.5928C43.1092 55.2018 43.5847 55.9577 43.8682 56.3575C44.047 56.3575 44.1847 56.3456 44.1847 56.3456C44.1847 56.3456 44.0748 53.4027 43.9914 53.0929C43.9516 52.9446 43.7556 52.9764 43.5622 53.0505C43.3278 53.4901 43.0629 54.1004 43.0841 54.5928Z" fill="black"/>
<path opacity="0.05" d="M42.684 54.6736C42.8456 55.2614 42.8429 55.9207 43.0999 56.3205C43.138 56.3318 43.177 56.3402 43.2164 56.3456C43.4332 56.3633 43.6508 56.3673 43.8681 56.3575C44.0469 56.3575 44.1846 56.3456 44.1846 56.3456C44.1846 56.3456 44.0747 53.4027 43.9913 53.0929C43.9515 52.9446 43.7555 52.9764 43.5621 53.0505C43.4172 53.1098 43.2772 53.1807 43.1436 53.2624C43.1436 53.2624 42.4787 53.9203 42.684 54.6736Z" fill="black"/>
<path opacity="0.1" d="M34.6285 48.707C34.6285 48.707 35.7888 49.083 36.7715 50.4201L34.6285 48.707Z" fill="black"/>
<g opacity="0.1">
<path opacity="0.1" d="M44.0538 34.1948C44.0538 34.2041 44.0538 34.212 44.0472 34.2213C44.0359 34.2558 44.0221 34.2894 44.0059 34.3219C44.0187 34.2784 44.0347 34.236 44.0538 34.1948Z" fill="black"/>
<path opacity="0.1" d="M37.492 33.6083C37.5117 33.5237 37.542 33.4418 37.5821 33.3647C37.5821 33.3846 37.5689 33.4058 37.5636 33.427C37.5194 33.695 37.538 33.9696 37.6179 34.2292C37.6354 34.369 37.7049 34.497 37.8126 34.588C37.9927 34.7032 38.2722 34.6025 38.4192 34.7574C38.5119 34.8567 38.5172 35.0328 38.639 35.0937C38.6844 35.1135 38.7348 35.1191 38.7834 35.1096C39.1053 35.0646 39.2907 34.7018 39.6006 34.6012C39.7809 34.5548 39.9716 34.5716 40.141 34.6489C40.2104 34.6701 40.2727 34.7099 40.3211 34.764C40.4244 34.8964 40.3516 35.0937 40.3993 35.2552C40.4655 35.4802 40.7344 35.5689 40.9661 35.5981C41.1979 35.6272 41.4602 35.6444 41.6151 35.8205C41.6665 35.8857 41.7033 35.9611 41.7232 36.0417C41.743 36.1223 41.7455 36.2062 41.7304 36.2878C41.7165 36.3448 41.7165 36.4042 41.7304 36.4612C41.7939 36.6426 42.1079 36.6148 42.19 36.4718C42.2509 36.3672 42.2323 36.2812 42.3741 36.2521C42.4753 36.2447 42.5767 36.2624 42.6694 36.3037C42.9207 36.3897 43.1854 36.4296 43.4509 36.4215C43.6698 36.4249 43.8842 36.3596 44.0641 36.2348C44.1427 36.1731 44.2069 36.0949 44.2522 36.0058C44.2113 36.1679 44.1182 36.3121 43.9873 36.4162C43.8074 36.5409 43.593 36.6062 43.3741 36.6029C43.1086 36.6109 42.8439 36.571 42.5926 36.485C42.4999 36.4438 42.3985 36.426 42.2973 36.4334C42.1555 36.4625 42.1741 36.5486 42.1145 36.6532C42.031 36.7962 41.7171 36.8239 41.6536 36.6426C41.6403 36.5855 41.6403 36.5262 41.6536 36.4692C41.6687 36.3876 41.6662 36.3037 41.6464 36.2231C41.6265 36.1425 41.5897 36.0671 41.5383 36.0018C41.3834 35.8258 41.1224 35.8099 40.8893 35.7794C40.6562 35.749 40.3887 35.6616 40.3224 35.4366C40.2748 35.2751 40.3476 35.0778 40.2443 34.9454C40.1963 34.8915 40.1345 34.8517 40.0655 34.8302C39.8955 34.7536 39.7046 34.7368 39.5238 34.7826C39.2152 34.8832 39.0284 35.2459 38.7066 35.2909C38.658 35.3004 38.6076 35.2949 38.5622 35.2751C38.4404 35.2142 38.4298 35.0381 38.3423 34.9388C38.1953 34.7839 37.9172 34.8845 37.7371 34.7693C37.6286 34.6789 37.5586 34.5507 37.541 34.4106C37.4623 34.1507 37.4455 33.8759 37.492 33.6083Z" fill="black"/>
</g>
<path opacity="0.1" d="M44.2416 43.2882C44.0191 43.5874 43.7661 43.8641 43.5701 44.1792C43.3572 44.4898 43.2537 44.8624 43.2761 45.2383C43.4787 45.0304 43.5727 44.7418 43.6999 44.481C43.9171 44.0389 44.2403 43.6642 44.5144 43.2591C44.5661 43.181 44.8999 42.7296 44.7317 42.711C44.5913 42.6912 44.3171 43.1863 44.2416 43.2882Z" fill="black"/>
<path d="M45.4337 71.6148C45.5939 72.1284 45.7555 72.6434 45.9555 73.1425C46.3158 74.0102 46.7693 74.8362 47.3078 75.6062C47.655 76.1131 48.0281 76.6018 48.4257 77.0704C48.9237 77.6568 49.4852 78.2473 49.6548 78.9966C49.7568 79.4295 49.7223 79.8809 49.7647 80.3204C49.8071 80.7599 49.9515 81.2312 50.3104 81.496C50.566 81.6853 50.8932 81.7422 51.2071 81.7912C51.4322 81.8269 51.713 81.8389 51.8296 81.6443C51.8703 81.5648 51.8917 81.4767 51.8918 81.3874L51.9461 80.7401C51.9567 80.5997 52.0071 80.421 52.1475 80.4144C52.2879 80.4078 52.358 80.5944 52.4773 80.6792C52.6362 80.7904 52.8746 80.6792 52.962 80.511C53.0346 80.329 53.0393 80.127 52.9753 79.9418C52.8788 79.5733 52.7054 79.2294 52.4664 78.9328C52.2273 78.6362 51.9282 78.3935 51.5885 78.2208C51.3526 78.1257 51.1264 78.0082 50.913 77.87C50.6963 77.6816 50.5166 77.4544 50.3832 77.2001C49.1541 75.1773 47.9184 73.1438 47.0509 70.9423C46.8799 70.5488 46.7645 70.1336 46.7078 69.7084C46.6654 69.2755 46.733 68.84 46.7608 68.4058C46.8121 67.6257 46.7397 66.8425 46.5462 66.0851C46.5039 65.8862 46.4292 65.6957 46.325 65.5211C45.9674 64.9797 45.133 64.8989 44.6032 65.2722C44.4081 65.4222 44.2464 65.6111 44.1283 65.827C44.0102 66.0428 43.9383 66.2808 43.9171 66.5259C43.8787 66.9654 44.1317 67.4208 44.2602 67.8299C44.6496 69.0928 45.0407 70.3545 45.4337 71.6148Z" fill="#A1616A"/>
<path opacity="0.05" d="M45.4337 71.6148C45.5939 72.1284 45.7555 72.6434 45.9555 73.1425C46.3158 74.0102 46.7693 74.8362 47.3078 75.6062C47.655 76.1131 48.0281 76.6018 48.4257 77.0704C48.9237 77.6568 49.4852 78.2473 49.6548 78.9966C49.7568 79.4295 49.7223 79.8809 49.7647 80.3204C49.8071 80.7599 49.9515 81.2312 50.3104 81.496C50.566 81.6853 50.8932 81.7422 51.2071 81.7912C51.4322 81.8269 51.713 81.8389 51.8296 81.6443C51.8703 81.5648 51.8917 81.4767 51.8918 81.3874L51.9461 80.7401C51.9567 80.5997 52.0071 80.421 52.1475 80.4144C52.2879 80.4078 52.358 80.5944 52.4773 80.6792C52.6362 80.7904 52.8746 80.6792 52.962 80.511C53.0346 80.329 53.0393 80.127 52.9753 79.9418C52.8788 79.5733 52.7054 79.2294 52.4664 78.9328C52.2273 78.6362 51.9282 78.3935 51.5885 78.2208C51.3526 78.1257 51.1264 78.0082 50.913 77.87C50.6963 77.6816 50.5166 77.4544 50.3832 77.2001C49.1541 75.1773 47.9184 73.1438 47.0509 70.9423C46.8799 70.5488 46.7645 70.1336 46.7078 69.7084C46.6654 69.2755 46.733 68.84 46.7608 68.4058C46.8121 67.6257 46.7397 66.8425 46.5462 66.0851C46.5039 65.8862 46.4292 65.6957 46.325 65.5211C45.9674 64.9797 45.133 64.8989 44.6032 65.2722C44.4081 65.4222 44.2464 65.6111 44.1283 65.827C44.0102 66.0428 43.9383 66.2808 43.9171 66.5259C43.8787 66.9654 44.1317 67.4208 44.2602 67.8299C44.6496 69.0928 45.0407 70.3545 45.4337 71.6148Z" fill="black"/>
<path d="M37.712 93.2438C37.9516 93.3271 38.2064 93.3578 38.459 93.3338C38.4775 93.1273 38.7556 93.0809 38.9623 93.0915C39.0622 93.0882 39.1613 93.111 39.2497 93.1577C39.3013 93.1908 39.3411 93.2385 39.3914 93.2729C39.4811 93.3221 39.5818 93.348 39.6841 93.3484L40.7596 93.4384C41.239 93.4794 41.7384 93.5165 42.1874 93.3457C42.2768 93.3174 42.3563 93.2641 42.4165 93.1921C42.5384 93.0174 42.4165 92.7672 42.2483 92.6401C42.0801 92.513 41.8629 92.4561 41.6933 92.3264C41.3198 92.0417 41.2682 91.5095 41.0708 91.0833C40.9306 90.8145 40.7575 90.5641 40.5556 90.3379C40.4093 90.1437 40.2389 89.9688 40.0483 89.8177C39.6166 89.5066 39.1212 89.5132 38.6139 89.4682C38.2563 89.4364 37.9199 89.4152 37.663 89.7329C37.3451 90.1301 37.4722 90.9244 37.4921 91.3877C37.5169 92.0112 37.5904 92.6318 37.712 93.2438Z" fill="#514E7F"/>
<path opacity="0.05" d="M37.712 93.2438C37.9516 93.3271 38.2064 93.3578 38.459 93.3338C38.4775 93.1273 38.7556 93.0809 38.9623 93.0915C39.0622 93.0882 39.1613 93.111 39.2497 93.1577C39.3013 93.1908 39.3411 93.2385 39.3914 93.2729C39.4811 93.3221 39.5818 93.348 39.6841 93.3484L40.7596 93.4384C41.239 93.4794 41.7384 93.5165 42.1874 93.3457C42.2768 93.3174 42.3563 93.2641 42.4165 93.1921C42.5384 93.0174 42.4165 92.7672 42.2483 92.6401C42.0801 92.513 41.8629 92.4561 41.6933 92.3264C41.3198 92.0417 41.2682 91.5095 41.0708 91.0833C40.9306 90.8145 40.7575 90.5641 40.5556 90.3379C40.4093 90.1437 40.2389 89.9688 40.0483 89.8177C39.6166 89.5066 39.1212 89.5132 38.6139 89.4682C38.2563 89.4364 37.9199 89.4152 37.663 89.7329C37.3451 90.1301 37.4722 90.9244 37.4921 91.3877C37.5169 92.0112 37.5904 92.6318 37.712 93.2438Z" fill="black"/>
<path d="M38.1464 72.3338C37.8179 72.4398 37.6749 72.8488 37.7358 73.1891C37.7967 73.5293 38.0007 73.8232 38.1689 74.125C38.6483 74.9815 38.855 75.9612 39.2576 76.8548C39.5583 77.5167 39.9649 78.1389 40.2616 78.8088C40.5583 79.4786 40.7424 80.2346 40.5622 80.9455C40.4748 81.291 40.3053 81.6074 40.1927 81.9476C40.0813 82.3164 40.0085 82.6957 39.9755 83.0795C39.8296 84.3832 39.8035 85.6975 39.8973 87.006C39.8981 87.1655 39.9315 87.3232 39.9953 87.4694C40.0629 87.6018 40.1794 87.7341 40.1278 87.8665C40.1053 87.9208 40.0563 87.9605 40.0324 88.0135C39.9636 88.1617 40.1013 88.3193 40.2271 88.4252C40.2047 88.465 40.1744 88.4999 40.1383 88.5279C40.1021 88.5558 40.0607 88.5763 40.0165 88.588C40.1068 88.6455 40.1761 88.7304 40.2143 88.8303C40.2525 88.9302 40.2574 89.0398 40.2285 89.1427C40.1172 89.1599 40.1106 89.3307 40.1808 89.4207C40.251 89.5107 40.3622 89.5663 40.4126 89.6683C40.4422 89.7513 40.4389 89.8425 40.4035 89.9233C40.368 90.004 40.303 90.0681 40.2218 90.1025C40.0564 90.1662 39.8759 90.18 39.7026 90.1422C39.4089 90.1013 39.1189 90.0376 38.8351 89.9516C38.6868 89.9225 38.5539 89.8408 38.461 89.7217C38.368 89.6025 38.3212 89.4538 38.3291 89.3029C38.2636 88.7641 38.2436 88.2207 38.2695 87.6785C38.3159 85.052 38.2695 82.4229 38.1556 79.7977C38.1093 78.7386 37.7914 77.7126 37.3821 76.7383C37.1559 76.2404 36.9044 75.7543 36.6285 75.2821C36.0378 74.2018 35.5159 73.005 35.651 71.7805C35.6656 71.6481 35.7133 71.4906 35.8444 71.4694C35.8957 71.4639 35.9474 71.4726 35.9941 71.4945C36.2662 71.6215 36.5294 71.7666 36.7821 71.9288C37.1974 72.1721 37.6655 72.3111 38.1464 72.3338Z" fill="#464353"/>
<path opacity="0.05" d="M38.1464 72.3338C37.8179 72.4398 37.6749 72.8488 37.7358 73.1891C37.7967 73.5293 38.0007 73.8232 38.1689 74.125C38.6483 74.9815 38.855 75.9612 39.2576 76.8548C39.5583 77.5167 39.9649 78.1389 40.2616 78.8088C40.5583 79.4786 40.7424 80.2346 40.5622 80.9455C40.4748 81.291 40.3053 81.6074 40.1927 81.9476C40.0813 82.3164 40.0085 82.6957 39.9755 83.0795C39.8296 84.3832 39.8035 85.6975 39.8973 87.006C39.8981 87.1655 39.9315 87.3232 39.9953 87.4694C40.0629 87.6018 40.1794 87.7341 40.1278 87.8665C40.1053 87.9208 40.0563 87.9605 40.0324 88.0135C39.9636 88.1617 40.1013 88.3193 40.2271 88.4252C40.2047 88.465 40.1744 88.4999 40.1383 88.5279C40.1021 88.5558 40.0607 88.5763 40.0165 88.588C40.1068 88.6455 40.1761 88.7304 40.2143 88.8303C40.2525 88.9302 40.2574 89.0398 40.2285 89.1427C40.1172 89.1599 40.1106 89.3307 40.1808 89.4207C40.251 89.5107 40.3622 89.5663 40.4126 89.6683C40.4422 89.7513 40.4389 89.8425 40.4035 89.9233C40.368 90.004 40.303 90.0681 40.2218 90.1025C40.0564 90.1662 39.8759 90.18 39.7026 90.1422C39.4089 90.1013 39.1189 90.0376 38.8351 89.9516C38.6868 89.9225 38.5539 89.8408 38.461 89.7217C38.368 89.6025 38.3212 89.4538 38.3291 89.3029C38.2636 88.7641 38.2436 88.2207 38.2695 87.6785C38.3159 85.052 38.2695 82.4229 38.1556 79.7977C38.1093 78.7386 37.7914 77.7126 37.3821 76.7383C37.1559 76.2404 36.9044 75.7543 36.6285 75.2821C36.0378 74.2018 35.5159 73.005 35.651 71.7805C35.6656 71.6481 35.7133 71.4906 35.8444 71.4694C35.8957 71.4639 35.9474 71.4726 35.9941 71.4945C36.2662 71.6215 36.5294 71.7666 36.7821 71.9288C37.1974 72.1721 37.6655 72.3111 38.1464 72.3338Z" fill="black"/>
<path d="M33.7053 69.1405C33.5341 69.0306 33.3365 68.9684 33.1332 68.9604C32.8974 68.9724 32.6961 69.1273 32.512 69.2755C32.2938 69.4429 32.0868 69.6242 31.8921 69.8183C31.489 70.2478 31.2082 70.7772 31.0787 71.3517C30.9492 71.9262 30.9758 72.5248 31.1557 73.0855C31.3504 73.6694 31.7067 74.1843 32.059 74.6887L32.7742 75.716C33.8656 77.2821 34.957 78.8483 36.1 80.3773C36.1003 80.4149 36.1125 80.4514 36.1348 80.4816C36.1572 80.5119 36.1886 80.5342 36.2245 80.5454C36.2656 80.556 36.3172 80.5547 36.3424 80.5891C36.354 80.6106 36.3591 80.635 36.357 80.6593C36.3544 80.7724 36.3329 80.8842 36.2934 80.9902C36.2748 81.0252 36.2701 81.0658 36.2801 81.1041C36.3172 81.1901 36.4735 81.1412 36.5238 81.2219C36.557 81.2749 36.5159 81.3437 36.4722 81.3887C36.4285 81.4337 36.3742 81.484 36.3821 81.5463C36.3901 81.6085 36.4987 81.6786 36.4947 81.7554C36.4947 81.8004 36.455 81.8348 36.4272 81.8706C36.3882 81.9276 36.3705 81.9964 36.377 82.065C36.3835 82.1337 36.4139 82.1979 36.4629 82.2466C36.5384 82.9932 36.1318 83.7028 36.051 84.4468C35.9186 85.6224 36.455 86.7701 36.5199 87.9497C36.516 88.0824 36.5413 88.2144 36.594 88.3363C36.704 88.5401 36.9914 88.6632 36.9768 88.8949C36.956 88.9901 36.929 89.0839 36.896 89.1756C36.8735 89.308 36.9371 89.4403 36.9397 89.5727C36.9424 89.7051 36.8245 89.8679 36.7 89.815C36.7936 90.1274 36.877 90.4425 36.9503 90.7602L39.4536 90.9667C39.4806 90.7419 39.473 90.5142 39.4311 90.2916C39.3794 90.0493 39.2708 89.8243 39.2139 89.5846C39.1768 89.4667 39.1664 89.342 39.1834 89.2195C39.2003 89.0971 39.2442 88.9799 39.3119 88.8764C39.2466 88.8772 39.1832 88.8549 39.1328 88.8134C39.0824 88.772 39.0482 88.7141 39.0364 88.65C39.0154 88.5209 39.0177 88.3891 39.043 88.2608C39.1092 87.6081 38.8351 86.9648 38.843 86.3094C38.851 85.7931 39.0324 85.2967 39.1238 84.7897C39.3198 83.7041 39.1159 82.5272 39.5993 81.5357C39.892 80.9386 40.2973 80.2767 39.9688 79.6982C39.8072 79.4122 39.5211 79.2163 39.3344 78.9462C39.1822 78.691 39.0679 78.4149 38.9953 78.1268C38.6099 76.9353 37.9861 75.8286 37.4391 74.6954C37.2872 74.4113 37.1745 74.108 37.104 73.7938C37.0653 73.518 37.0511 73.2394 37.0616 72.9611C37.0616 72.4615 37.0311 71.9624 36.9702 71.4665C36.9578 71.2492 36.8958 71.0377 36.7887 70.8483C36.6807 70.7049 36.5457 70.584 36.3914 70.4921C35.5702 69.9295 34.5927 69.6078 33.7053 69.1405Z" fill="#464353"/>
<path d="M36.7053 94.1614C36.9457 94.2435 37.2008 94.2738 37.4537 94.2501C37.4722 94.0435 37.749 93.9972 37.9556 94.0078C38.0556 94.0045 38.1546 94.0273 38.2431 94.074C38.2947 94.1071 38.3344 94.1561 38.3861 94.1892C38.4756 94.2389 38.5764 94.2649 38.6788 94.2646L39.753 94.3547C40.2338 94.3957 40.7318 94.4341 41.1821 94.262C41.2714 94.2341 41.3506 94.1807 41.4099 94.1084C41.5317 93.9337 41.4099 93.6848 41.2417 93.5577C41.0735 93.4306 40.8563 93.3724 40.688 93.2426C40.3132 92.958 40.2629 92.4271 40.0642 92.0009C39.9252 91.7312 39.7525 91.4804 39.5503 91.2542C39.4035 91.0603 39.2326 90.8859 39.0417 90.7353C38.6113 90.4228 38.1146 90.4295 37.6086 90.3844C37.2497 90.3527 36.9133 90.3328 36.6577 90.6492C36.3398 91.0464 36.4669 91.8407 36.4855 92.3053C36.5104 92.9288 36.5839 93.5494 36.7053 94.1614Z" fill="#514E7F"/>
<path d="M47.8005 64.8075C49.1698 64.8075 50.2799 63.698 50.2799 62.3293C50.2799 60.9606 49.1698 59.8511 47.8005 59.8511C46.4311 59.8511 45.321 60.9606 45.321 62.3293C45.321 63.698 46.4311 64.8075 47.8005 64.8075Z" fill="#A1616A"/>
<path d="M45.4614 63.0656C45.1065 63.3714 44.5966 63.3939 44.1303 63.4416C43.1334 63.5439 42.163 63.8246 41.2655 64.2703C41.1413 64.3238 41.0288 64.4011 40.9344 64.498C40.8538 64.603 40.7965 64.7239 40.7662 64.8528C40.6809 65.1316 40.649 65.424 40.6721 65.7146C40.7046 65.9965 40.7857 66.2706 40.9118 66.5248C41.256 67.2368 41.787 67.8421 42.4482 68.2762C42.5648 68.363 42.697 68.4264 42.8376 68.4629C43.1635 68.5304 43.4787 68.3424 43.8005 68.2577C44.0933 68.1814 44.4019 68.191 44.6893 68.2855C44.9542 68.3755 45.2442 68.5397 45.5065 68.4298C45.6743 68.336 45.8048 68.1873 45.876 68.0088C46.1293 67.5304 46.3553 67.038 46.5528 66.534C46.6238 66.3373 46.7056 66.1446 46.7978 65.9569C47.0853 65.4101 47.5819 64.9878 47.8296 64.4199C47.8548 64.3766 47.8699 64.3282 47.8741 64.2783C47.8782 64.2283 47.8712 64.1781 47.8535 64.1313C47.8075 64.068 47.744 64.0196 47.6707 63.9923C47.3044 63.7827 46.9707 63.5209 46.68 63.2152C46.5171 63.059 46.2177 62.6367 45.9833 62.5996C45.7197 62.5546 45.6402 62.912 45.4614 63.0656Z" fill="#A1616A"/>
<path d="M45.5197 68.1012C45.2323 68.2336 44.8932 68.1767 44.582 68.1118C43.7793 67.9437 42.9674 67.7742 42.2244 67.4274C41.9923 67.3386 41.7911 67.184 41.6456 66.9826C41.5552 66.8103 41.5003 66.6217 41.484 66.4279L41.3516 65.5012C41.3039 65.1795 41.386 64.8816 41.3939 64.556C41.399 64.5199 41.3968 64.4831 41.3875 64.4479C41.3782 64.4127 41.3619 64.3796 41.3396 64.3508C41.2943 64.3127 41.2357 64.2941 41.1767 64.2991C40.8046 64.3058 40.5794 64.6963 40.3185 64.9611C40.1677 65.1139 39.9874 65.2346 39.7887 65.3159C39.5503 65.4138 39.2589 65.4827 39.1596 65.721C39.1198 65.8202 39.1251 65.9328 39.0827 66.0321C38.9159 66.4292 38.2046 66.2968 38.0232 66.694C37.9715 66.8052 37.9755 66.9442 37.8907 67.0316C37.8059 67.1189 37.647 67.1176 37.5159 67.1388C36.998 67.2235 36.7477 67.8206 36.3053 68.1026C35.9331 68.3408 35.4537 68.3356 35.0523 68.5209C34.8298 68.6242 34.6325 68.7857 34.3967 68.8532C34.161 68.9207 33.8947 68.8849 33.6418 68.8916C33.6148 68.889 33.5876 68.8921 33.5618 68.9005C33.5361 68.9089 33.5123 68.9226 33.4921 68.9406C33.4764 68.9645 33.466 68.9916 33.4617 69.0199C33.4573 69.0482 33.4591 69.0771 33.4669 69.1047C33.5896 69.8875 33.9141 70.6249 34.4086 71.2442C34.903 71.8635 35.5503 72.3435 36.2868 72.6367C36.3722 72.6639 36.4534 72.7031 36.5278 72.7532C36.753 72.9214 36.7927 73.2828 37.0483 73.4019C37.1406 73.4344 37.24 73.4407 37.3356 73.4201C37.4313 73.3995 37.5193 73.3529 37.59 73.2854C37.7311 73.1497 37.8638 73.0056 37.9874 72.8538C38.2208 72.6102 38.5271 72.4489 38.8602 72.3945C39.1675 72.3455 39.5105 72.3812 39.7595 72.1919C39.8614 72.0985 39.9561 71.9976 40.043 71.8901C40.2275 71.7181 40.4464 71.5872 40.6854 71.5062C41.3382 71.2484 42.0282 71.0968 42.729 71.0574C43.382 71.0216 44.0535 71.0812 44.6707 70.8694C44.831 70.8197 44.9787 70.7362 45.1038 70.6245C45.2365 70.481 45.3352 70.3095 45.3926 70.1227C45.6152 69.4724 45.6591 68.7743 45.5197 68.1012Z" fill="#FF661B"/>
<path d="M42.3238 64.4488C42.5066 64.4316 42.6907 64.4488 42.8748 64.4488C43.0907 64.4488 43.3039 64.3959 43.5198 64.3945C43.8617 64.4001 44.1928 64.5147 44.4649 64.7217C44.737 64.9286 44.9358 65.2171 45.0323 65.545C45.0505 65.5973 45.0537 65.6537 45.0416 65.7078C45.0345 65.7345 45.018 65.7577 44.9951 65.7733C44.9723 65.7888 44.9446 65.7957 44.9171 65.7925C44.8454 65.5967 44.7517 65.4097 44.6376 65.2352C44.4324 64.9551 44.1398 64.7511 43.8059 64.6553C43.473 64.561 43.1222 64.5483 42.7834 64.6183C42.6417 64.6447 42.5039 64.6818 42.3662 64.7202L41.7039 64.9029C41.5821 64.936 41.4589 64.9691 41.341 65.0128C41.2496 65.0472 41.0933 65.173 41.0033 65.1782C40.8814 65.1782 40.9794 65.0723 41.0337 65.0008C41.1419 64.8534 41.2932 64.7433 41.4668 64.6858C41.7421 64.5731 42.0297 64.4936 42.3238 64.4488Z" fill="#FF661B"/>
<path d="M43.9952 71.8929C44.1555 72.4065 44.3158 72.9215 44.5171 73.4206C44.8769 74.2885 45.3303 75.1146 45.8694 75.8843C46.2166 76.3912 46.5897 76.8799 46.9872 77.3484C47.4839 77.9349 48.0389 78.5253 48.2164 79.2733C48.3183 79.7075 48.2839 80.1589 48.3263 80.5971C48.3687 81.0353 48.513 81.5079 48.8706 81.7727C49.1276 81.9607 49.4547 82.0176 49.7686 82.0679C49.9925 82.1037 50.2733 82.1156 50.3911 81.921C50.4311 81.8412 50.4524 81.7534 50.4534 81.6642L50.5064 81.0168C50.5183 80.8765 50.5686 80.6978 50.7077 80.6911C50.8468 80.6845 50.9196 80.8712 51.0388 80.9559C51.1978 81.0671 51.4362 80.9559 51.5236 80.7878C51.5956 80.6056 51.6003 80.4038 51.5368 80.2185C51.4399 79.8502 51.2663 79.5066 51.0273 79.21C50.7884 78.9134 50.4894 78.6706 50.1501 78.4975C49.9139 78.4022 49.6873 78.2847 49.4733 78.1467C49.2561 77.9582 49.0764 77.7305 48.9435 77.4755C47.7131 75.454 46.4773 73.4206 45.6111 71.2177C45.4402 70.8246 45.3244 70.4099 45.2667 69.9852C45.2257 69.5523 45.2919 69.1167 45.321 68.6825C45.3724 67.9025 45.3 67.1192 45.1065 66.3618C45.0643 66.1628 44.9891 65.9721 44.884 65.7979C44.5277 65.2551 43.6919 65.1757 43.1621 65.549C42.9669 65.6989 42.8049 65.8878 42.6866 66.1036C42.5683 66.3194 42.4961 66.5575 42.4747 66.8027C42.4363 67.2422 42.6906 67.6976 42.8178 68.1067C43.2089 69.3705 43.6014 70.6325 43.9952 71.8929Z" fill="#A1616A"/>
<path d="M51.4071 60.5766C51.4269 60.3701 51.2415 60.1795 51.0309 60.0471C50.8091 59.9335 50.5962 59.8034 50.3938 59.6579C50.2058 59.4951 50.1025 59.2833 49.9144 59.1204C49.7006 58.9577 49.4579 58.8369 49.1992 58.7643C48.6488 58.5714 48.071 58.4682 47.4879 58.4585C46.8985 58.4585 46.2959 58.5909 45.8522 58.8914C45.7427 58.9602 45.6481 59.0502 45.574 59.1562C45.5041 59.2833 45.4591 59.4226 45.4416 59.5666C45.3359 60.0107 45.1928 60.4452 45.0138 60.8652C44.8297 61.3326 44.6337 61.8171 44.2006 62.1785C43.737 62.5637 43.0284 62.7861 42.7224 63.2521C42.6886 63.2935 42.6649 63.3423 42.6531 63.3944C42.6414 63.4466 42.642 63.5008 42.6549 63.5527C42.6986 63.6705 42.839 63.7512 42.9688 63.8254C43.7211 64.2569 44.3701 64.8169 44.7039 65.4855C45.0376 66.154 45.0284 66.9417 44.5529 67.5573C44.378 67.785 44.137 68.055 44.3078 68.2841C44.5727 68.6322 45.4588 68.4323 45.6654 68.8004C45.7303 68.9182 45.6919 69.0519 45.6919 69.1803C45.6919 69.5669 46.0641 69.9098 46.5158 70.0885C46.9674 70.2672 47.4906 70.3096 47.9992 70.3321C48.1342 70.0287 48.1475 69.6851 48.0363 69.3723C48.0024 69.3048 47.989 69.2288 47.9978 69.1538C48.0358 69.0705 48.0946 68.9985 48.1687 68.9447C48.7117 68.431 48.5965 67.6764 48.2707 67.0661C47.9449 66.4558 47.4363 65.8985 47.2469 65.2564C47.1528 64.9374 47.1528 64.5786 47.4058 64.3139C47.551 64.1865 47.7075 64.0726 47.8733 63.9736C48.1696 63.7726 48.3978 63.4864 48.5276 63.1529C48.68 62.7305 48.6601 62.2262 49.1025 61.9415C49.5276 61.6768 50.125 61.7535 50.5952 61.5722C50.9567 61.4292 51.3779 60.8798 51.4071 60.5766Z" fill="#464353"/>
<path d="M77.0888 81.3197C75.0689 80.4844 74.4756 79.8807 74.4756 78.672C74.4756 77.7454 74.8835 76.6757 76.6716 76.6757C77.66 76.6612 78.6309 76.9374 79.4636 77.47L80.045 75.933C79.3709 75.5359 78.4199 75.1665 77.0265 75.1202V72.8696H75.8517V75.2128C73.7153 75.561 72.4782 77.0225 72.4782 78.9487C72.4782 80.9676 73.6703 82.0359 76.0438 82.964C77.7629 83.6643 78.6623 84.4533 78.6623 85.7295C78.6623 87.0533 77.5484 88.0038 75.8994 88.0038C74.6001 88.0038 73.1272 87.563 72.2915 87.0057L71.7339 88.5599C72.5471 89.141 73.9405 89.558 75.2862 89.5819V91.9251H77.2848V89.5117C79.6689 89.1145 80.9523 87.3935 80.9523 85.5666C80.9523 83.5014 79.4808 82.2941 77.0888 81.3197Z" fill="url(#paint1_linear)"/>
<path d="M75.2914 91.3957V89.0525C73.9457 89.0287 72.5524 88.6117 71.7391 88.0305L72.2967 86.4763C73.1325 87.0336 74.6053 87.4745 75.9046 87.4745C77.5536 87.4745 78.6622 86.524 78.6622 85.2001C78.6622 83.9239 77.7576 83.1349 76.0384 82.4386C73.6702 81.5119 72.4729 80.4422 72.4729 78.4233C72.4729 76.4971 73.71 75.0356 75.8464 74.6874V72.3442H77.0212V74.5948C78.4145 74.6411 79.3655 75.0118 80.0397 75.4076L79.4582 76.938C78.6256 76.4054 77.6547 76.1292 76.6662 76.1437C74.8782 76.1437 74.4702 77.212 74.4702 78.14C74.4702 79.3461 75.0636 79.9497 77.0834 80.7877C79.4754 81.7621 80.9469 82.9694 80.9469 85.0346C80.9469 86.8682 79.6701 88.5852 77.2794 88.9797V91.3957H75.2914Z" fill="#FF661B"/>
</g>
<defs>
<linearGradient id="paint0_linear" x1="40.5039" y1="56.2711" x2="40.5039" y2="30.9989" gradientUnits="userSpaceOnUse">
<stop stop-color="#808080" stop-opacity="0.25"/>
<stop offset="0.54" stop-color="#808080" stop-opacity="0.12"/>
<stop offset="1" stop-color="#808080" stop-opacity="0.1"/>
</linearGradient>
<linearGradient id="paint1_linear" x1="5167.02" y1="13599.2" x2="5808.25" y2="13599.2" gradientUnits="userSpaceOnUse">
<stop stop-color="#808080" stop-opacity="0.25"/>
<stop offset="0.54" stop-color="#808080" stop-opacity="0.12"/>
<stop offset="1" stop-color="#808080" stop-opacity="0.1"/>
</linearGradient>
<clipPath id="clip0">
<rect width="156" height="96" fill="white"/>
</clipPath>
</defs>
</svg>
