<svg width="39" height="39" viewBox="0 0 39 39" fill="none" xmlns="http://www.w3.org/2000/svg">
<path d="M38.6789 11.1404L19.8289 0.090332C19.6306 -0.0253731 19.3869 -0.0292579 19.1861 0.0818769L0.33607 10.4819C0.12873 10.5957 0 10.814 0 11.0506V38.3506C0 38.7101 0.291205 39.0006 0.649975 39.0006H3.9C4.25877 39.0006 4.54997 38.7101 4.54997 38.3506V15.6007H34.4499V38.3507C34.4499 38.7102 34.7405 39.0007 35.0999 39.0007H38.3499C38.7094 39.0007 38.9999 38.7102 38.9999 38.3507V11.7007C39 11.4699 38.8778 11.2567 38.6789 11.1404ZM37.7 37.7007H35.75V14.9506C35.75 14.5919 35.4595 14.3007 35.1 14.3007H3.9C3.54123 14.3007 3.25003 14.5919 3.25003 14.9506V37.7007H1.30003V11.4342L19.4902 1.39813L37.7 12.0731V37.7007Z" fill="#F5F5F5"/>
</svg>
