<svg width="372" height="212" viewBox="0 0 372 212" fill="none" xmlns="http://www.w3.org/2000/svg">
<g clip-path="url(#clip0)">
<path opacity="0.1" d="M372 140.161C372.02 150.934 369.082 161.506 363.506 170.721C363.506 181.99 358.258 192.205 349.745 199.65C347.614 201.514 345.32 203.182 342.89 204.634C342.793 204.696 342.692 204.754 342.591 204.813C342.409 204.92 342.227 205.028 342.042 205.138L341.869 205.239C333.811 209.735 324.729 212.07 315.504 212.017H70.6182C53.7319 212.017 38.4454 206.131 27.37 196.619C16.2945 187.108 9.46909 173.943 9.46909 159.425C3.26717 149.865 -0.0228437 138.705 -3.95674e-06 127.306C-3.95674e-06 95.0334 25.7669 68.8711 57.5559 68.8711C58.681 68.8711 59.7964 68.9102 60.9052 68.972C80.8515 34.9223 125.843 11.1787 178.111 11.1787C210.245 11.1787 239.618 20.1469 262.117 34.9647C270.64 30.1417 280.266 27.6126 290.056 27.6241C321.839 27.6241 347.612 53.7864 347.612 86.0587C347.607 88.1007 347.499 90.1411 347.287 92.172C354.948 97.6011 361.193 104.795 365.494 113.147C369.795 121.499 372.026 130.764 372 140.161Z" fill="#FF7829"/>
<path opacity="0.1" d="M134.297 158.614C204.696 158.614 261.766 157.084 261.766 155.196C261.766 153.309 204.696 151.778 134.297 151.778C63.8982 151.778 6.82861 153.309 6.82861 155.196C6.82861 157.084 63.8982 158.614 134.297 158.614Z" fill="#FF7829"/>
<g opacity="0.7">
<path opacity="0.7" d="M86.8218 129.968H46.1749V152.429H86.8218V129.968Z" fill="#65617D"/>
<path opacity="0.1" d="M72.8394 133.875H60.4828V136.479H72.8394V133.875Z" fill="black"/>
<path opacity="0.1" d="M71.2947 134.2H62.0272V136.153H71.2947V134.2Z" fill="black"/>
<path opacity="0.7" d="M128.119 129.968H87.4719V152.429H128.119V129.968Z" fill="#65617D"/>
<path opacity="0.1" d="M114.136 133.875H101.78V136.479H114.136V133.875Z" fill="black"/>
<path opacity="0.1" d="M112.592 134.2H103.325V136.153H112.592V134.2Z" fill="black"/>
<path opacity="0.7" d="M86.8218 106.856H46.1749V129.317H86.8218V106.856Z" fill="#65617D"/>
<path opacity="0.1" d="M72.8394 110.762H60.4828V113.367H72.8394V110.762Z" fill="black"/>
<path opacity="0.1" d="M71.2947 111.088H62.0272V113.041H71.2947V111.088Z" fill="black"/>
<path opacity="0.7" d="M128.119 106.856H87.4719V129.317H128.119V106.856Z" fill="#65617D"/>
<path opacity="0.1" d="M114.136 110.762H101.78V113.367H114.136V110.762Z" fill="black"/>
<path opacity="0.1" d="M112.592 111.088H103.325V113.041H112.592V111.088Z" fill="black"/>
<path opacity="0.7" d="M86.8218 83.4187H46.1749V105.88H86.8218V83.4187Z" fill="#65617D"/>
<path opacity="0.1" d="M72.8394 87.3252H60.4828V89.9294H72.8394V87.3252Z" fill="black"/>
<path opacity="0.1" d="M71.2947 87.6504H62.0272V89.6035H71.2947V87.6504Z" fill="black"/>
<path opacity="0.7" d="M128.119 83.4187H87.4719V105.88H128.119V83.4187Z" fill="#65617D"/>
<path opacity="0.1" d="M114.136 87.3252H101.78V89.9294H114.136V87.3252Z" fill="black"/>
<path opacity="0.1" d="M112.592 87.6504H103.325V89.6035H112.592V87.6504Z" fill="black"/>
<path opacity="0.7" d="M128.119 59.981H87.4719V82.442H128.119V59.981Z" fill="#65617D"/>
<path opacity="0.1" d="M114.136 63.8872H101.78V66.4914H114.136V63.8872Z" fill="black"/>
<path opacity="0.1" d="M112.592 64.2129H103.325V66.166H112.592V64.2129Z" fill="black"/>
</g>
<g opacity="0.7">
<path opacity="0.7" d="M169.416 129.643H128.769V152.104H169.416V129.643Z" fill="#65617D"/>
<path opacity="0.1" d="M155.434 133.549H143.077V136.153H155.434V133.549Z" fill="black"/>
<path opacity="0.1" d="M153.889 133.875H144.622V135.828H153.889V133.875Z" fill="black"/>
<path opacity="0.7" d="M210.713 129.643H170.066V152.104H210.713V129.643Z" fill="#65617D"/>
<path opacity="0.1" d="M196.731 133.549H184.374V136.153H196.731V133.549Z" fill="black"/>
<path opacity="0.1" d="M195.186 133.875H185.919V135.828H195.186V133.875Z" fill="black"/>
<path opacity="0.7" d="M169.416 106.531H128.769V128.992H169.416V106.531Z" fill="#65617D"/>
<path opacity="0.1" d="M155.434 110.437H143.077V113.041H155.434V110.437Z" fill="black"/>
<path opacity="0.1" d="M153.889 110.763H144.622V112.716H153.889V110.763Z" fill="black"/>
<path opacity="0.7" d="M210.713 106.531H170.066V128.992H210.713V106.531Z" fill="#65617D"/>
<path opacity="0.1" d="M196.731 110.437H184.374V113.041H196.731V110.437Z" fill="black"/>
<path opacity="0.1" d="M195.186 110.763H185.919V112.716H195.186V110.763Z" fill="black"/>
<path opacity="0.7" d="M169.416 83.0933H128.769V105.554H169.416V83.0933Z" fill="#65617D"/>
<path opacity="0.1" d="M155.434 86.9998H143.077V89.6039H155.434V86.9998Z" fill="black"/>
<path opacity="0.1" d="M153.889 87.325H144.622V89.2781H153.889V87.325Z" fill="black"/>
<path opacity="0.7" d="M210.713 83.0933H170.066V105.554H210.713V83.0933Z" fill="#65617D"/>
<path opacity="0.1" d="M196.731 86.9998H184.374V89.6039H196.731V86.9998Z" fill="black"/>
<path opacity="0.1" d="M195.186 87.325H185.919V89.2781H195.186V87.325Z" fill="black"/>
<path opacity="0.7" d="M210.713 59.6555H170.066V82.1166H210.713V59.6555Z" fill="#65617D"/>
<path opacity="0.1" d="M196.731 63.5618H184.374V66.1659H196.731V63.5618Z" fill="black"/>
<path opacity="0.1" d="M195.186 63.8877H185.919V65.8408H195.186V63.8877Z" fill="black"/>
</g>
<path opacity="0.1" d="M285.598 0.0356882C285.598 0.0356882 258.221 -1.61797 261.441 17.5879C261.441 17.5879 260.79 20.9831 263.873 22.5228C263.873 22.5228 263.922 21.1003 266.682 21.5853C267.665 21.7484 268.664 21.7965 269.658 21.7285C271.001 21.6357 272.277 21.1078 273.293 20.2246C273.293 20.2246 280.99 17.041 283.982 4.44977C283.982 4.44977 286.196 1.70236 286.108 0.995979L281.488 2.9719C281.488 2.9719 283.068 6.30851 281.813 9.08197C281.813 9.08197 281.663 3.09235 280.775 3.22256C280.597 3.25185 278.376 4.37816 278.376 4.37816C278.376 4.37816 281.091 10.1887 279.042 14.414C279.042 14.414 279.819 7.25253 277.527 4.79809L274.275 6.69914C274.275 6.69914 277.449 12.7018 275.296 17.6009C275.296 17.6009 275.849 10.0878 273.589 7.16138L270.643 9.46283C270.643 9.46283 273.625 15.3808 271.807 19.4434C271.807 19.4434 271.57 10.6966 270.006 10.0357C270.006 10.0357 267.427 12.3144 267.034 13.2454C267.034 13.2454 269.076 17.5423 267.807 19.8079C267.807 19.8079 267.03 13.9811 266.393 13.9485C266.393 13.9485 263.824 17.8092 263.557 20.459C263.557 20.459 263.668 16.5202 265.772 13.5807C265.772 13.5807 263.288 14.0071 261.837 15.6217C261.837 15.6217 262.237 12.8906 266.406 12.653C266.406 12.653 268.529 9.72325 269.095 9.54421C269.095 9.54421 264.952 9.19916 262.439 10.3124C262.439 10.3124 264.65 7.73756 269.856 8.90944L272.766 6.52987C272.766 6.52987 267.31 5.78442 264.995 6.60799C264.995 6.60799 267.658 4.32933 273.55 5.99275L276.724 4.11123C276.724 4.11123 272.071 3.10862 269.3 3.46019C269.3 3.46019 272.227 1.8814 277.654 3.59365L279.93 2.57476C279.93 2.57476 276.522 1.90419 275.524 1.79677C274.526 1.68934 274.474 1.4159 274.474 1.4159C276.633 1.0555 278.849 1.3023 280.876 2.1288C280.876 2.1288 285.682 0.338424 285.598 0.0356882Z" fill="#FF7829"/>
<path opacity="0.1" d="M251.832 4.92172C251.832 4.92172 239.475 4.17302 240.922 12.8547C240.922 12.8547 240.633 14.3879 242.018 15.0845C242.018 15.0845 242.041 14.4335 243.289 14.6581C243.733 14.7328 244.184 14.7547 244.632 14.7232C245.239 14.6819 245.816 14.443 246.274 14.0429C246.274 14.0429 249.754 12.6073 251.107 6.91717C251.107 6.91717 252.105 5.67368 252.066 5.35467L249.978 6.2466C249.978 6.2466 250.694 7.75702 250.131 9.01029C250.131 9.01029 250.063 6.30193 249.663 6.36704C249.581 6.36704 248.577 6.88788 248.577 6.88788C248.577 6.88788 249.806 9.51484 248.879 11.4257C248.879 11.4257 249.23 8.18997 248.193 7.07993L246.723 7.93931C246.723 7.93931 248.16 10.6509 247.185 12.8645C247.185 12.8645 247.435 9.46927 246.414 8.14765L245.084 9.18607C245.084 9.18607 246.431 11.8619 245.611 13.6978C245.611 13.6978 245.504 9.74271 244.795 9.44648C244.795 9.44648 243.631 10.4751 243.452 10.8983C243.452 10.8983 244.375 12.8515 243.803 13.8606C243.803 13.8606 243.452 11.2271 243.153 11.2173C243.153 11.2173 241.995 12.9621 241.872 14.147C241.93 13.0412 242.275 11.9697 242.873 11.0383C242.203 11.1653 241.585 11.4855 241.094 11.9595C241.094 11.9595 241.276 10.729 243.159 10.6184C243.159 10.6184 244.135 9.29674 244.375 9.21536C244.375 9.21536 242.502 9.05911 241.368 9.56367C241.368 9.56367 242.366 8.3983 244.72 8.9289L246.021 7.85468C246.021 7.85468 243.556 7.52916 242.509 7.89049C242.509 7.89049 243.712 6.86183 246.375 7.61054L247.806 6.75441C247.806 6.75441 245.705 6.29868 244.45 6.46469C244.45 6.46469 245.774 5.74855 248.225 6.52329L249.25 6.0643C249.25 6.0643 247.708 5.75831 247.256 5.71274C246.804 5.66716 246.782 5.54021 246.782 5.54021C247.758 5.37765 248.76 5.49036 249.676 5.86573C249.676 5.86573 251.871 5.05844 251.832 4.92172Z" fill="#FF7829"/>
<path d="M72.901 209.884C80.1223 209.884 85.9763 208.893 85.9763 207.67C85.9763 206.448 80.1223 205.457 72.901 205.457C65.6797 205.457 59.8257 206.448 59.8257 207.67C59.8257 208.893 65.6797 209.884 72.901 209.884Z" fill="#FF7829"/>
<path d="M78.3086 204.051C78.9056 203.564 79.34 202.906 79.554 202.166C79.7166 201.42 79.3979 200.538 78.6825 200.249C77.8826 199.943 77.0274 200.499 76.3803 201.059C75.7332 201.619 74.9886 202.26 74.1431 202.14C74.5788 201.744 74.9047 201.241 75.0893 200.682C75.2739 200.122 75.3109 199.525 75.1967 198.947C75.1597 198.707 75.0585 198.482 74.904 198.296C74.4585 197.82 73.6553 198.022 73.122 198.396C71.4311 199.588 70.9596 201.889 70.9499 203.956C70.7808 203.211 70.9239 202.433 70.9206 201.678C70.9174 200.922 70.706 200.05 70.0589 199.65C69.6598 199.435 69.2111 199.329 68.7582 199.344C68.0005 199.314 67.1518 199.392 66.6348 199.949C65.9845 200.639 66.1568 201.798 66.7161 202.553C67.2754 203.309 68.1306 203.794 68.9175 204.318C69.547 204.693 70.0839 205.206 70.4881 205.818C70.5369 205.904 70.5761 205.994 70.6052 206.088H75.3723C76.4384 205.545 77.4261 204.859 78.3086 204.051Z" fill="#FF7829"/>
<path d="M233.268 111.332C233.241 111.085 233.153 110.849 233.011 110.646C232.87 110.442 232.679 110.277 232.458 110.166C232.271 110.087 232.07 110.046 231.868 110.045C231.665 110.045 231.464 110.085 231.277 110.164C231.09 110.243 230.921 110.359 230.78 110.505C230.638 110.651 230.528 110.823 230.455 111.013L223.233 126.224L221.607 186.121H224.208L225.184 126.358L233.131 112.276C233.275 111.983 233.322 111.653 233.268 111.332Z" fill="#3F3D56"/>
<path opacity="0.1" d="M349.745 199.65C347.614 201.514 345.32 203.182 342.89 204.634C342.852 204.687 342.81 204.738 342.763 204.784C342.505 205.003 342.199 205.157 341.869 205.233C333.811 209.729 324.729 212.063 315.504 212.01H136.716C116.23 209.901 103.731 207.105 103.731 204.035C103.731 201.655 111.236 199.439 124.158 197.583C125.498 197.388 126.895 197.199 128.35 197.017C129.245 196.904 130.161 196.795 131.097 196.691L132.688 196.506C133.867 196.371 135.078 196.24 136.32 196.112H136.421L137.721 195.982C138.82 195.868 139.942 195.76 141.087 195.656L141.919 195.581L144.043 195.392C145.421 195.269 146.83 195.15 148.27 195.038C149.464 194.944 150.678 194.851 151.912 194.758C164.418 193.83 178.836 193.13 194.526 192.678L199.007 192.525L200.516 192.492L203.702 192.42L204.98 192.394L206.323 192.368L207.279 192.352L211.767 192.28L214.072 192.248H214.544C219.996 192.183 225.55 192.149 231.206 192.147C242.385 192.147 253.227 192.28 263.557 192.534C269.489 192.678 275.239 192.86 280.808 193.081H280.86C296.917 193.713 311.29 194.644 323.185 195.799L323.403 195.822C326.456 196.118 329.347 196.434 332.059 196.76C334.611 197.066 337.008 197.388 339.232 197.717C340.003 197.831 340.751 197.948 341.479 198.062L341.664 198.094C344.747 198.592 347.452 199.1 349.745 199.65Z" fill="#FF7829"/>
<path d="M342.89 204.633C342.852 204.687 342.81 204.737 342.763 204.783C342.505 205.002 342.199 205.156 341.869 205.232C341.212 205.417 340.535 205.526 339.853 205.558H339.648C339.259 205.571 338.869 205.558 338.481 205.519C338.198 205.478 337.912 205.459 337.626 205.463H337.587C337.171 205.522 336.762 205.623 336.367 205.766C335.487 206.008 334.58 206.137 333.668 206.15H333.343C332.322 206.15 331.288 206.115 330.264 206.121C330.098 206.121 329.939 206.121 329.766 206.121C328.01 206.167 326.264 206.447 324.508 206.476H323.946C322.225 206.434 320.466 206.066 319.097 205.024C318.821 204.841 318.597 204.59 318.447 204.295C318.33 203.983 318.291 203.648 318.333 203.318C318.366 202.729 318.479 202.088 318.922 201.691C319.2 201.477 319.518 201.323 319.858 201.238C320.453 201.046 321.051 200.861 321.647 200.675C322.242 200.489 322.921 200.291 323.562 200.102L323.685 200.063L324.043 199.956L324.274 199.878C324.554 199.788 324.822 199.665 325.074 199.513C325.406 199.303 325.687 199.021 325.897 198.689C325.932 198.631 325.971 198.569 326.004 198.507C326.036 198.445 326.004 198.406 325.981 198.354C325.926 197.947 325.884 197.53 325.812 197.133C324.897 196.921 324.062 196.448 323.409 195.773C322.848 195.216 322.375 194.576 322.007 193.875C321.198 192.351 320.782 190.649 320.177 189.031C319.25 186.57 317.901 184.298 316.541 182.045C315.299 179.969 314.05 177.885 312.639 175.922C311.699 174.62 310.688 173.38 309.758 172.075C307.127 168.432 305.24 164.306 304.204 159.933C304.046 159.093 303.821 158.268 303.531 157.465C302.972 156.098 301.947 154.985 301.154 153.735C300.301 152.387 299.717 150.887 299.434 149.317C299.271 148.425 298.998 147.462 298.11 147.364L298.016 147.55C296.176 151.13 294.286 154.776 291.513 157.7C291.069 158.129 290.663 158.596 290.3 159.096C290.008 159.58 289.748 160.083 289.519 160.6C289.08 161.529 288.497 162.382 287.793 163.129C287.583 163.342 287.354 163.534 287.11 163.705C286.785 163.942 286.423 164.123 286.04 164.243C285.889 164.289 285.734 164.324 285.578 164.347C285.578 164.386 285.594 164.422 285.598 164.461C285.601 164.5 285.617 164.545 285.624 164.588C286.102 167.192 285.897 169.876 285.029 172.377C285.006 172.455 284.98 172.53 284.951 172.608C284.816 172.973 284.67 173.331 284.512 173.683C284.115 174.545 283.643 175.372 283.273 176.248C283.211 176.398 283.149 176.547 283.094 176.697C281.793 180.183 282.118 184.077 281.949 187.823C281.934 188.643 281.837 189.458 281.66 190.258C281.439 191.16 281.084 192.091 280.889 193.022C280.711 193.72 280.697 194.45 280.847 195.154L280.769 195.183C280.421 195.314 280.066 195.431 279.712 195.542V195.59C279.839 196.32 279.962 197.049 280.089 197.775C280.197 198.4 280.323 199.077 280.759 199.519C280.878 199.617 280.987 199.726 281.084 199.845C281.341 200.249 281.114 200.782 281.162 201.261C281.234 201.938 281.858 202.514 281.761 203.188C281.717 203.389 281.624 203.577 281.492 203.735C281.359 203.892 281.19 204.015 281 204.093C280.84 204.166 280.671 204.219 280.499 204.253L280.392 204.275C280.197 204.311 280.001 204.331 279.806 204.35C277.384 204.591 274.929 204.832 272.529 204.422C272.054 204.34 271.583 204.233 271.101 204.194C270.493 204.167 269.884 204.192 269.28 204.269C264.829 204.691 260.351 204.778 255.886 204.529C254.726 204.464 253.392 204.275 252.778 203.282C252.267 202.459 252.453 201.394 252.709 200.454C252.783 200.108 252.916 199.777 253.103 199.477C253.124 199.445 253.148 199.414 253.174 199.386C253.773 198.641 254.898 198.595 255.867 198.624L259.034 198.719C259.346 198.744 259.66 198.72 259.964 198.647C260.478 198.497 260.868 198.087 261.349 197.856C261.954 197.566 262.715 197.53 263.151 197.036L263.206 196.964C263.283 196.859 263.355 196.751 263.421 196.639C263.421 196.616 263.45 196.593 263.466 196.57C263.478 196.55 263.491 196.53 263.505 196.512C263.905 195.984 264.604 195.808 265.173 195.473C265.26 195.423 265.341 195.365 265.417 195.301L265.482 195.242C264.87 194.804 264.335 194.266 263.902 193.65C263.735 193.47 263.611 193.254 263.541 193.019C263.501 192.842 263.515 192.657 263.58 192.488C263.594 192.447 263.611 192.406 263.632 192.368L263.648 192.335C263.869 191.899 264.325 191.505 264.575 191.059C264.585 191.045 264.592 191.03 264.598 191.014C264.943 190.362 265.011 189.353 264.5 188.829C264.76 184.542 265.938 180.366 266.198 176.065C266.302 174.363 266.26 172.654 266.338 170.945C266.416 169.236 266.598 167.579 266.79 165.903C267.219 162.071 268.259 158.318 268.113 154.47C268.101 154.112 268.116 153.752 268.159 153.396C268.157 153.37 268.157 153.344 268.159 153.318C268.263 152.529 268.508 151.766 268.884 151.065C269.355 150.273 269.889 149.52 270.48 148.813C272.48 146.209 274.883 143.604 275.595 140.401C275.963 138.748 276.776 137.234 277.585 135.746C278.063 134.861 278.561 133.953 279.325 133.302C279.739 133.015 280.123 132.688 280.473 132.325C281.006 131.635 281.026 130.681 281.341 129.861C281.504 129.434 281.754 129.044 281.878 128.604C281.878 128.559 281.9 128.516 281.91 128.471C281.982 128.027 282.02 127.579 282.024 127.13C282.024 126.999 282.043 126.872 282.06 126.746C282.25 125.459 282.623 124.206 283.169 123.025C283.237 122.875 283.302 122.722 283.367 122.572C281.867 121.696 280.543 120.547 279.465 119.184C279.099 118.743 278.782 118.263 278.519 117.755C277.849 116.423 277.696 114.906 277.381 113.448C276.626 109.971 274.899 106.697 274.659 103.142C274.587 102.058 274.659 100.938 274.282 99.9127C274.178 99.6355 274.055 99.3657 273.914 99.1054C273.856 98.9947 273.8 98.884 273.742 98.7799L273.677 98.6562L273.511 98.3306L273.244 98.539C266.592 103.754 259.607 108.529 252.336 112.836L251.711 113.207C251.386 113.364 251.103 113.596 250.885 113.884C250.859 113.926 250.836 113.969 250.814 114.011C250.664 114.32 250.625 114.662 250.489 114.988C250.196 115.733 249.445 116.208 248.677 116.43C247.289 116.787 245.816 116.597 244.564 115.899C244.405 115.818 244.239 115.733 244.096 115.639C243.715 115.85 243.314 116.021 242.899 116.15C241.598 116.527 240.236 116.511 238.89 116.508C237.543 116.505 236.168 116.508 234.893 116.951C234.041 117.24 233.215 117.719 232.331 117.764C232.229 117.771 232.127 117.771 232.025 117.764C231.521 117.706 231.03 117.562 230.575 117.338L230.308 117.217C230.17 117.152 230.035 117.079 229.905 116.999C229.763 116.911 229.631 116.808 229.512 116.69C229.339 116.517 229.214 116.303 229.147 116.068C229.103 115.899 229.103 115.721 229.147 115.551C229.16 115.475 229.199 115.405 229.258 115.355C229.316 115.321 229.382 115.304 229.45 115.307C229.823 115.303 230.195 115.334 230.562 115.401C230.777 115.431 230.995 115.443 231.212 115.437H231.329C231.521 115.416 231.706 115.356 231.874 115.261C232.042 115.166 232.189 115.038 232.305 114.883C232.34 114.836 232.369 114.783 232.389 114.727C232.429 114.636 232.449 114.537 232.448 114.438C232.45 114.413 232.45 114.388 232.448 114.363C232.311 114.301 232.175 114.239 232.045 114.164C231.976 114.128 231.911 114.089 231.846 114.05L231.807 114.024C231.69 113.945 231.582 113.854 231.482 113.754C231.419 113.691 231.363 113.621 231.316 113.546C231.23 113.428 231.165 113.295 231.124 113.155C230.856 113.099 230.579 113.107 230.315 113.178C229.96 113.275 229.603 113.484 229.251 113.555C229.074 113.6 228.888 113.592 228.715 113.533C228.208 113.35 228.029 112.732 227.921 112.201C227.902 112.1 227.879 111.996 227.863 111.892C227.825 111.692 227.825 111.487 227.863 111.286C228.02 110.832 228.32 110.44 228.718 110.17L229.785 109.275L229.863 109.21C229.863 109.122 229.827 109.034 229.814 108.946C229.777 108.745 229.777 108.538 229.814 108.337C229.971 107.883 230.271 107.493 230.669 107.224L233.03 105.235C233.472 104.864 233.953 104.473 234.529 104.434C235.384 104.376 236.067 105.085 236.708 105.655C237.514 106.371 238.493 106.957 239.569 107.029C240.082 107.052 240.594 106.981 241.081 106.82L241.358 106.729C241.299 106.609 241.241 106.488 241.185 106.368C241.091 106.169 240.997 105.967 240.906 105.766C242.291 105.678 243.549 104.916 244.6 104.005C245.65 103.093 246.551 102.016 247.611 101.12C248.755 100.144 250.069 99.4179 251.23 98.4771C253.929 96.2864 255.721 93.0669 258.608 91.1366C259.61 90.4628 260.767 89.9256 261.45 88.923C261.662 88.5975 261.821 88.272 262.039 87.9465C262.731 86.9699 263.918 86.5207 264.897 85.8436C265.876 85.1665 266.728 84.1737 267.524 83.2199C268.09 82.5395 268.659 81.8592 269.199 81.1593C269.697 80.2316 270.116 79.2615 270.636 78.3468C271.078 77.574 271.593 76.8458 272.174 76.1723C272.308 75.9119 272.444 75.6515 272.591 75.3976C272.737 75.1437 272.844 74.9711 272.981 74.7465C273.075 74.6 273.173 74.4601 273.274 74.3168C272.978 73.7927 272.695 73.3403 272.561 73.1417L272.496 73.0538C272.209 72.7479 271.903 72.4609 271.579 72.1944C271.239 72.1429 270.903 72.0711 270.571 71.9796C268.564 71.429 266.794 70.233 265.533 68.576C264.272 66.9189 263.59 64.8927 263.593 62.8096C263.591 62.7999 263.591 62.79 263.593 62.7803C263.594 61.2885 263.949 59.8181 264.627 58.4899C264.764 58.223 264.91 57.9658 265.069 57.7152C264.921 57.6682 264.776 57.6094 264.637 57.5394C264.4 57.4223 264.193 57.2519 264.032 57.0413C263.9 56.8538 263.814 56.6373 263.782 56.4098C263.727 55.8733 263.807 55.3315 264.016 54.8343C264.105 54.5949 264.205 54.3602 264.318 54.1312C264.327 54.1178 264.335 54.1036 264.341 54.0888C265.795 51.1591 268.893 49.359 271.989 49.232C275.329 49.0986 278.58 50.6676 281.214 52.9137C282 53.5593 282.704 54.2995 283.308 55.1175C284.684 57.0316 285.305 59.4795 285.487 61.9046C285.555 62.6547 285.542 63.41 285.448 64.1573C285.414 64.4235 285.359 64.6869 285.285 64.945C285.243 65.098 285.188 65.251 285.129 65.404C285.071 65.557 285.035 65.6254 284.983 65.7295V65.7458C284.934 65.85 284.879 65.9476 284.824 66.0453L284.794 66.0876L284.752 66.156C284.778 66.2178 284.807 66.2829 284.837 66.3448C284.866 66.4066 284.892 66.4652 284.925 66.5238H284.964C285.614 66.5759 286.215 66.667 286.879 66.7191C287.191 66.734 287.5 66.782 287.802 66.8623C288.453 67.0577 288.944 67.5329 289.49 67.917C290.843 68.8741 292.508 69.32 293.838 70.3096C295.789 71.768 296.764 74.1768 297.948 76.3351C299.509 79.2257 302.052 81.6867 303.173 84.7791C303.681 86.1832 304.19 87.5851 304.702 88.9849C305.7 91.729 306.698 94.4862 308.054 97.0741C309.94 100.674 312.493 103.91 314.005 107.693C314.155 108.072 314.437 108.384 314.798 108.572C316.859 111.484 318.691 114.552 320.278 117.748C321.113 119.438 321.903 121.192 322.147 123.064C322.338 124.73 322.2 126.418 321.741 128.031C321.482 128.99 321.163 129.931 320.788 130.85C320.642 131.172 320.533 131.51 320.463 131.856C320.463 131.892 320.463 131.928 320.463 131.964C320.398 132.589 320.635 133.207 320.7 133.832C320.755 134.335 320.698 134.844 320.534 135.323C320.508 135.398 320.479 135.473 320.45 135.548C320.248 135.928 320.078 136.325 319.939 136.733C319.928 136.782 319.919 136.832 319.913 136.882C319.806 137.589 320.086 138.302 320.239 139.008C320.811 141.56 320.707 144.216 320.564 146.821C320.489 148.123 321.539 149.168 322.417 150.128C324.043 151.928 325.315 154.034 326.54 156.13C327.209 157.195 327.772 158.322 328.222 159.496C328.687 160.838 328.872 162.257 329.129 163.647C329.958 167.944 332.667 171.739 333.402 176.046C333.742 178.018 334.611 179.861 335.915 181.378C336.308 181.784 336.67 182.22 336.998 182.68C337.225 183.047 337.405 183.441 337.535 183.852C337.854 184.809 338.005 185.815 337.98 186.824C337.929 187.307 337.956 187.795 338.061 188.269C338.367 189.269 339.46 189.819 339.912 190.76C340.364 191.7 340.051 192.905 340.237 193.973C340.382 194.833 340.847 195.608 341.537 196.14C341.277 196.368 341.004 196.577 340.725 196.792C340.983 196.993 341.21 197.232 341.398 197.501C341.526 197.681 341.635 197.875 341.723 198.077C342.152 199.077 342.165 200.265 342.516 201.333C342.666 201.775 342.877 202.244 342.747 202.693C342.692 202.822 342.654 202.958 342.637 203.097C342.637 203.39 342.942 203.582 343.059 203.849C343.102 203.983 343.109 204.126 343.079 204.264C343.049 204.401 342.984 204.529 342.89 204.633Z" fill="url(#paint0_linear)"/>
<path d="M274.07 77.6792C276.06 77.1421 277.833 76.0191 279.569 74.909L285.621 71.0516C283.979 70.9214 282.561 69.7495 281.719 68.3302C280.876 66.9109 280.528 65.2605 280.242 63.6394C277.641 64.655 275.387 66.3771 273.287 68.1967C272.454 68.9161 270.685 70.0034 270.428 71.1264C270.172 72.2495 271.81 73.161 272.445 73.9129C272.662 74.1636 274.714 77.5002 274.07 77.6792Z" fill="#FBBEBE"/>
<path opacity="0.1" d="M274.07 77.6792C276.06 77.1421 277.833 76.0191 279.569 74.909L285.621 71.0516C283.979 70.9214 282.561 69.7495 281.719 68.3302C280.876 66.9109 280.528 65.2605 280.242 63.6394C277.641 64.655 275.387 66.3771 273.287 68.1967C272.454 68.9161 270.685 70.0034 270.428 71.1264C270.172 72.2495 271.81 73.161 272.445 73.9129C272.662 74.1636 274.714 77.5002 274.07 77.6792Z" fill="black"/>
<path d="M241.003 109.541C239.937 110.088 238.802 110.648 237.608 110.57C236.535 110.502 235.556 109.919 234.75 109.206C234.1 108.64 233.43 107.933 232.575 107.992C232.002 108.031 231.521 108.418 231.079 108.786L228.721 110.762C228.325 111.029 228.025 111.417 227.866 111.869C227.82 112.175 227.838 112.488 227.921 112.787C228.029 113.314 228.208 113.929 228.715 114.109C229.222 114.288 229.775 113.903 230.311 113.757C230.639 113.673 230.983 113.679 231.308 113.775C231.632 113.871 231.925 114.052 232.155 114.301C232.347 114.489 232.463 114.742 232.48 115.01C232.48 115.599 231.83 115.987 231.232 116.016C230.633 116.045 230.061 115.85 229.469 115.886C229.433 115.881 229.397 115.884 229.363 115.894C229.328 115.903 229.295 115.92 229.267 115.942C229.239 115.965 229.216 115.993 229.198 116.024C229.181 116.056 229.17 116.091 229.167 116.127C229.13 116.332 229.146 116.544 229.212 116.742C229.279 116.94 229.394 117.118 229.547 117.26C229.856 117.542 230.216 117.763 230.607 117.911C231.062 118.136 231.553 118.279 232.058 118.334C233.056 118.399 233.973 117.845 234.919 117.523C236.194 117.094 237.566 117.081 238.912 117.084C240.258 117.087 241.624 117.107 242.915 116.729C244.206 116.351 245.432 115.515 245.936 114.268C245.996 114.152 246.015 114.019 245.991 113.89C245.941 113.753 245.844 113.638 245.718 113.565C243.904 112.22 243.169 110.586 241.127 109.62L241.003 109.541Z" fill="#FBBEBE"/>
<path opacity="0.1" d="M241.003 109.541C239.937 110.088 238.802 110.648 237.608 110.57C236.535 110.502 235.556 109.919 234.75 109.206C234.1 108.64 233.43 107.933 232.575 107.992C232.002 108.031 231.521 108.418 231.079 108.786L228.721 110.762C228.325 111.029 228.025 111.417 227.866 111.869C227.82 112.175 227.838 112.488 227.921 112.787C228.029 113.314 228.208 113.929 228.715 114.109C229.222 114.288 229.775 113.903 230.311 113.757C230.639 113.673 230.983 113.679 231.308 113.775C231.632 113.871 231.925 114.052 232.155 114.301C232.347 114.489 232.463 114.742 232.48 115.01C232.48 115.599 231.83 115.987 231.232 116.016C230.633 116.045 230.061 115.85 229.469 115.886C229.433 115.881 229.397 115.884 229.363 115.894C229.328 115.903 229.295 115.92 229.267 115.942C229.239 115.965 229.216 115.993 229.198 116.024C229.181 116.056 229.17 116.091 229.167 116.127C229.13 116.332 229.146 116.544 229.212 116.742C229.279 116.94 229.394 117.118 229.547 117.26C229.856 117.542 230.216 117.763 230.607 117.911C231.062 118.136 231.553 118.279 232.058 118.334C233.056 118.399 233.973 117.845 234.919 117.523C236.194 117.094 237.566 117.081 238.912 117.084C240.258 117.087 241.624 117.107 242.915 116.729C244.206 116.351 245.432 115.515 245.936 114.268C245.996 114.152 246.015 114.019 245.991 113.89C245.941 113.753 245.844 113.638 245.718 113.565C243.904 112.22 243.169 110.586 241.127 109.62L241.003 109.541Z" fill="black"/>
<path d="M279.081 74.8248C278.577 74.4988 278.004 74.2932 277.408 74.2238C276.811 74.1544 276.207 74.223 275.641 74.4244C274.508 74.8329 273.491 75.511 272.678 76.4003C271.867 77.2288 271.164 78.1575 270.588 79.164C270.035 80.1406 269.612 81.1627 269.059 82.136C268.084 83.8776 266.809 85.4141 265.528 86.9375C264.731 87.8848 263.925 88.8451 262.904 89.5417C261.883 90.2383 260.741 90.6647 260.049 91.6315C259.831 91.9375 259.675 92.2826 259.46 92.5918C258.78 93.5879 257.626 94.1218 256.621 94.7891C253.74 96.7097 251.949 99.9063 249.256 102.084C248.095 103.022 246.785 103.757 245.643 104.714C244.58 105.603 243.692 106.667 242.632 107.579C241.572 108.49 240.327 109.242 238.945 109.327C239.868 111.388 240.971 113.409 242.554 115.014C244.138 116.619 246.512 117.644 248.674 117.016C249.441 116.794 250.193 116.326 250.485 115.584C250.577 115.202 250.706 114.83 250.869 114.473C251.086 114.187 251.368 113.956 251.692 113.8C260.372 108.727 268.647 102.988 276.441 96.6348C278.532 94.9291 280.606 93.4024 282.752 91.752C283.522 91.2056 284.233 90.5817 284.876 89.89C285.771 88.82 286.33 87.509 286.483 86.1218C286.635 84.7346 286.375 83.3332 285.734 82.0937C285.159 81.1455 284.499 80.251 283.764 79.4212C282.425 77.6771 280.849 76.1299 279.081 74.8248Z" fill="#FF7829"/>
<path opacity="0.1" d="M279.081 74.8248C278.577 74.4988 278.004 74.2932 277.408 74.2238C276.811 74.1544 276.207 74.223 275.641 74.4244C274.508 74.8329 273.491 75.511 272.678 76.4003C271.867 77.2288 271.164 78.1575 270.588 79.164C270.035 80.1406 269.612 81.1627 269.059 82.136C268.084 83.8776 266.809 85.4141 265.528 86.9375C264.731 87.8848 263.925 88.8451 262.904 89.5417C261.883 90.2383 260.741 90.6647 260.049 91.6315C259.831 91.9375 259.675 92.2826 259.46 92.5918C258.78 93.5879 257.626 94.1218 256.621 94.7891C253.74 96.7097 251.949 99.9063 249.256 102.084C248.095 103.022 246.785 103.757 245.643 104.714C244.58 105.603 243.692 106.667 242.632 107.579C241.572 108.49 240.327 109.242 238.945 109.327C239.868 111.388 240.971 113.409 242.554 115.014C244.138 116.619 246.512 117.644 248.674 117.016C249.441 116.794 250.193 116.326 250.485 115.584C250.577 115.202 250.706 114.83 250.869 114.473C251.086 114.187 251.368 113.956 251.692 113.8C260.372 108.727 268.647 102.988 276.441 96.6348C278.532 94.9291 280.606 93.4024 282.752 91.752C283.522 91.2056 284.233 90.5817 284.876 89.89C285.771 88.82 286.33 87.509 286.483 86.1218C286.635 84.7346 286.375 83.3332 285.734 82.0937C285.159 81.1455 284.499 80.251 283.764 79.4212C282.425 77.6771 280.849 76.1299 279.081 74.8248Z" fill="black"/>
<path d="M265.109 195.584C264.539 195.909 263.84 196.092 263.44 196.619C263.31 196.788 263.223 196.987 263.083 197.149C262.65 197.657 261.883 197.68 261.281 197.97C260.8 198.198 260.41 198.621 259.899 198.754C259.594 198.827 259.279 198.851 258.966 198.826L255.805 198.732C254.804 198.702 253.63 198.754 253.048 199.571C252.859 199.871 252.724 200.201 252.651 200.548C252.407 201.482 252.209 202.54 252.719 203.36C253.331 204.337 254.67 204.536 255.825 204.601C260.284 204.848 264.756 204.761 269.202 204.34C269.804 204.263 270.411 204.238 271.017 204.265C271.498 204.305 271.97 204.412 272.444 204.493C274.841 204.9 277.293 204.663 279.712 204.422C280.121 204.402 280.524 204.316 280.905 204.168C281.095 204.09 281.263 203.968 281.395 203.811C281.527 203.653 281.619 203.467 281.663 203.266C281.764 202.596 281.136 202.026 281.068 201.352C281.019 200.877 281.247 200.346 280.987 199.942C280.889 199.823 280.78 199.714 280.662 199.617C280.226 199.164 280.099 198.504 279.992 197.885L279.423 194.542C279.407 194.306 279.31 194.083 279.15 193.911C279.03 193.824 278.892 193.767 278.746 193.745C276.268 193.185 273.729 193.696 271.267 194.008C270.001 194.194 268.719 194.258 267.44 194.2C266.887 194.164 266.673 194.099 266.26 194.461C265.847 194.822 265.626 195.281 265.109 195.584Z" fill="#3F3D56"/>
<path d="M324.944 199.607C324.509 199.851 324.043 200.034 323.559 200.151C322.282 200.524 321.007 200.914 319.735 201.32C319.396 201.404 319.078 201.557 318.801 201.769C318.359 202.16 318.245 202.798 318.213 203.397C318.171 203.726 318.21 204.062 318.327 204.373C318.479 204.665 318.703 204.914 318.977 205.096C320.434 206.199 322.336 206.541 324.164 206.541C325.991 206.541 327.805 206.232 329.633 206.183C331.841 206.124 334.107 206.437 336.231 205.818C336.636 205.668 337.057 205.566 337.486 205.512C337.771 205.508 338.056 205.527 338.338 205.568C339.477 205.68 340.627 205.576 341.726 205.259C342.057 205.185 342.365 205.032 342.624 204.813C342.752 204.702 342.843 204.555 342.886 204.391C342.929 204.227 342.921 204.054 342.864 203.895C342.747 203.631 342.448 203.439 342.445 203.149C342.46 203.01 342.496 202.874 342.552 202.745C342.685 202.3 342.471 201.834 342.321 201.395C341.902 200.138 341.97 198.693 341.219 197.602C340.468 196.512 339.089 196.063 337.779 195.89C336.713 195.739 335.631 195.77 334.576 195.981C333.389 196.235 332.28 196.766 331.116 197.104C329.765 197.493 328.353 197.627 326.954 197.498C326.024 197.42 326.342 197.566 326.027 198.348C325.803 198.869 325.425 199.308 324.944 199.607Z" fill="#3F3D56"/>
<path d="M272.984 73.1645C278.192 73.1645 282.414 68.938 282.414 63.7243C282.414 58.5107 278.192 54.2842 272.984 54.2842C267.776 54.2842 263.554 58.5107 263.554 63.7243C263.554 68.938 267.776 73.1645 272.984 73.1645Z" fill="#FBBEBE"/>
<path d="M341.349 196.232C338.422 198.748 334.472 199.848 330.618 199.887C328.992 199.904 327.305 199.728 325.92 198.885C325.822 198.351 325.783 197.775 325.685 197.241C324.004 196.889 322.7 195.519 321.887 194.002C321.074 192.485 320.661 190.799 320.057 189.191C319.133 186.743 317.78 184.487 316.428 182.247C315.186 180.183 313.94 178.113 312.526 176.163C311.589 174.861 310.575 173.637 309.648 172.338C307.022 168.723 305.138 164.623 304.104 160.274C303.945 159.441 303.72 158.621 303.43 157.823C302.871 156.463 301.847 155.356 301.057 154.116C300.205 152.777 299.62 151.286 299.336 149.724C299.177 148.839 298.904 147.882 298.016 147.791C296.15 151.42 294.248 155.108 291.425 158.061C290.981 158.487 290.576 158.951 290.212 159.448C289.921 159.93 289.66 160.43 289.432 160.945C288.994 161.869 288.412 162.717 287.708 163.458C287.118 164.09 286.341 164.514 285.491 164.669C286.118 167.797 285.744 171.043 284.424 173.946C284.031 174.806 283.559 175.626 283.188 176.495C281.673 180.076 282.024 184.116 281.865 187.999C281.851 188.813 281.755 189.623 281.579 190.418C281.185 192.006 280.372 193.696 280.766 195.284C276.688 196.844 272.158 196.746 267.84 196.089C266.995 196.011 266.176 195.762 265.431 195.356C264.818 194.922 264.284 194.387 263.85 193.774C263.683 193.595 263.559 193.38 263.489 193.146C263.32 192.404 264.14 191.844 264.52 191.193C264.9 190.542 264.969 189.51 264.445 188.976C264.705 184.715 265.883 180.555 266.143 176.28C266.247 174.588 266.204 172.889 266.282 171.193C266.361 169.497 266.543 167.846 266.731 166.179C267.16 162.374 268.201 158.644 268.055 154.819C268.01 153.642 268.281 152.474 268.838 151.437C269.308 150.648 269.841 149.899 270.432 149.197C272.428 146.616 274.828 144.028 275.54 140.841C275.908 139.197 276.721 137.693 277.527 136.215C278.005 135.333 278.503 134.431 279.263 133.783C279.677 133.497 280.062 133.17 280.411 132.807C280.945 132.12 280.964 131.179 281.28 130.359C281.442 129.936 281.693 129.545 281.813 129.109C281.912 128.627 281.961 128.136 281.959 127.644C282.063 126.069 282.668 124.545 283.305 123.103C281.806 122.234 280.483 121.093 279.403 119.737C279.041 119.297 278.725 118.82 278.46 118.315C277.79 116.993 277.638 115.486 277.322 114.037C276.571 110.58 274.844 107.328 274.604 103.796C274.532 102.719 274.604 101.606 274.23 100.587C274.057 100.155 273.855 99.7367 273.625 99.3334C273.398 98.9371 273.225 98.5124 273.111 98.0703C272.903 97.11 273.189 96.1172 273.111 95.1406C273.033 94.278 272.666 93.4707 272.484 92.6276C272.298 91.5306 272.266 90.413 272.389 89.3073C272.471 88.0052 272.753 86.6608 272.643 85.3749C272.464 83.2473 272.734 81.1057 273.438 79.0898C274.141 77.074 275.261 75.2291 276.724 73.6756L276.799 73.6008C277.42 72.9497 278.099 72.3735 278.659 71.6834C279.42 70.759 279.959 69.6717 280.763 68.7733C281.114 68.3729 281.51 68.0148 281.858 67.6112C282.177 67.1878 282.531 66.7915 282.915 66.4262C283.109 66.2456 283.345 66.1152 283.601 66.0466C283.857 65.9779 284.126 65.973 284.385 66.0324C284.45 66.5178 284.602 66.9876 284.834 67.4191C285.51 67.4712 286.112 67.5656 286.785 67.6177C287.097 67.6325 287.406 67.6805 287.708 67.7609C288.342 67.953 288.85 68.4119 289.393 68.8058C290.745 69.7596 292.407 70.2023 293.737 71.1854C295.688 72.634 296.664 75.0266 297.841 77.1718C299.398 80.0461 301.938 82.4908 303.043 85.5637L304.569 89.7435C305.567 92.4713 306.565 95.209 307.918 97.7806C309.801 101.361 312.35 104.587 313.862 108.334C314.013 108.71 314.293 109.019 314.652 109.206C316.711 112.097 318.541 115.145 320.125 118.321C320.961 120.001 321.751 121.746 321.991 123.604C322.346 126.231 321.63 128.888 320.635 131.342C320.475 131.693 320.365 132.066 320.31 132.449C320.245 133.071 320.483 133.683 320.548 134.304C320.61 134.885 320.524 135.472 320.297 136.01C320.095 136.388 319.924 136.782 319.787 137.188C319.611 137.937 319.923 138.699 320.092 139.448C320.665 141.983 320.561 144.61 320.418 147.208C320.343 148.51 321.393 149.542 322.268 150.496C323.894 152.283 325.162 154.373 326.388 156.459C327.054 157.518 327.616 158.638 328.066 159.806C328.531 161.137 328.716 162.547 328.973 163.93C329.799 168.198 332.504 171.971 333.239 176.251C333.579 178.212 334.447 180.043 335.75 181.547C336.142 181.954 336.504 182.389 336.832 182.85C337.057 183.215 337.236 183.606 337.366 184.015C337.685 184.965 337.836 185.965 337.811 186.967C337.76 187.447 337.787 187.932 337.892 188.403C338.198 189.396 339.291 189.943 339.739 190.877C340.188 191.811 339.879 193.009 340.065 194.07C340.205 194.927 340.664 195.7 341.349 196.232Z" fill="#FF7829"/>
<path d="M242.954 106.612C241.888 107.159 240.753 107.719 239.56 107.641C238.486 107.572 237.508 106.99 236.701 106.277C236.051 105.71 235.381 105.004 234.526 105.063C233.953 105.102 233.472 105.489 233.03 105.857L230.672 107.833C230.276 108.1 229.976 108.488 229.817 108.939C229.771 109.246 229.79 109.559 229.873 109.857C229.98 110.385 230.159 111 230.666 111.179C231.173 111.358 231.726 110.974 232.263 110.828C232.59 110.744 232.935 110.75 233.259 110.846C233.584 110.941 233.876 111.123 234.106 111.371C234.298 111.56 234.414 111.812 234.432 112.081C234.432 112.67 233.781 113.057 233.183 113.087C232.585 113.116 232.012 112.921 231.42 112.956C231.385 112.952 231.348 112.955 231.314 112.964C231.279 112.974 231.247 112.991 231.218 113.013C231.19 113.036 231.167 113.063 231.15 113.095C231.132 113.127 231.122 113.161 231.118 113.197C231.081 113.403 231.097 113.615 231.163 113.812C231.23 114.01 231.345 114.189 231.498 114.33C231.807 114.612 232.167 114.833 232.559 114.981C233.013 115.206 233.504 115.35 234.009 115.404C235.007 115.469 235.924 114.916 236.87 114.594C238.145 114.164 239.517 114.151 240.863 114.154C242.21 114.158 243.575 114.177 244.866 113.8C246.157 113.422 247.383 112.585 247.887 111.339C247.947 111.222 247.966 111.09 247.943 110.961C247.892 110.824 247.796 110.709 247.669 110.635C245.855 109.291 245.12 107.657 243.078 106.69L242.954 106.612Z" fill="#FBBEBE"/>
<path d="M268.396 57.9236C267.833 58.0148 267.355 58.3956 266.822 58.6072C266.464 58.7464 266.081 58.808 265.697 58.7878C265.314 58.7676 264.939 58.6661 264.598 58.49C264.36 58.3742 264.152 58.2049 263.99 57.9952C263.554 57.3898 263.707 56.5109 263.974 55.8012C265.235 52.4451 268.604 50.3682 271.94 50.2348C275.277 50.1013 278.522 51.6606 281.153 53.8904C281.935 54.5338 282.637 55.2694 283.243 56.0812C284.616 57.9855 285.237 60.4171 285.419 62.826C285.528 63.8369 285.461 64.859 285.22 65.8469C285.105 66.3269 284.894 66.7787 284.6 67.1753C284.306 67.5719 283.936 67.905 283.51 68.1548C282.58 68.6301 281.465 68.4803 280.525 68.0246C279.585 67.5689 278.779 66.8495 277.972 66.1626C277.607 65.81 277.175 65.5343 276.701 65.3521C276.465 65.2678 276.209 65.2537 275.965 65.3115C275.721 65.3692 275.499 65.4964 275.325 65.6776C274.89 66.2017 275 67.0611 274.604 67.6307C274.207 68.2004 273.381 68.2818 272.685 68.2818C271.989 68.2818 271.284 68.2232 270.867 67.6698C270.487 67.1685 270.542 66.436 270.685 65.8045C270.828 65.173 271.072 64.548 271.01 63.9002C270.877 62.5981 269.739 61.7973 269.385 60.5994C269.154 59.8149 269.661 59.4829 269.609 58.7732C269.57 58.1482 268.9 57.8422 268.396 57.9236Z" fill="#3F3D56"/>
<path opacity="0.1" d="M298.023 147.709V147.791C296.156 151.42 294.254 155.108 291.431 158.061C290.988 158.487 290.582 158.951 290.219 159.448C289.927 159.93 289.666 160.43 289.438 160.945C289 161.869 288.419 162.717 287.715 163.458L285.36 164.636L292.84 125.574L298.023 147.709Z" fill="black"/>
<path opacity="0.1" d="M287.152 88.5878C286.51 89.2795 285.798 89.9034 285.029 90.4498C282.883 92.0774 280.802 93.6138 278.717 95.3326C277.037 96.702 275.333 98.0431 273.605 99.356C273.379 98.9598 273.206 98.5351 273.092 98.093C272.884 97.1327 273.17 96.1399 273.092 95.1633C273.014 94.3007 272.646 93.4934 272.464 92.6503C272.278 91.5533 272.246 90.4357 272.37 89.33C272.451 88.0279 272.734 86.6835 272.623 85.3976C272.443 83.2649 272.716 81.1181 273.422 79.098C274.129 77.0779 275.254 75.23 276.724 73.6756L276.799 73.6007C277.149 73.397 277.519 73.2311 277.904 73.1059C278.471 72.9069 279.076 72.8409 279.673 72.9132C280.269 72.9854 280.841 73.1939 281.345 73.5226C283.113 74.8277 284.689 76.3749 286.027 78.119C286.763 78.9488 287.422 79.8433 287.998 80.7915C288.64 82.0297 288.903 83.4304 288.752 84.8176C288.602 86.2047 288.045 87.5164 287.152 88.5878Z" fill="black"/>
<path d="M281.032 71.8951C280.528 71.5691 279.955 71.3635 279.359 71.2941C278.762 71.2247 278.158 71.2933 277.592 71.4947C276.459 71.9032 275.442 72.5813 274.63 73.4706C273.818 74.2991 273.115 75.2278 272.539 76.2343C271.986 77.2109 271.563 78.233 271.01 79.2063C270.035 80.9479 268.76 82.4844 267.479 84.0078C266.682 84.9551 265.876 85.9154 264.855 86.612C263.834 87.3086 262.692 87.735 262 88.7018C261.782 89.0078 261.626 89.3529 261.411 89.6621C260.732 90.6582 259.577 91.1921 258.572 91.8594C255.691 93.78 253.9 96.9766 251.207 99.1544C250.046 100.092 248.736 100.828 247.594 101.785C246.531 102.673 245.643 103.738 244.583 104.649C243.523 105.561 242.278 106.313 240.896 106.397C241.819 108.458 242.922 110.479 244.505 112.084C246.089 113.689 248.463 114.714 250.625 114.086C251.393 113.865 252.144 113.396 252.436 112.654C252.528 112.272 252.657 111.901 252.82 111.544C253.037 111.257 253.319 111.026 253.643 110.87C262.323 105.797 270.598 100.059 278.392 93.7051C280.483 91.9994 282.557 90.4727 284.703 88.8223C285.473 88.2759 286.185 87.652 286.827 86.9603C287.722 85.8903 288.281 84.5793 288.434 83.1921C288.586 81.8049 288.326 80.4035 287.685 79.164C287.11 78.2158 286.45 77.3214 285.715 76.4915C284.377 74.7475 282.8 73.2002 281.032 71.8951Z" fill="#FF7829"/>
<g opacity="0.1">
<path opacity="0.1" d="M273.336 66.9697C272.685 66.9697 271.934 66.9111 271.518 66.3577C271.141 65.8564 271.193 65.124 271.336 64.4925C271.479 63.861 271.723 63.236 271.661 62.5882C271.528 61.2861 270.39 60.4853 270.035 59.2874C269.804 58.5029 270.312 58.1708 270.259 57.4612C270.214 56.846 269.547 56.54 269.043 56.6214C268.481 56.7125 268.003 57.0934 267.469 57.305C267.112 57.4442 266.728 57.5057 266.345 57.4855C265.961 57.4653 265.587 57.3638 265.245 57.1878C265.007 57.072 264.799 56.9026 264.637 56.693C264.201 56.0875 264.354 55.2086 264.621 54.4989C264.621 54.4729 264.644 54.4501 264.653 54.4241C264.381 54.8596 264.153 55.3208 263.971 55.801C263.704 56.5107 263.551 57.3896 263.987 57.9951C264.149 58.2047 264.357 58.374 264.595 58.4898C264.936 58.6659 265.311 58.7674 265.694 58.7876C266.078 58.8078 266.461 58.7462 266.819 58.607C267.352 58.3955 267.83 58.0146 268.393 57.9234C268.897 57.8421 269.564 58.1481 269.609 58.7633C269.661 59.4729 269.154 59.805 269.385 60.5895C269.733 61.7874 270.871 62.6012 271.011 63.8903C271.076 64.5413 270.838 65.1663 270.685 65.7946C270.533 66.4228 270.49 67.1585 270.868 67.6598C271.284 68.2132 272.028 68.2653 272.685 68.2718C273.342 68.2783 274.188 68.2328 274.604 67.6208C274.783 67.3134 274.902 66.974 274.952 66.6214C274.51 66.9372 273.892 66.9762 273.336 66.9697Z" fill="black"/>
<path opacity="0.1" d="M284.161 66.8524C283.231 67.3276 282.115 67.1779 281.176 66.7222C280.236 66.2664 279.429 65.547 278.623 64.8602C278.258 64.5075 277.825 64.2319 277.352 64.0496C277.115 63.9654 276.86 63.9513 276.616 64.009C276.372 64.0668 276.15 64.1939 275.976 64.3752C275.755 64.702 275.616 65.077 275.57 65.4689C275.739 65.3692 275.927 65.3068 276.122 65.286C276.318 65.2653 276.515 65.2866 276.701 65.3485C277.175 65.5307 277.607 65.8064 277.973 66.159C278.779 66.8459 279.598 67.5685 280.525 68.021C281.452 68.4735 282.58 68.6265 283.51 68.1512C284.333 67.6693 284.932 66.8821 285.178 65.9605C284.911 66.3313 284.563 66.6363 284.161 66.8524Z" fill="black"/>
</g>
<path d="M203.234 206.791C208.622 206.791 212.989 202.419 212.989 197.026C212.989 191.632 208.622 187.26 203.234 187.26C197.846 187.26 193.479 191.632 193.479 197.026C193.479 202.419 197.846 206.791 203.234 206.791Z" fill="#3F3D56"/>
<path opacity="0.1" d="M203.234 206.791C208.622 206.791 212.989 202.419 212.989 197.026C212.989 191.632 208.622 187.26 203.234 187.26C197.846 187.26 193.479 191.632 193.479 197.026C193.479 202.419 197.846 206.791 203.234 206.791Z" fill="black"/>
<path d="M203.234 203.211C206.647 203.211 209.413 200.442 209.413 197.026C209.413 193.61 206.647 190.841 203.234 190.841C199.822 190.841 197.056 193.61 197.056 197.026C197.056 200.442 199.822 203.211 203.234 203.211Z" fill="#65617D"/>
<path opacity="0.1" d="M203.234 203.211C206.647 203.211 209.413 200.442 209.413 197.026C209.413 193.61 206.647 190.841 203.234 190.841C199.822 190.841 197.056 193.61 197.056 197.026C197.056 200.442 199.822 203.211 203.234 203.211Z" fill="black"/>
<path d="M195.755 181.727L202.155 196.212C202.25 196.429 202.405 196.615 202.602 196.747C202.799 196.878 203.03 196.951 203.267 196.955C203.504 196.96 203.737 196.897 203.939 196.774C204.141 196.65 204.304 196.471 204.408 196.258L212.014 180.75L195.755 181.727Z" fill="#3F3D56"/>
<path opacity="0.1" d="M195.755 181.727L202.155 196.212C202.25 196.429 202.405 196.615 202.602 196.747C202.799 196.878 203.03 196.951 203.267 196.955C203.504 196.96 203.737 196.897 203.939 196.774C204.141 196.65 204.304 196.471 204.408 196.258L212.014 180.75L195.755 181.727Z" fill="black"/>
<path d="M142.427 206.791C147.814 206.791 152.182 202.419 152.182 197.026C152.182 191.632 147.814 187.26 142.427 187.26C137.039 187.26 132.671 191.632 132.671 197.026C132.671 202.419 137.039 206.791 142.427 206.791Z" fill="#3F3D56"/>
<path opacity="0.1" d="M142.427 206.791C147.814 206.791 152.182 202.419 152.182 197.026C152.182 191.632 147.814 187.26 142.427 187.26C137.039 187.26 132.671 191.632 132.671 197.026C132.671 202.419 137.039 206.791 142.427 206.791Z" fill="black"/>
<path d="M142.427 203.211C145.839 203.211 148.605 200.442 148.605 197.026C148.605 193.61 145.839 190.841 142.427 190.841C139.015 190.841 136.248 193.61 136.248 197.026C136.248 200.442 139.015 203.211 142.427 203.211Z" fill="#65617D"/>
<path opacity="0.1" d="M142.427 203.211C145.839 203.211 148.605 200.442 148.605 197.026C148.605 193.61 145.839 190.841 142.427 190.841C139.015 190.841 136.248 193.61 136.248 197.026C136.248 200.442 139.015 203.211 142.427 203.211Z" fill="black"/>
<path d="M134.948 181.727L141.347 196.212C141.442 196.429 141.598 196.615 141.795 196.747C141.992 196.878 142.222 196.951 142.459 196.955C142.696 196.96 142.929 196.897 143.132 196.774C143.334 196.65 143.496 196.471 143.6 196.258L151.206 180.75L134.948 181.727Z" fill="#3F3D56"/>
<path opacity="0.1" d="M134.948 181.727L141.347 196.212C141.442 196.429 141.598 196.615 141.795 196.747C141.992 196.878 142.222 196.951 142.459 196.955C142.696 196.96 142.929 196.897 143.132 196.774C143.334 196.65 143.496 196.471 143.6 196.258L151.206 180.75L134.948 181.727Z" fill="black"/>
<path d="M234.893 111.983C234.867 111.737 234.778 111.501 234.637 111.297C234.496 111.094 234.305 110.929 234.084 110.818C233.897 110.738 233.696 110.697 233.493 110.697C233.291 110.696 233.09 110.737 232.903 110.816C232.716 110.895 232.547 111.011 232.406 111.156C232.264 111.302 232.154 111.475 232.081 111.664L226.484 125.574L224.858 188.074H227.46L228.435 125.707L234.757 112.927C234.9 112.635 234.948 112.305 234.893 111.983Z" fill="#3F3D56"/>
<path d="M119.827 183.191L128.607 177.657L223.395 176.844L225.834 183.191H119.827Z" fill="#FF7829"/>
<path d="M119.827 189.051V183.192L227.551 182.15L227.447 186.121H121.778V189.051H119.827Z" fill="#3F3D56"/>
<path d="M133.484 210.21C138.872 210.21 143.239 205.837 143.239 200.444C143.239 195.05 138.872 190.678 133.484 190.678C128.096 190.678 123.729 195.05 123.729 200.444C123.729 205.837 128.096 210.21 133.484 210.21Z" fill="#3F3D56"/>
<path d="M133.484 206.629C136.897 206.629 139.663 203.86 139.663 200.444C139.663 197.029 136.897 194.26 133.484 194.26C130.072 194.26 127.306 197.029 127.306 200.444C127.306 203.86 130.072 206.629 133.484 206.629Z" fill="#65617D"/>
<path d="M126.005 185.144L132.405 199.63C132.5 199.847 132.655 200.033 132.852 200.164C133.049 200.296 133.28 200.368 133.517 200.373C133.754 200.378 133.987 200.315 134.189 200.191C134.391 200.068 134.554 199.889 134.658 199.676L142.264 184.168L126.005 185.144Z" fill="#3F3D56"/>
<path d="M209.25 210.21C214.638 210.21 219.005 205.837 219.005 200.444C219.005 195.05 214.638 190.678 209.25 190.678C203.862 190.678 199.495 195.05 199.495 200.444C199.495 205.837 203.862 210.21 209.25 210.21Z" fill="#3F3D56"/>
<path d="M209.25 206.629C212.662 206.629 215.428 203.86 215.428 200.444C215.428 197.029 212.662 194.26 209.25 194.26C205.838 194.26 203.072 197.029 203.072 200.444C203.072 203.86 205.838 206.629 209.25 206.629Z" fill="#65617D"/>
<path d="M201.771 185.144L208.171 199.63C208.266 199.847 208.421 200.033 208.618 200.164C208.815 200.296 209.046 200.368 209.283 200.373C209.52 200.378 209.753 200.315 209.955 200.191C210.157 200.068 210.32 199.889 210.424 199.676L218.03 184.168L201.771 185.144Z" fill="#3F3D56"/>
<path d="M172.668 157.637H132.021V180.099H172.668V157.637Z" fill="#65617D"/>
<path opacity="0.1" d="M158.685 161.544H146.329V164.148H158.685V161.544Z" fill="black"/>
<path opacity="0.1" d="M157.141 161.87H147.873V163.823H157.141V161.87Z" fill="black"/>
<path d="M213.965 157.637H173.318V180.099H213.965V157.637Z" fill="#65617D"/>
<path opacity="0.1" d="M199.983 161.544H187.626V164.148H199.983V161.544Z" fill="black"/>
<path opacity="0.1" d="M198.438 161.87H189.17V163.823H198.438V161.87Z" fill="black"/>
<path d="M172.668 134.526H132.021V156.987H172.668V134.526Z" fill="#65617D"/>
<path opacity="0.1" d="M158.685 138.432H146.329V141.036H158.685V138.432Z" fill="black"/>
<path opacity="0.1" d="M157.141 138.758H147.873V140.711H157.141V138.758Z" fill="black"/>
<path d="M213.965 134.526H173.318V156.987H213.965V134.526Z" fill="#65617D"/>
<path opacity="0.1" d="M199.983 138.432H187.626V141.036H199.983V138.432Z" fill="black"/>
<path opacity="0.1" d="M198.438 138.758H189.17V140.711H198.438V138.758Z" fill="black"/>
<path d="M172.668 111.088H132.021V133.549H172.668V111.088Z" fill="#65617D"/>
<path opacity="0.1" d="M158.685 114.995H146.329V117.599H158.685V114.995Z" fill="black"/>
<path opacity="0.1" d="M157.141 115.32H147.873V117.273H157.141V115.32Z" fill="black"/>
<path d="M213.965 111.088H173.318V133.549H213.965V111.088Z" fill="#65617D"/>
<path opacity="0.1" d="M199.983 114.995H187.626V117.599H199.983V114.995Z" fill="black"/>
<path opacity="0.1" d="M198.438 115.32H189.17V117.273H198.438V115.32Z" fill="black"/>
<path d="M213.965 87.6504H173.318V110.111H213.965V87.6504Z" fill="#65617D"/>
<path opacity="0.1" d="M199.983 91.5569H187.626V94.1611H199.983V91.5569Z" fill="black"/>
<path opacity="0.1" d="M198.438 91.8826H189.17V93.8357H198.438V91.8826Z" fill="black"/>
</g>
<defs>
<linearGradient id="paint0_linear" x1="285.448" y1="206.512" x2="285.448" y2="49.2385" gradientUnits="userSpaceOnUse">
<stop stop-color="#808080" stop-opacity="0.25"/>
<stop offset="0.54" stop-color="#808080" stop-opacity="0.12"/>
<stop offset="1" stop-color="#808080" stop-opacity="0.1"/>
</linearGradient>
<clipPath id="clip0">
<rect width="372" height="212" fill="white"/>
</clipPath>
</defs>
</svg>
