<svg width="287" height="198" viewBox="0 0 287 198" fill="none" xmlns="http://www.w3.org/2000/svg">
<path d="M187.926 166.638L136.751 147.787V147.521H136.028H51.47H51.4483L0 166.638H0.148025V171.735H188.074V166.638H187.926Z" fill="#E6E6E6"/>
<path d="M223.753 198C258.684 198 287 195.612 287 192.667C287 189.722 258.684 187.335 223.753 187.335C188.823 187.335 160.507 189.722 160.507 192.667C160.507 195.612 188.823 198 223.753 198Z" fill="#E6E6E6"/>
<path d="M191.347 96.584L188.177 99.6584C188.177 99.6584 179.589 106.901 183.576 109.559C187.562 112.216 192.006 101.562 192.006 101.562L193.719 98.8135L191.347 96.584Z" fill="#9F616A"/>
<path d="M209.718 43.7363L205.239 44.8263C205.239 44.8263 204.185 49.4588 204.448 53.8188C204.712 58.1787 203.417 66.2707 203.417 66.2707L200.38 73.5769L187.662 98.4616L195.567 102.017L209.718 73.4387L211.035 55.1813L209.718 43.7363Z" fill="#E6E6E6"/>
<path d="M216.378 30.7923C224.123 30.7923 230.401 23.8992 230.401 15.3962C230.401 6.89309 224.123 0 216.378 0C208.633 0 202.354 6.89309 202.354 15.3962C202.354 23.8992 208.633 30.7923 216.378 30.7923Z" fill="#2F2E41"/>
<path d="M228.82 38.695C232.895 38.695 236.198 35.2789 236.198 31.065C236.198 26.8511 232.895 23.4351 228.82 23.4351C224.746 23.4351 221.443 26.8511 221.443 31.065C221.443 35.2789 224.746 38.695 228.82 38.695Z" fill="#2F2E41"/>
<path d="M223.683 20.8462L227.635 31.4736L217.623 35.8337L216.743 33.773L213.67 26.5687L223.683 20.8462Z" fill="#9F616A"/>
<path d="M237.12 79.1607L240.809 97.1456L245.815 137.475L242.126 174.263C242.126 174.263 231.06 178.078 226.844 170.993L231.85 140.745L221.838 105.048L220.257 140.2L222.892 170.72C222.892 170.72 214.724 175.625 208.137 170.72L203.658 110.226C203.658 110.226 200.233 83.7932 208.137 75.0732L237.12 79.1607Z" fill="#2F2E41"/>
<path d="M215.778 27.795C220.653 27.795 224.605 23.7079 224.605 18.6663C224.605 13.6247 220.653 9.5376 215.778 9.5376C210.903 9.5376 206.952 13.6247 206.952 18.6663C206.952 23.7079 210.903 27.795 215.778 27.795Z" fill="#9F616A"/>
<path d="M215.778 36.378L216.641 33.5329C216.641 33.5329 224.593 32.178 226.904 29.5093L231.06 33.9255C231.06 33.9255 242.39 37.7405 243.971 39.3755C245.551 41.0105 237.647 66.3528 237.647 66.3528C237.647 66.3528 239.491 70.7128 236.33 72.6203C236.33 72.6203 241.072 79.9777 237.384 80.7952C233.695 81.6127 207.083 75.8903 207.083 75.8903C207.083 75.8903 205.239 72.6203 209.455 71.2578C209.455 71.2578 207.874 67.4428 209.718 66.0803C211.562 64.7178 209.982 57.0879 209.982 57.0879C209.982 57.0879 204.448 45.6429 205.239 44.8255C206.029 44.008 215.778 36.378 215.778 36.378Z" fill="#E6E6E6"/>
<path d="M241.599 103.14L241.336 105.32C241.336 105.32 241.599 118.4 236.857 117.855C232.114 117.31 235.012 104.503 235.012 104.503L235.803 101.505L241.599 103.14Z" fill="#9F616A"/>
<path d="M235.803 171.81C235.803 171.81 234.749 182.71 236.593 183.528C238.437 184.345 250.821 191.158 247.132 194.155C243.444 197.152 231.06 189.25 229.743 190.613C228.425 191.975 224.209 190.885 223.946 188.433C223.683 185.98 224.209 181.62 226.317 178.895C228.425 176.17 228.425 170.72 228.425 170.72L235.803 171.81Z" fill="#2F2E41"/>
<path d="M220.784 167.723L222.629 176.715C222.629 176.715 226.581 185.708 223.156 187.615C219.73 189.522 219.203 189.795 218.94 190.885C218.676 191.975 211.562 197.697 209.455 193.337C207.347 188.978 214.988 182.71 214.988 182.71L216.305 179.713L214.988 169.085L220.784 167.723Z" fill="#2F2E41"/>
<path d="M208.563 17.6648C214.111 13.8361 215.77 12.9209 222.129 14.3998L222.51 4.80518L206.077 8.37036L208.563 17.6648Z" fill="#2F2E41"/>
<path d="M241.599 39.648L244.234 39.3755C244.234 39.3755 246.869 46.4605 246.869 50.0029V73.4378L242.653 104.23L234.485 102.868L238.964 75.3453L237.647 58.7229L241.599 39.648Z" fill="#E6E6E6"/>
<path d="M270.501 83.1748H266.032V191.601H270.501V83.1748Z" fill="#3F3D56"/>
<path d="M280.641 52.9575H255.892V87.0851H280.641V52.9575Z" fill="#3F3D56"/>
<path d="M276.86 73.9327C276.7 73.9362 276.545 73.9903 276.415 74.0876L275.007 62.192C274.949 61.7042 274.721 61.2551 274.365 60.9294C274.009 60.6036 273.55 60.4238 273.075 60.4238H263.458C262.983 60.4238 262.524 60.6036 262.168 60.9294C261.813 61.2551 261.584 61.7042 261.526 62.192L260.118 74.0876C259.989 73.9903 259.833 73.9362 259.673 73.9327C258.914 73.9327 258.299 75.206 258.299 76.7766C258.299 78.3473 258.914 79.6206 259.673 79.6206C260.25 79.6206 260.743 78.8849 260.948 77.8431H275.586C275.79 78.8849 276.283 79.6206 276.86 79.6206C277.619 79.6206 278.235 78.3473 278.235 76.7766C278.235 75.206 277.619 73.9327 276.86 73.9327ZM263.798 74.6437C263.458 74.6437 263.126 74.5394 262.843 74.3441C262.561 74.1488 262.34 73.8712 262.21 73.5464C262.08 73.2216 262.046 72.8642 262.113 72.5194C262.179 72.1746 262.343 71.8579 262.583 71.6093C262.823 71.3607 263.13 71.1914 263.463 71.1229C263.796 71.0543 264.142 71.0895 264.456 71.224C264.77 71.3585 265.038 71.5864 265.227 71.8787C265.416 72.171 265.517 72.5146 265.517 72.8662C265.517 73.0996 265.472 73.3307 265.386 73.5464C265.3 73.7621 265.173 73.958 265.013 74.1231C264.854 74.2881 264.664 74.419 264.456 74.5084C264.247 74.5977 264.024 74.6437 263.798 74.6437V74.6437ZM272.391 74.6437C272.052 74.6437 271.719 74.5394 271.437 74.3441C271.154 74.1488 270.934 73.8712 270.804 73.5464C270.674 73.2216 270.64 72.8642 270.706 72.5194C270.772 72.1746 270.936 71.8579 271.176 71.6093C271.417 71.3607 271.723 71.1914 272.056 71.1229C272.39 71.0543 272.735 71.0895 273.049 71.224C273.363 71.3585 273.632 71.5864 273.821 71.8787C274.009 72.171 274.11 72.5146 274.11 72.8662C274.11 73.0996 274.066 73.3307 273.979 73.5464C273.893 73.7621 273.766 73.958 273.607 74.1231C273.447 74.2881 273.258 74.419 273.049 74.5084C272.841 74.5977 272.617 74.6437 272.391 74.6437V74.6437ZM274.454 67.8529C274.454 67.9977 274.426 68.1411 274.373 68.2749C274.319 68.4087 274.241 68.5303 274.142 68.6327C274.043 68.7351 273.925 68.8163 273.796 68.8718C273.666 68.9272 273.528 68.9557 273.388 68.9557H263.146C263.006 68.9557 262.867 68.9272 262.738 68.8718C262.608 68.8164 262.491 68.7351 262.392 68.6327C262.293 68.5303 262.214 68.4087 262.161 68.2749C262.107 68.1411 262.08 67.9977 262.08 67.8529V64.3707C262.08 64.2258 262.107 64.0824 262.161 63.9486C262.214 63.8148 262.293 63.6932 262.392 63.5908C262.491 63.4884 262.608 63.4072 262.738 63.3517C262.867 63.2963 263.006 63.2678 263.146 63.2678H273.388C273.528 63.2678 273.666 63.2963 273.796 63.3517C273.925 63.4072 274.043 63.4884 274.142 63.5908C274.241 63.6932 274.319 63.8148 274.373 63.9486C274.426 64.0824 274.454 64.2258 274.454 64.3707V67.8529Z" fill="#FF661B"/>
<path d="M183.922 95.182L184.925 97.1975C184.934 97.2162 184.936 97.2379 184.929 97.2578C184.923 97.2777 184.91 97.2944 184.892 97.304L184.843 97.3297L190.068 107.829C190.213 108.12 190.24 108.458 190.143 108.769C190.047 109.08 189.835 109.339 189.554 109.489L183.211 112.865C183.071 112.939 182.92 112.984 182.764 112.998C182.608 113.011 182.451 112.992 182.302 112.943C182.153 112.894 182.015 112.814 181.896 112.71C181.776 112.605 181.678 112.477 181.606 112.333L176.565 102.202L176.53 102.221C176.517 102.227 176.502 102.229 176.489 102.224C176.475 102.22 176.464 102.21 176.457 102.197L175.886 101.05C175.883 101.043 175.881 101.036 175.88 101.029C175.88 101.021 175.881 101.014 175.883 101.007C175.885 101 175.888 100.994 175.893 100.988C175.898 100.982 175.903 100.978 175.91 100.974L175.945 100.956L175.73 100.524L175.694 100.542C175.681 100.549 175.665 100.551 175.651 100.546C175.637 100.541 175.625 100.531 175.618 100.517L175.055 99.3855C175.048 99.3718 175.047 99.3558 175.052 99.3411C175.056 99.3263 175.066 99.3141 175.079 99.307L175.115 99.2882L174.821 98.6984L174.785 98.7175C174.779 98.7206 174.773 98.7225 174.767 98.7231C174.76 98.7236 174.753 98.7229 174.747 98.7208C174.741 98.7187 174.735 98.7154 174.73 98.711C174.725 98.7066 174.721 98.7012 174.718 98.6952L174.411 98.0777C174.405 98.0655 174.403 98.0512 174.407 98.0381C174.411 98.025 174.42 98.014 174.432 98.0077L174.468 97.9886L173.846 96.7384C173.701 96.4479 173.674 96.1099 173.771 95.7988C173.867 95.4877 174.079 95.229 174.36 95.0795L180.703 91.703C180.984 91.5535 181.311 91.5255 181.612 91.6251C181.913 91.7248 182.163 91.9439 182.308 92.2344L183.77 95.1736L183.819 95.1479C183.837 95.1384 183.858 95.1366 183.877 95.143C183.896 95.1494 183.912 95.1634 183.922 95.182V95.182Z" fill="#3F3D56"/>
<path d="M181.908 92.7215L189.606 108.191C189.698 108.375 189.715 108.589 189.654 108.787C189.593 108.984 189.458 109.148 189.28 109.243L183.208 112.475C183.119 112.522 183.023 112.551 182.924 112.56C182.825 112.568 182.726 112.557 182.631 112.525C182.536 112.494 182.449 112.444 182.373 112.377C182.297 112.311 182.235 112.23 182.19 112.138L174.492 96.669C174.446 96.5778 174.419 96.4781 174.411 96.3758C174.402 96.2735 174.414 96.1705 174.444 96.0728C174.474 95.975 174.523 95.8844 174.587 95.806C174.651 95.7277 174.73 95.6632 174.818 95.6162L175.727 95.1325L175.787 95.2531C175.862 95.4049 175.993 95.5194 176.15 95.5715C176.308 95.6236 176.478 95.609 176.625 95.5309L179.713 93.8871C179.86 93.809 179.971 93.6737 180.021 93.5112C180.072 93.3486 180.057 93.172 179.982 93.0202L179.922 92.8996L180.89 92.3841C180.979 92.3371 181.075 92.3085 181.174 92.3C181.273 92.2915 181.372 92.3033 181.467 92.3346C181.561 92.366 181.649 92.4162 181.725 92.4826C181.801 92.549 181.863 92.6302 181.908 92.7215V92.7215Z" fill="#FF661B"/>
<path d="M126.65 131.199C126.044 131.212 125.456 131.417 124.966 131.786L119.633 86.7423C119.414 84.8951 118.55 83.1945 117.202 81.9611C115.855 80.7278 114.118 80.0469 112.318 80.0469H75.9034C74.104 80.0469 72.3667 80.7278 71.0192 81.9611C69.6717 83.1945 68.8071 84.8951 68.5883 86.7423L63.2555 131.786C62.7653 131.417 62.1778 131.212 61.5718 131.199C58.6964 131.199 56.3656 136.02 56.3656 141.968C56.3656 147.915 58.6964 152.737 61.5718 152.737C63.7561 152.737 65.6233 149.951 66.3961 146.006H121.825C122.598 149.951 124.465 152.737 126.65 152.737C129.525 152.737 131.856 147.915 131.856 141.968C131.856 136.02 129.525 131.199 126.65 131.199ZM77.1905 133.891C75.9034 133.891 74.6452 133.496 73.575 132.757C72.5048 132.017 71.6706 130.966 71.1781 129.736C70.6855 128.506 70.5567 127.153 70.8078 125.847C71.0589 124.542 71.6787 123.343 72.5888 122.401C73.4989 121.46 74.6585 120.819 75.9209 120.559C77.1833 120.3 78.4918 120.433 79.6809 120.942C80.8701 121.452 81.8865 122.314 82.6015 123.421C83.3166 124.528 83.6983 125.829 83.6983 127.161C83.6983 128.044 83.53 128.92 83.2029 129.736C82.8759 130.553 82.3965 131.295 81.7922 131.92C81.1879 132.545 80.4705 133.041 79.6809 133.379C78.8914 133.717 78.0451 133.891 77.1905 133.891V133.891ZM109.729 133.891C108.442 133.891 107.184 133.496 106.114 132.757C105.044 132.017 104.21 130.966 103.717 129.736C103.225 128.506 103.096 127.153 103.347 125.847C103.598 124.542 104.218 123.343 105.128 122.401C106.038 121.46 107.197 120.819 108.46 120.559C109.722 120.3 111.031 120.433 112.22 120.942C113.409 121.452 114.425 122.314 115.141 123.421C115.856 124.528 116.237 125.829 116.237 127.161C116.237 128.044 116.069 128.92 115.742 129.736C115.415 130.553 114.936 131.295 114.331 131.92C113.727 132.545 113.009 133.041 112.22 133.379C111.43 133.717 110.584 133.891 109.729 133.891V133.891ZM117.539 108.177C117.539 108.726 117.434 109.269 117.232 109.775C117.029 110.282 116.731 110.742 116.356 111.13C115.981 111.518 115.536 111.826 115.046 112.035C114.556 112.245 114.031 112.353 113.501 112.353H74.7206C74.1903 112.353 73.6652 112.245 73.1753 112.035C72.6854 111.826 72.2403 111.518 71.8654 111.13C71.4904 110.742 71.193 110.282 70.9901 109.775C70.7872 109.269 70.6827 108.726 70.6827 108.177V94.9918C70.6827 94.4434 70.7872 93.9004 70.9901 93.3937C71.193 92.887 71.4904 92.4267 71.8654 92.0389C72.2403 91.6511 72.6854 91.3435 73.1753 91.1336C73.6652 90.9237 74.1903 90.8157 74.7206 90.8157H113.501C114.031 90.8157 114.556 90.9237 115.046 91.1336C115.536 91.3435 115.981 91.6511 116.356 92.0389C116.731 92.4267 117.029 92.887 117.232 93.3937C117.434 93.9004 117.539 94.4434 117.539 94.9918V108.177Z" fill="#3F3D56"/>
<path d="M100.927 82.1777H87.2939L90.2156 77.6455H98.006L100.927 82.1777Z" fill="#FF661B"/>
<path d="M92.4577 71.1225C100.899 71.1225 107.742 64.0455 107.742 55.3154C107.742 46.5854 100.899 39.5083 92.4577 39.5083C84.0166 39.5083 77.1737 46.5854 77.1737 55.3154C77.1737 64.0455 84.0166 71.1225 92.4577 71.1225Z" fill="#FF661B"/>
<path d="M91.0013 61.9884L86.4268 55.9052L89.087 53.7652L91.2531 56.6455L98.5703 48.6567L101.017 51.0544L91.0013 61.9884Z" fill="white"/>
<path d="M95.5032 147.973H92.4224V149.884H95.5032V147.973Z" fill="white"/>
<path d="M95.5031 166.345H92.4224V162.23H95.5031V166.345ZM95.5031 158.114H92.4224V153.999H95.5031V158.114Z" fill="white"/>
<path d="M95.5032 170.461H92.4224V172.373H95.5032V170.461Z" fill="white"/>
</svg>
