<svg width="254" height="212" viewBox="0 0 254 212" fill="none" xmlns="http://www.w3.org/2000/svg">
<g clip-path="url(#clip0)">
<path opacity="0.1" d="M89.099 207.894C113.569 207.894 133.406 203.885 133.406 198.94C133.406 193.996 113.569 189.987 89.099 189.987C64.6291 189.987 44.7923 193.996 44.7923 198.94C44.7923 203.885 64.6291 207.894 89.099 207.894Z" fill="#FF661B"/>
<path opacity="0.1" d="M147.576 29.8974C131.292 29.2962 115.784 23.6871 100.975 17.552C86.1654 11.4169 71.4971 4.62155 55.6036 1.37149C45.3811 -0.719181 33.6893 -1.01708 25.4544 4.82283C17.5265 10.4588 14.9652 20.1606 13.589 29.1701C12.5524 35.9493 11.9435 43.0855 14.7815 49.4327C16.7541 53.8394 20.2513 57.5431 22.6717 61.7646C31.0927 76.4503 25.1399 94.5605 16.0169 108.9C11.7397 115.625 6.77061 122.05 3.4671 129.203C0.163597 136.355 -1.36361 144.578 1.52727 151.894C4.39047 159.14 11.2164 164.572 18.6109 168.397C33.6289 176.166 51.3188 178.388 68.5811 179.65C106.781 182.436 145.183 181.231 183.484 180.02C197.659 179.575 211.895 179.121 225.838 176.783C233.583 175.485 241.576 173.423 247.199 168.448C254.335 162.133 256.103 151.441 251.32 143.523C243.299 130.239 221.129 126.94 215.515 112.687C212.431 104.839 215.598 96.101 220.084 88.8252C229.706 73.2137 245.831 59.5183 246.678 41.6765C247.262 29.4224 239.51 17.1494 227.524 11.3498C214.962 5.27102 197.539 6.0359 188.275 16.0974C178.726 26.4461 161.955 30.4315 147.576 29.8974Z" fill="#FF661B"/>
<path d="M134.636 97.083L126.93 91.541L130.817 85.3683L110.462 83.6373L103.148 89.6704L93.9926 84.1955L86.3566 85.1751L86.266 83.028C86.1715 80.7898 85.9606 78.5588 85.6345 76.3454C85.6672 75.6745 85.6898 74.9042 85.6873 74.0669C85.6873 70.5377 85.2395 65.8599 83.272 62.7413L83.7248 58.399L80.0515 53.7695C80.6414 52.516 81.314 51.3089 82.0643 50.1571C82.1901 49.9639 82.3159 49.776 82.4517 49.5935C87.2196 49.2258 90.981 45.0445 90.981 39.9319C90.981 39.6957 90.981 39.4595 90.9558 39.226C90.9558 39.1321 90.9382 39.0355 90.9281 38.9416C91.3936 39.2099 91.8641 39.4783 92.3346 39.7467C92.4226 39.8809 92.5233 40.0151 92.634 40.1734L92.6566 40.2029L92.7975 40.3881L92.8428 40.4445C92.8931 40.5089 92.946 40.5706 92.9988 40.635L93.034 40.678C93.1674 40.8363 93.3083 40.9973 93.4592 41.1557C93.4772 41.1713 93.494 41.1883 93.5096 41.2067L93.6983 41.3945L93.7511 41.4455C93.9121 41.5985 94.0832 41.7461 94.2543 41.8857L94.3096 41.9286L94.526 42.087L94.5965 42.1353C94.6795 42.1889 94.765 42.2453 94.8481 42.2963L94.8783 42.3151C94.9764 42.3714 95.077 42.4251 95.1777 42.4761L95.228 42.4976C95.3135 42.5369 95.3974 42.5745 95.4796 42.6103L95.5576 42.6398C95.6456 42.672 95.7312 42.7015 95.8218 42.7284L95.8771 42.7445C95.9878 42.774 96.0985 42.7982 96.2117 42.8169H96.2243C96.3309 42.8353 96.4385 42.847 96.5464 42.8518H96.6193C96.7157 42.8572 96.8123 42.8572 96.9087 42.8518H96.9716C97.0923 42.8444 97.2124 42.8292 97.3314 42.8062C97.8943 42.7273 98.4348 42.5204 98.9164 42.1997C99.0391 42.1122 99.1478 42.0044 99.2385 41.8803C99.7417 41.1772 99.1882 40.4069 99.1882 40.4069C98.9919 39.9077 97.7188 39.5561 97.7188 39.5561C97.7188 39.5561 93.6932 37.7634 93.6932 36.3356C93.6932 34.9078 92.6868 27.5006 82.2983 25.8071C82.2983 25.8071 75.5403 25.4019 73.6407 29.2612L73.6005 29.712C73.0419 30.0851 72.579 30.8339 72.028 31.0539C71.7899 31.1085 71.5603 31.1988 71.3461 31.3223V31.2713C71.2825 31.3307 71.2304 31.4027 71.1926 31.4833C71.0743 31.7345 71.0033 32.0081 70.9838 32.2885C70.9271 32.631 70.8156 32.9605 70.6542 33.2627C70.6092 33.3485 70.5588 33.431 70.5033 33.5096V33.5096L70.4605 33.582C70.7526 33.6063 71.0459 33.5557 71.3159 33.4344C71.2734 33.8019 71.1889 34.1624 71.0643 34.508C71.2243 34.5135 71.3823 34.4699 71.5197 34.3823C71.6571 34.2948 71.768 34.167 71.8393 34.0141V33.9927L71.872 33.9444C71.9352 33.8201 71.9875 33.6898 72.028 33.5552L72.0003 33.5874C72.0506 33.413 72.0959 33.2358 72.1512 33.0641C72.1766 32.9673 72.2184 32.8764 72.2745 32.7957C72.3417 32.7235 72.4238 32.6691 72.5143 32.6369C72.6047 32.6048 72.701 32.5957 72.7953 32.6105L72.6922 34.9374H72.7375C72.6769 35.1066 72.6028 35.27 72.5161 35.4258C72.1588 36.0431 71.5097 36.4644 71.2706 37.1407C71.1676 37.4669 71.1282 37.8122 71.1549 38.1552C71.1549 38.3565 71.1776 38.5605 71.1926 38.7617V38.7456C71.2279 39.2824 71.2379 39.7923 70.9662 40.2244C70.78 40.5196 70.4806 40.7424 70.3775 41.0778C70.3489 41.1713 70.3361 41.2695 70.3397 41.3677C70.3599 41.6618 70.4175 41.9516 70.5108 42.2292C70.5119 42.2239 70.5119 42.2184 70.5108 42.2131C70.5736 42.4173 70.5883 42.6348 70.5536 42.8465C70.4404 43.3832 69.829 43.8314 69.8592 44.344C69.8574 44.4114 69.8668 44.4786 69.8868 44.5426C70.0045 44.793 70.2082 44.9853 70.4555 45.0794C70.8434 45.3147 71.2889 45.4194 71.7336 45.38C71.9003 45.3478 72.0614 45.289 72.2116 45.2055C72.0355 45.6376 71.8544 46.0643 71.6707 46.4696C71.643 46.534 71.6128 46.5984 71.5826 46.6628C71.5826 46.6628 70.0277 45.5544 69.1446 47.8141C68.8868 48.2837 68.7024 48.795 68.5987 49.3278C68.5544 49.5409 68.4921 49.7493 68.4125 49.9504C68.0204 50.6584 67.4336 51.2206 66.7318 51.5607C64.9303 52.441 57.6541 62.1214 57.5257 64.628C57.4628 65.6065 57.3077 66.5758 57.0628 67.5212C56.49 69.7475 56.3429 72.0739 56.6301 74.3621C56.72 75.1016 56.8689 75.8316 57.0754 76.544C57.8478 79.048 58.3636 83.7205 58.3636 83.7205L59.1989 91.8309C59.1679 92.9502 59.2133 94.0706 59.3347 95.1829C58.4818 96.2215 55.0576 100.55 56.3659 101.729C57.3723 102.657 59.1335 102.504 60.1223 102.314C59.2895 104.512 57.9786 108.333 57.805 110.958C57.5534 114.842 58.2353 119.986 59.3146 121.962C60.394 123.937 63.9919 129.004 63.9919 129.004C63.9919 129.004 63.8233 135.955 65.109 138.48C66.3946 141.006 66.9129 146.245 66.9129 146.245C66.9129 146.245 68.1131 150.667 67.5117 152.294C66.9104 153.92 68.6263 155.273 66.8249 156.354C65.0234 157.436 62.7188 181.813 62.7188 181.813C62.7188 181.813 61.7904 197.789 62.7188 198.602C62.7684 198.641 62.8215 198.674 62.8773 198.702V204.069C62.8773 204.069 62.2332 205.197 64.8523 205.425C66.6462 205.578 71.7311 205.924 74.7478 206.125L77.0851 206.281C77.0851 206.281 82.6203 207.456 85.0659 206.281C87.5114 205.105 91.8465 205.132 91.2024 202.027C91.117 201.604 91.0026 201.189 90.8602 200.784C90.1532 198.857 88.9531 198.637 86.7415 198.101C86.6132 198.071 86.4899 198.044 86.3767 198.023C84.0469 197.591 83.282 198.747 81.9762 197.242C80.8415 195.94 77.2285 194.483 75.9982 194.021C76.0284 193.925 76.0661 193.831 76.0963 193.731C75.7479 193.668 75.4239 193.5 75.1629 193.246L78.4966 193.471L80.4817 193.603C80.4817 193.603 85.1866 194.604 87.2749 193.603C89.3632 192.602 93.0365 192.628 92.4881 189.99C92.4158 189.631 92.3191 189.277 92.1987 188.933C91.5974 187.296 90.5759 187.116 88.6965 186.662C88.5883 186.638 88.4876 186.614 88.387 186.595C86.4069 186.228 85.7578 187.21 84.6482 185.932C83.6972 184.843 80.6956 183.622 79.6162 183.206C79.6162 182.61 78.8614 181.762 78.3859 180.911C77.8273 179.918 78.8589 176.442 78.8589 176.442L79.4476 162.022C79.6718 161.916 79.909 161.844 80.1521 161.808C80.1521 161.808 82.814 159.097 82.2127 156.209C82.0902 155.336 82.0263 154.454 82.0215 153.571C82.8971 152.704 84.1022 151.424 84.4444 150.635C85.003 149.35 84.4444 143.121 84.4444 143.121V119.302L88.8977 119.782L92.9384 120.225L94.1687 120.359L98.2094 120.794L107.496 121.795L115.864 120.105L119.485 119.375L126.93 117.872V98.441L134.636 97.083ZM73.3438 32.6964L72.8255 32.6374C72.9966 32.6454 73.1778 32.6803 73.3438 32.6964Z" fill="url(#paint0_linear)"/>
<path d="M116.574 109.7C114.058 113.54 105.013 111.506 105.013 111.506L98.0031 104.509L97.0596 103.562L98.6421 99.9766C98.6421 99.9766 99.1453 100.124 100.008 100.387C104.54 101.791 118.697 106.471 116.574 109.7Z" fill="#EFB7B9"/>
<path opacity="0.1" d="M100.003 100.387C99.6938 101.536 98.8459 103.256 98.0031 104.509L97.0596 103.562L98.6421 99.9766C98.6421 99.9766 99.1504 100.124 100.003 100.387Z" fill="black"/>
<path d="M75.963 59.9531C75.963 59.9531 69.5019 63.0099 69.8189 70.5165C70.047 75.3525 70.541 80.1702 71.2983 84.9445C71.2983 84.9445 69.9774 96.2405 75.4774 99.1524C80.9774 102.064 86.0672 104.458 86.0672 104.458C86.0672 104.458 94.6719 105.446 95.7412 105.854C96.8105 106.262 100.152 100.025 99.5354 99.0531C98.9189 98.0816 91.0212 96.0446 90.0148 94.4236C89.0084 92.8026 86.6811 91.8016 86.6811 91.8016C86.6811 91.8016 84.2784 90.2503 84.1148 88.8494C83.9513 87.4485 84.5853 86.4045 84.7463 85.7899C84.9074 85.1753 85.3149 79.2414 85.3149 79.2414C85.3149 79.2414 88.0272 58.1201 75.963 59.9531Z" fill="#DCE6F2"/>
<path opacity="0.1" d="M80.2276 84.6357C80.2276 84.6357 71.3637 86.2192 72.2217 89.5283C72.2217 89.5283 75.4396 85.9562 80.2276 84.6357Z" fill="black"/>
<path opacity="0.1" d="M80.2956 85.9751C80.2956 85.9751 75.4221 90.2182 76.3756 90.4356C77.3292 90.6529 80.2956 85.9751 80.2956 85.9751Z" fill="black"/>
<path opacity="0.1" d="M82.6379 87.4546C82.6379 87.4546 81.3322 90.3075 82.1348 90.1142C82.9373 89.921 82.6379 87.4546 82.6379 87.4546Z" fill="black"/>
<path opacity="0.1" d="M100.33 100.69L99.792 100.527C99.9455 99.99 99.9882 99.5552 99.8624 99.3539C99.246 98.3824 91.3533 96.3481 90.3494 94.7244C89.3456 93.1007 87.0158 92.1023 87.0158 92.1023C87.0158 92.1023 84.613 90.5511 84.4494 89.1502C84.2859 87.7492 84.9199 86.7052 85.081 86.0907C85.242 85.4761 85.6496 79.5395 85.6496 79.5395C85.6496 79.5395 88.3543 58.4209 76.2901 60.2539C76.2901 60.2539 69.829 63.3134 70.1435 70.8199C70.3717 75.6561 70.8665 80.4738 71.6254 85.248C71.6254 85.248 70.3045 96.544 75.8045 99.4559C81.3044 102.368 86.3943 104.762 86.3943 104.762C86.3943 104.762 94.9965 105.747 96.0683 106.157C96.4734 106.313 97.2055 105.511 97.9226 104.407L98.3302 104.813L105.34 111.807C105.34 111.807 114.385 113.844 116.901 110.003C119.027 106.772 104.872 102.091 100.33 100.69Z" fill="black"/>
<path d="M72.2443 31.7784C71.998 31.8298 71.7621 31.927 71.5474 32.0656C71.2958 32.2883 71.2958 32.6694 71.2329 33.0022C71.159 33.4651 70.9869 33.9039 70.7297 34.285C71.016 34.3075 71.3032 34.2569 71.5675 34.1374C71.5244 34.5048 71.44 34.8652 71.3159 35.211C71.4727 35.2152 71.6273 35.1711 71.7611 35.084C71.895 34.9969 72.0025 34.8705 72.0707 34.7198C72.2038 34.4174 72.3092 34.1019 72.3852 33.7778C72.4088 33.6809 72.4499 33.5897 72.506 33.5094C72.7375 33.2169 73.1677 33.3484 73.525 33.386C73.8223 33.4127 74.1209 33.3542 74.3899 33.2164C74.6589 33.0786 74.8884 32.8666 75.0547 32.6023C75.4346 31.9877 75.4573 30.415 74.5515 30.2486C73.6055 30.0822 73.0167 31.4724 72.2443 31.7784Z" fill="#965D7B"/>
<g opacity="0.1">
<path opacity="0.1" d="M71.5223 32.3955C71.5449 32.264 71.56 32.1271 71.5877 31.9956C71.3487 32.2184 71.3361 32.5968 71.2732 32.9322C71.2415 33.1258 71.1918 33.3155 71.1248 33.4985C71.3229 33.1617 71.4579 32.7871 71.5223 32.3955V32.3955Z" fill="black"/>
<path opacity="0.1" d="M71.6028 34.6121C71.7281 34.2668 71.8126 33.9062 71.8544 33.5386C71.6024 33.6517 71.3297 33.7022 71.0568 33.6862C70.9774 33.8749 70.8804 34.0547 70.7675 34.2229C71.0527 34.2465 71.3392 34.1968 71.6028 34.078C71.561 34.4456 71.4765 34.8062 71.3512 35.1515C71.5079 35.1554 71.6623 35.1112 71.7962 35.0242C71.93 34.9371 72.0375 34.8108 72.106 34.6604C72.1686 34.5384 72.2192 34.4098 72.2569 34.2766C72.1831 34.3867 72.0845 34.4751 71.9701 34.5337C71.8558 34.5924 71.7294 34.6193 71.6028 34.6121V34.6121Z" fill="black"/>
<path opacity="0.1" d="M73.8118 32.7869C73.4546 32.7494 73.0218 32.6179 72.7903 32.9104C72.7352 32.9913 72.6943 33.0823 72.6696 33.1788C72.6469 33.2486 72.6268 33.321 72.6092 33.3935C72.8482 33.1922 73.2357 33.2995 73.5602 33.3344C73.8575 33.3603 74.1558 33.3014 74.4246 33.1637C74.6935 33.0259 74.9231 32.8144 75.09 32.5508C75.1662 32.4204 75.2231 32.2783 75.2585 32.1294C75.0862 32.3569 74.8642 32.5358 74.612 32.6504C74.3597 32.7651 74.085 32.8119 73.8118 32.7869Z" fill="black"/>
</g>
<path d="M79.8175 53.9438L83.6544 58.8659L83.1537 63.8336L78.5167 56.0909L79.8175 53.9438Z" fill="#DCE6F2"/>
<path opacity="0.1" d="M83.6519 58.8659L83.1814 63.5384L83.1512 63.8336L78.9671 56.845L78.5167 56.0909L78.6476 55.8735L79.815 53.9438L80.0741 54.2766L83.6519 58.8659Z" fill="black"/>
<path d="M85.6445 47.2797C84.3463 47.6769 83.1059 49.0402 82.0265 50.6961C81.297 51.8386 80.6445 53.035 80.0741 54.2763C79.7194 55.0331 79.4074 55.7604 79.1482 56.3938L78.9671 56.8446C78.5293 57.9477 78.2852 58.6857 78.2852 58.6857C78.2852 58.6857 68.3471 50.7149 69.9196 50.1781C70.4479 49.9983 71.1423 48.7906 71.8292 47.2689L71.9147 47.0757C72.35 46.0988 72.7777 45.0092 73.1576 43.984C73.9351 41.8772 74.5112 40.0469 74.5112 40.0469C74.5112 40.0469 89.6072 46.072 85.6445 47.2797Z" fill="#EFB7B9"/>
<path d="M91.5898 39.5996C91.5898 39.5996 93.8844 44.0278 96.9665 43.424C100.049 42.8201 98.7805 41.0462 98.7805 41.0462L91.5898 39.5996Z" fill="#444053"/>
<path d="M87.1441 192.884C85.1112 193.874 80.5144 192.884 80.5144 192.884L78.5771 192.755C76.0611 192.583 71.8493 192.293 70.3599 192.164C68.186 191.974 68.7194 191.024 68.7194 191.024V185.283L79.2665 182.433C79.2665 182.433 83.4355 183.955 84.5778 185.283C85.6622 186.55 86.2962 185.576 88.231 185.941C88.3266 185.96 88.4272 185.981 88.5329 186.008C90.3696 186.456 91.3659 186.633 91.9547 188.257C92.073 188.598 92.168 188.948 92.239 189.304C92.7824 191.918 89.1745 191.899 87.1441 192.884Z" fill="#A36468"/>
<path opacity="0.1" d="M91.9547 188.257C91.5767 188.508 91.1795 188.726 90.7671 188.906C89.3833 189.58 88.0675 190.401 86.6686 191.037C85.2697 191.673 83.7626 192.127 82.2479 192.006C81.4554 191.944 80.6453 191.737 79.8879 191.979C79.4196 192.172 78.9785 192.433 78.5771 192.755C76.0611 192.583 71.8493 192.293 70.3599 192.164C68.186 191.974 68.7194 191.023 68.7194 191.023V190.353C68.7974 190.353 68.8855 190.328 68.9861 190.32C69.5068 190.311 70.0253 190.394 70.5209 190.565C71.6128 190.881 72.6997 191.193 73.7917 191.504C73.8815 191.142 74.0393 190.804 74.2556 190.51C74.4719 190.215 74.7421 189.971 75.0497 189.792C75.6729 189.439 76.3724 189.267 77.0776 189.295C78.7708 189.319 80.3735 190.175 82.0643 190.261C82.537 190.308 83.0129 190.223 83.4456 190.014C83.677 189.891 83.8808 189.711 84.1073 189.574C84.4697 189.387 84.8525 189.249 85.247 189.164C86.3558 188.869 87.4444 188.494 88.5052 188.042C88.8072 187.916 89.1594 187.688 89.1191 187.344C89.0663 186.888 88.3945 186.834 88.2184 186.415C88.1873 186.34 88.173 186.258 88.1765 186.175C88.18 186.093 88.2012 186.013 88.2385 185.94C88.3341 185.959 88.4348 185.981 88.5405 186.008C90.3696 186.456 91.3659 186.633 91.9547 188.257Z" fill="black"/>
<path d="M84.9954 205.444C82.6052 206.609 77.1958 205.444 77.1958 205.444L74.9188 205.302C71.9701 205.1 67.0035 204.765 65.2499 204.607C62.6911 204.381 63.3201 203.265 63.3201 203.265V196.499L75.7315 193.144C75.7315 193.144 80.6377 194.934 81.9813 196.499C83.2569 197.988 83.9941 196.842 86.2811 197.272C86.3943 197.293 86.5126 197.32 86.6358 197.35C88.7971 197.886 89.9695 198.088 90.6614 199.998C90.8015 200.4 90.9134 200.811 90.9961 201.23C91.62 204.306 87.3856 204.282 84.9954 205.444Z" fill="#A36468"/>
<path opacity="0.1" d="M90.6564 199.998C90.2118 200.294 89.7448 200.55 89.26 200.763C87.6322 201.555 86.0823 202.521 84.4369 203.27C82.7914 204.018 81.0176 204.55 79.2338 204.41C78.3029 204.338 77.3493 204.088 76.4662 204.378C75.9128 204.608 75.3921 204.918 74.9189 205.301C71.9701 205.1 67.0035 204.764 65.2499 204.606C62.6911 204.381 63.3201 203.264 63.3201 203.264V202.475C63.4243 202.457 63.5292 202.444 63.6346 202.438C64.2475 202.426 64.858 202.523 65.4411 202.725L69.288 203.83C69.3952 203.404 69.5828 203.005 69.8393 202.659C70.0959 202.312 70.4159 202.025 70.78 201.815C71.5134 201.398 72.3373 201.196 73.1677 201.23C75.1604 201.259 77.0449 202.266 79.035 202.368C79.5893 202.422 80.1472 202.323 80.6553 202.081C80.9296 201.933 81.1585 201.721 81.4353 201.563C81.8608 201.34 82.3116 201.178 82.7763 201.08C84.0738 200.73 85.3481 200.289 86.5906 199.759C86.9453 199.609 87.3605 199.34 87.3127 198.938C87.2498 198.401 86.4597 198.337 86.2509 197.843C86.2157 197.754 86.1997 197.657 86.2041 197.561C86.2084 197.464 86.233 197.37 86.2761 197.285C86.3893 197.306 86.5075 197.333 86.6308 197.362C88.7921 197.878 89.9645 198.087 90.6564 199.998Z" fill="black"/>
<path d="M79.586 159.017L78.9143 175.879C78.9143 175.879 77.9079 179.323 78.4538 180.308C78.9998 181.292 79.9207 182.275 79.586 182.857C79.2514 183.44 75.2258 189.736 73.925 187.32C72.6243 184.905 71.3411 174.438 71.3411 174.438L72.5412 161.51L79.586 159.017Z" fill="#444053"/>
<path d="M82.4996 117.004L84.3664 119.667V142.822C84.3664 142.822 84.9124 148.995 84.3664 150.27C83.8205 151.545 81.0529 154.094 81.0529 154.094L78.7256 141.346L79.2288 127.86L82.4996 117.004Z" fill="#444053"/>
<path opacity="0.1" d="M79.586 159.017L78.9143 175.879C78.9143 175.879 77.9079 179.323 78.4538 180.308C78.9998 181.292 79.9207 182.275 79.586 182.857C79.2514 183.44 75.2258 189.736 73.925 187.32C72.6243 184.905 71.3411 174.438 71.3411 174.438L72.5412 161.51L79.586 159.017Z" fill="black"/>
<path opacity="0.1" d="M82.4996 117.004L84.3664 119.667V142.822C84.3664 142.822 84.9124 148.995 84.3664 150.27C83.8205 151.545 81.0529 154.094 81.0529 154.094L78.7256 141.346L79.2288 127.86L82.4996 117.004Z" fill="black"/>
<path d="M84.3664 107.129V119.654L82.2706 129.404C82.2706 129.404 81.5988 152.933 82.185 155.794C82.7713 158.655 80.1722 161.341 80.1722 161.341C80.1722 161.341 78.6626 161.521 78.6626 162.771C78.6626 164.022 76.1466 167.602 76.1466 167.602L76.2297 174.58C76.2297 174.58 77.3216 187.642 75.6434 190.146C73.9653 192.65 76.2297 193.01 76.2297 193.01C74.1338 200.344 64.0698 198.646 63.1616 197.84C62.2533 197.035 63.1616 181.201 63.1616 181.201C63.1616 181.201 65.4109 157.047 67.1721 155.973C68.9333 154.9 67.2576 153.558 67.8438 151.948C68.4301 150.337 67.2576 145.955 67.2576 145.955C67.2576 145.955 66.7544 140.764 65.4964 138.26C64.2384 135.756 64.4045 128.867 64.4045 128.867C64.4045 128.867 60.8821 123.857 59.8354 121.889C58.7888 119.922 58.1145 114.823 58.3661 110.974C58.5372 108.374 59.8178 104.587 60.6305 102.408C61.0205 101.364 61.3023 100.688 61.3023 100.688L61.5413 100.755L75.2837 104.592L84.3664 107.129Z" fill="#444053"/>
<path opacity="0.1" d="M85.6446 47.2809C84.3463 47.6781 83.1059 49.0415 82.0266 50.6973H81.7448C80.1627 50.6985 78.6083 50.2542 77.2388 49.4093C75.8693 48.5643 74.7331 47.3487 73.9452 45.8853C73.6159 45.2789 73.3509 44.6353 73.1552 43.9664C73.9326 41.8596 74.5088 40.0293 74.5088 40.0293C74.5088 40.0293 89.6073 46.0732 85.6446 47.2809Z" fill="black"/>
<path d="M90.7395 40.5705C90.7417 42.0389 90.4279 43.4884 89.8223 44.8071C89.2166 46.1258 88.3353 47.2786 87.2461 48.1768C86.157 49.0749 84.8891 49.6944 83.5401 49.9875C82.1912 50.2806 80.7972 50.2395 79.4654 49.8674C78.1337 49.4952 76.8998 48.802 75.8589 47.8411C74.8179 46.8802 73.9976 45.6772 73.4611 44.3248C72.9247 42.9724 72.6864 41.5067 72.7646 40.0406C72.8429 38.5746 73.2356 37.1472 73.9125 35.8685C74.1851 35.3489 74.5036 34.8583 74.8635 34.4032C75.4568 33.6492 76.1542 32.9958 76.9317 32.4655C78.2449 31.5753 79.7522 31.0637 81.3062 30.9808C82.8602 30.8978 84.4078 31.2462 85.7978 31.992C87.1878 32.7378 88.3727 33.8555 89.2366 35.2359C90.1006 36.6162 90.614 38.212 90.7269 39.8673C90.7319 40.1035 90.7395 40.337 90.7395 40.5705Z" fill="#EFB7B9"/>
<path opacity="0.1" d="M83.1814 63.5385L83.1512 63.8337L78.9671 56.8559C78.5293 57.9589 78.2852 58.6969 78.2852 58.6969C78.2852 58.6969 68.3471 50.7154 69.9196 50.1786C70.4479 49.9988 71.1423 48.7911 71.8292 47.2694L71.9147 47.0762C72.6444 49.395 76.8838 54.0298 78.6475 55.887C78.8513 56.1017 79.0199 56.2788 79.1507 56.4077L79.42 56.676L79.5609 56.8263C80.2024 57.5322 82.9096 60.6454 83.1814 63.5385Z" fill="black"/>
<path d="M86.3088 87.2146L85.8509 102.934L85.7703 105.733C85.7703 105.733 80.3459 105.196 75.2837 104.606C71.2078 104.131 67.3658 103.618 66.7746 103.317C66.0198 102.939 64.402 102.646 63.1264 102.461C62.1401 102.319 61.3652 102.244 61.3652 102.244C61.3652 102.244 61.0758 102.335 60.6305 102.421C59.6593 102.609 57.9535 102.762 56.9597 101.841C55.6891 100.663 59.0278 96.3824 59.8606 95.3546L60.0443 95.1318L59.7298 92.032L58.9121 83.9941C58.9121 83.9941 58.4089 79.3646 57.6541 76.8821C57.4523 76.1763 57.3067 75.4536 57.2188 74.7216C56.9384 72.4543 57.082 70.1502 57.6415 67.9424C57.8805 67.0043 58.0322 66.0433 58.0944 65.0735C58.2202 62.591 65.3279 52.9964 67.0891 52.1242C67.8813 51.7301 68.5189 51.052 68.8905 50.208C69.0132 49.9426 69.1053 49.6624 69.1648 49.3733C69.9196 45.8844 71.8292 47.2693 71.8292 47.2693C72.2896 49.9987 79.4175 57.2234 79.4175 57.2234L79.5583 57.3737C80.2653 58.1466 83.4154 61.7751 83.1914 64.8722C83.1467 66.0249 83.3081 67.1761 83.667 68.2645C85.1168 73.1341 85.9503 78.1886 86.1452 83.2936L86.3088 87.2146Z" fill="#DCE6F2"/>
<path opacity="0.1" d="M76.2096 68.5493C76.2096 68.5493 74.4484 73.1118 73.1275 73.8498C71.8066 74.5878 76.8386 75.4064 76.2096 68.5493Z" fill="black"/>
<path opacity="0.1" d="M77.5305 77.0703C77.5305 77.0703 73.5049 77.6071 73.5049 78.4122C73.5049 79.2173 77.5305 77.0703 77.5305 77.0703Z" fill="black"/>
<path opacity="0.1" d="M81.7448 82.3037C81.7448 82.3037 75.8951 95.5884 74.2597 95.991C72.6243 96.3936 81.7448 82.3037 81.7448 82.3037Z" fill="black"/>
<path opacity="0.1" d="M79.3067 57.8971L74.4685 60.1408L68.6288 50.7314C68.7515 50.4661 68.8436 50.1858 68.9031 49.8968C69.6579 46.4079 71.5675 47.7927 71.5675 47.7927C72.028 50.5221 79.1558 57.7468 79.1558 57.7468L79.3067 57.8971Z" fill="black"/>
<path d="M79.5583 57.3605L74.7201 59.6042L68.8805 50.1948C69.0032 49.9294 69.0953 49.6492 69.1547 49.3602C69.9095 45.8712 71.8191 47.2561 71.8191 47.2561C72.2796 49.9855 79.4074 57.2102 79.4074 57.2102L79.5583 57.3605Z" fill="#DCE6F2"/>
<path opacity="0.1" d="M85.7704 105.734C85.7704 105.734 80.3459 105.197 75.2837 104.606L84.3665 107.143V110.095C83.9689 110.478 83.6242 110.677 83.4003 110.575C82.3537 110.105 73.8119 108.629 73.8119 108.629C73.8119 108.629 68.8503 105.946 63.4963 102.725C63.3663 102.648 63.2403 102.564 63.1189 102.473C62.4946 102.021 61.9566 101.446 61.5338 100.779C60.545 99.2522 60.0619 97.2904 59.8531 95.3661C59.7357 94.2633 59.692 93.153 59.7223 92.0436C59.7482 90.7856 59.8558 89.5311 60.0443 88.289C59.5265 83.4781 59.2745 78.639 59.2895 73.7966C59.3524 66.282 65.9569 63.5982 65.9569 63.5982C78.0966 62.4576 74.3327 83.3911 74.3327 83.3911C74.3327 83.3911 73.6307 89.2954 73.4395 89.8993C73.2483 90.5031 72.5614 91.5095 72.6545 92.9185C72.7476 94.3275 75.0673 96.0129 75.0673 96.0129C75.0673 96.0129 77.3317 97.1455 78.2652 98.8228C78.9445 100.06 83.3575 101.737 85.8509 102.934L85.7704 105.734Z" fill="black"/>
<path opacity="0.1" d="M89.8362 34.6123C89.8409 35.0543 89.755 35.4921 89.5846 35.8951C89.4556 36.224 89.306 36.5432 89.1368 36.8505C88.872 37.4159 88.4961 37.9139 88.0348 38.3105C87.4536 38.7533 86.7189 38.8768 86.022 39.0566C85.325 39.2364 84.6004 39.5236 84.2029 40.1569C83.9875 40.5641 83.8434 41.0097 83.7777 41.472C83.711 41.9339 83.5382 42.3709 83.2745 42.7441C83.1372 42.9263 82.9471 43.0547 82.7339 43.1091C82.5208 43.1635 82.2968 43.1409 82.097 43.0447C81.8866 42.8934 81.727 42.6743 81.6416 42.4194C81.3548 41.7296 81.2818 40.9648 81.1661 40.2214C81.0503 39.4779 80.8868 38.7131 80.4591 38.1146C80.0314 37.5161 79.2741 37.1216 78.6023 37.3551C78.3774 37.4474 78.1724 37.5872 77.9995 37.7662C77.8265 37.9451 77.6893 38.1595 77.5959 38.3964C77.41 38.8707 77.2823 39.3686 77.216 39.8778C76.904 41.6992 76.5358 43.5099 76.1114 45.3098C76.0985 45.3836 76.0701 45.4533 76.0284 45.5138C75.9615 45.5849 75.8712 45.6253 75.7768 45.6265C75.2132 45.707 74.6723 45.2857 74.1037 45.3313C74.0451 45.3354 73.987 45.3453 73.9301 45.3608C73.0107 43.6565 72.6048 41.6919 72.7673 39.7333C72.9297 37.7746 73.6527 35.9166 74.8383 34.411L74.8836 34.3976C75.2619 34.2543 75.6056 34.0233 75.89 33.7212C76.2532 33.3336 76.5896 32.9183 76.8964 32.4787L77.0977 32.2103C77.676 31.4671 78.3348 30.7996 79.0602 30.2216C79.2582 30.0485 79.4854 29.9174 79.7294 29.8351C79.9383 29.7917 80.1524 29.7845 80.3635 29.8137C81.2324 29.9249 82.1084 29.9599 82.9826 29.9183C83.5918 29.8162 84.2058 29.7499 84.8218 29.7197C86.4145 29.768 87.7731 30.9677 88.7795 32.2827C89.3204 32.9564 89.8035 33.732 89.8362 34.6123Z" fill="black"/>
<path d="M72.7375 36.1238C72.3877 36.7357 71.7562 37.1517 71.5197 37.8226C71.1725 38.7968 71.7587 40.0099 71.2203 40.8795C71.0417 41.172 70.7473 41.3894 70.6467 41.7248C70.4756 42.2911 70.9436 42.895 70.8228 43.4774C70.702 44.0597 69.9825 44.5509 70.1737 45.1198C70.2867 45.368 70.4849 45.5602 70.7272 45.6566C71.1084 45.8899 71.5472 45.9938 71.9852 45.9545C72.6721 45.8337 73.1828 45.1145 73.8797 45.0608C74.4458 45.0178 74.9868 45.4365 75.5504 45.3587C75.6448 45.3552 75.7346 45.314 75.802 45.2433C75.8447 45.1835 75.8732 45.1135 75.885 45.0393C76.3077 43.2412 76.6767 41.4305 76.992 39.6073C77.0563 39.098 77.1832 38.5999 77.3694 38.1259C77.4635 37.8895 77.6011 37.6755 77.7739 37.4967C77.9467 37.3178 78.1514 37.1777 78.3758 37.0846C79.0476 36.8538 79.8024 37.2456 80.2326 37.8441C80.6629 38.4426 80.8264 39.2075 80.9421 39.9509C81.0579 40.6943 81.1308 41.4592 81.4151 42.1489C81.5015 42.4047 81.6619 42.6246 81.8731 42.7769C82.2505 43.0104 82.7587 42.8252 83.048 42.4763C83.3131 42.103 83.4861 41.6647 83.5512 41.2015C83.6169 40.7401 83.761 40.2953 83.9764 39.8891C84.3739 39.2558 85.1011 38.9686 85.7955 38.7888C86.4899 38.609 87.2221 38.4828 87.8083 38.04C88.269 37.6438 88.6448 37.1469 88.9103 36.5827C89.2827 35.8903 89.6299 35.1388 89.5997 34.3418C89.567 33.4722 89.0839 32.6966 88.5681 32.0203C87.5617 30.7052 86.2006 29.5056 84.6079 29.46C83.9917 29.4874 83.3776 29.5538 82.7687 29.6586C81.8944 29.7005 81.0183 29.6646 80.1496 29.5512C79.9383 29.5243 79.7245 29.5324 79.5156 29.5754C79.2712 29.655 79.0444 29.7864 78.8488 29.9618C78.1227 30.5389 77.4631 31.2055 76.8838 31.9478C76.5103 32.4761 76.1052 32.9781 75.6711 33.4507C75.3866 33.7533 75.0429 33.9852 74.6647 34.1297C74.4131 34.2049 74.1615 34.1512 73.9225 34.2344C73.1803 34.484 73.0822 35.5173 72.7375 36.1238Z" fill="#965D7B"/>
<path opacity="0.1" d="M96.9665 43.4213C94.9537 43.8158 93.2856 42.0794 92.3622 40.8127C92.0786 40.428 91.8205 40.0226 91.5898 39.5996L98.4987 40.9898L98.778 41.0462C98.778 41.0462 100.049 42.8201 96.9665 43.4213Z" fill="black"/>
<g opacity="0.1">
<path opacity="0.1" d="M70.8228 42.7088C70.851 42.3578 70.801 42.0047 70.6769 41.6782C70.6769 41.7051 70.6542 41.7319 70.6467 41.7587C70.5385 42.1184 70.6844 42.4914 70.7775 42.8645C70.7975 42.8143 70.8127 42.7622 70.8228 42.7088V42.7088Z" fill="black"/>
<path opacity="0.1" d="M71.4216 38.3159C71.3957 38.687 71.4025 39.0599 71.4417 39.4297C71.4675 39.0586 71.4608 38.6857 71.4216 38.3159Z" fill="black"/>
<path opacity="0.1" d="M88.8952 35.8062C88.6304 36.3717 88.2546 36.8696 87.7932 37.2662C87.212 37.709 86.4799 37.8325 85.7804 38.0123C85.081 38.1921 84.3589 38.4793 83.9614 39.1127C83.7463 39.52 83.6022 39.9655 83.5362 40.4277C83.4706 40.8907 83.2977 41.3289 83.033 41.7025C82.7436 42.0514 82.2354 42.2393 81.858 42.0031C81.6468 41.8508 81.4865 41.6309 81.4001 41.3751C81.1158 40.6854 81.0403 39.9232 80.9271 39.1771C80.8139 38.431 80.6453 37.6688 80.2176 37.0703C79.7898 36.4718 79.0325 36.0773 78.3607 36.3108C78.1361 36.4035 77.9313 36.5435 77.7584 36.7224C77.5855 36.9013 77.4481 37.1154 77.3543 37.3521C77.1681 37.8261 77.0412 38.3242 76.9769 38.8335C76.6633 40.6567 76.2943 42.4674 75.8699 44.2655C75.8581 44.3397 75.8296 44.4097 75.7869 44.4695C75.7195 44.5402 75.6297 44.5814 75.5353 44.5849C74.9717 44.6627 74.4308 44.2441 73.8647 44.287C73.1677 44.3407 72.657 45.0599 71.9701 45.178C71.532 45.2199 71.0924 45.1158 70.7121 44.8801C70.5372 44.7998 70.3803 44.6809 70.2517 44.5312C70.1928 44.6211 70.1538 44.7241 70.1377 44.8325C70.1216 44.9408 70.1287 45.0516 70.1586 45.1565C70.2694 45.4064 70.4684 45.5994 70.7121 45.6933C71.0924 45.929 71.532 46.0331 71.9701 45.9912C72.657 45.8731 73.1677 45.1539 73.8647 45.1002C74.4308 45.0572 74.9717 45.4759 75.5353 45.3981C75.6297 45.3946 75.7195 45.3534 75.7869 45.2827C75.8296 45.2229 75.8581 45.1529 75.8699 45.0787C76.2926 43.2895 76.6616 41.4789 76.9769 39.6467C77.0412 39.1374 77.1681 38.6393 77.3543 38.1653C77.4481 37.9286 77.5855 37.7145 77.7584 37.5356C77.9313 37.3567 78.1361 37.2167 78.3607 37.124C79.0325 36.8905 79.7873 37.285 80.2176 37.8835C80.6478 38.482 80.8113 39.2468 80.9271 39.9903C81.0428 40.7337 81.1158 41.4985 81.4001 42.1883C81.4865 42.4441 81.6468 42.664 81.858 42.8163C82.2354 43.0498 82.7436 42.8646 83.033 42.5157C83.2977 42.1421 83.4706 41.7039 83.5362 41.2409C83.6022 40.7787 83.7463 40.3332 83.9614 39.9258C84.3589 39.2925 85.086 39.008 85.7804 38.8255C86.4749 38.643 87.207 38.5222 87.7932 38.0794C88.2546 37.6828 88.6304 37.1848 88.8952 36.6194C89.2676 35.9297 89.6148 35.1782 89.5846 34.3811C89.5797 34.2787 89.5696 34.1765 89.5544 34.0752C89.4331 34.6895 89.2098 35.2757 88.8952 35.8062V35.8062Z" fill="black"/>
</g>
<path opacity="0.1" d="M89.5947 35.8871C90.2399 37.1107 90.6223 38.472 90.7143 39.8725C88.4725 38.5306 86.3641 37.0572 85.2999 36.5446C83.4456 35.6509 76.5115 35.7851 73.9049 35.8683C74.1776 35.3487 74.496 34.858 74.856 34.4029C75.4516 33.6483 76.1515 32.9949 76.9317 32.4652C77.9648 31.7658 79.1209 31.2985 80.3291 31.0918C81.5374 30.8851 82.7724 30.9435 83.9588 31.2632C85.1452 31.583 86.258 32.1575 87.2292 32.9516C88.2004 33.7457 89.0096 34.7427 89.6073 35.8817L89.5947 35.8871Z" fill="black"/>
<path opacity="0.1" d="M97.5955 42.2834C96.3853 42.6806 94.4102 41.913 92.3622 40.8127C92.0786 40.428 91.8205 40.0226 91.5898 39.5996L98.4987 40.9898C98.9566 41.3226 99.0724 41.7976 97.5955 42.2834Z" fill="black"/>
<path d="M82.2807 26.5825C82.2807 26.5825 75.6762 26.1799 73.8194 30.0043L73.52 33.3939L73.0168 33.3349L72.9161 35.6403C72.9161 35.6403 83.0103 35.1706 85.3074 36.2763C87.6045 37.382 94.7424 42.9536 97.6031 42.0142C100.464 41.0749 97.3515 40.2027 97.3515 40.2027C97.3515 40.2027 93.4139 38.4233 93.4139 37.0278C93.4139 35.6322 92.4377 28.2599 82.2807 26.5825Z" fill="#444053"/>
<path opacity="0.1" d="M69.5422 152.238C69.5422 152.238 73.7565 156.599 75.5806 156.263C75.5806 156.263 70.4228 155.794 69.5422 152.238Z" fill="black"/>
<path opacity="0.1" d="M68.6616 154.259C68.6616 154.259 69.039 156.502 70.0454 156.282C71.0518 156.062 68.6616 154.259 68.6616 154.259Z" fill="black"/>
<path opacity="0.1" d="M75.2661 191.756C75.2661 191.756 69.283 196.721 70.2919 196.855C71.3009 196.99 75.2661 191.756 75.2661 191.756Z" fill="black"/>
<path d="M83.2695 93.2163L102.643 89.8535V109.418L84.2356 108.39L83.2695 93.2163Z" fill="#FF661B"/>
<path opacity="0.05" d="M83.2695 93.2163L102.643 89.8535V109.418L84.2356 108.39L83.2695 93.2163Z" fill="black"/>
<path d="M102.643 89.8535L125.875 91.708L124.59 108.734L102.643 109.418V89.8535Z" fill="#FF661B"/>
<path opacity="0.1" d="M102.643 89.8535L125.875 91.708L124.59 108.734L102.643 109.418V89.8535Z" fill="black"/>
<path d="M109.786 83.8818L102.643 89.8533L125.875 91.7077L129.672 85.5968L109.786 83.8818Z" fill="#FF661B"/>
<path d="M76.2549 86.6943L93.6957 84.4292L102.643 89.8531L83.2694 93.2159L76.2549 86.6943Z" fill="#FF661B"/>
<path d="M106.89 94.9334V121.683L97.8144 120.69L93.8668 120.26L92.6642 120.126L88.7191 119.694L83.2695 119.098V93.2158L102.64 94.6221L106.89 94.9334Z" fill="#FF661B"/>
<path d="M125.875 91.7075V117.794L118.602 119.283L115.064 120.008L106.89 121.683V94.9334L125.875 91.7075Z" fill="#FF661B"/>
<path opacity="0.05" d="M125.875 91.7075V117.794L118.602 119.283L115.064 120.008L106.89 121.683V94.9334L125.875 91.7075Z" fill="black"/>
<path d="M76.2549 98.8464L83.2694 93.2158L106.89 94.9334L103.413 101.181L76.2549 98.8464Z" fill="#FF661B"/>
<path opacity="0.1" d="M76.2549 98.8464L83.2694 93.2158L106.89 94.9334L103.413 101.181L76.2549 98.8464Z" fill="white"/>
<path d="M125.875 91.7075L106.89 94.9334L113.069 100.838L133.406 97.1985L125.875 91.7075Z" fill="#FF661B"/>
<path opacity="0.1" d="M125.875 91.7075L106.89 94.9334L113.069 100.838L133.406 97.1985L125.875 91.7075Z" fill="white"/>
<path opacity="0.1" d="M118.602 119.283L115.064 120.008V114.434L118.378 113.542L118.602 119.283Z" fill="white"/>
<path opacity="0.1" d="M97.8145 117.002V120.689L93.8669 120.26V117.002H97.8145Z" fill="white"/>
<path opacity="0.1" d="M92.6642 118.164V120.126L88.7191 119.694V118.164H92.6642Z" fill="white"/>
<path opacity="0.1" d="M104.515 115.046C101.81 118.736 92.878 116.186 92.878 116.186L86.2408 108.801L85.3401 107.799L87.1013 104.311C87.1013 104.311 87.6045 104.488 88.4448 104.799C92.8931 106.458 106.792 111.941 104.515 115.046Z" fill="black"/>
<path d="M104.263 114.509C101.558 118.199 92.6264 115.65 92.6264 115.65L85.9892 108.264L85.0885 107.263L86.8497 103.774C86.8497 103.774 87.3529 103.951 88.1932 104.262C92.6415 105.921 106.54 111.404 104.263 114.509Z" fill="#EFB7B9"/>
<path opacity="0.1" d="M88.1832 104.262C87.8159 105.39 86.8824 107.059 85.9792 108.264L85.0785 107.263L86.8397 103.774C86.8397 103.774 87.3454 103.951 88.1832 104.262Z" fill="black"/>
<path d="M66.2085 62.524C66.2085 62.524 59.604 65.2078 59.5411 72.7224C59.5261 77.5648 59.7781 82.404 60.2959 87.2148C60.2959 87.2148 58.4089 98.4196 63.7554 101.64C69.1019 104.861 74.071 107.544 74.071 107.544C74.071 107.544 82.6128 109.021 83.662 109.49C84.7111 109.96 88.3568 103.921 87.7907 102.915C87.2246 101.909 79.4477 99.426 78.5243 97.7487C77.6009 96.0713 75.3265 94.9414 75.3265 94.9414C75.3265 94.9414 73.0067 93.2533 72.9136 91.8443C72.8205 90.4354 73.5049 89.4289 73.6986 88.8251C73.8923 88.2212 74.5943 82.3169 74.5943 82.3169C74.5943 82.3169 78.3482 61.37 66.2085 62.524Z" fill="#DCE6F2"/>
<path opacity="0.1" d="M69.2276 87.4028C69.2276 87.4028 60.2958 88.4763 60.9877 91.8311C60.9877 91.8311 64.3818 88.4468 69.2276 87.4028Z" fill="black"/>
<path opacity="0.1" d="M69.2276 88.7441C69.2276 88.7441 64.1579 92.7027 65.0888 92.9711C66.0197 93.2395 69.2276 88.7441 69.2276 88.7441Z" fill="black"/>
<path opacity="0.1" d="M71.4921 90.355C71.4921 90.355 70.0454 93.13 70.8631 92.9851C71.6807 92.8402 71.4921 90.355 71.4921 90.355Z" fill="black"/>
<path d="M164.488 30.1631C164.488 30.1631 154.928 29.5485 156.045 36.7035C156.045 36.7035 155.821 37.9675 156.895 38.5419C156.895 38.5419 156.913 38.0051 157.876 38.1903C158.22 38.2519 158.568 38.2699 158.915 38.244C159.386 38.2105 159.833 38.0135 160.189 37.6831V37.6831C160.189 37.6831 162.878 36.4995 163.925 31.8083C163.925 31.8083 164.7 30.7831 164.68 30.5201L163.064 31.2581C163.064 31.2581 163.615 32.5007 163.18 33.5339C163.18 33.5339 163.13 31.3037 162.818 31.3547C162.755 31.3547 161.98 31.7868 161.98 31.7868C161.98 31.7868 162.928 33.9499 162.211 35.5253C162.211 35.5253 162.483 32.8576 161.683 31.9425L160.546 32.651C160.546 32.651 161.655 34.8866 160.903 36.7115C160.903 36.7115 161.097 33.9124 160.307 32.8227L159.275 33.6789C159.275 33.6789 160.319 35.8849 159.683 37.3986C159.683 37.3986 159.6 34.1405 159.051 33.8936C159.051 33.8936 158.151 34.7416 158.015 35.0905C158.015 35.0905 158.727 36.7008 158.284 37.5355C158.284 37.5355 158.012 35.3643 157.781 35.3535C157.781 35.3535 156.883 36.792 156.789 37.7689C156.833 36.8582 157.099 35.9755 157.562 35.2086C157.044 35.3131 156.567 35.5772 156.188 35.9681C156.188 35.9681 156.326 34.951 157.783 34.8624C157.783 34.8624 158.538 33.7701 158.724 33.703C158.724 33.703 157.275 33.5742 156.397 33.9902C156.397 33.9902 157.169 33.0321 158.991 33.4534L159.997 32.5678C159.997 32.5678 158.09 32.2994 157.28 32.5973C157.28 32.5973 158.211 31.7492 160.272 32.3665L161.379 31.6607C161.379 31.6607 159.753 31.2849 158.785 31.4218C158.785 31.4218 159.806 30.8341 161.703 31.4701L162.496 31.0917C162.496 31.0917 161.303 30.8421 160.956 30.8019C160.609 30.7616 160.589 30.6596 160.589 30.6596C161.343 30.5257 162.118 30.6186 162.825 30.928C162.825 30.928 164.524 30.2758 164.488 30.1631Z" fill="#FF661B"/>
<path opacity="0.1" d="M193.538 65.9483C193.538 65.9483 183.977 65.3337 185.094 72.4887C185.094 72.4887 184.87 73.7527 185.945 74.327C185.945 74.327 185.962 73.7903 186.929 73.9755C187.272 74.0371 187.62 74.0551 187.968 74.0291C188.433 73.9932 188.874 73.7973 189.226 73.4709V73.4709C189.226 73.4709 191.918 72.2847 192.964 67.5934C192.964 67.5934 193.737 66.5709 193.707 66.3079L192.091 67.0432C192.091 67.0432 192.642 68.2858 192.21 69.3191C192.21 69.3191 192.157 67.0889 191.847 67.1399C191.784 67.1399 191.007 67.572 191.007 67.572C191.007 67.572 191.958 69.7378 191.241 71.3105C191.241 71.3105 191.513 68.6428 190.71 67.7276L189.585 68.4281C189.585 68.4281 190.695 70.6637 189.943 72.4887C189.943 72.4887 190.136 69.6895 189.346 68.5999L188.317 69.4587C188.317 69.4587 189.359 71.662 188.725 73.1757C188.725 73.1757 188.642 69.9176 188.093 69.6707C188.093 69.6707 187.193 70.5188 187.054 70.8676C187.054 70.8676 187.769 72.4779 187.326 73.3126C187.326 73.3126 187.054 71.1414 186.823 71.1307C186.823 71.1307 185.925 72.5692 185.832 73.5461C185.877 72.6352 186.144 71.7527 186.606 70.9857C186.088 71.0905 185.61 71.3544 185.23 71.7452C185.23 71.7452 185.371 70.7281 186.828 70.6395C186.828 70.6395 187.57 69.5472 187.769 69.4801C187.769 69.4801 186.32 69.3513 185.442 69.7673C185.442 69.7673 186.214 68.8092 188.033 69.244L189.039 68.3583C189.039 68.3583 187.13 68.0899 186.322 68.3878C186.322 68.3878 187.253 67.5397 189.314 68.157L190.421 67.4512C190.421 67.4512 188.793 67.0781 187.824 67.2123C187.824 67.2123 188.848 66.6246 190.745 67.2606L191.538 66.8822C191.538 66.8822 190.345 66.6326 189.996 66.5924C189.646 66.5521 189.628 66.4501 189.628 66.4501C190.383 66.3161 191.159 66.409 191.867 66.7185C191.867 66.7185 193.568 66.061 193.538 65.9483Z" fill="#FF661B"/>
<path opacity="0.1" d="M135.456 59.596C135.456 59.596 137.658 49.6419 130.855 49.607C130.855 49.607 129.725 49.1561 129.013 50.1867C129.013 50.1867 129.498 50.2967 129.169 51.279C129.055 51.6263 128.979 51.9865 128.942 52.3525C128.894 52.8514 128.999 53.3536 129.242 53.783V53.783C129.242 53.783 129.878 56.8156 134.022 58.7158C134.022 58.7158 134.837 59.7034 135.084 59.7141L134.681 57.8918C134.681 57.8918 133.438 58.2595 132.558 57.6235C132.558 57.6235 134.629 57.9482 134.631 57.6235C134.631 57.5564 134.379 56.668 134.379 56.668C134.379 56.668 132.218 57.296 130.885 56.2735C130.885 56.2735 133.303 57.0142 134.286 56.3299L133.833 55.0094C133.833 55.0094 131.569 55.7958 130.019 54.6928C130.019 54.6928 132.573 55.3744 133.715 54.7303L133.099 53.5012C133.099 53.5012 130.885 54.2204 129.594 53.2945C129.594 53.2945 132.613 53.7615 132.94 53.2301C132.94 53.2301 132.311 52.1378 132.012 51.9338C132.012 51.9338 130.412 52.4115 129.707 51.8023C129.707 51.8023 131.758 51.8855 131.806 51.6547C131.806 51.6547 130.631 50.4658 129.735 50.1974C130.57 50.4001 131.34 50.8312 131.972 51.4481C131.962 50.8856 131.8 50.3382 131.504 49.8727C131.504 49.8727 132.419 50.1947 132.258 51.7513C132.258 51.7513 133.139 52.7175 133.167 52.9376C133.167 52.9376 133.532 51.4373 133.298 50.4416C133.298 50.4416 134.052 51.4185 133.34 53.2569L133.984 54.4781C133.984 54.4781 134.568 52.5189 134.42 51.6171C134.42 51.6171 135.046 52.739 134.123 54.8001L134.588 56.0856C134.588 56.0856 135.21 54.4378 135.25 53.4019C135.25 53.4019 135.62 54.5774 134.707 56.4641L134.923 57.3604C134.923 57.3604 135.356 56.1501 135.451 55.7904C135.547 55.4308 135.645 55.4281 135.645 55.4281C135.641 56.2446 135.424 57.0438 135.019 57.7362C135.019 57.7362 135.348 59.6095 135.456 59.596Z" fill="#FF661B"/>
<path opacity="0.1" d="M114.518 62.9883C114.518 62.9883 106.839 56.8612 104.094 63.4982C104.094 63.4982 103.257 64.4241 103.858 65.5325C103.858 65.5325 104.145 65.1004 104.864 65.817C105.119 66.0699 105.401 66.2897 105.705 66.4718C106.116 66.7159 106.59 66.8101 107.056 66.7402V66.7402C107.056 66.7402 109.914 67.3279 113.205 64.0242C113.205 64.0242 114.38 63.6216 114.49 63.3855L112.757 63.0607C112.757 63.0607 112.576 64.4214 111.683 65.0306C111.683 65.0306 112.787 63.1359 112.5 62.999C112.442 62.9695 111.577 62.8648 111.577 62.8648C111.577 62.8648 111.255 65.2319 109.846 66.1256C109.846 66.1256 111.449 64.0564 111.25 62.8219L109.934 62.7467C109.934 62.7467 109.71 65.2668 108.14 66.351C108.14 66.351 109.743 64.1262 109.65 62.7521L108.346 62.8648C108.346 62.8648 108.082 65.3151 106.771 66.2061C106.771 66.2061 108.379 63.4365 108.05 62.9104C108.05 62.9104 106.859 63.0903 106.565 63.2996C106.565 63.2996 106.336 65.0548 105.531 65.5003C105.531 65.5003 106.424 63.5277 106.243 63.3908C106.243 63.3908 104.751 64.0645 104.165 64.832C104.672 64.0971 105.35 63.5161 106.132 63.1466C105.646 62.9308 105.111 62.8712 104.593 62.9748C104.593 62.9748 105.232 62.2073 106.495 62.9883C106.495 62.9883 107.677 62.5132 107.878 62.5723C107.878 62.5723 106.734 61.6142 105.785 61.4478C105.785 61.4478 106.927 61.0989 108.223 62.5213L109.529 62.379C109.529 62.379 108.077 61.0372 107.244 60.8117C107.244 60.8117 108.46 60.648 109.861 62.371L111.149 62.4327C111.149 62.4327 109.984 61.166 109.106 60.7097C109.106 60.7097 110.261 60.8171 111.519 62.4622L112.377 62.6099C112.377 62.6099 111.509 61.7027 111.237 61.4666C110.966 61.2304 111.003 61.1311 111.003 61.1311C111.703 61.4617 112.303 61.9932 112.737 62.6662C112.737 62.6662 114.485 63.0983 114.518 62.9883Z" fill="#FF661B"/>
<path opacity="0.1" d="M140.083 6.06222C140.083 6.06222 132.404 -0.0675399 129.659 6.57214C129.659 6.57214 128.822 7.49804 129.423 8.60645C129.423 8.60645 129.71 8.17436 130.429 8.89093C130.686 9.14255 130.968 9.36142 131.272 9.54309C131.683 9.78735 132.158 9.88159 132.623 9.81146V9.81146C132.623 9.81146 135.481 10.3992 138.772 7.09279C138.772 7.09279 139.947 6.69291 140.056 6.45405L138.322 6.13468C138.322 6.13468 138.143 7.49536 137.248 8.10458C137.248 8.10458 138.355 6.20983 138.068 6.07296C138.01 6.04344 137.145 5.93877 137.145 5.93877C137.145 5.93877 136.812 8.31123 135.403 9.19956C135.403 9.19956 137.004 7.13037 136.807 5.89583L135.492 5.82068C135.492 5.82068 135.265 8.34075 133.698 9.42232C133.698 9.42232 135.3 7.19746 135.207 5.82337L133.906 5.93608C133.906 5.93608 133.64 8.38906 132.329 9.28008C132.329 9.28008 133.939 6.51041 133.61 5.98439C133.61 5.98439 132.419 6.1642 132.125 6.37354C132.125 6.37354 131.896 8.12873 131.091 8.57424C131.091 8.57424 131.984 6.60166 131.803 6.4621C131.803 6.4621 130.311 7.13842 129.725 7.90598C130.231 7.17028 130.91 6.58913 131.692 6.22056C131.205 6.00319 130.669 5.94346 130.15 6.0488C130.15 6.0488 130.792 5.28124 132.055 6.06222C132.055 6.06222 133.237 5.58451 133.438 5.64623C133.438 5.64623 132.294 4.68812 131.345 4.51905C131.345 4.51905 132.485 4.17284 133.781 5.59256L135.086 5.45032C135.086 5.45032 133.637 4.10843 132.802 3.88031C132.802 3.88031 134.017 3.71928 135.421 5.44227L136.709 5.50131C136.709 5.50131 135.544 4.23457 134.664 3.78101C134.664 3.78101 135.821 3.88836 137.079 5.53352L137.935 5.68112C137.935 5.68112 137.064 4.78474 136.792 4.55394C136.521 4.32313 136.558 4.22115 136.558 4.22115C137.258 4.55141 137.859 5.08293 138.292 5.75627C138.292 5.75627 140.04 6.16421 140.083 6.06222Z" fill="#FF661B"/>
<path opacity="0.1" d="M169.425 13.8267C169.425 13.8267 166.355 4.13557 160.566 7.94386C160.566 7.94386 159.383 8.21224 159.29 9.4763C159.29 9.4763 159.756 9.2938 159.962 10.3136C160.039 10.6764 160.154 11.0285 160.307 11.363C160.515 11.8131 160.854 12.1794 161.273 12.407V12.407C161.273 12.407 163.316 14.6211 167.784 13.8884C167.784 13.8884 168.964 14.2695 169.181 14.138L167.923 12.8203C167.923 12.8203 167.052 13.8321 165.99 13.7918C165.99 13.7918 167.91 12.9008 167.752 12.6136C167.719 12.5573 167.062 11.9481 167.062 11.9481C167.062 11.9481 165.538 13.7006 163.902 13.5852C163.902 13.5852 166.32 12.8498 166.813 11.7065L165.772 10.8504C165.772 10.8504 164.247 12.7881 162.377 12.729C162.377 12.729 164.893 11.8675 165.53 10.6759L164.398 9.98085C164.398 9.98085 162.888 11.8407 161.323 11.7817C161.323 11.7817 164.121 10.4747 164.129 9.84129C164.129 9.84129 163.054 9.26965 162.699 9.26428C162.699 9.26428 161.577 10.5713 160.687 10.4532C160.687 10.4532 162.468 9.36626 162.393 9.14351C162.393 9.14351 160.807 8.7973 159.914 9.07641C160.722 8.77638 161.59 8.70699 162.43 8.87513C162.143 8.40251 161.733 8.02945 161.25 7.80162C161.25 7.80162 162.186 7.55739 162.813 8.96369C162.813 8.96369 164.041 9.28843 164.171 9.45751C164.171 9.45751 163.739 7.97875 163.047 7.26486C163.047 7.26486 164.171 7.67011 164.478 9.63196L165.631 10.3029C165.631 10.3029 165.155 8.31422 164.581 7.61912C164.581 7.61912 165.671 8.22029 165.907 10.4881L166.939 11.3174C166.939 11.3174 166.652 9.56755 166.169 8.66043C166.169 8.66043 167.065 9.44946 167.226 11.567L167.852 12.2057C167.852 12.2057 167.621 10.9336 167.525 10.574C167.43 10.2143 167.508 10.1902 167.508 10.1902C167.908 10.8864 168.119 11.6871 168.119 12.5036C168.119 12.5036 169.337 13.8965 169.425 13.8267Z" fill="#FF661B"/>
<path opacity="0.1" d="M149.392 14.3049C149.392 14.3049 139.857 13.1723 140.644 20.389C140.644 20.389 140.36 21.6396 141.399 22.2676C141.399 22.2676 141.442 21.7309 142.406 21.9724C142.746 22.0506 143.094 22.0875 143.442 22.0825C143.913 22.0734 144.367 21.901 144.738 21.5913V21.5913C144.738 21.5913 147.483 20.5527 148.763 15.9232C148.763 15.9232 149.584 14.9436 149.566 14.6779L147.918 15.3274C147.918 15.3274 148.421 16.5968 147.918 17.6059C147.918 17.6059 147.971 15.3757 147.666 15.4106C147.604 15.4106 146.808 15.797 146.808 15.797C146.808 15.797 147.654 18.0112 146.864 19.5543C146.864 19.5543 147.261 16.9028 146.504 15.9473L145.334 16.5914C145.334 16.5914 146.341 18.8861 145.498 20.6681C145.498 20.6681 145.825 17.8823 145.088 16.7525L144.018 17.5576C144.018 17.5576 144.954 19.8147 144.247 21.2934C144.247 21.2934 144.32 18.0353 143.784 17.7589C143.784 17.7589 142.843 18.564 142.69 18.8968C142.69 18.8968 143.326 20.5339 142.846 21.3525C142.846 21.3525 142.677 19.1706 142.456 19.1491C142.456 19.1491 141.49 20.5366 141.349 21.5162C141.436 20.608 141.745 19.7401 142.244 18.9988C141.722 19.0758 141.233 19.3136 140.836 19.6832C140.836 19.6832 141.022 18.6767 142.481 18.666C142.481 18.666 143.274 17.6167 143.487 17.5603C143.487 17.5603 142.046 17.3536 141.148 17.7213C141.148 17.7213 141.965 16.8035 143.762 17.3375L144.821 16.5083C144.821 16.5083 142.906 16.0949 142.096 16.3633C142.096 16.3633 143.067 15.5582 145.095 16.2962L146.235 15.6494C146.235 15.6494 144.627 15.1878 143.653 15.271C143.653 15.271 144.703 14.7343 146.567 15.4777L147.377 15.1422C147.377 15.1422 146.197 14.8282 145.85 14.7692C145.503 14.7101 145.49 14.6081 145.49 14.6081C146.251 14.515 147.021 14.6488 147.714 14.9946C147.714 14.9946 149.41 14.4176 149.392 14.3049Z" fill="#FF661B"/>
<path opacity="0.1" d="M232.823 93.2537C232.823 93.2537 223.292 92.1212 224.08 99.3298C224.08 99.3298 223.795 100.58 224.835 101.208C224.835 101.208 224.877 100.672 225.841 100.911C226.181 100.991 226.529 101.028 226.878 101.021C227.348 101.013 227.804 100.84 228.173 100.529V100.529C228.173 100.529 230.918 99.4908 232.186 94.864C232.186 94.864 233.007 93.8817 232.989 93.6187L231.341 94.2655C231.341 94.2655 231.844 95.5376 231.341 96.5467C231.341 96.5467 231.394 94.3138 231.089 94.3514C231.026 94.3514 230.231 94.7351 230.231 94.7351C230.231 94.7351 231.077 96.9493 230.287 98.4924C230.287 98.4924 230.684 95.8435 229.927 94.8854L228.757 95.5322C228.757 95.5322 229.763 97.8269 228.923 99.6089C228.923 99.6089 229.248 96.8231 228.51 95.6906L227.441 96.4957C227.441 96.4957 228.377 98.7528 227.67 100.229C227.67 100.229 227.743 96.9707 227.207 96.697C227.207 96.697 226.269 97.5021 226.113 97.8349C226.113 97.8349 226.752 99.472 226.269 100.291C226.269 100.291 226.1 98.1087 225.879 98.0872C225.879 98.0872 224.913 99.4747 224.772 100.454C224.859 99.5461 225.168 98.6782 225.667 97.9369C225.145 98.0125 224.655 98.2505 224.258 98.6213C224.258 98.6213 224.445 97.6122 225.904 97.6014C225.904 97.6014 226.699 96.5521 226.91 96.4984C226.91 96.4984 225.469 96.2891 224.57 96.6567C224.57 96.6567 225.388 95.7416 227.187 96.2756L228.244 95.4464C228.244 95.4464 226.352 95.0653 225.529 95.3283C225.529 95.3283 226.5 94.5231 228.528 95.2585L229.668 94.6144C229.668 94.6144 228.06 94.1528 227.086 94.236C227.086 94.236 228.136 93.6992 230 94.4426L230.81 94.1045C230.81 94.1045 229.63 93.7905 229.283 93.7341C228.936 93.6777 228.923 93.5731 228.923 93.5731C229.683 93.4783 230.454 93.6112 231.147 93.9569C231.147 93.9569 232.848 93.3691 232.823 93.2537Z" fill="#FF661B"/>
<path opacity="0.1" d="M247.393 102.748C247.393 102.748 237.862 101.619 238.65 108.825C238.65 108.825 238.368 110.075 239.405 110.703C239.405 110.703 239.447 110.166 240.411 110.408C240.751 110.487 241.098 110.523 241.445 110.515C241.914 110.505 242.366 110.334 242.736 110.027V110.027C242.736 110.027 245.478 108.988 246.746 104.359C246.746 104.359 247.569 103.379 247.549 103.113L245.901 103.76C245.901 103.76 246.404 105.032 245.901 106.041C245.901 106.041 245.954 103.811 245.649 103.846C245.586 103.846 244.791 104.23 244.791 104.23C244.791 104.23 245.637 106.444 244.847 107.987C244.847 107.987 245.244 105.338 244.487 104.383L243.317 105.027C243.317 105.027 244.323 107.322 243.483 109.104C243.483 109.104 243.808 106.318 243.07 105.188L242.001 105.993C242.001 105.993 242.937 108.25 242.233 109.729C242.233 109.729 242.303 106.468 241.767 106.194C241.767 106.194 240.829 107 240.673 107.332C240.673 107.332 241.312 108.969 240.829 109.788C240.829 109.788 240.66 107.606 240.439 107.585C240.439 107.585 239.473 108.972 239.334 109.952C239.421 109.044 239.729 108.176 240.227 107.434C239.705 107.511 239.216 107.749 238.818 108.119C238.818 108.119 239.007 107.11 240.466 107.102C240.466 107.102 241.259 106.052 241.473 105.996C241.473 105.996 240.031 105.789 239.133 106.157C239.133 106.157 239.951 105.239 241.75 105.773L242.806 104.944C242.806 104.944 240.914 104.563 240.092 104.826C240.092 104.826 241.063 104.021 243.091 104.759L244.23 104.112C244.23 104.112 242.623 103.65 241.649 103.733C241.649 103.733 242.698 103.197 244.562 103.94L245.373 103.605C245.373 103.605 244.193 103.291 243.848 103.232C243.503 103.173 243.486 103.071 243.486 103.071C244.246 102.977 245.016 103.111 245.71 103.457C245.71 103.457 247.418 102.864 247.393 102.748Z" fill="#FF661B"/>
<path opacity="0.1" d="M215.045 22.769C215.045 22.769 207.366 16.642 204.621 23.279C204.621 23.279 203.783 24.2049 204.385 25.3133C204.385 25.3133 204.671 24.8812 205.391 25.5977C205.646 25.8507 205.928 26.0705 206.231 26.2526C206.642 26.4965 207.117 26.5907 207.582 26.521V26.521C207.582 26.521 210.441 27.1087 213.734 23.805C213.734 23.805 214.906 23.4024 215.017 23.1662L213.289 22.8334C213.289 22.8334 213.107 24.1941 212.214 24.8033C212.214 24.8033 213.319 22.9086 213.032 22.7717C212.974 22.7422 212.111 22.6375 212.111 22.6375C212.111 22.6375 211.787 25.0046 210.378 25.8983C210.378 25.8983 211.98 23.8291 211.782 22.5946L210.466 22.5194C210.466 22.5194 210.242 25.0395 208.672 26.1238C208.672 26.1238 210.277 23.8989 210.181 22.5248L208.878 22.6375C208.878 22.6375 208.627 25.0878 207.303 25.9788C207.303 25.9788 208.913 23.2092 208.581 22.6832C208.581 22.6832 207.391 22.863 207.097 23.0723C207.097 23.0723 206.87 24.8275 206.065 25.273C206.065 25.273 206.956 23.3004 206.775 23.1636C206.775 23.1636 205.283 23.8372 204.697 24.6047C205.204 23.8698 205.882 23.2889 206.664 22.9193C206.177 22.7036 205.642 22.6439 205.124 22.7476C205.124 22.7476 205.766 21.98 207.029 22.761C207.029 22.761 208.209 22.286 208.41 22.345C208.41 22.345 207.265 21.3869 206.317 21.2205C206.317 21.2205 207.459 20.8716 208.755 22.294L210.061 22.1518C210.061 22.1518 208.611 20.8099 207.776 20.5844C207.776 20.5844 208.991 20.4207 210.393 22.1437L211.683 22.2054C211.683 22.2054 210.516 20.9387 209.638 20.4825C209.638 20.4825 210.795 20.5898 212.051 22.235L212.909 22.3826C212.909 22.3826 212.041 21.4755 211.769 21.2393C211.497 21.0031 211.538 20.9253 211.538 20.9253C212.236 21.2564 212.836 21.7878 213.269 22.4604C213.269 22.4604 215.012 22.8791 215.045 22.769Z" fill="#FF661B"/>
<path opacity="0.1" d="M220.978 67.0028C220.978 67.0028 218.331 57.1721 212.378 60.7013C212.378 60.7013 211.185 60.8972 211.037 62.1693C211.037 62.1693 211.51 62.011 211.673 63.0388C211.734 63.4081 211.835 63.7685 211.975 64.1124C212.162 64.5748 212.485 64.9594 212.896 65.2073V65.2073C212.896 65.2073 214.844 67.5154 219.337 67.0001C219.337 67.0001 220.499 67.4349 220.721 67.3168L219.531 65.9373C219.531 65.9373 218.618 66.9089 217.561 66.8176C217.561 66.8176 219.513 66.0125 219.362 65.7253C219.332 65.6663 218.703 65.0248 218.703 65.0248C218.703 65.0248 217.108 66.7049 215.478 66.509C215.478 66.509 217.926 65.8917 218.464 64.7806L217.458 63.8735C217.458 63.8735 215.852 65.736 213.988 65.5911C213.988 65.5911 216.524 64.8477 217.224 63.691L216.122 62.9422C216.122 62.9422 214.524 64.7269 212.974 64.5928C212.974 64.5928 215.825 63.4199 215.86 62.7893C215.86 62.7893 214.808 62.1666 214.454 62.1451C214.454 62.1451 213.279 63.3958 212.385 63.2348C212.385 63.2348 214.212 62.2337 214.147 62.0083C214.147 62.0083 212.577 61.5869 211.673 61.8204C212.491 61.5616 213.359 61.5348 214.189 61.7426C213.923 61.257 213.53 60.8651 213.057 60.6154C213.057 60.6154 214.003 60.4141 214.567 61.8499C214.567 61.8499 215.777 62.231 215.903 62.4082C215.903 62.4082 215.533 60.9079 214.871 60.1645C214.871 60.1645 215.978 60.6208 216.202 62.596L217.324 63.3233C217.324 63.3233 216.932 61.3105 216.388 60.602C216.388 60.602 217.45 61.2541 217.594 63.53L218.6 64.4076C218.6 64.4076 218.386 62.647 217.943 61.7238C217.943 61.7238 218.806 62.5558 218.877 64.6759L219.475 65.3469C219.475 65.3469 219.299 64.0641 219.224 63.6991C219.148 63.3341 219.224 63.2831 219.224 63.2831C219.596 63.9969 219.775 64.8073 219.74 65.6233C219.74 65.6233 220.887 67.0672 220.978 67.0028Z" fill="#FF661B"/>
<path opacity="0.1" d="M161.998 89.1557C161.998 89.1557 156.857 80.5193 152.085 85.6883C152.085 85.6883 150.993 86.225 151.184 87.4998C151.184 87.4998 151.599 87.2046 152.027 88.1439C152.18 88.4768 152.371 88.7886 152.595 89.0725C152.895 89.46 153.306 89.7315 153.765 89.8454V89.8454C153.765 89.8454 156.243 91.4771 160.42 89.6307C160.42 89.6307 161.65 89.7005 161.832 89.5207L160.322 88.5545C160.322 88.5545 159.7 89.7622 158.661 89.9903C158.661 89.9903 160.327 88.6485 160.103 88.4015C160.06 88.3532 159.285 87.9292 159.285 87.9292C159.285 87.9292 158.196 90.0172 156.581 90.3204C156.581 90.3204 158.767 88.992 158.993 87.7628L157.788 87.1965C157.788 87.1965 156.739 89.4643 154.913 89.8803C154.913 89.8803 157.152 88.4069 157.517 87.0865L156.259 86.7C156.259 86.7 155.197 88.8927 153.675 89.2281C153.675 89.2281 156.1 87.2475 155.967 86.6303C155.967 86.6303 154.794 86.3485 154.457 86.4343C154.457 86.4343 153.66 87.9882 152.759 88.101C152.759 88.101 154.248 86.5927 154.125 86.3941C154.125 86.3941 152.507 86.4612 151.702 86.9577C152.42 86.4614 153.248 86.1745 154.102 86.1257C153.72 85.7395 153.24 85.4811 152.721 85.3823C152.721 85.3823 153.574 84.9073 154.482 86.115C154.482 86.115 155.74 86.115 155.914 86.2492C155.914 86.2492 155.159 84.9073 154.331 84.4054C154.331 84.4054 155.514 84.5128 156.249 86.3404L157.519 86.7C157.519 86.7 156.611 84.8885 155.904 84.3705C155.904 84.3705 157.094 84.6765 157.831 86.8208L159.019 87.3576C159.019 87.3576 158.349 85.7339 157.678 84.9744C157.678 84.9744 158.724 85.5111 159.351 87.5266L160.106 87.9909C160.106 87.9909 159.602 86.8128 159.424 86.488C159.245 86.1633 159.316 86.0881 159.316 86.0881C159.86 86.6618 160.244 87.3856 160.425 88.1788C160.425 88.1788 161.93 89.2469 161.998 89.1557Z" fill="#FF661B"/>
<path d="M195.78 45.0286C195.78 45.0286 190.891 36.2285 185.967 41.2364C185.967 41.2364 184.86 41.7463 185.016 43.0185C185.016 43.0185 185.437 42.734 185.839 43.6867C185.983 44.0254 186.165 44.3444 186.38 44.6368C186.669 45.0325 187.072 45.3156 187.527 45.4419V45.4419C187.527 45.4419 189.955 47.1542 194.185 45.4419C194.185 45.4419 195.412 45.5519 195.599 45.3775L194.122 44.363C194.122 44.363 193.468 45.5466 192.421 45.7425C192.421 45.7425 194.124 44.4462 193.91 44.202C193.865 44.151 193.105 43.7001 193.105 43.7001C193.105 43.7001 191.955 45.7532 190.338 46.0028C190.338 46.0028 192.562 44.7468 192.821 43.5284L191.633 42.9326C191.633 42.9326 190.519 45.1682 188.68 45.5251C188.68 45.5251 190.962 44.1269 191.364 42.8199L190.121 42.3904C190.121 42.3904 188.994 44.5375 187.464 44.8327C187.464 44.8327 189.945 42.9326 189.829 42.3126C189.829 42.3126 188.667 41.9906 188.32 42.0657C188.32 42.0657 187.477 43.5928 186.574 43.676C186.574 43.676 188.106 42.2214 187.99 42.0174C187.99 42.0174 186.37 42.0308 185.552 42.5005C186.285 42.0292 187.12 41.7701 187.975 41.749C187.603 41.3501 187.13 41.0758 186.614 40.96C186.614 40.96 187.482 40.5118 188.375 41.749C188.375 41.749 189.633 41.7946 189.802 41.9315C189.802 41.9315 189.09 40.5896 188.275 40.0368C188.275 40.0368 189.452 40.1817 190.134 42.0335L191.392 42.4361C191.392 42.4361 190.539 40.595 189.845 40.0529C189.845 40.0529 191.027 40.3991 191.701 42.5649L192.871 43.1473C192.871 43.1473 192.25 41.5021 191.613 40.7319C191.613 40.7319 192.642 41.3035 193.213 43.3378L193.951 43.8263C193.951 43.8263 193.478 42.632 193.312 42.3019C193.146 41.9718 193.216 41.8993 193.216 41.8993C193.743 42.4906 194.107 43.2264 194.265 44.0249C194.265 44.0249 195.707 45.1172 195.78 45.0286Z" fill="#FF661B"/>
<path d="M164.851 63.5331C164.851 63.5331 165.102 53.3079 158.442 54.7491C158.442 54.7491 157.25 54.5531 156.747 55.7179C156.747 55.7179 157.25 55.7179 157.109 56.7512C157.063 57.1196 157.058 57.4926 157.094 57.8623C157.139 58.3637 157.338 58.8353 157.66 59.2042C157.66 59.2042 158.86 62.0329 163.291 62.9937C163.291 62.9937 164.274 63.7854 164.521 63.7424L163.766 62.0463C163.766 62.0463 162.621 62.6743 161.638 62.2476C161.638 62.2476 163.726 62.1161 163.668 61.7886C163.668 61.7215 163.235 60.9057 163.235 60.9057C163.235 60.9057 161.238 61.9926 159.741 61.2787C159.741 61.2787 162.257 61.48 163.079 60.597L162.377 59.4081C162.377 59.4081 160.319 60.6641 158.583 59.9234C158.583 59.9234 161.213 60.0361 162.209 59.1585L161.371 58.085C161.371 58.085 159.341 59.2712 157.901 58.6432C157.901 58.6432 160.951 58.4473 161.172 57.8542C161.172 57.8542 160.347 56.9229 160.015 56.7807C160.015 56.7807 158.541 57.5858 157.735 57.1511C157.735 57.1511 159.748 56.7914 159.761 56.5526C159.761 56.5526 158.385 55.6428 157.456 55.5757C158.312 55.592 159.149 55.8474 159.884 56.3164C159.769 55.7678 159.507 55.2669 159.129 54.8752C159.129 54.8752 160.088 54.9906 160.219 56.5391C160.219 56.5391 161.268 57.296 161.336 57.5053C161.336 57.5053 161.409 55.9568 160.989 55.0335C160.989 55.0335 161.914 55.8253 161.567 57.7791L162.43 58.8365C162.43 58.8365 162.627 56.7914 162.312 55.9407C162.312 55.9407 163.137 56.9041 162.629 59.121L163.326 60.2777C163.326 60.2777 163.623 58.5305 163.464 57.5026C163.464 57.5026 164.048 58.5761 163.515 60.6185L163.897 61.4505C163.897 61.4505 164.091 60.1703 164.116 59.7973C164.141 59.4242 164.237 59.4001 164.237 59.4001C164.388 60.2007 164.328 61.0304 164.063 61.7967C164.063 61.7967 164.74 63.568 164.851 63.5331Z" fill="#FF661B"/>
<path opacity="0.1" d="M175.861 193.46C179.603 193.46 182.636 192.914 182.636 192.239C182.636 191.565 179.603 191.018 175.861 191.018C172.119 191.018 169.085 191.565 169.085 192.239C169.085 192.914 172.119 193.46 175.861 193.46Z" fill="#FF661B"/>
<path opacity="0.1" d="M151.161 212C154.903 212 157.937 211.453 157.937 210.779C157.937 210.104 154.903 209.558 151.161 209.558C147.419 209.558 144.386 210.104 144.386 210.779C144.386 211.453 147.419 212 151.161 212Z" fill="#FF661B"/>
<path opacity="0.1" d="M23.434 202.502C27.176 202.502 30.2096 201.956 30.2096 201.281C30.2096 200.607 27.176 200.06 23.434 200.06C19.6919 200.06 16.6584 200.607 16.6584 201.281C16.6584 201.956 19.6919 202.502 23.434 202.502Z" fill="#FF661B"/>
<path opacity="0.1" d="M202.553 210.779C206.295 210.779 209.328 210.232 209.328 209.558C209.328 208.883 206.295 208.336 202.553 208.336C198.811 208.336 195.777 208.883 195.777 209.558C195.777 210.232 198.811 210.779 202.553 210.779Z" fill="#FF661B"/>
<path d="M209.608 195.889C215.195 195.889 219.725 195.072 219.725 194.064C219.725 193.056 215.195 192.239 209.608 192.239C204.02 192.239 199.491 193.056 199.491 194.064C199.491 195.072 204.02 195.889 209.608 195.889Z" fill="#FF661B"/>
<path d="M213.802 191.077C214.264 190.677 214.6 190.136 214.766 189.526C214.891 188.909 214.645 188.171 214.094 187.945C213.475 187.693 212.813 188.149 212.31 188.611C211.807 189.073 211.236 189.601 210.579 189.505C210.916 189.178 211.168 188.764 211.311 188.303C211.454 187.841 211.483 187.348 211.394 186.872C211.366 186.674 211.287 186.489 211.168 186.335C210.823 185.943 210.202 186.112 209.789 186.421C208.481 187.403 208.116 189.298 208.108 191.005C207.977 190.39 208.088 189.749 208.086 189.126C208.083 188.504 207.92 187.784 207.419 187.457C207.112 187.274 206.764 187.182 206.412 187.189C205.824 187.167 205.167 187.229 204.767 187.688C204.264 188.257 204.397 189.215 204.83 189.835C205.263 190.455 205.924 190.855 206.533 191.289C207.021 191.6 207.437 192.023 207.751 192.527C207.787 192.597 207.816 192.671 207.839 192.747H211.527C212.353 192.303 213.118 191.741 213.802 191.077V191.077Z" fill="#FF661B"/>
<path d="M18.8851 195.605C18.8851 195.605 22.7471 195.479 23.9171 194.593C25.087 193.708 29.8624 192.653 30.1517 194.073C30.4411 195.492 35.9587 201.128 31.5959 201.166C27.2332 201.203 21.4589 200.441 20.2965 199.684C19.1342 198.928 18.8851 195.605 18.8851 195.605Z" fill="#A8A8A8"/>
<path opacity="0.2" d="M31.6689 200.672C27.3061 200.709 21.5319 199.947 20.3695 199.19C19.4839 198.616 19.1316 196.552 19.0134 195.599H18.8851C18.8851 195.599 19.1367 198.924 20.2915 199.679C21.4464 200.433 27.2281 201.198 31.5909 201.16C32.8489 201.16 33.2841 200.672 33.2615 199.963C33.0854 200.395 32.6048 200.663 31.6689 200.672Z" fill="black"/>
</g>
<defs>
<linearGradient id="paint0_linear" x1="56.1042" y1="116.32" x2="134.636" y2="116.32" gradientUnits="userSpaceOnUse">
<stop stop-color="#808080" stop-opacity="0.25"/>
<stop offset="0.54" stop-color="#808080" stop-opacity="0.12"/>
<stop offset="1" stop-color="#808080" stop-opacity="0.1"/>
</linearGradient>
<clipPath id="clip0">
<rect width="254" height="212" fill="white"/>
</clipPath>
</defs>
</svg>
