<svg width="319" height="212" viewBox="0 0 319 212" fill="none" xmlns="http://www.w3.org/2000/svg">
<g clip-path="url(#clip0)">
<path opacity="0.1" d="M319 136.034C319.005 141.773 318.362 147.49 317.085 153.061C316.655 154.936 316.156 156.773 315.587 158.574C314.89 160.794 314.084 162.973 313.171 165.1C312.711 166.173 312.224 167.228 311.711 168.263C311.72 174.147 310.597 179.97 308.415 185.362C304.469 195.036 297.436 202.859 288.595 207.405C283.061 210.255 277.012 211.752 270.88 211.791H60.5566C51.1982 211.813 42.0012 209.16 33.9006 204.102C32.7035 203.353 31.5371 202.556 30.4014 201.71C27.9354 199.872 25.6187 197.81 23.476 195.548C20.5753 192.485 18.0199 189.063 15.8627 185.353C10.7948 176.667 8.11003 166.609 8.11944 156.344C2.98704 146.623 -0.0057373 134.979 -0.0057373 122.466C-0.0057373 106.679 4.7502 92.2782 12.5639 81.3765C14.1929 79.0989 15.9773 76.9559 17.9022 74.9653C19.8014 72.9955 21.8427 71.1919 24.0069 69.5715C25.7377 68.2726 27.5474 67.1005 29.4237 66.0633C30.2064 65.6306 30.9918 65.2272 31.7908 64.85C32.4923 64.5138 33.2019 64.201 33.9196 63.9057C34.7809 63.551 35.653 63.2265 36.5359 62.9322C37.4188 62.6379 38.29 62.3787 39.1495 62.1546C40.4134 61.8213 41.699 61.5504 43.0063 61.3418C44.0896 61.1693 45.173 61.0495 46.2563 60.9559C47.1176 60.8897 47.9861 60.8507 48.8618 60.839H49.3358C50.3 60.839 51.2587 60.8799 52.2094 60.9501C52.3096 60.7337 52.4179 60.5145 52.5181 60.2982C52.8973 59.5205 53.29 58.7428 53.6854 57.9798V57.9594C53.7532 57.8278 53.8209 57.6962 53.8913 57.5676C54.2109 56.9449 54.544 56.328 54.8853 55.717C55.0424 55.4247 55.1967 55.1499 55.3565 54.8721C55.3917 54.8049 55.427 54.7406 55.4676 54.6733C55.6301 54.381 55.7953 54.0886 55.9632 53.7963C56.7992 52.356 57.6686 50.9381 58.5714 49.5426C58.6499 49.4228 58.7231 49.3058 58.8016 49.1889C58.9424 48.9725 59.0724 48.7591 59.2295 48.5457C59.6033 47.9815 59.9879 47.4143 60.3752 46.8559C60.646 46.4613 60.9169 46.0666 61.2094 45.6865C61.9135 44.7042 62.6367 43.7278 63.3761 42.763C64.1155 41.7983 64.8955 40.8277 65.6836 39.8776C65.792 39.746 65.9003 39.6174 66.0141 39.4858L67.1705 38.1264C67.2274 38.0621 67.2762 38.0036 67.3303 37.9451C67.4685 37.7843 67.6012 37.6235 67.7501 37.4657C68.3704 36.7582 69.0068 36.0595 69.646 35.3695C72.9109 31.8679 76.389 28.6058 80.0571 25.6051C80.2006 25.4823 80.3469 25.3653 80.4904 25.2484C81.1784 24.6871 81.8771 24.1345 82.5759 23.5908C86.42 20.6155 90.4377 17.9106 94.6039 15.4927C94.891 15.3173 95.1835 15.1506 95.4787 14.984C99.2148 12.852 103.057 10.943 106.987 9.26566C109.128 8.35158 111.307 7.49792 113.525 6.70468C114.993 6.18722 116.466 5.69315 117.958 5.24293C120.266 4.52765 122.602 3.88253 124.968 3.30758C131.936 1.6198 139.025 0.577202 146.158 0.191134C148.325 0.0683476 150.516 0.00695507 152.731 0.00695507C163.421 -0.00832133 174.07 1.44562 184.42 4.33372C184.527 4.50828 184.673 4.65059 184.845 4.74725C185.017 4.84391 185.209 4.89175 185.403 4.88626H186.313C186.708 5.00028 187.101 5.12014 187.496 5.24293C189.705 5.93092 191.881 6.68031 194.026 7.4911L194.568 7.70159C199.862 9.73365 205.014 12.1763 209.981 15.0103C214.459 17.56 218.771 20.4355 222.887 23.6171C223.521 24.1082 224.145 24.6042 224.761 25.1051C225.509 24.5848 226.269 24.0887 227.042 23.6171C230.026 21.7833 233.196 20.3257 236.488 19.2728C243.373 17.0738 250.657 16.7663 257.679 18.3782C266.684 20.4392 274.837 25.5554 281.421 32.8319C284.103 35.7996 286.492 39.0602 288.549 42.5613C288.698 42.8127 288.847 43.0671 288.991 43.3243C290.756 46.4336 292.272 49.6992 293.525 53.0859C293.571 53.2087 293.617 53.3285 293.657 53.4513C294.813 56.6207 295.746 59.88 296.447 63.2012C296.479 63.3678 296.517 63.5374 296.55 63.7069C297.205 66.9211 297.651 70.181 297.882 73.4626C297.882 73.5796 297.882 73.6994 297.904 73.8193C298.018 75.5169 298.076 77.233 298.077 78.9676C298.077 80.517 298.029 82.0548 297.939 83.5779C297.939 83.7446 297.918 83.92 297.904 84.0895C297.88 84.5339 297.844 84.9666 297.809 85.4139C299.878 87.2139 301.814 89.1844 303.6 91.3076C304.389 92.2373 305.153 93.203 305.891 94.2048C308.141 97.2474 310.118 100.514 311.795 103.961C316.367 113.31 319 124.285 319 136.034Z" fill="#FF661B"/>
<path opacity="0.1" d="M288.395 193.576C288.395 200.221 282.014 206.44 270.88 211.795H60.5569C50.8257 211.795 41.7119 207.995 33.9009 201.367C31.9373 198.853 30.9027 196.248 30.9027 193.573C30.9027 186.51 38.1179 179.918 50.5928 174.345L50.9449 174.193C54.4658 172.635 58.4011 171.165 62.702 169.782C62.8103 169.747 62.9214 169.715 63.0297 169.674C66.4423 168.592 70.0724 167.567 73.9202 166.598C74.042 166.569 74.1612 166.537 74.2831 166.513C75.7673 166.133 77.2813 165.78 78.8278 165.426L79.4236 165.291C90.677 162.771 103.469 160.772 117.341 159.415H117.357C119.3 159.22 121.264 159.046 123.248 158.892C125.455 158.702 127.69 158.541 129.949 158.392C131.674 158.272 133.421 158.17 135.173 158.076C135.18 158.073 135.187 158.072 135.194 158.072C135.2 158.072 135.207 158.073 135.214 158.076C143.12 157.646 151.288 157.421 159.641 157.421C180.295 157.421 199.817 158.79 217.116 161.222C217.132 161.219 217.148 161.219 217.164 161.222C219.824 161.596 222.435 161.991 224.981 162.412C225.709 162.535 226.435 162.657 227.148 162.783C230.02 163.284 232.819 163.813 235.544 164.371C267.584 170.945 288.395 181.584 288.395 193.576Z" fill="#FF661B"/>
<path d="M236.036 71.1232C236.036 71.1232 233.171 69.869 224.055 74.3799C214.938 78.8909 213.801 78.3208 211.442 77.6426C209.083 76.9643 207.766 76.7889 205.237 73.0205C205.237 73.0205 203.452 62.5807 201.716 60.9611C199.98 59.3415 192.651 61.8849 192.651 61.8849C192.651 61.8849 183.851 64.0629 182.175 51.3604C182.175 51.3604 183.364 41.7947 181.744 38.8595C181.744 38.8595 185.016 40.3797 190.411 37.924C195.806 35.4682 200.126 40.5697 200.126 40.5697C200.126 40.5697 201.48 44.3703 201.345 46.6389C201.209 48.9075 202.065 49.7583 204.638 48.662C204.638 48.662 205.903 46.7208 204.113 43.5108C202.322 40.3008 201.044 37.9123 201.542 35.4215C202.041 32.9307 203.479 29.4722 208.097 27.7444C212.714 26.0166 218.984 25.6979 221.993 24.3327C225.002 22.9674 225.745 22.0962 225.745 22.0962C225.745 22.0962 223.892 24.0988 228.255 32.5915C232.618 41.0843 229.837 44.7679 229.837 44.7679C229.837 44.7679 227.516 50.7406 217.267 50.2553C217.267 50.2553 207.393 50.6441 212.777 55.1638C212.777 55.1638 216.225 54.4066 221.379 52.6379C226.533 50.8692 230.254 58.1692 231.178 63.2473C232.101 68.3254 236.036 71.1232 236.036 71.1232Z" fill="#FF661B"/>
<path d="M222.763 28.5273L222.817 28.5098C223.212 30.1294 218.8 36.6429 215.027 41.8204L214.984 41.7824C220.303 34.4912 223.069 29.7815 222.763 28.5273Z" fill="#444053"/>
<path d="M215.06 41.6831L215.084 41.7474C212.07 45.8812 208.281 50.8102 205.247 54.4734C204.958 54.8213 204.671 55.1867 204.394 55.5609L204.308 55.4849C204.578 55.1107 204.874 54.7423 205.163 54.3944C208.194 50.7459 212.043 45.8198 215.06 41.6831Z" fill="#444053"/>
<path d="M204.381 55.3916L204.44 55.5027C198.921 62.943 198.555 74.5054 198.542 74.596L197.377 73.1343C197.39 73.0407 198.823 62.8845 204.381 55.3916Z" fill="#444053"/>
<path d="M229.647 67.0885C229.647 67.0885 223.147 63.4341 218.066 64.7497C212.985 66.0652 201.559 60.1013 201.559 60.1013C201.559 60.1013 196.711 57.9759 195.736 55.5523C195.736 55.5523 192.407 51.7518 192.215 49.7901C192.022 47.8285 188.786 42.8849 186.673 42.6948" stroke="#444053" stroke-miterlimit="10"/>
<path d="M228.691 70.6053C228.691 70.6053 225.414 68.2197 225.796 65.4424" stroke="#444053" stroke-miterlimit="10"/>
<path d="M223.665 73.684C223.665 73.684 218.976 71.848 218.519 64.6445" stroke="#444053" stroke-miterlimit="10"/>
<path d="M216.105 75.5484C216.105 75.5484 211.626 71.5374 213.113 64.5269" stroke="#444053" stroke-miterlimit="10"/>
<path d="M207.008 73.5901C207.008 73.5901 204.029 66.8369 206.68 62.4429" stroke="#444053" stroke-miterlimit="10"/>
<path d="M229.71 62.6357C229.71 62.6357 226.321 63.8051 227.047 65.723" stroke="#444053" stroke-miterlimit="10"/>
<path d="M225.62 56.0083C225.62 56.0083 221.083 57.5607 220.978 64.4864" stroke="#444053" stroke-miterlimit="10"/>
<path d="M219.293 54.3945C219.293 54.3945 215.163 59.8965 215.466 64.8957" stroke="#444053" stroke-miterlimit="10"/>
<path d="M212.062 56.5522C212.062 56.5522 207.961 60.7855 208.484 63.1389" stroke="#444053" stroke-miterlimit="10"/>
<path d="M209.589 55.0583C209.589 55.0583 205.743 55.8008 205.204 54.4385" stroke="#444053" stroke-miterlimit="10"/>
<path d="M204.592 50.0474C204.592 50.0474 206.534 52.8247 207.03 52.202" stroke="#444053" stroke-miterlimit="10"/>
<path d="M223.854 48.2903C223.854 48.2903 214.158 49.0504 211.964 45.8931" stroke="#444053" stroke-miterlimit="10"/>
<path d="M202.563 36.0493C202.563 36.0493 207.111 46.5885 210.418 47.9304" stroke="#444053" stroke-miterlimit="10"/>
<path d="M207.325 31.0298C207.325 31.0298 210.117 40.7241 213.578 43.7499" stroke="#444053" stroke-miterlimit="10"/>
<path d="M227.933 40.289C227.933 40.289 220.561 43.7036 216.135 40.248" stroke="#444053" stroke-width="0.75" stroke-miterlimit="10"/>
<path d="M213.89 28.9629C213.89 28.9629 215.575 36.0874 217.844 37.8094" stroke="#444053" stroke-width="0.75" stroke-miterlimit="10"/>
<path d="M226.82 32.3047C226.82 32.3047 222.676 34.0003 221.132 32.7023" stroke="#444053" stroke-width="0.75" stroke-miterlimit="10"/>
<path d="M201.041 52.3745C201.041 52.3745 201.041 58.5869 199.476 59.0284" stroke="#444053" stroke-miterlimit="10"/>
<path d="M188.233 60.4231C188.233 60.4231 194.463 61.0078 197.325 57.5317" stroke="#444053" stroke-miterlimit="10"/>
<path d="M199.438 45.0366C199.438 45.0366 197.932 51.3367 193.777 53.0353" stroke="#444053" stroke-miterlimit="10"/>
<path d="M184.501 53.7866C184.501 53.7866 188.905 55.4384 192.694 51.2314" stroke="#444053" stroke-miterlimit="10"/>
<path d="M194.538 39.6191C194.538 39.6191 194.124 44.9691 191.429 47.4746" stroke="#444053" stroke-miterlimit="10"/>
<path d="M184.669 45.6326C184.669 45.6326 188.323 45.6589 189.179 44.3726" stroke="#444053" stroke-miterlimit="10"/>
<path d="M211.095 65.9482H107.038V122.646H211.095V65.9482Z" fill="#33323D"/>
<path d="M243.839 139.872H74.6243V177.193H243.839V139.872Z" fill="#33323D"/>
<path d="M115.017 149.2H201.786L219.074 212H96.733L115.017 149.2Z" fill="white"/>
<path d="M69.8034 117.621V137.001V141.082V177.19H102.217V142.743H216.246V177.19H248.66V141.082V137.001V117.621H69.8034Z" fill="#504F60"/>
<path opacity="0.1" d="M248.66 117.621H69.8034V136.998H248.66V117.621Z" fill="#33323D"/>
<path opacity="0.8" d="M239.021 130.183C240.49 130.183 241.681 128.897 241.681 127.312C241.681 125.726 240.49 124.441 239.021 124.441C237.552 124.441 236.362 125.726 236.362 127.312C236.362 128.897 237.552 130.183 239.021 130.183Z" fill="#8CCF4D"/>
<path opacity="0.8" d="M227.053 130.183C228.522 130.183 229.712 128.897 229.712 127.312C229.712 125.726 228.522 124.441 227.053 124.441C225.584 124.441 224.393 125.726 224.393 127.312C224.393 128.897 225.584 130.183 227.053 130.183Z" fill="#FA5959"/>
<path d="M207.273 52.3096H110.863V114.03H207.273V52.3096Z" fill="white"/>
<path d="M221.939 142.395C222.142 144.783 220.471 147.102 220.959 149.44C221.062 149.94 221.262 150.414 221.335 150.902C221.536 152.291 220.769 153.606 220.035 154.77L213.744 164.763C213.491 165.201 213.189 165.604 212.845 165.961C211.639 167.131 209.835 166.996 208.257 167.341C207.146 167.584 206.098 168.083 205.182 168.803C205.143 168.837 205.116 168.886 205.109 168.94C205.101 168.995 205.113 169.05 205.142 169.095C205.402 169.481 205.748 169.789 206.147 169.994C206.546 170.198 206.987 170.291 207.428 170.265C207.593 170.498 207.428 170.849 207.2 171.013C206.862 171.264 206.388 171.332 206.331 171.951C206.307 172.167 206.347 172.385 206.445 172.574C206.699 172.993 207.094 173.288 207.547 173.398C209.714 174.118 212.078 172.855 213.709 171.136C215.339 169.417 216.509 167.247 218.11 165.496C218.995 164.529 220.006 163.698 220.916 162.76C222.736 160.889 224.166 158.611 225.52 156.328C225.967 155.666 226.304 154.925 226.516 154.139C226.684 153.361 226.609 152.539 226.804 151.768C227.058 150.759 227.743 149.955 228.312 149.107C229.431 147.447 230.176 145.418 230.027 143.371C229.878 141.325 228.708 139.311 226.92 138.615C226.366 138.377 225.755 138.337 225.179 138.501C224.445 138.743 223.906 139.398 223.405 140.024L222.21 141.512C221.912 141.841 221.676 142.229 221.514 142.655C221.437 142.87 221.419 143.104 221.463 143.329C221.507 143.554 221.61 143.761 221.761 143.924" fill="#FBBEBE"/>
<path opacity="0.05" d="M221.939 142.395C222.142 144.783 220.471 147.102 220.959 149.44C221.062 149.94 221.262 150.414 221.335 150.902C221.536 152.291 220.769 153.606 220.035 154.77L213.744 164.763C213.491 165.201 213.189 165.604 212.845 165.961C211.639 167.131 209.835 166.996 208.257 167.341C207.146 167.584 206.098 168.083 205.182 168.803C205.143 168.837 205.116 168.886 205.109 168.94C205.101 168.995 205.113 169.05 205.142 169.095C205.402 169.481 205.748 169.789 206.147 169.994C206.546 170.198 206.987 170.291 207.428 170.265C207.593 170.498 207.428 170.849 207.2 171.013C206.862 171.264 206.388 171.332 206.331 171.951C206.307 172.167 206.347 172.385 206.445 172.574C206.699 172.993 207.094 173.288 207.547 173.398C209.714 174.118 212.078 172.855 213.709 171.136C215.339 169.417 216.509 167.247 218.11 165.496C218.995 164.529 220.006 163.698 220.916 162.76C222.736 160.889 224.166 158.611 225.52 156.328C225.967 155.666 226.304 154.925 226.516 154.139C226.684 153.361 226.609 152.539 226.804 151.768C227.058 150.759 227.743 149.955 228.312 149.107C229.431 147.447 230.176 145.418 230.027 143.371C229.878 141.325 228.708 139.311 226.92 138.615C226.366 138.377 225.755 138.337 225.179 138.501C224.445 138.743 223.906 139.398 223.405 140.024L222.21 141.512C221.912 141.841 221.676 142.229 221.514 142.655C221.437 142.87 221.419 143.104 221.463 143.329C221.507 143.554 221.61 143.761 221.761 143.924" fill="black"/>
<path d="M226.703 203.872C225.327 204.776 223.616 204.834 222.018 204.621C221.747 204.589 221.457 204.568 221.292 204.782C221.054 205.094 221.335 205.55 221.625 205.802C222.569 206.565 223.677 207.057 224.845 207.231C225.888 207.388 226.94 207.464 227.993 207.457C230.863 207.509 233.751 207.562 236.594 207.115C236.759 207.101 236.918 207.05 237.063 206.965C237.247 206.827 237.374 206.618 237.418 206.381C237.615 205.586 237.239 204.726 236.673 204.173C236.107 203.621 235.378 203.311 234.666 203.004L232.169 201.955C231.581 201.706 230.641 201.054 230.002 201.104C228.835 201.206 227.695 203.247 226.703 203.872Z" fill="#3F3D56"/>
<path opacity="0.05" d="M226.703 203.872C225.327 204.776 223.616 204.834 222.018 204.621C221.747 204.589 221.457 204.568 221.292 204.782C221.054 205.094 221.335 205.55 221.625 205.802C222.569 206.565 223.677 207.057 224.845 207.231C225.888 207.388 226.94 207.464 227.993 207.457C230.863 207.509 233.751 207.562 236.594 207.115C236.759 207.101 236.918 207.05 237.063 206.965C237.247 206.827 237.374 206.618 237.418 206.381C237.615 205.586 237.239 204.726 236.673 204.173C236.107 203.621 235.378 203.311 234.666 203.004L232.169 201.955C231.581 201.706 230.641 201.054 230.002 201.104C228.835 201.206 227.695 203.247 226.703 203.872Z" fill="black"/>
<path d="M228.445 168.074C227.408 169.568 226.33 171.29 226.587 173.141C226.725 174.138 227.242 175.018 227.622 175.938C228.096 177.205 228.447 178.522 228.67 179.868C229.06 181.823 229.45 183.785 229.688 185.77C229.959 188.012 228.686 194.5 228.567 196.76C228.537 197.303 228.48 197.894 228.128 198.286C227.99 198.441 227.806 198.578 227.746 198.768C227.708 198.961 227.737 199.163 227.827 199.335C228.415 200.765 229.615 201.826 230.947 202.434C232.28 203.042 235.522 204.086 236.968 204.141C237.16 204.166 237.355 204.138 237.534 204.06C237.729 203.933 237.883 203.744 237.973 203.519C239.018 201.364 238.014 193.693 238.03 191.258C238.03 189.211 238.488 187.211 238.406 185.183C238.339 183.554 237.935 181.967 237.789 180.341C237.548 177.678 238 175.006 238.455 172.375C238.802 170.36 239.148 168.343 239.593 166.349C239.863 165.136 240.178 163.908 240.798 162.841C241.288 162.002 241.954 161.303 242.515 160.502C244.069 158.304 244.759 155.533 244.435 152.79C244.403 152.521 240.828 153.77 240.516 153.916C239.233 154.505 238.053 155.325 237.025 156.342C236.213 157.19 235.549 158.327 234.823 159.28C233.799 160.625 232.789 161.981 231.792 163.347C230.66 164.916 229.544 166.492 228.445 168.074Z" fill="#464353"/>
<path opacity="0.05" d="M228.445 167.978C227.408 169.472 226.33 171.194 226.587 173.047C226.725 174.041 227.242 174.921 227.622 175.842C228.096 177.109 228.447 178.426 228.67 179.771C229.06 181.727 229.45 183.689 229.688 185.674C229.959 187.916 228.686 194.406 228.567 196.666C228.537 197.207 228.48 197.8 228.128 198.189C227.99 198.344 227.806 198.482 227.746 198.672C227.705 198.871 227.734 199.079 227.827 199.256C228.415 200.683 229.615 201.747 230.947 202.352C232.28 202.958 235.522 203.522 236.968 203.571C237.16 203.596 237.355 203.568 237.534 203.49C237.729 203.364 237.883 203.174 237.973 202.949C239.018 200.794 238.014 193.611 238.03 191.179C238.03 189.132 238.488 187.13 238.406 185.101C238.339 183.472 237.935 181.885 237.789 180.26C237.548 177.596 238 174.924 238.455 172.296C238.802 170.279 239.148 168.262 239.593 166.268C239.863 165.054 240.178 163.827 240.798 162.76C241.288 161.923 241.954 161.222 242.515 160.438C244.067 158.239 244.757 155.469 244.435 152.726C244.403 152.454 240.828 153.703 240.516 153.852C239.232 154.441 238.051 155.264 237.025 156.284C236.213 157.135 235.549 158.269 234.823 159.207C233.799 160.552 232.789 161.909 231.792 163.277C230.66 164.836 229.544 166.403 228.445 167.978Z" fill="black"/>
<path d="M216.883 135.182C220.103 135.182 222.714 132.364 222.714 128.888C222.714 125.412 220.103 122.594 216.883 122.594C213.662 122.594 211.052 125.412 211.052 128.888C211.052 132.364 213.662 135.182 216.883 135.182Z" fill="#FBBEBE"/>
<path d="M222.132 128.625C222.67 129.553 223.376 130.355 224.208 130.983C225.039 131.61 225.979 132.051 226.972 132.279L226.533 133.995C225.774 136.957 224.908 140.088 222.803 142.14C223.034 141.137 222.736 140.058 222.21 139.196C221.648 138.357 220.982 137.605 220.23 136.962L216.875 133.811C216.775 133.731 216.689 133.632 216.623 133.519C216.542 133.297 216.542 133.05 216.623 132.829C217.051 131.393 218.272 130.49 219.261 129.525C219.758 129.022 220.203 128.463 220.588 127.856C221.276 126.824 221.69 127.856 222.132 128.625Z" fill="#FBBEBE"/>
<path d="M209.199 122.561L209.069 121.392C209.99 121.649 210.862 120.807 211.45 119.93C212.037 119.053 212.585 118.024 213.481 117.662C214.564 117.217 215.724 117.928 216.764 118.512C217.93 119.213 219.21 119.664 220.534 119.843C220.745 119.85 220.954 119.888 221.157 119.954C221.834 120.214 222.156 121.123 222.253 121.962C222.351 122.801 222.324 123.678 222.66 124.421C222.912 124.982 223.348 125.4 223.613 125.953C224.325 127.444 223.637 129.478 224.39 130.94L222.522 129.09C222.348 128.92 222.107 128.745 221.92 128.888C221.733 129.031 221.761 129.248 221.698 129.443C221.517 130.028 220.853 130.192 220.368 129.967C219.884 129.742 219.534 129.245 219.179 128.797C218.353 127.745 217.37 126.821 216.2 126.371C215.694 126.161 215.152 126.071 214.611 126.106C214.069 126.14 213.541 126.3 213.061 126.573C212.189 127.105 211.55 128.344 210.483 128.388C209.018 128.446 208.408 125.503 207.728 124.339C207.976 124.137 208.15 123.847 208.22 123.521C208.29 123.195 208.252 122.852 208.113 122.553C208.232 122.503 209.18 122.371 209.199 122.561Z" fill="#464353"/>
<path d="M233.504 203.823C232.352 204.932 230.856 205.534 229.312 205.51C228.919 205.51 228.374 205.592 228.372 206.016C228.379 206.142 228.418 206.263 228.486 206.367C228.975 207.244 229.746 207.895 230.652 208.197C231.492 208.472 232.391 208.425 233.269 208.378L235.828 208.235C236.31 208.206 236.795 208.179 237.277 208.115C237.759 208.051 238.279 207.942 238.783 207.864C240.017 207.673 241.265 207.609 242.51 207.673C242.84 207.688 243.222 207.673 243.428 207.405C243.634 207.136 243.523 206.65 243.447 206.261C243.295 205.46 243.447 204.621 243.306 203.817C243.059 202.405 241.935 201.327 240.695 200.815C239.544 200.341 237.502 199.801 236.41 200.587C235.24 201.435 234.536 202.815 233.504 203.823Z" fill="#3F3D56"/>
<path d="M236.039 156.576C236.267 157.746 237.304 158.623 237.337 159.792C237.361 160.739 236.733 161.546 236.283 162.35C235.853 163.192 235.491 164.073 235.2 164.981C234.345 167.34 233.286 169.606 232.036 171.749C231.435 172.775 230.763 173.892 230.901 175.099C230.996 175.663 231.179 176.205 231.443 176.701L233.244 180.563C233.64 181.335 233.949 182.154 234.165 183.004C234.319 183.738 234.336 184.498 234.436 185.247C234.72 187.615 235.749 190 235.143 192.295C235.089 192.494 234.899 192.734 234.755 192.588C235.349 193.786 235.839 194.997 235.782 196.356C235.758 197.069 235.554 197.818 235.801 198.479C235.94 198.736 236.032 199.02 236.072 199.315C236.072 199.508 235.988 199.692 235.969 199.899C235.92 200.446 236.383 200.902 236.868 201.069C237.353 201.235 237.875 201.23 238.363 201.387C239.303 201.68 239.969 202.557 240.773 203.165C241.588 203.775 242.55 204.113 243.541 204.138C243.682 204.155 243.824 204.124 243.948 204.051C244.019 203.984 244.076 203.902 244.115 203.81C244.154 203.717 244.175 203.617 244.175 203.516C244.218 203.032 244.151 202.543 243.978 202.094C243.805 201.645 243.532 201.249 243.184 200.94C243.033 200.836 242.907 200.693 242.818 200.525C242.773 200.375 242.761 200.216 242.783 200.06C242.929 197.935 242.894 195.799 242.677 193.681C242.58 193.01 242.548 192.33 242.583 191.652C242.637 191.088 242.794 190.527 242.734 189.962C242.675 189.398 242.412 188.889 242.255 188.346C241.984 187.381 242.055 186.346 242.025 185.335C241.976 183.58 241.605 181.861 241.234 180.154C241.09 179.485 240.928 178.78 240.486 178.283C240.113 177.862 239.509 177.456 239.649 176.894C239.726 176.687 239.843 176.498 239.991 176.342C240.165 176.106 240.294 175.834 240.368 175.543C240.442 175.252 240.46 174.948 240.421 174.649C240.58 174.695 240.748 174.679 240.896 174.604C241.045 174.529 241.164 174.4 241.234 174.24C244.162 172.752 246.529 169.77 247.572 166.46C247.63 166.216 247.721 165.983 247.842 165.768C248.113 165.358 248.584 165.183 249.002 164.955C250.312 164.244 251.22 162.908 252.051 161.602C252.536 160.841 253.018 160.058 253.227 159.166C253.341 158.59 253.395 158.002 253.389 157.412L253.462 154.366C253.477 154.169 253.459 153.971 253.408 153.781C253.339 153.599 253.236 153.435 253.105 153.299C252.311 152.386 251.267 151.771 250.126 151.545C249.356 151.396 248.571 151.425 247.794 151.355C246.285 151.22 244.795 150.717 243.287 150.834C240.914 151.021 238.804 152.796 237.686 155.062C237.293 155.872 236.882 156.576 236.039 156.576Z" fill="#464353"/>
<path d="M222.876 136.767C222.911 137.237 222.853 137.709 222.706 138.153C222.522 138.58 222.056 138.91 221.652 138.737C221.774 138.445 221.449 138.097 221.149 138.135C221 138.171 220.861 138.245 220.745 138.352C220.629 138.458 220.539 138.594 220.482 138.746C220.28 139.181 220.213 139.674 220.29 140.152C220.385 140.737 220.704 141.322 220.62 141.906C220.553 142.403 220.214 142.9 220.396 143.368C220.512 143.578 220.658 143.768 220.829 143.93C221.067 144.245 221.184 144.646 221.155 145.052C221.126 145.457 220.954 145.835 220.675 146.108L225.219 146.204C225.054 147.026 225.393 147.865 225.783 148.593C226.874 150.593 228.38 152.294 230.182 153.562C231.983 154.83 234.033 155.631 236.169 155.901C236.054 155.975 235.955 156.075 235.88 156.195C235.805 156.314 235.755 156.45 235.734 156.593C235.714 156.736 235.722 156.882 235.76 157.02C235.798 157.159 235.864 157.287 235.953 157.395C236.321 157.79 236.947 157.74 237.41 157.483C237.873 157.226 238.238 156.802 238.661 156.474C239.406 155.901 240.317 155.635 241.229 155.726C241.797 155.784 242.35 155.983 242.921 156.018C244.606 156.115 246.052 154.808 247.664 154.264C248.845 153.872 250.18 153.872 251.185 153.077C251.613 152.735 251.962 152.174 251.837 151.615C251.732 151.295 251.565 151.002 251.347 150.756C250.776 149.961 250.44 149.002 250.034 148.098C249.223 146.308 248.109 144.698 246.748 143.351C245.723 142.381 244.637 141.489 243.498 140.682C243.221 140.458 242.925 140.263 242.615 140.097C242.202 139.951 241.798 139.775 241.407 139.568C240.866 139.205 240.565 138.565 240.156 138.047C239.254 136.913 237.87 136.39 236.76 135.498C236.015 134.914 235.359 134.112 234.468 133.823C234.038 133.683 233.577 133.671 233.144 133.531C232.164 133.209 231.449 132.268 230.484 131.888C229.721 131.595 228.881 131.665 228.074 131.557C227.186 131.438 226.338 131.091 225.601 130.543C225.357 130.33 225.082 130.16 224.789 130.04C223.573 129.64 223.472 132.086 223.359 132.937C223.177 134.238 222.876 135.489 222.876 136.767Z" fill="#FF661B"/>
<path d="M224.063 144.982C224.266 147.37 222.595 149.686 223.082 152.027C223.185 152.527 223.386 153.001 223.459 153.489C223.662 154.878 222.893 156.193 222.159 157.354L215.867 167.323C215.615 167.762 215.313 168.164 214.968 168.522C213.763 169.691 211.959 169.557 210.38 169.902C209.27 170.145 208.222 170.644 207.306 171.363C207.266 171.398 207.24 171.447 207.232 171.501C207.225 171.555 207.236 171.611 207.265 171.656C207.525 172.042 207.87 172.351 208.27 172.556C208.669 172.76 209.11 172.853 209.551 172.825C209.716 173.062 209.551 173.41 209.324 173.574C208.985 173.828 208.511 173.895 208.454 174.515C208.43 174.73 208.47 174.948 208.568 175.138C208.823 175.555 209.218 175.851 209.67 175.962C211.837 176.681 214.201 175.418 215.832 173.699C217.462 171.98 218.632 169.811 220.236 168.06C221.121 167.092 222.132 166.262 223.039 165.324C224.862 163.452 226.275 161.175 227.643 158.892C228.09 158.229 228.427 157.489 228.64 156.702C228.808 155.924 228.732 155.103 228.927 154.331C229.182 153.323 229.867 152.516 230.436 151.671C231.554 150.01 232.299 147.981 232.15 145.935C232.001 143.888 230.831 141.874 229.043 141.178C228.489 140.939 227.879 140.899 227.302 141.064C226.571 141.307 226.029 141.962 225.528 142.587L224.334 144.076C224.036 144.404 223.8 144.793 223.64 145.219C223.563 145.432 223.545 145.666 223.588 145.891C223.631 146.115 223.734 146.322 223.884 146.484" fill="#FBBEBE"/>
<path d="M227.248 135.167C226.419 135.22 225.509 135.308 224.924 135.945C224.68 136.238 224.483 136.572 224.339 136.933C223.773 138.181 223.22 139.485 223.18 140.874C223.145 141.985 223.451 143.07 223.6 144.169C223.73 145.081 223.399 146.011 223.329 146.934C224.355 146.595 225.709 146.133 226.641 145.56C227.251 145.129 227.9 144.765 228.578 144.473C229.566 144.119 231.226 144.727 232.158 145.227C232.21 144.514 231.717 143.277 231.768 142.564C231.776 142.265 231.826 141.97 231.914 141.687C232.055 141.387 232.221 141.102 232.41 140.836C232.769 140.209 232.935 139.474 232.883 138.739C232.83 138.003 232.564 137.304 232.12 136.743C231.289 135.732 229.983 135.352 228.74 135.197C227.956 135.098 227.167 135.068 226.378 135.106" fill="#FF661B"/>
<path d="M104.544 114.715L99.2031 106.354C99.2031 106.354 99.1028 104.284 98.7535 103.801C98.4041 103.319 98.6776 102.243 98.6776 102.243C98.6776 102.243 99.0541 101.658 98.7291 101.597C98.4041 101.536 98.6776 100.226 98.6776 100.226L98.6532 98.1297C98.6532 98.1297 98.9539 96.1125 98.7047 95.6301C98.6311 95.4992 98.5943 95.3481 98.5986 95.195C98.6029 95.042 98.6482 94.8935 98.7291 94.7677C98.7291 94.7677 99.027 93.6129 98.7291 93.306C98.4312 92.999 98.5043 91.2098 98.5774 89.7832C98.6505 88.3565 98.0547 87.5525 98.0547 87.3391C98.0547 87.1257 96.083 85.0266 96.083 84.8366C96.083 84.6466 94.8344 83.8689 94.0842 83.6672C93.334 83.4655 92.9629 83.2901 92.9873 83.1819C93.0117 83.0738 91.8146 82.6469 91.8146 82.6469C91.8146 82.6469 90.7664 82.5651 90.3656 82.0008C89.9647 81.4366 88.7405 81.2729 88.7107 81.267L88.6864 81.1559C88.6864 81.115 88.6728 81.0741 88.6647 81.0332C88.7636 80.8631 88.854 80.6874 88.9355 80.5069L89.0059 80.3432C89.4446 80.3463 89.8733 80.2022 90.2328 79.931C90.4099 79.7726 90.5545 79.5762 90.6576 79.3542C90.7606 79.1323 90.8198 78.8897 90.8314 78.6417C90.8528 78.1447 90.7518 77.6505 90.5389 77.2092C90.3195 76.7269 89.9972 76.224 90.111 75.6978C90.1597 75.4727 90.2843 75.2739 90.3493 75.0517C90.4463 74.6179 90.3822 74.1604 90.1706 73.7771C89.981 73.3882 89.7183 73.0433 89.507 72.6661C89.2391 72.1833 89.0598 71.6493 88.9789 71.0933C88.9638 70.7975 88.8986 70.5072 88.7866 70.2367C88.6732 70.0461 88.5237 69.8837 88.3478 69.7602C87.5663 69.1584 86.6233 68.8502 85.6638 68.8831C84.984 68.9065 84.3096 69.1053 83.6325 69.0147C83.2291 68.9398 82.8323 68.8283 82.4462 68.6814C81.6093 68.4125 80.6424 68.3043 79.9139 68.8217C79.1853 69.3392 78.8955 70.3566 78.3999 71.1605C77.9638 71.8622 77.3165 72.4527 76.9915 73.207C76.9915 73.207 76.9915 73.1777 76.9915 73.166C76.9097 73.3377 76.847 73.5193 76.8046 73.7069C76.7116 74.3025 76.7497 74.9134 76.9157 75.4902C76.9523 75.8008 77.0965 76.0849 77.3192 76.2854C77.5657 76.4579 77.9042 76.417 78.1913 76.4725L78.1588 76.6245C77.8665 78.1357 78.1111 79.7103 78.8441 81.036C79.577 82.3617 80.7448 83.3415 82.1158 83.7812C82.1158 83.8368 82.1158 83.8894 82.1158 83.945C82.1152 84.0994 82.1062 84.2536 82.0887 84.4069C82.0887 84.4069 79.578 83.8485 78.9036 84.2256C78.2292 84.6027 76.9075 84.898 76.7071 85.1027C76.5067 85.3073 76.0084 85.1582 75.5588 86.4212C75.1092 87.6841 75.0604 88.9734 74.4754 89.5668C73.8904 90.1603 73.6033 90.5608 73.5762 90.9906C73.5491 91.4203 73.6521 91.5285 73.4273 91.663C73.2025 91.7974 72.8856 92.3617 72.9777 92.578C73.0121 92.7259 73.0047 92.8815 72.9564 93.0248C72.9082 93.1681 72.8212 93.2925 72.7068 93.382C72.5884 93.4718 72.4938 93.5936 72.4325 93.7351C72.3712 93.8767 72.3453 94.0331 72.3574 94.1889C72.3574 94.1889 72.2058 94.7736 71.8564 94.9168C71.507 95.0601 71.2822 95.9371 71.2822 95.9371L70.1501 97.3404L67.9076 94.6625C67.7391 94.4623 67.5041 94.3423 67.2539 94.3286C67.0037 94.3149 66.7587 94.4086 66.5723 94.5894L65.47 95.6594C65.0452 95.7708 64.6612 96.0172 64.3677 96.3669C64.1288 96.6343 63.9354 96.9451 63.7962 97.2848L63.1949 97.8695C63.005 98.1236 62.8887 98.4325 62.8608 98.7575C62.8329 99.0826 62.8944 99.4093 63.0379 99.6967L64.476 101.413V101.427C63.9665 101.476 63.4824 101.689 63.0866 102.038C60.9416 104.085 60.9199 105.965 61.2395 106.824C61.5591 107.684 64.2837 110.99 64.2837 110.99C64.2837 110.99 65.8654 113.209 68.1486 114.387L68.1323 114.408C68.0854 114.461 68.0411 114.516 67.9996 114.574L67.9617 114.627L67.9265 114.68L67.8859 114.744C67.875 114.761 67.865 114.778 67.8561 114.797L67.8128 114.873C67.8027 114.889 67.7937 114.907 67.7857 114.925C67.7667 114.96 67.7505 114.995 67.7342 115.03C67.7283 115.042 67.7228 115.054 67.718 115.066C67.6963 115.112 67.6746 115.159 67.6557 115.212L67.634 115.264C67.6205 115.299 67.6096 115.334 67.5961 115.372C67.5877 115.395 67.5804 115.419 67.5744 115.443L67.5419 115.548C67.5331 115.573 67.5259 115.598 67.5203 115.624C67.5203 115.662 67.4986 115.7 67.4905 115.741C67.4823 115.782 67.4769 115.788 67.4715 115.814C67.4661 115.84 67.4444 115.94 67.4336 116.007C67.4336 116.03 67.4336 116.057 67.42 116.083C67.4065 116.109 67.4065 116.174 67.3984 116.22C67.3903 116.267 67.3984 116.285 67.3984 116.32L67.3821 116.451V116.556C67.3821 116.606 67.3821 116.656 67.3686 116.709C67.355 116.761 67.3686 116.77 67.3686 116.802C67.3686 116.887 67.3686 116.972 67.3686 117.062C67.3198 120.208 67.4905 120.664 67.4905 120.664C67.6019 120.955 67.7836 121.207 68.0166 121.396C68.2496 121.585 68.5253 121.703 68.8149 121.737C68.9569 121.749 69.0999 121.741 69.2401 121.714C70.5401 121.471 73.5735 120.907 74.6569 121.129C75.3042 121.257 76.4986 121.065 77.349 120.892L77.5738 120.845L77.7282 121.38L78.2211 121.234L78.6409 121.494L78.9118 121.661C79.4047 123.462 81.4035 122.848 81.4035 122.848L81.8775 123.14L86.6957 123.275C87.2366 123.626 87.808 123.92 88.402 124.152C88.4804 124.179 88.5611 124.199 88.643 124.21C89.0935 124.25 89.5458 124.259 89.9972 124.236C90.3656 124.236 90.6499 124.21 90.6499 124.21C90.6499 124.21 90.6012 122.798 90.5308 121.217C92.0243 121.177 93.5145 121.045 94.9942 120.822C97.5672 120.337 98.6397 117.811 99.0351 116.46C99.1535 117.012 99.2376 117.571 99.287 118.135C99.3922 118.631 99.526 119.119 99.6879 119.597C99.8258 119.979 100.008 120.34 100.23 120.673C102.125 119.974 100.977 118.919 100.579 118.468C100.181 118.018 100.85 117.635 100.85 117.635C100.85 117.635 101.375 117.258 101.324 116.91C101.272 116.562 101.248 116.185 102.949 116.212C104.65 116.238 104.544 114.715 104.544 114.715ZM78.1859 97.5509C78.2076 97.7029 78.4568 99.3605 78.6572 99.7961C78.717 100.084 78.7362 100.379 78.714 100.673C77.7092 100.585 76.6611 100.539 76.6611 100.539C76.6905 100.578 76.7093 100.626 76.7153 100.676L76.5555 100.638L76.328 100.58L78.1805 97.5363L78.1859 97.5509ZM74.5133 103.854L76.2548 104.146L76.4011 104.17C76.3518 104.459 76.322 104.752 76.3117 105.047C76.3117 105.076 76.3496 105.108 76.4065 105.146C76.3823 105.294 76.3714 105.444 76.374 105.593C76.4011 105.74 77.2136 106.061 78.148 106.327C78.1345 106.383 78.1236 106.435 78.1101 106.482C77.284 106.014 75.9867 105.795 75.8377 105.447C75.6888 105.099 71.2687 103.433 71.2687 103.433L70.8299 103.196L71.9918 103.433L72.3114 103.398C73.0354 103.601 73.771 103.754 74.5133 103.854V103.854Z" fill="url(#paint0_linear)"/>
<path d="M98.8618 115.884C98.8618 115.884 98.1712 120.398 94.6584 121.065C91.1456 121.731 79.4182 121.6 79.4182 121.6C79.4182 121.6 72.7122 120.556 70.2882 114.443C67.8642 108.33 66.3042 105.895 68.3924 105.79C70.4805 105.684 81.6798 109.882 82.3216 109.929C82.9635 109.976 99.482 100.635 98.8618 115.884Z" fill="#65617D"/>
<path opacity="0.05" d="M98.8618 115.884C98.8618 115.884 98.1712 120.398 94.6584 121.065C91.1456 121.731 79.4182 121.6 79.4182 121.6C79.4182 121.6 72.7122 120.556 70.2882 114.443C67.8642 108.33 66.3042 105.895 68.3924 105.79C70.4805 105.684 81.6798 109.882 82.3216 109.929C82.9635 109.976 99.482 100.635 98.8618 115.884Z" fill="black"/>
<path d="M67.4146 120.909C67.5235 121.198 67.7028 121.45 67.9336 121.638C68.1644 121.826 68.4381 121.943 68.7255 121.976C68.8677 121.986 69.0104 121.977 69.1507 121.95C70.4372 121.71 73.4543 121.149 74.5187 121.365C75.1579 121.491 76.3415 121.301 77.1838 121.132C77.7444 121.018 78.1561 120.909 78.1561 120.909C78.1561 120.909 77.1648 117.357 77.043 117.252C76.9211 117.147 72.5876 114.329 72.5876 114.329L69.1588 114.062C68.6972 114.137 68.28 114.401 67.9942 114.799C67.634 115.273 67.3225 116.048 67.3009 117.319C67.244 120.45 67.4146 120.909 67.4146 120.909Z" fill="#3F3D56"/>
<path opacity="0.05" d="M67.4146 120.91C67.5235 121.199 67.7029 121.451 67.9337 121.639C68.1645 121.826 68.4381 121.943 68.7255 121.977C68.3897 121.509 68.0786 121.021 67.7938 120.515L67.8128 117.925C67.7446 117.215 67.8316 116.497 68.0668 115.829C68.302 115.162 68.6788 114.563 69.167 114.081C69.167 114.081 67.3605 114.212 67.309 117.337C67.2575 120.463 67.4146 120.91 67.4146 120.91Z" fill="black"/>
<path opacity="0.1" d="M82.2864 115.244L85.4796 112.546L90.501 107.204L89.1468 107.137C88.9436 107.278 88.3749 107.722 88.3532 108.254C88.3288 108.906 86.999 108.301 86.303 108.672C85.6069 109.043 82.2214 113.73 81.6283 113.698C81.0351 113.665 80.5639 113.373 80.3147 113.829L80.2985 113.858L82.2864 115.244Z" fill="black"/>
<path opacity="0.1" d="M67.9861 114.806C68.0999 114.864 68.2163 114.922 68.3328 114.975C70.7568 116.098 73.7496 118.448 73.9744 118.875C74.1098 119.135 75.8459 120.272 77.1838 121.126C77.7445 121.012 78.1561 120.904 78.1561 120.904C78.1561 120.904 77.1649 117.352 77.043 117.247C76.9211 117.141 72.5877 114.323 72.5877 114.323L69.1589 114.057C68.6926 114.132 68.2719 114.401 67.9861 114.806Z" fill="black"/>
<path d="M61.2585 107.152C61.578 108.006 64.2756 111.292 64.2756 111.292C64.2756 111.292 65.9819 113.695 68.4086 114.8C70.8353 115.905 73.8254 118.273 74.0475 118.7C74.191 118.975 76.1248 120.232 77.4844 121.094L77.7905 121.287L78.4649 121.711L78.8224 121.93C78.8224 121.93 79.6512 121.214 80.4772 120.492C81.3033 119.77 82.1023 119.062 82.1023 119.03C82.1023 118.998 82.4489 118.042 82.3731 117.989C82.2973 117.937 82.1645 117.592 81.8504 117.162C81.5188 116.685 81.0872 116.301 80.591 116.039C79.8731 115.641 79.3006 114.993 78.9659 114.2C78.9659 114.2 78.8576 114.116 78.6951 114.002C78.3582 113.752 77.9819 113.57 77.5847 113.467C77.043 113.394 76.0246 112.192 76.0246 112.192C75.6286 111.914 75.2984 111.539 75.0604 111.099C74.7896 110.514 70.9626 107.666 70.6078 107.403L79.9085 113.853L82.1348 115.396L85.328 112.701L90.3493 107.359L88.6918 107.278C86.2542 107.164 81.9208 106.985 81.3791 107.12C80.9354 107.23 80.4782 107.263 80.0249 107.216C80.0249 107.216 78.7899 107.275 77.972 106.81C77.154 106.345 75.8675 106.126 75.7186 105.781C75.5696 105.436 71.1928 103.781 71.1928 103.781C71.1928 103.781 65.2344 100.364 63.1029 102.392C60.9714 104.421 60.9362 106.292 61.2585 107.152Z" fill="#65617D"/>
<path d="M80.4799 87.5498L81.2464 90.3008L82.2377 96.4957L85.8751 96.7618L86.9151 94.8907L87.9659 93.008C87.9659 93.008 88.6214 90.5055 89.0926 88.0848C89.507 85.9419 89.7806 83.8604 89.3283 83.6353C88.9247 83.4365 88.662 82.7144 88.4887 81.9367C88.467 81.8432 88.448 81.7438 88.4318 81.6444C88.3105 80.9872 88.2291 80.3221 88.188 79.6535C88.188 79.6535 80.5693 79.2267 81.6337 82.6179C81.8236 83.1972 81.9207 83.8072 81.9208 84.4217C81.9208 84.5796 81.9208 84.7345 81.8937 84.8807C81.8409 85.4067 81.6881 85.9152 81.4448 86.3745C81.2015 86.8338 80.8731 87.2339 80.4799 87.5498Z" fill="#EE8E9E"/>
<path d="M78.8982 87.0964L79.1691 91.774L79.7866 95.7528L80.4799 97.5976L81.1001 107.678C81.1001 107.678 87.0586 108.423 88.5157 107.663C88.6232 107.619 88.717 107.543 88.7866 107.444C90.5389 104.588 89.9647 96.3142 89.9647 96.3142L90.631 90.9729L90.1868 88.2015L89.1035 88.0787L88.2747 87.9822C88.2747 87.9822 88.0878 88.2307 87.817 88.6166C87.083 89.6603 85.7342 91.7184 85.8263 92.575C85.9482 93.7444 85.6773 94.9518 85.2548 95.1389C84.8323 95.326 84.4883 95.6476 84.4152 95.326C84.3099 95.0564 84.2835 94.7586 84.3394 94.4724C84.4152 94.0163 84.0171 92.6276 84.0171 92.6276C84.0171 92.6276 83.3508 90.9992 83.3996 90.3064C83.4483 89.6135 83.3264 88.8095 83.1287 88.6224C82.931 88.4353 82.6575 88.2482 82.8796 87.3946C83.1017 86.5409 81.9045 84.8774 81.9045 84.8774L78.8982 87.0964Z" fill="#E3E8F4"/>
<path opacity="0.1" d="M86.7769 98.7674L87.0261 106.751L88.4534 107.608C88.5606 107.562 88.6541 107.485 88.7243 107.386C90.4766 104.53 89.9024 96.2562 89.9024 96.2562L90.5714 90.9149L90.1245 88.1435L89.0412 88.0207C89.4582 85.8777 89.7291 83.7991 89.2768 83.5711C88.8732 83.3723 88.6105 82.6502 88.4399 81.8755L87.668 87.5237C87.668 87.5237 87.733 88.0324 87.7547 88.5586C87.7867 88.8913 87.7657 89.2275 87.6924 89.5526C87.5923 89.9897 87.5757 90.4443 87.6436 90.8886C87.1967 91.7364 86.9747 93.3093 86.8663 94.8266C86.7201 96.8438 86.7769 98.7674 86.7769 98.7674Z" fill="black"/>
<path d="M88.4616 81.7344C88.4616 81.7344 89.7101 81.901 90.1056 82.4623C90.501 83.0236 91.541 83.1055 91.541 83.1055C91.541 83.1055 92.7273 83.5323 92.7029 83.6376C92.6785 83.7428 93.0496 83.9065 93.7863 84.1199C94.5229 84.3334 95.7661 85.1081 95.7661 85.2893C95.7661 85.4706 97.7189 87.558 97.7189 87.7714C97.7189 87.9848 98.312 88.7858 98.2389 90.2008C98.1657 91.6158 98.0899 93.4166 98.3878 93.709C98.6857 94.0013 98.3878 95.1503 98.3878 95.1503C98.3078 95.2754 98.2629 95.4227 98.2586 95.5747C98.2542 95.7266 98.2907 95.8767 98.3634 96.0069C98.6099 96.4863 98.312 98.4889 98.312 98.4889L98.3391 100.573C98.3391 100.573 98.0682 101.88 98.3878 101.936C98.7074 101.991 98.3391 102.576 98.3391 102.576C98.3391 102.576 98.0682 103.643 98.4122 104.125C98.7562 104.608 98.8564 106.66 98.8564 106.66L104.151 114.966C104.151 114.966 104.227 116.489 102.545 116.463C100.863 116.436 100.885 116.81 100.936 117.155C100.988 117.5 100.465 117.877 100.465 117.877C100.465 117.877 99.7989 118.252 100.194 118.705C100.59 119.158 101.727 120.202 99.8476 120.895C99.6262 120.565 99.4442 120.206 99.306 119.827C99.1467 119.356 99.0146 118.875 98.9105 118.386C98.9105 118.386 98.7372 116.354 98.3905 116.088C98.0439 115.822 98.0926 114.539 98.0926 114.539C98.0926 114.539 98.5882 113.498 97.8949 113.077C97.2015 112.656 87.1588 106.645 87.1588 106.645L86.9151 98.6585C86.9151 98.6585 86.7417 92.7559 87.7818 90.7797C87.7139 90.3354 87.7304 89.8808 87.8305 89.4436C88.0038 88.9642 87.8061 87.4147 87.8061 87.4147L88.4616 81.7344Z" fill="#3F3D56"/>
<path opacity="0.1" d="M81.9776 84.9504C81.9776 84.9504 79.4913 84.3979 78.8224 84.7721C78.1534 85.1463 76.8452 85.4387 76.6556 85.6492C76.4661 85.8596 75.965 85.7047 75.5181 86.9589C75.0712 88.2131 75.0252 89.4965 74.4537 90.0841C73.8822 90.6717 73.5897 91.0722 73.5654 91.4991C73.541 91.9259 73.6385 92.0341 73.4164 92.1656C73.1943 92.2972 72.8747 92.8614 72.9695 93.0748C73.0643 93.2882 78.1155 97.9892 78.1155 97.9892C78.1155 97.9892 78.3646 99.7784 78.5867 100.232C78.8088 100.685 78.3403 106.935 77.8446 107.362C77.349 107.789 81.1733 107.754 81.1733 107.754C81.1733 107.754 81.3466 103.661 81.4956 103.439C81.6445 103.216 81.3953 98.8458 81.3953 98.8458C81.3953 98.8458 81.371 95.1067 81.6933 94.1185C82.0156 93.1304 81.9641 89.8444 81.9641 89.8444C81.9641 89.8444 82.2485 87.8739 82.5952 87.4149C82.9418 86.956 81.9776 84.9504 81.9776 84.9504Z" fill="black"/>
<path d="M81.9045 84.8721C81.9045 84.8721 79.4182 84.3195 78.7493 84.6908C78.0803 85.0621 76.7694 85.3603 76.5826 85.5679C76.3957 85.7754 75.8892 85.6205 75.445 86.8776C75.0009 88.1347 74.9494 89.4123 74.3806 89.9999C73.8119 90.5875 73.5139 90.988 73.4896 91.4148C73.4652 91.8417 73.5654 91.9499 73.3406 92.0843C73.1158 92.2188 72.7989 92.7772 72.8964 92.9906C72.9939 93.204 78.0424 97.905 78.0424 97.905C78.0424 97.905 78.2888 99.6942 78.5136 100.147C78.7384 100.6 78.2645 106.851 77.7688 107.278C77.2732 107.705 81.111 107.667 81.111 107.667C81.111 107.667 81.2843 103.574 81.4306 103.354C81.5768 103.135 81.3331 98.7587 81.3331 98.7587C81.3331 98.7587 81.3087 95.0224 81.631 94.0343C81.9533 93.0462 81.9154 89.7602 81.9154 89.7602C81.9154 89.7602 82.1998 87.7897 82.5464 87.3307C82.8931 86.8717 81.9045 84.8721 81.9045 84.8721Z" fill="#3F3D56"/>
<path opacity="0.1" d="M81.6446 82.6123C81.8344 83.1917 81.9315 83.8017 81.9316 84.4162C83.1469 84.8004 84.4462 84.7358 85.6237 84.2327C86.8011 83.7296 87.7894 82.8168 88.4318 81.6388C88.3105 80.9816 88.229 80.3166 88.188 79.6479C88.188 79.6479 80.5802 79.2182 81.6446 82.6123Z" fill="black"/>
<path d="M77.8826 78.3902C77.8816 79.9576 78.4379 81.4656 79.4368 82.6033C80.4356 83.741 81.8008 84.4215 83.2509 84.5045C84.7009 84.5876 86.1252 84.0668 87.23 83.0497C88.3347 82.0325 89.0358 80.5965 89.1885 79.0377C89.3412 77.479 88.9339 75.9165 88.0506 74.6724C87.1674 73.4283 85.8755 72.5975 84.4415 72.3513C83.0074 72.1052 81.5405 72.4624 80.3433 73.3494C79.1461 74.2364 78.3099 75.5855 78.0072 77.1185C77.9242 77.5364 77.8824 77.9627 77.8826 78.3902Z" fill="#EE8E9E"/>
<path d="M74.2452 92.5518L72.891 93.0049C72.9256 93.1523 72.9183 93.3076 72.87 93.4505C72.8217 93.5934 72.7346 93.7172 72.6201 93.8059C72.5023 93.8947 72.4084 94.0156 72.348 94.1563C72.2876 94.297 72.2628 94.4525 72.2762 94.607C72.2762 94.607 72.1272 95.1917 71.7805 95.3291C71.4339 95.4665 71.2118 96.3435 71.2118 96.3435L70.0743 97.7585C70.0743 97.7585 69.6517 98.1327 69.7276 98.3198C69.8034 98.5069 69.2807 98.5595 69.2807 98.5595L69.5515 103.313L71.9024 103.796L73.3622 103.635L74.5485 103.155L75.5885 102.486L76.0571 101.179L78.1371 97.7585L74.2452 92.5518Z" fill="#3F3D56"/>
<path d="M69.6193 98.9246C69.6193 98.9246 66.6021 94.2266 64.3487 96.7613C62.0953 99.2959 65.2642 103.412 66.0063 103.278C66.7484 103.143 70.2882 102.93 70.2882 102.93L69.6193 98.9246Z" fill="#EE8E9E"/>
<path d="M76.7273 96.8934L63.3991 89.5504C63.1939 89.4373 62.9427 89.5252 62.838 89.7467L57.6408 100.738C57.5361 100.959 57.6175 101.231 57.8227 101.344L71.1508 108.687C71.356 108.8 71.6072 108.712 71.7119 108.49L76.9091 97.4991C77.0139 97.2776 76.9324 97.0064 76.7273 96.8934Z" fill="#3F3D56"/>
<path d="M75.4875 97.5466L63.6599 91.0303L59.1103 100.652L70.938 107.168L75.4875 97.5466Z" fill="#FF661B"/>
<path d="M60.9307 95.8198C61.0504 95.8198 61.1474 95.7151 61.1474 95.5859C61.1474 95.4568 61.0504 95.3521 60.9307 95.3521C60.8111 95.3521 60.7141 95.4568 60.7141 95.5859C60.7141 95.7151 60.8111 95.8198 60.9307 95.8198Z" fill="#E6E8EC"/>
<path d="M73.7333 103.055C73.9322 103.055 74.0935 102.881 74.0935 102.667C74.0935 102.452 73.9322 102.278 73.7333 102.278C73.5343 102.278 73.3731 102.452 73.3731 102.667C73.3731 102.881 73.5343 103.055 73.7333 103.055Z" fill="#E6E8EC"/>
<path d="M67.6665 99.9137C67.6394 103.439 74.3941 104.188 74.3941 104.188L76.1194 104.48L76.894 104.612L77.2163 101.168C77.2163 101.168 76.8615 101.109 76.42 100.998C75.7646 100.835 74.9169 100.551 74.7408 100.151C74.4564 99.4869 67.6855 96.388 67.6665 99.9137Z" fill="#EE8E9E"/>
<path opacity="0.1" d="M78.0071 77.1185C78.1624 77.1309 78.3089 77.2012 78.4215 77.3173C78.6111 77.5366 78.6219 77.9254 78.8711 78.0599C78.9643 78.1023 79.0669 78.1145 79.1663 78.0949C79.8245 77.9955 80.2037 77.1945 80.8374 76.9723C81.2058 76.8701 81.5955 76.9062 81.9424 77.0746C82.0834 77.1239 82.2102 77.2115 82.3108 77.329C82.522 77.6213 82.3731 78.0599 82.4706 78.4165C82.606 78.9135 83.1558 79.1094 83.6298 79.1737C84.1037 79.238 84.64 79.276 84.9569 79.6619C85.0618 79.8066 85.137 79.9737 85.1776 80.1521C85.2182 80.3305 85.2233 80.5162 85.1925 80.6968C85.164 80.8227 85.164 80.954 85.1925 81.0798C85.3225 81.4803 85.9644 81.4189 86.1323 81.1032C86.2569 80.8723 86.219 80.6822 86.5088 80.6179C86.7158 80.6001 86.9236 80.6394 87.1128 80.7319C87.617 80.9187 88.148 81.0068 88.6809 80.9921C89.0199 80.2118 89.2022 79.3629 89.216 78.5011C89.2298 77.6394 89.0746 76.7842 88.7608 75.9917C88.4469 75.1992 87.9814 74.4873 87.3948 73.9025C86.8082 73.3178 86.1137 72.8735 85.3569 72.5988C84.6001 72.3241 83.798 72.2251 83.0033 72.3084C82.2086 72.3917 81.4391 72.6554 80.7454 73.0821C80.0517 73.5089 79.4494 74.0891 78.9779 74.7847C78.5065 75.4803 78.1766 76.2756 78.0099 77.1185H78.0071Z" fill="black"/>
<path d="M85.1898 80.9194C85.1615 80.7936 85.1615 80.6623 85.1898 80.5364C85.2208 80.3562 85.2158 80.171 85.1751 79.993C85.1345 79.8151 85.0592 79.6485 84.9542 79.5044C84.6373 79.1156 84.1038 79.0805 83.6271 79.0133C83.1504 78.9461 82.6033 78.7531 82.4679 78.2561C82.3704 77.8995 82.5194 77.4639 82.3081 77.1715C82.2092 77.052 82.0818 76.964 81.9398 76.9172C81.5931 76.748 81.2035 76.7109 80.8347 76.8119C80.201 77.0341 79.8218 77.8351 79.1637 77.9345C79.0642 77.9555 78.9613 77.9433 78.8685 77.8995C78.6193 77.765 78.5976 77.3761 78.4189 77.1569C78.1182 76.8148 77.5468 77.037 77.1811 76.7827C76.9594 76.5829 76.8161 76.2998 76.7803 75.9904C76.6165 75.4171 76.5794 74.8104 76.6719 74.2188C76.8859 73.2277 77.7093 72.5465 78.232 71.6958C78.7222 70.9065 78.9985 69.9066 79.7324 69.3833C80.4664 68.86 81.4116 68.977 82.2431 69.243C82.6254 69.3902 83.0186 69.5017 83.4186 69.5763C84.0875 69.664 84.7592 69.4681 85.4309 69.4447C86.3829 69.4115 87.3182 69.72 88.0905 70.3218C88.2647 70.4444 88.4125 70.6059 88.5239 70.7954C88.6356 71.064 88.7016 71.3522 88.7189 71.6461C88.798 72.1981 88.9755 72.7282 89.2416 73.2072C89.4474 73.5844 89.7102 73.9235 89.897 74.3123C90.106 74.6935 90.17 75.1472 90.0758 75.5782C90.0108 75.7975 89.8862 75.9963 89.8375 76.2214C89.7291 76.7418 90.046 77.2417 90.2627 77.7211C90.4735 78.16 90.5735 78.651 90.5525 79.1449C90.5409 79.3909 90.4823 79.6318 90.3802 79.8522C90.2781 80.0726 90.1348 80.2677 89.9593 80.4253C89.5915 80.7008 89.153 80.845 88.7053 80.8376C88.1625 80.8554 87.6212 80.7673 87.1074 80.5774C86.9178 80.4862 86.7104 80.4471 86.5034 80.4633C86.2136 80.5277 86.2515 80.7177 86.1269 80.9486C85.9617 81.2585 85.3226 81.3199 85.1898 80.9194Z" fill="#3F3D56"/>
<path opacity="0.1" d="M82.1375 115.402L85.3307 112.706L90.3521 107.365L88.6945 107.283C88.4999 107.473 88.3758 107.733 88.3451 108.014C88.3208 108.666 86.9909 108.058 86.2949 108.432C85.5988 108.806 82.2133 113.49 81.6202 113.458C81.0271 113.425 80.5558 113.133 80.3066 113.586L80.2904 113.615C80.1915 113.738 80.0585 113.824 79.9112 113.858L82.1375 115.402Z" fill="black"/>
<path d="M75.705 115.215L77.3084 120.744L77.5603 121.621L78.3241 121.396L80.0087 120.896L87.5055 118.674C88.4499 118.63 89.374 118.364 90.2139 117.896C91.6312 117.039 93.2531 116.657 94.8724 116.8C95.8636 116.899 96.9659 116.437 97.8814 114.613C97.8814 114.613 99.9587 107.991 94.7153 106.094C89.4718 104.197 89.2199 107.103 89.2199 107.103L89.1468 107.15C88.9437 107.29 88.3749 107.734 88.3533 108.266C88.3289 108.918 86.9991 108.313 86.303 108.684C85.6069 109.056 82.2215 113.742 81.6283 113.71C81.0352 113.678 80.5639 113.385 80.3147 113.841L80.2985 113.871C80.1143 114.143 79.5645 114.207 79.1989 114.216C79.0852 114.222 78.9713 114.222 78.8576 114.216L78.8089 114.23L78.4297 114.353L75.705 115.215Z" fill="#65617D"/>
<path opacity="0.1" d="M76.1194 104.483L76.894 104.614L77.2163 101.171C77.2163 101.171 76.8615 101.112 76.42 101.001C76.5365 101.483 76.2711 103.34 76.1194 104.483Z" fill="black"/>
<path opacity="0.1" d="M96.3511 88.3857C96.3511 88.3857 98.6505 87.6636 98.0818 94.715C97.6869 99.0189 95.992 103.063 93.2581 106.225C93.2581 106.225 88.3586 108.546 86.1567 108.172C83.9548 107.798 82.3487 107.719 82.3487 107.719C81.6549 107.341 80.8958 107.123 80.1197 107.078C78.8847 107.026 76.2873 106.201 76.2359 105.93C76.1844 105.658 76.8805 101.737 76.5825 101.445C76.5825 101.445 80.0466 101.597 80.3932 101.866C80.7399 102.135 81.2355 101.945 81.6066 101.866C81.9776 101.787 83.1152 100.723 85.3658 101.658C85.3658 101.658 86.1323 101.737 86.4302 101.524C86.6731 101.402 86.9497 101.383 87.2048 101.471C87.3974 101.402 87.5798 101.304 87.7465 101.179C87.8197 101.074 88.4155 101.179 88.4155 101.179C88.451 101.196 88.4894 101.205 88.5283 101.204C88.5671 101.204 88.6054 101.195 88.6406 101.177C88.6758 101.159 88.7071 101.133 88.7322 101.101C88.7574 101.07 88.7759 101.032 88.7865 100.992C88.8649 100.774 88.9827 100.575 89.1332 100.407C89.1332 100.407 89.7995 96.3493 91.0616 94.8261C91.1624 94.7311 91.2398 94.6106 91.2871 94.4754C91.3343 94.3403 91.3499 94.1946 91.3324 94.0514C91.2295 93.6187 93.3827 87.5291 96.3511 88.3857Z" fill="black"/>
<path d="M96.2888 87.8421C96.2888 87.8421 98.591 87.123 98.0222 94.1715C97.6284 98.4756 95.9333 102.52 93.1986 105.681C93.1986 105.681 88.2991 108.005 86.0972 107.631C83.8952 107.257 82.2864 107.169 82.2864 107.169C81.5937 106.791 80.8354 106.573 80.0601 106.529C78.8224 106.474 76.2251 105.652 76.1763 105.38C76.1276 105.108 76.8182 101.188 76.523 100.893C76.523 100.893 79.987 101.048 80.3337 101.317C80.6804 101.585 81.1733 101.393 81.5443 101.317C81.9154 101.241 83.0529 100.173 85.3063 101.106C85.3063 101.106 86.0728 101.188 86.368 100.974C86.611 100.853 86.8869 100.834 87.1426 100.919C87.3345 100.848 87.5167 100.75 87.6843 100.627C87.7574 100.518 88.3505 100.627 88.3505 100.627C88.386 100.644 88.4245 100.652 88.4633 100.652C88.5022 100.652 88.5405 100.642 88.5757 100.625C88.6109 100.607 88.6421 100.581 88.6673 100.549C88.6925 100.517 88.711 100.48 88.7216 100.439C88.7999 100.222 88.9178 100.023 89.0683 99.8548C89.0683 99.8548 89.7372 95.797 90.9994 94.2738C91.1001 94.1788 91.1776 94.0583 91.2248 93.9231C91.2721 93.788 91.2876 93.6423 91.2702 93.4991C91.17 93.0781 93.3204 86.9973 96.2888 87.8421Z" fill="#3F3D56"/>
<path opacity="0.1" d="M78.4215 114.338L81.6879 118.606L81.7095 118.583C81.7339 118.501 82.0562 117.595 81.9804 117.539C81.9045 117.484 81.3385 116.151 80.201 115.589C79.6224 115.285 79.1365 114.808 78.8007 114.215L78.4215 114.338Z" fill="black"/>
<path opacity="0.1" d="M78.4649 121.726L78.8224 121.945C78.8224 121.945 79.6512 121.229 80.4772 120.507C81.3033 119.785 82.1022 119.077 82.1022 119.045C82.1022 119.013 82.4489 118.057 82.3731 118.004C82.2972 117.951 82.1645 117.607 81.8504 117.177C79.6349 116.507 81.0378 118.168 81.2328 118.244C81.2328 118.244 78.538 117.574 78.389 120.746C78.3762 121.075 78.4017 121.404 78.4649 121.726V121.726Z" fill="black"/>
<path d="M81.1976 123.068L81.6689 123.36L86.4438 123.491C86.9792 123.843 87.5452 124.137 88.1338 124.368C88.2119 124.394 88.2915 124.412 88.3722 124.424C88.8154 124.463 89.2605 124.472 89.7047 124.45C90.0703 124.45 90.352 124.424 90.352 124.424C90.352 124.424 90.1272 117.925 89.9566 117.241C89.8753 116.914 89.4745 116.984 89.0791 117.147C88.7826 117.278 88.4964 117.435 88.2232 117.615C88.2232 117.615 86.1973 117.829 85.875 118.016C85.5527 118.203 84.6373 117.908 84.0685 118.016C83.4998 118.124 82.4841 117.294 82.4841 117.294C79.7134 116.305 81.2735 118.147 81.4712 118.229C81.4712 118.229 78.7628 117.56 78.6247 120.732C78.4865 123.904 81.1976 123.068 81.1976 123.068Z" fill="#3F3D56"/>
<path d="M88.1013 120.559C88.1528 121.904 89.1251 123.573 89.7047 124.456C90.0703 124.456 90.352 124.43 90.352 124.43C90.352 124.43 90.1272 117.931 89.9566 117.247C89.8753 116.919 89.4745 116.989 89.0791 117.153C88.5997 118.124 88.058 119.471 88.1013 120.559Z" fill="#565387"/>
<path opacity="0.1" d="M88.1013 120.559C88.1528 121.904 89.1251 123.573 89.7047 124.456C90.0703 124.456 90.352 124.43 90.352 124.43C90.352 124.43 90.1272 117.931 89.9566 117.247C89.8753 116.919 89.4745 116.989 89.0791 117.153C88.5997 118.124 88.058 119.471 88.1013 120.559Z" fill="black"/>
<path opacity="0.05" d="M87.2834 120.737C87.6138 122.035 87.6084 123.491 88.1338 124.374C88.2119 124.399 88.2915 124.418 88.3722 124.43C88.8154 124.469 89.2605 124.478 89.7047 124.456C90.0703 124.456 90.352 124.43 90.352 124.43C90.352 124.43 90.1272 117.931 89.9566 117.247C89.8754 116.919 89.4745 116.989 89.0791 117.153C88.7827 117.284 88.4964 117.44 88.2232 117.621C88.2232 117.621 86.8636 119.074 87.2834 120.737Z" fill="black"/>
<path opacity="0.1" d="M70.8109 107.561C70.8109 107.561 73.1835 108.391 75.1931 111.344L70.8109 107.561Z" fill="black"/>
<g opacity="0.1">
<path opacity="0.1" d="M90.0845 75.5137C90.0845 75.5341 90.0845 75.5517 90.0709 75.5721C90.0479 75.6484 90.0197 75.7226 89.9864 75.7943C90.0127 75.6983 90.0455 75.6045 90.0845 75.5137Z" fill="black"/>
<path opacity="0.1" d="M76.6665 74.2186C76.7067 74.0316 76.7686 73.8509 76.8507 73.6807C76.8507 73.7245 76.8236 73.7713 76.8128 73.8181C76.7225 74.4099 76.7605 75.0163 76.9238 75.5897C76.9597 75.8984 77.1018 76.1812 77.322 76.382C77.6903 76.6363 78.2618 76.4141 78.5624 76.7562C78.752 76.9754 78.7628 77.3643 79.012 77.4987C79.1048 77.5425 79.2078 77.5548 79.3072 77.5338C79.9654 77.4344 80.3445 76.6334 80.9783 76.4112C81.3469 76.3087 81.737 76.3459 82.0833 76.5164C82.2253 76.5633 82.3527 76.6513 82.4517 76.7708C82.6629 77.0631 82.5139 77.4987 82.6114 77.8554C82.7469 78.3524 83.2967 78.5483 83.7706 78.6126C84.2446 78.6769 84.7809 78.7149 85.0978 79.1037C85.2027 79.2478 85.278 79.4143 85.3187 79.5923C85.3593 79.7702 85.3643 79.9555 85.3334 80.1357C85.305 80.2615 85.305 80.3929 85.3334 80.5187C85.4634 80.9192 86.1053 80.8578 86.2732 80.5421C86.3978 80.3111 86.3599 80.1211 86.6497 80.0568C86.8566 80.0405 87.0641 80.0797 87.2536 80.1708C87.7674 80.3607 88.3088 80.4488 88.8516 80.431C89.2992 80.4384 89.7378 80.2942 90.1056 80.0188C90.2664 79.8825 90.3977 79.7098 90.4902 79.513C90.4065 79.871 90.2162 80.1895 89.9485 80.4193C89.5807 80.6948 89.1421 80.8389 88.6945 80.8315C88.1517 80.8493 87.6103 80.7612 87.0966 80.5713C86.907 80.4802 86.6995 80.441 86.4926 80.4573C86.2028 80.5216 86.2407 80.7116 86.1188 80.9426C85.9482 81.2583 85.3063 81.3197 85.1763 80.9192C85.1492 80.7932 85.1492 80.6622 85.1763 80.5362C85.2072 80.356 85.2022 80.1708 85.1616 79.9928C85.121 79.8149 85.0456 79.6483 84.9407 79.5042C84.6238 79.1154 84.0902 79.0803 83.6136 79.0131C83.1369 78.9459 82.5898 78.7529 82.4544 78.2559C82.3569 77.8993 82.5058 77.4637 82.2946 77.1713C82.1964 77.0522 82.07 76.9643 81.9289 76.917C81.5813 76.7478 81.1909 76.7107 80.8212 76.8117C80.1901 77.0339 79.8083 77.8349 79.1501 77.9343C79.0507 77.9553 78.9477 77.9431 78.8549 77.8993C78.6057 77.7648 78.5841 77.3759 78.4053 77.1567C78.1047 76.8146 77.5359 77.0368 77.1676 76.7825C76.9458 76.5827 76.8026 76.2996 76.7667 75.9902C76.6057 75.4162 76.5713 74.8095 76.6665 74.2186Z" fill="black"/>
</g>
<path opacity="0.1" d="M90.4685 95.5948C90.0135 96.2555 89.4962 96.8665 89.0953 97.5623C88.6599 98.2482 88.4484 99.0711 88.4941 99.9011C88.9084 99.4421 89.1007 98.8048 89.3607 98.2288C89.8049 97.2524 90.4658 96.425 91.0264 95.5305C91.132 95.358 91.8145 94.3611 91.4706 94.3201C91.1835 94.2763 90.6228 95.3697 90.4685 95.5948Z" fill="black"/>
<path d="M92.906 158.149C93.2337 159.283 93.5641 160.421 93.9731 161.523C94.71 163.439 95.6371 165.263 96.7384 166.963C97.4484 168.083 98.2114 169.162 99.0243 170.197C100.043 171.492 101.191 172.796 101.538 174.451C101.746 175.406 101.676 176.403 101.762 177.374C101.849 178.345 102.144 179.385 102.878 179.97C103.401 180.388 104.07 180.514 104.712 180.622C105.172 180.701 105.747 180.727 105.985 180.298C106.068 180.122 106.112 179.928 106.112 179.73L106.223 178.301C106.245 177.991 106.348 177.596 106.635 177.582C106.922 177.567 107.065 177.979 107.309 178.166C107.634 178.412 108.122 178.166 108.301 177.795C108.449 177.393 108.459 176.947 108.328 176.538C108.13 175.724 107.776 174.965 107.287 174.31C106.798 173.655 106.186 173.119 105.492 172.737C105.01 172.527 104.547 172.268 104.111 171.963C103.667 171.547 103.3 171.045 103.027 170.483C100.514 166.016 97.987 161.526 96.213 156.664C95.8634 155.795 95.6273 154.878 95.5115 153.939C95.4248 152.983 95.5629 152.021 95.6198 151.063C95.7248 149.34 95.5767 147.61 95.1811 145.938C95.0946 145.499 94.9418 145.078 94.7288 144.692C93.9975 143.497 92.2912 143.318 91.2078 144.143C90.8089 144.474 90.4782 144.891 90.2367 145.368C89.9952 145.844 89.8481 146.37 89.8049 146.911C89.7264 147.882 90.2437 148.887 90.5064 149.791C91.3026 152.58 92.1025 155.366 92.906 158.149Z" fill="#A1616A"/>
<path opacity="0.05" d="M92.906 158.149C93.2337 159.283 93.5641 160.421 93.9731 161.523C94.71 163.439 95.6371 165.263 96.7384 166.963C97.4484 168.083 98.2114 169.162 99.0243 170.197C100.043 171.492 101.191 172.796 101.538 174.451C101.746 175.406 101.676 176.403 101.762 177.374C101.849 178.345 102.144 179.385 102.878 179.97C103.401 180.388 104.07 180.514 104.712 180.622C105.172 180.701 105.747 180.727 105.985 180.298C106.068 180.122 106.112 179.928 106.112 179.73L106.223 178.301C106.245 177.991 106.348 177.596 106.635 177.582C106.922 177.567 107.065 177.979 107.309 178.166C107.634 178.412 108.122 178.166 108.301 177.795C108.449 177.393 108.459 176.947 108.328 176.538C108.13 175.724 107.776 174.965 107.287 174.31C106.798 173.655 106.186 173.119 105.492 172.737C105.01 172.527 104.547 172.268 104.111 171.963C103.667 171.547 103.3 171.045 103.027 170.483C100.514 166.016 97.987 161.526 96.213 156.664C95.8634 155.795 95.6273 154.878 95.5115 153.939C95.4248 152.983 95.5629 152.021 95.6198 151.063C95.7248 149.34 95.5767 147.61 95.1811 145.938C95.0946 145.499 94.9418 145.078 94.7288 144.692C93.9975 143.497 92.2912 143.318 91.2078 144.143C90.8089 144.474 90.4782 144.891 90.2367 145.368C89.9952 145.844 89.8481 146.37 89.8049 146.911C89.7264 147.882 90.2437 148.887 90.5064 149.791C91.3026 152.58 92.1025 155.366 92.906 158.149Z" fill="black"/>
<path d="M77.1161 205.913C77.6061 206.097 78.1271 206.165 78.6436 206.112C78.6815 205.656 79.2503 205.554 79.6728 205.577C79.8772 205.57 80.0797 205.62 80.2605 205.723C80.3662 205.796 80.4474 205.902 80.5503 205.978C80.7339 206.086 80.9396 206.144 81.1489 206.144L83.3481 206.343C84.3285 206.434 85.3496 206.516 86.2678 206.139C86.4507 206.076 86.6132 205.958 86.7363 205.799C86.9855 205.414 86.7363 204.861 86.3923 204.58C86.0484 204.3 85.6042 204.174 85.2575 203.887C84.4938 203.259 84.3881 202.084 83.9846 201.142C83.6977 200.549 83.3439 199.996 82.931 199.496C82.6319 199.067 82.2833 198.681 81.8937 198.347C81.0108 197.66 79.9978 197.675 78.9605 197.576C78.2293 197.505 77.5413 197.459 77.0159 198.16C76.3659 199.037 76.6259 200.791 76.6665 201.815C76.7172 203.191 76.8676 204.562 77.1161 205.913Z" fill="#514E7F"/>
<path opacity="0.05" d="M77.1161 205.913C77.6061 206.097 78.1271 206.165 78.6436 206.112C78.6815 205.656 79.2503 205.554 79.6728 205.577C79.8772 205.57 80.0797 205.62 80.2605 205.723C80.3662 205.796 80.4474 205.902 80.5503 205.978C80.7339 206.086 80.9396 206.144 81.1489 206.144L83.3481 206.343C84.3285 206.434 85.3496 206.516 86.2678 206.139C86.4507 206.076 86.6132 205.958 86.7363 205.799C86.9855 205.414 86.7363 204.861 86.3923 204.58C86.0484 204.3 85.6042 204.174 85.2575 203.887C84.4938 203.259 84.3881 202.084 83.9846 201.142C83.6977 200.549 83.3439 199.996 82.931 199.496C82.6319 199.067 82.2833 198.681 81.8937 198.347C81.0108 197.66 79.9978 197.675 78.9605 197.576C78.2293 197.505 77.5413 197.459 77.0159 198.16C76.3659 199.037 76.6259 200.791 76.6665 201.815C76.7172 203.191 76.8676 204.562 77.1161 205.913Z" fill="black"/>
<path d="M78.0045 159.737C77.3328 159.971 77.0403 160.875 77.1649 161.626C77.2895 162.377 77.7066 163.026 78.0505 163.693C79.031 165.584 79.4535 167.748 80.2768 169.721C80.8916 171.183 81.7231 172.557 82.3298 174.036C82.9365 175.515 83.313 177.185 82.9446 178.755C82.7659 179.518 82.4192 180.216 82.189 180.968C81.9611 181.782 81.8122 182.62 81.7448 183.467C81.4465 186.346 81.3931 189.249 81.585 192.138C81.5867 192.491 81.6549 192.839 81.7854 193.162C81.9235 193.454 82.1619 193.746 82.0563 194.039C82.0102 194.158 81.91 194.246 81.8613 194.363C81.7204 194.691 82.0021 195.038 82.2594 195.272C82.2134 195.36 82.1517 195.437 82.0777 195.499C82.0038 195.561 81.9191 195.606 81.8288 195.632C82.0133 195.759 82.1551 195.946 82.2332 196.167C82.3112 196.388 82.3214 196.63 82.2621 196.857C82.0346 196.895 82.021 197.272 82.1646 197.471C82.3081 197.67 82.5356 197.792 82.6386 198.017C82.6992 198.201 82.6925 198.402 82.62 198.581C82.5475 198.759 82.4146 198.9 82.2486 198.976C81.9102 199.117 81.5411 199.147 81.1869 199.064C80.5863 198.974 79.9931 198.833 79.4129 198.643C79.1095 198.579 78.8379 198.399 78.6478 198.135C78.4577 197.872 78.362 197.544 78.3783 197.211C78.2441 196.021 78.2034 194.821 78.2564 193.623C78.3512 187.823 78.2564 182.017 78.0235 176.22C77.9287 173.881 77.2786 171.615 76.4417 169.464C75.9791 168.364 75.4648 167.291 74.9007 166.248C73.6927 163.862 72.6256 161.22 72.9019 158.515C72.9317 158.223 73.0292 157.875 73.2973 157.828C73.4021 157.816 73.508 157.835 73.6033 157.884C74.1597 158.164 74.6981 158.485 75.2148 158.843C76.064 159.38 77.0212 159.687 78.0045 159.737Z" fill="#464353"/>
<path opacity="0.05" d="M78.0045 159.737C77.3328 159.971 77.0403 160.875 77.1649 161.626C77.2895 162.377 77.7066 163.026 78.0505 163.693C79.031 165.584 79.4535 167.748 80.2768 169.721C80.8916 171.183 81.7231 172.557 82.3298 174.036C82.9365 175.515 83.313 177.185 82.9446 178.755C82.7659 179.518 82.4192 180.216 82.189 180.968C81.9611 181.782 81.8122 182.62 81.7448 183.467C81.4465 186.346 81.3931 189.249 81.585 192.138C81.5867 192.491 81.6549 192.839 81.7854 193.162C81.9235 193.454 82.1619 193.746 82.0563 194.039C82.0102 194.158 81.91 194.246 81.8613 194.363C81.7204 194.691 82.0021 195.038 82.2594 195.272C82.2134 195.36 82.1517 195.437 82.0777 195.499C82.0038 195.561 81.9191 195.606 81.8288 195.632C82.0133 195.759 82.1551 195.946 82.2332 196.167C82.3112 196.388 82.3214 196.63 82.2621 196.857C82.0346 196.895 82.021 197.272 82.1646 197.471C82.3081 197.67 82.5356 197.792 82.6386 198.017C82.6992 198.201 82.6925 198.402 82.62 198.581C82.5475 198.759 82.4146 198.9 82.2486 198.976C81.9102 199.117 81.5411 199.147 81.1869 199.064C80.5863 198.974 79.9931 198.833 79.4129 198.643C79.1095 198.579 78.8379 198.399 78.6478 198.135C78.4577 197.872 78.362 197.544 78.3783 197.211C78.2441 196.021 78.2034 194.821 78.2564 193.623C78.3512 187.823 78.2564 182.017 78.0235 176.22C77.9287 173.881 77.2786 171.615 76.4417 169.464C75.9791 168.364 75.4648 167.291 74.9007 166.248C73.6927 163.862 72.6256 161.22 72.9019 158.515C72.9317 158.223 73.0292 157.875 73.2973 157.828C73.4021 157.816 73.508 157.835 73.6033 157.884C74.1597 158.164 74.6981 158.485 75.2148 158.843C76.064 159.38 77.0212 159.687 78.0045 159.737Z" fill="black"/>
<path d="M68.9232 152.685C68.573 152.442 68.169 152.305 67.7531 152.288C67.271 152.314 66.8594 152.656 66.4829 152.983C66.0368 153.353 65.6134 153.753 65.2154 154.182C64.3911 155.13 63.8168 156.3 63.552 157.568C63.2872 158.837 63.3416 160.159 63.7095 161.397C64.1076 162.686 64.8362 163.824 65.5566 164.938L67.0192 167.206C69.2509 170.665 71.4826 174.123 73.8199 177.5C73.8205 177.583 73.8454 177.664 73.8911 177.73C73.9369 177.797 74.0011 177.846 74.0745 177.871C74.1585 177.894 74.2641 177.892 74.3156 177.968C74.3394 178.015 74.3497 178.069 74.3454 178.123C74.3402 178.372 74.2962 178.619 74.2154 178.853C74.1774 178.931 74.1677 179.02 74.1883 179.105C74.2641 179.295 74.5837 179.187 74.6866 179.365C74.7543 179.482 74.6704 179.634 74.581 179.733C74.4916 179.833 74.3806 179.944 74.3968 180.081C74.4131 180.219 74.6352 180.374 74.627 180.543C74.627 180.643 74.5458 180.719 74.4889 180.797C74.4093 180.923 74.373 181.075 74.3864 181.227C74.3997 181.379 74.4619 181.52 74.562 181.628C74.7164 183.277 73.8849 184.844 73.7197 186.487C73.4489 189.083 74.5458 191.617 74.6785 194.222C74.6705 194.515 74.7223 194.807 74.8302 195.076C75.055 195.526 75.6427 195.798 75.6129 196.31C75.5704 196.52 75.5152 196.727 75.4477 196.929C75.4016 197.222 75.5316 197.514 75.5371 197.806C75.5425 198.099 75.3014 198.458 75.0468 198.341C75.2382 199.031 75.4089 199.727 75.5587 200.429L80.6776 200.885C80.7328 200.388 80.7173 199.885 80.6315 199.394C80.5259 198.859 80.3038 198.362 80.1874 197.833C80.1117 197.572 80.0904 197.297 80.125 197.026C80.1597 196.756 80.2494 196.497 80.3878 196.269C80.2544 196.27 80.1247 196.221 80.0216 196.13C79.9185 196.038 79.8487 195.91 79.8245 195.769C79.7816 195.484 79.7862 195.193 79.838 194.909C79.9734 193.468 79.4128 192.047 79.429 190.6C79.4453 189.46 79.8163 188.364 80.0032 187.244C80.4041 184.847 79.987 182.248 80.9755 180.058C81.5741 178.739 82.4028 177.278 81.7312 176C81.4007 175.369 80.8157 174.936 80.4338 174.34C80.1225 173.776 79.889 173.166 79.7405 172.53C78.9524 169.899 77.6767 167.455 76.5581 164.952C76.2477 164.325 76.0172 163.655 75.8729 162.961C75.7939 162.352 75.7649 161.737 75.7862 161.122C75.7862 160.019 75.7238 158.917 75.5994 157.822C75.5741 157.342 75.4471 156.875 75.2283 156.457C75.0073 156.14 74.7313 155.873 74.4158 155.67C72.7366 154.428 70.7378 153.717 68.9232 152.685Z" fill="#464353"/>
<path d="M75.0577 207.939C75.5492 208.121 76.0708 208.187 76.588 208.135C76.6259 207.679 77.1919 207.577 77.6144 207.6C77.8188 207.593 78.0214 207.643 78.2021 207.746C78.3078 207.819 78.389 207.928 78.4947 208.001C78.6777 208.111 78.8838 208.168 79.0932 208.167L81.2897 208.366C82.2729 208.457 83.2912 208.542 84.2121 208.161C84.3947 208.1 84.5566 207.982 84.6779 207.822C84.9271 207.436 84.6779 206.887 84.3339 206.606C83.99 206.326 83.5458 206.197 83.2018 205.91C82.4354 205.282 82.3324 204.11 81.9262 203.168C81.6419 202.573 81.2888 202.019 80.8753 201.519C80.5752 201.091 80.2257 200.706 79.8353 200.373C78.9551 199.683 77.9394 199.698 76.9048 199.599C76.1709 199.528 75.4829 199.485 74.9602 200.183C74.3102 201.06 74.5702 202.814 74.6081 203.841C74.659 205.217 74.8093 206.588 75.0577 207.939Z" fill="#514E7F"/>
<path d="M97.7459 143.116C100.546 143.116 102.816 140.666 102.816 137.644C102.816 134.621 100.546 132.171 97.7459 132.171C94.9458 132.171 92.6758 134.621 92.6758 137.644C92.6758 140.666 94.9458 143.116 97.7459 143.116Z" fill="#A1616A"/>
<path d="M92.9629 139.27C92.2371 139.945 91.1944 139.995 90.241 140.1C88.2024 140.326 86.2181 140.946 84.3827 141.93C84.1287 142.048 83.8987 142.219 83.7056 142.433C83.5409 142.665 83.4237 142.932 83.3617 143.216C83.1873 143.832 83.122 144.478 83.1694 145.119C83.2358 145.742 83.4017 146.347 83.6596 146.909C84.3633 148.481 85.4491 149.818 86.8013 150.776C87.0396 150.968 87.31 151.108 87.5976 151.189C88.2639 151.338 88.9085 150.923 89.5666 150.735C90.1653 150.567 90.7962 150.588 91.384 150.797C91.9256 150.996 92.5188 151.358 93.055 151.116C93.3982 150.908 93.665 150.58 93.8107 150.186C94.3286 149.129 94.7907 148.042 95.1947 146.929C95.3398 146.495 95.5071 146.069 95.6957 145.654C96.2834 144.447 97.2991 143.514 97.8056 142.26C97.857 142.165 97.888 142.058 97.8965 141.948C97.9049 141.837 97.8905 141.726 97.8543 141.623C97.7604 141.483 97.6304 141.376 97.4806 141.316C96.7316 140.853 96.0492 140.275 95.4547 139.6C95.1215 139.255 94.5094 138.322 94.0301 138.241C93.4911 138.141 93.3286 138.93 92.9629 139.27Z" fill="#A1616A"/>
<path d="M93.0821 150.39C92.4944 150.683 91.801 150.557 91.1645 150.414C89.5233 150.042 87.863 149.668 86.3436 148.902C85.8689 148.706 85.4576 148.365 85.16 147.92C84.9752 147.539 84.8629 147.123 84.8296 146.695L84.5588 144.648C84.4613 143.938 84.6292 143.28 84.6454 142.561C84.6558 142.481 84.6513 142.4 84.6322 142.322C84.6131 142.245 84.5799 142.172 84.5344 142.108C84.4417 142.024 84.3219 141.983 84.2013 141.994C83.4402 142.009 82.9798 142.871 82.4462 143.456C82.1379 143.793 81.7693 144.06 81.3629 144.239C80.8754 144.456 80.2795 144.608 80.0764 145.134C79.9951 145.353 80.006 145.602 79.9193 145.821C79.578 146.698 78.1236 146.406 77.7526 147.283C77.647 147.528 77.6551 147.835 77.4817 148.028C77.3084 148.221 76.9834 148.218 76.7153 148.265C75.6563 148.452 75.1444 149.77 74.2398 150.393C73.4787 150.919 72.4983 150.908 71.6777 151.317C71.2226 151.545 70.8191 151.902 70.337 152.051C69.8549 152.2 69.3105 152.121 68.7932 152.136C68.7381 152.13 68.6824 152.137 68.6298 152.155C68.5771 152.174 68.5286 152.204 68.4872 152.244C68.455 152.297 68.4338 152.356 68.4249 152.419C68.416 152.482 68.4197 152.545 68.4357 152.606C68.6866 154.335 69.3502 155.963 70.3613 157.331C71.3723 158.699 72.696 159.758 74.2019 160.406C74.3767 160.466 74.5427 160.553 74.6948 160.663C75.1552 161.035 75.2365 161.833 75.7592 162.096C75.9479 162.168 76.1512 162.181 76.3467 162.136C76.5422 162.091 76.7223 161.988 76.8669 161.839C77.1553 161.539 77.4267 161.221 77.6795 160.886C78.1567 160.347 78.7832 159.991 79.4643 159.871C80.0926 159.763 80.7941 159.842 81.3033 159.424C81.5115 159.217 81.7053 158.995 81.8829 158.757C82.2601 158.377 82.7079 158.088 83.1964 157.909C84.5314 157.34 85.9424 157.006 87.3755 156.918C88.7107 156.839 90.0839 156.971 91.346 156.503C91.6737 156.394 91.9757 156.209 92.2316 155.962C92.503 155.646 92.7048 155.267 92.8221 154.854C93.2774 153.418 93.3672 151.877 93.0821 150.39Z" fill="#FF661B"/>
<path d="M86.5467 142.324C86.9205 142.286 87.2969 142.324 87.6734 142.324C88.1149 142.324 88.5509 142.208 88.9924 142.205C89.6915 142.217 90.3687 142.47 90.9251 142.927C91.4815 143.384 91.888 144.021 92.0854 144.745C92.1226 144.861 92.1292 144.985 92.1044 145.105C92.0898 145.164 92.056 145.215 92.0093 145.249C91.9626 145.284 91.9059 145.299 91.8498 145.292C91.7032 144.859 91.5115 144.446 91.2783 144.061C90.8585 143.442 90.2602 142.992 89.5774 142.781C88.8967 142.572 88.1795 142.544 87.4865 142.699C87.1967 142.757 86.9151 142.839 86.6334 142.924L85.2792 143.327C85.03 143.4 84.7781 143.473 84.5371 143.57C84.3502 143.646 84.0306 143.924 83.8464 143.935C83.5973 143.935 83.7977 143.701 83.9087 143.544C84.1299 143.218 84.4394 142.975 84.7944 142.848C85.3572 142.599 85.9455 142.423 86.5467 142.324Z" fill="#FF661B"/>
<path d="M89.9647 158.763C90.2924 159.898 90.6202 161.035 91.0318 162.137C91.7676 164.054 92.6948 165.878 93.7971 167.578C94.5071 168.697 95.2701 169.776 96.083 170.811C97.0986 172.106 98.2335 173.41 98.5964 175.062C98.8049 176.021 98.7345 177.017 98.8212 177.985C98.9078 178.953 99.2031 179.997 99.9343 180.581C100.46 180.996 101.129 181.122 101.771 181.233C102.228 181.312 102.803 181.338 103.044 180.909C103.125 180.732 103.169 180.539 103.171 180.342L103.279 178.912C103.304 178.602 103.406 178.207 103.691 178.193C103.975 178.178 104.124 178.59 104.368 178.777C104.693 179.023 105.18 178.777 105.359 178.406C105.506 178.004 105.516 177.558 105.386 177.149C105.188 176.336 104.833 175.577 104.344 174.922C103.856 174.267 103.245 173.731 102.551 173.349C102.068 173.138 101.604 172.879 101.167 172.574C100.723 172.157 100.355 171.655 100.083 171.092C97.5672 166.627 95.0403 162.137 93.269 157.272C92.9196 156.404 92.6826 155.488 92.5648 154.55C92.4808 153.594 92.6162 152.633 92.6758 151.674C92.7808 149.951 92.6327 148.221 92.2371 146.549C92.1508 146.109 91.997 145.688 91.7821 145.303C91.0535 144.105 89.3445 143.929 88.2612 144.754C87.8619 145.085 87.5307 145.502 87.2887 145.979C87.0467 146.455 86.8992 146.981 86.8555 147.522C86.777 148.493 87.297 149.499 87.557 150.402C88.3568 153.193 89.1594 155.98 89.9647 158.763Z" fill="#A1616A"/>
<path d="M105.121 133.773C105.162 133.317 104.782 132.896 104.352 132.604C103.898 132.353 103.463 132.066 103.049 131.744C102.664 131.385 102.453 130.917 102.069 130.557C101.631 130.198 101.135 129.931 100.606 129.771C99.4806 129.345 98.2992 129.117 97.1068 129.096C95.9015 129.096 94.6692 129.388 93.7619 130.052C93.538 130.204 93.3446 130.402 93.1931 130.636C93.0501 130.917 92.9581 131.225 92.9223 131.543C92.7061 132.524 92.4135 133.483 92.0475 134.411C91.671 135.443 91.2702 136.513 90.3845 137.311C89.4366 138.161 87.9876 138.653 87.3619 139.682C87.2928 139.773 87.2443 139.881 87.2203 139.996C87.1963 140.111 87.1975 140.231 87.2238 140.345C87.3132 140.605 87.6003 140.784 87.8657 140.948C89.4041 141.901 90.7312 143.137 91.4137 144.614C92.0962 146.09 92.0773 147.829 91.105 149.189C90.7474 149.692 90.2545 150.288 90.6039 150.794C91.1456 151.563 92.9575 151.121 93.38 151.934C93.5127 152.194 93.4342 152.489 93.4342 152.773C93.4342 153.627 94.1952 154.384 95.1188 154.779C96.0424 155.173 97.1122 155.267 98.1522 155.316C98.4283 154.647 98.4555 153.888 98.228 153.197C98.1588 153.048 98.1315 152.88 98.1495 152.715C98.227 152.531 98.3474 152.371 98.4989 152.253C99.6093 151.118 99.3737 149.452 98.7074 148.104C98.0412 146.757 97.0011 145.526 96.6138 144.108C96.4215 143.403 96.4215 142.611 96.9388 142.026C97.2358 141.745 97.5558 141.494 97.8949 141.275C98.5007 140.831 98.9673 140.199 99.2329 139.462C99.5443 138.53 99.5037 137.416 100.408 136.787C101.278 136.203 102.499 136.372 103.461 135.972C104.2 135.656 105.061 134.443 105.121 133.773Z" fill="#464353"/>
<path d="M157.637 179.581C153.506 177.736 152.293 176.403 152.293 173.734C152.293 171.688 153.127 169.325 156.783 169.325C158.805 169.293 160.79 169.903 162.493 171.08L163.682 167.685C162.303 166.808 160.359 165.993 157.509 165.89V160.92H155.107V166.095C150.738 166.864 148.209 170.091 148.209 174.345C148.209 178.803 150.646 181.163 155.5 183.212C159.015 184.759 160.854 186.501 160.854 189.319C160.854 192.243 158.576 194.342 155.204 194.342C152.548 194.342 149.536 193.368 147.827 192.137L146.687 195.57C148.35 196.853 151.199 197.774 153.95 197.827V203.001H158.037V197.672C162.913 196.795 165.537 192.994 165.537 188.96C165.537 184.399 162.528 181.733 157.637 179.581Z" fill="url(#paint1_linear)"/>
<path d="M153.961 201.832V196.658C151.21 196.605 148.36 195.684 146.697 194.401L147.838 190.969C149.547 192.199 152.558 193.173 155.215 193.173C158.587 193.173 160.854 191.074 160.854 188.15C160.854 185.332 159.004 183.59 155.489 182.052C150.646 180.005 148.198 177.643 148.198 173.185C148.198 168.931 150.727 165.704 155.096 164.935V159.76H157.498V164.73C160.348 164.833 162.292 165.651 163.671 166.525L162.482 169.905C160.779 168.729 158.794 168.119 156.773 168.151C153.116 168.151 152.282 170.51 152.282 172.559C152.282 175.223 153.495 176.556 157.626 178.406C162.517 180.558 165.526 183.224 165.526 187.785C165.526 191.834 162.915 195.626 158.027 196.497V201.832H153.961Z" fill="#FF661B"/>
</g>
<defs>
<linearGradient id="paint0_linear" x1="82.8254" y1="124.266" x2="82.8254" y2="68.4563" gradientUnits="userSpaceOnUse">
<stop stop-color="#808080" stop-opacity="0.25"/>
<stop offset="0.54" stop-color="#808080" stop-opacity="0.12"/>
<stop offset="1" stop-color="#808080" stop-opacity="0.1"/>
</linearGradient>
<linearGradient id="paint1_linear" x1="10565.9" y1="30031.5" x2="11877.1" y2="30031.5" gradientUnits="userSpaceOnUse">
<stop stop-color="#808080" stop-opacity="0.25"/>
<stop offset="0.54" stop-color="#808080" stop-opacity="0.12"/>
<stop offset="1" stop-color="#808080" stop-opacity="0.1"/>
</linearGradient>
<clipPath id="clip0">
<rect width="319" height="212" fill="white"/>
</clipPath>
</defs>
</svg>
