<svg width="359" height="226" viewBox="0 0 359 226" fill="none" xmlns="http://www.w3.org/2000/svg">
<g clip-path="url(#clip0)">
<path d="M276.313 170.705C291.08 133.789 286.613 92.5685 267.568 60.9103L68.2057 88.5124L259.258 48.6985C178.738 -51.7048 22.0161 14.8915 37.1233 141.658L276.313 170.705Z" fill="#E6E6E6"/>
<path d="M285.105 129.898H31.1153V208.983H285.105V129.898Z" fill="#FF661B"/>
<path d="M101.951 120.253C104.229 122.023 105.063 122.594 105.548 122.522C129.061 129.368 108.448 137.392 97.0241 123.772L101.951 120.253Z" fill="#FFB8B8"/>
<path d="M24.3638 192.588V208.662L35.9378 208.019L32.723 191.302L24.3638 192.588Z" fill="#FFB8B8"/>
<path d="M88.665 192.588V208.662L77.0906 208.019L80.3057 191.302L88.665 192.588Z" fill="#FFB8B8"/>
<path d="M53.2992 109.644L70.6606 109.001C110.711 150.985 95.5647 141.41 94.452 199.017L73.2326 192.587L77.7337 152.723C77.736 152.721 78.921 151.931 77.936 151.913C71.7755 154.03 67.2805 127.82 53.9422 130.862C38.764 130.136 36.293 152.651 30.1508 152.723L34.6519 192.587L13.4325 199.017C11.0567 135.712 -0.587275 150.013 37.2239 109.001L53.2992 109.644Z" fill="#2F2E41"/>
<path d="M27.5787 203.518C27.5787 203.518 25.0067 198.374 21.7916 200.946C18.5766 203.518 10.8604 211.234 10.8604 211.234C10.8604 211.234 -7.78695 219.592 3.78727 224.736C15.3615 229.88 25.0067 217.663 25.0067 217.663C36.031 215.365 42.3898 213.893 36.5435 201.869C33.2243 203.305 28.5271 204.968 27.5787 203.518Z" fill="#2F2E41"/>
<path d="M85.4499 203.518C85.4499 203.518 88.0219 198.374 91.237 200.946C94.452 203.518 102.168 211.234 102.168 211.234C102.168 211.234 120.816 219.592 109.241 224.736C97.6671 229.88 88.0219 217.663 88.0219 217.663C76.9976 215.365 70.6388 213.893 76.4851 201.869C79.8043 203.305 84.5015 204.968 85.4499 203.518Z" fill="#2F2E41"/>
<path d="M70.6606 36.9886C69.7042 52.9947 47.8579 51.5856 47.5122 36.9885C48.4685 20.9825 70.3148 22.3916 70.6606 36.9886Z" fill="#FFB8B8"/>
<path d="M53.9422 45.3474C59.5674 62.3476 46.2867 53.0921 64.8735 66.5654L71.9466 52.4201C71.9466 52.4201 66.8025 50.4911 67.4455 43.4185L53.9422 45.3474Z" fill="#FFB8B8"/>
<path d="M88.6649 54.992L69.4969 50.6172C70.0361 62.1741 57.7019 59.8481 55.5498 54.0347L37.2239 64.6366C44.9158 93.2827 42.9664 94.4647 32.7228 112.859C28.8135 116.429 34.66 118.475 39.7497 116.522C43.6318 114.126 45.6033 111.997 49.763 112.539C69.4186 116.631 85.7816 117.597 88.3711 115.998C89.2978 114.672 88.3443 55.2222 88.6649 54.992Z" fill="#575A89"/>
<path d="M83.5208 56.2778C84.1638 56.2778 87.4761 54.7205 87.4761 54.7205C97.1127 54.5581 103.58 119.375 104.097 121.218L97.6671 125.719L87.3789 99.3568L83.5208 56.2778Z" fill="#575A89"/>
<path d="M38.5099 131.505C38.8387 133.932 39.3982 161.182 49.1607 148.453C50.4415 139.166 46.0869 136.394 44.9401 130.219L38.5099 131.505Z" fill="#FFB8B8"/>
<path d="M41.082 64.6368L39.1118 63.5446C33.8298 63.371 35.4945 77.3519 33.2598 87.5905C31.4341 99.5184 31.9539 112.671 34.0958 130.254C34.2832 136.707 45.8411 132.642 47.5121 132.149C47.5121 132.149 43.654 105.787 45.5831 101.286C47.5121 96.7853 41.082 64.6368 41.082 64.6368Z" fill="#575A89"/>
<path d="M70.1547 25.7694C68.369 22.8699 65.574 20.7332 62.3075 19.7707L59.9082 21.69L60.841 19.4514C60.0566 19.3317 59.2627 19.2858 58.4697 19.3143L56.311 22.0896L57.2045 19.4094C47.9416 20.4039 42.4612 31.0367 47.2701 38.4782C48.0119 36.1988 48.9122 34.0598 49.654 31.7803C50.237 31.8598 50.8279 31.8627 51.4116 31.7889L52.3142 29.6832L52.5663 31.6999C55.3635 31.4561 59.5126 30.9211 62.1646 30.4309L61.9067 28.8839L63.4495 30.1695C64.262 29.9824 64.7444 29.8128 64.7045 29.6832C66.6768 32.8626 68.6311 34.8933 70.6033 38.0727C71.352 33.5881 72.6737 29.8603 70.1547 25.7694Z" fill="#2F2E41"/>
<path d="M269.903 139.438H213.81V166.045H269.903V139.438Z" fill="white"/>
<path d="M259.296 145.011H224.417V148.201H259.296V145.011Z" fill="#E6E6E6"/>
<path d="M259.296 151.146H224.417V154.336H259.296V151.146Z" fill="#E6E6E6"/>
<path d="M259.296 157.281H224.417V160.472H259.296V157.281Z" fill="#E6E6E6"/>
<path d="M164.961 145.758L163.137 142.598L161.312 139.438L159.488 142.598L157.663 145.758H159.624V154.909H163.001V145.758H164.961Z" fill="white"/>
<path d="M288.595 210.87C296.893 210.87 303.619 204.144 303.619 195.847C303.619 187.55 296.893 180.824 288.595 180.824C280.298 180.824 273.571 187.55 273.571 195.847C273.571 204.144 280.298 210.87 288.595 210.87Z" fill="#3F3D56"/>
<path d="M291.327 202.504C295.004 202.504 297.985 199.523 297.985 195.846C297.985 192.169 295.004 189.188 291.327 189.188C287.65 189.188 284.669 192.169 284.669 195.846C284.669 199.523 287.65 202.504 291.327 202.504Z" fill="#E6E6E6"/>
<path d="M279.12 206.345L311.9 220.002L310.875 223.246L292.01 221.112L260.084 206.943L277.839 208.991L279.12 206.345Z" fill="#3F3D56"/>
<path d="M308.095 219.387L348.864 85.6619L358.792 68.0321L358.827 67.862C358.859 67.7064 359.588 64.0215 357.795 61.3529C357.343 60.6895 356.759 60.1264 356.08 59.6985C355.4 59.2707 354.64 58.9874 353.847 58.8661C348.367 57.8389 336.109 57.3327 335.59 57.3116L335.492 57.3076L335.395 57.3209C335.06 57.3665 327.226 58.5116 325.455 65.3521L316.932 80.863L316.899 80.9733L278.314 207.815L280.438 208.461L318.988 81.7295L327.54 66.1664L327.575 66.0234C328.827 60.8758 334.814 59.6715 335.61 59.5337C336.862 59.5872 348.384 60.0998 353.438 61.0474C353.939 61.1158 354.422 61.2877 354.854 61.552C355.286 61.8164 355.658 62.1676 355.947 62.5833C357.053 64.2194 356.776 66.6284 356.679 67.2616L346.811 84.7835L346.776 84.8991L305.972 218.74L308.095 219.387Z" fill="#3F3D56"/>
<path d="M314.056 93.6871L313.662 95.8711L343.106 101.189L343.5 99.0047L314.056 93.6871Z" fill="#3F3D56"/>
<path d="M308.557 111.85L308.113 114.024L337.347 119.99L337.791 117.816L308.557 111.85Z" fill="#3F3D56"/>
<path d="M298.766 144.333L298.155 146.467L326.697 154.633L327.307 152.499L298.766 144.333Z" fill="#3F3D56"/>
<path d="M318.068 207.294L318.877 205.227L291.174 194.38L289.813 179.651L315.67 189.308L324.047 201.428L325.873 200.167L317.1 187.473L287.279 176.335L289.09 195.947L318.068 207.294Z" fill="#3F3D56"/>
<path d="M327.692 225.21C335.989 225.21 342.716 218.483 342.716 210.187C342.716 201.89 335.989 195.164 327.692 195.164C319.394 195.164 312.668 201.89 312.668 210.187C312.668 218.483 319.394 225.21 327.692 225.21Z" fill="#3F3D56"/>
<path d="M331.618 217.527C335.296 217.527 338.277 214.546 338.277 210.869C338.277 207.192 335.296 204.211 331.618 204.211C327.941 204.211 324.96 207.192 324.96 210.869C324.96 214.546 327.941 217.527 331.618 217.527Z" fill="#E6E6E6"/>
</g>
<defs>
<clipPath id="clip0">
<rect width="359" height="226" fill="white"/>
</clipPath>
</defs>
</svg>
