<svg width="80" height="65" viewBox="0 0 80 65" fill="none" xmlns="http://www.w3.org/2000/svg">
<path d="M57.1076 21.5245L50.7188 13.4947V9.92967C50.7188 8.31425 49.4045 7 47.7891 7H31.2262C29.6108 7 28.2965 8.31425 28.2965 9.92967V13.4948L21.9076 21.5247C20.2051 23.6645 19 25.4666 19 29.1847V53.1612C19 55.2779 20.6472 57 22.6719 57H56.3433C58.3679 57 60.0152 55.2779 60.0152 53.1612V29.1847C60.0152 25.4666 58.81 23.6646 57.1076 21.5245ZM58.0621 30.1613V49.1873H39.5462V30.1613H58.0621ZM58.0268 28.2082H39.516C39.3206 25.1332 38.1847 23.4681 36.6385 21.5246L31.2981 14.8125H49.2712L55.5792 22.7406C56.9516 24.4656 57.8445 25.7662 58.0268 28.2082ZM30.2496 9.92967C30.2496 9.3912 30.6877 8.95311 31.2262 8.95311H47.789C48.3275 8.95311 48.7655 9.3912 48.7655 9.92967V12.8593H30.2496V9.92967ZM23.436 22.7407L29.2731 15.4044L35.1101 22.7407C36.4825 24.4656 37.3754 25.7662 37.5577 28.2082H33.88C33.3407 28.2082 32.9034 28.6455 32.9034 29.1847C32.9034 29.724 33.3407 30.1613 33.88 30.1613H37.593V49.1873H20.9531V30.1613H25.0911C25.6303 30.1613 26.0676 29.724 26.0676 29.1847C26.0676 28.6455 25.6303 28.2082 25.0911 28.2082H20.9884C21.1707 25.7662 22.0636 24.4656 23.436 22.7407ZM20.9531 53.1611V51.1404H37.5931V55.0468H22.6719C21.7241 55.0468 20.9531 54.2009 20.9531 53.1611ZM56.3433 55.0468H39.5462V51.1404H58.0621V53.1611C58.0621 54.2009 57.291 55.0468 56.3433 55.0468Z" fill="#02528A"/>
<path d="M48.8041 44.6356C51.5396 44.6356 53.7651 42.4102 53.7651 39.6746C53.7651 36.9392 51.5396 34.7137 48.8041 34.7137C46.0687 34.7137 43.8432 36.9392 43.8432 39.6746C43.8432 42.4102 46.0688 44.6356 48.8041 44.6356ZM48.8041 36.6668C50.4626 36.6668 51.8119 38.016 51.8119 39.6746C51.8119 41.3332 50.4627 42.6825 48.8041 42.6825C47.1455 42.6825 45.7963 41.3332 45.7963 39.6746C45.7963 38.016 47.1456 36.6668 48.8041 36.6668Z" fill="#02528A"/>
<path d="M29.4859 30.1617C30.0252 30.1617 30.4625 29.7244 30.4625 29.1851C30.4625 28.6459 30.0252 28.2086 29.4859 28.2086H29.4851C28.9459 28.2086 28.509 28.6459 28.509 29.1851C28.509 29.7244 28.9466 30.1617 29.4859 30.1617Z" fill="#02528A"/>
</svg>
