<svg width="47" height="47" viewBox="0 0 47 47" fill="none" xmlns="http://www.w3.org/2000/svg">
<g clip-path="url(#clip0)">
<path d="M15.6499 1.62242C16.6077 1.4553 17.5877 1.3706 18.5625 1.3706C19.2795 1.3706 19.9865 1.41656 20.6812 1.50446L20.1297 2.83513C19.799 3.63318 19.9152 4.55843 20.4331 5.24976C20.9005 5.87393 21.641 6.23366 22.4062 6.23366C22.5627 6.23366 22.7202 6.21859 22.8765 6.18779L23.7012 6.02497C24.5866 5.85017 25.3034 5.20626 25.5718 4.34461L25.9628 3.08969C31.2233 5.67702 34.9663 10.9353 35.3504 17.1363C35.3729 17.4997 35.6746 17.7793 36.0338 17.7793C36.048 17.7793 36.0623 17.7788 36.0769 17.7779C36.4546 17.7545 36.7419 17.4293 36.7184 17.0515C36.1262 7.48995 28.1512 0 18.5625 0C17.509 0 16.4497 0.0915559 15.4144 0.272292C15.0415 0.33735 14.7919 0.692335 14.857 1.06514C14.922 1.43794 15.2774 1.68775 15.6499 1.62242V1.62242ZM24.2632 3.93691C24.1445 4.31811 23.8274 4.60293 23.4357 4.68032L22.611 4.84315C22.2033 4.92346 21.7792 4.76073 21.5302 4.42813C21.301 4.1223 21.2496 3.71295 21.3958 3.35988L22.0673 1.73984C22.9734 1.933 23.8533 2.19944 24.7007 2.53277L24.2632 3.93691Z" fill="#02528A"/>
<path d="M8.91634 31.9742C4.42316 28.8233 1.74072 23.6711 1.74072 18.1922C1.74072 11.087 6.23728 4.7155 12.9299 2.33761C13.2865 2.21087 13.4729 1.81906 13.3463 1.46243C13.2196 1.1058 12.8277 0.919402 12.4711 1.04605C5.23318 3.61774 0.370117 10.5082 0.370117 18.1922C0.370117 24.1175 3.27076 29.6892 8.12935 33.0964C8.24914 33.1803 8.38629 33.2206 8.52225 33.2206C8.73807 33.2206 8.95061 33.1189 9.08392 32.9288C9.30121 32.619 9.22619 32.1916 8.91634 31.9742V31.9742Z" fill="#02528A"/>
<path d="M43.9548 19.3126C43.7063 18.9075 43.2743 18.6626 42.7992 18.6574C42.318 18.6515 41.8669 18.8938 41.6028 19.3039C41.0651 20.1386 40.1525 20.6368 39.1615 20.6368C38.3452 20.6368 37.562 20.29 37.0127 19.6851C36.5571 19.1834 35.8464 19.0087 35.2021 19.2396C34.8563 19.3636 34.4928 19.4266 34.1221 19.4266C32.3536 19.4266 30.9146 17.9877 30.9146 16.2202L30.9149 16.031C30.916 15.2939 30.4534 14.6345 29.7639 14.3902C28.8921 14.0813 28.3063 13.2519 28.3063 12.3277L28.3069 12.0316C28.3076 11.6554 28.149 11.2937 27.8718 11.0391C27.594 10.784 27.2182 10.6564 26.8435 10.6891C20.9419 11.2015 15.644 14.5814 12.6715 19.73C12.6619 19.7468 12.653 19.7639 12.6448 19.7813L11.3982 22.434C11.3901 22.4513 11.3826 22.4691 11.3759 22.4871C10.0016 26.1929 9.87861 30.2439 11.0204 34.2024C12.4905 39.2987 17.8113 44.6717 22.8816 46.1799C24.7186 46.7263 26.5899 46.9998 28.4398 46.9997C30.1335 46.9997 31.8093 46.7704 33.4237 46.3112C33.7877 46.2076 33.9989 45.8285 33.8953 45.4645C33.7917 45.1004 33.4125 44.8894 33.0487 44.9928C29.9219 45.8822 26.5412 45.8383 23.2723 44.866C18.6775 43.4993 13.6699 38.442 12.3373 33.8224C11.2801 30.1573 11.3887 26.4122 12.6511 22.9904L13.8727 20.3907C16.6199 15.6505 21.4996 12.5375 26.9361 12.0569L26.9356 12.3266C26.9356 13.8314 27.8883 15.1798 29.306 15.6822C29.4487 15.7327 29.5443 15.8722 29.5441 16.0291L29.5439 16.2193C29.5439 18.7436 31.5976 20.7973 34.1219 20.7973C34.6509 20.7973 35.17 20.7073 35.6647 20.5298C35.7873 20.486 35.915 20.5152 35.9979 20.6066C36.8066 21.4968 37.9596 22.0074 39.1614 22.0074C40.6203 22.0074 41.9637 21.2743 42.7549 20.0461C42.77 20.0227 42.7874 20.0283 42.7864 20.0293C44.4039 22.666 45.2589 25.7027 45.2589 28.8113C45.2589 32.0421 44.3407 35.1802 42.6037 37.8859C40.9116 40.5217 38.5283 42.63 35.7115 43.9832C35.3703 44.1471 35.2265 44.5565 35.3904 44.8977C35.5544 45.239 35.9637 45.3825 36.3049 45.2187C39.3509 43.7555 41.9278 41.476 43.7571 38.6264C45.6361 35.6993 46.6295 32.3053 46.6295 28.8114C46.6296 25.4496 45.7048 22.1651 43.9548 19.3126V19.3126Z" fill="#02528A"/>
<path d="M12.0861 10.9476C12.4233 11.2848 12.8716 11.4704 13.3482 11.4704C14.3324 11.4704 15.1331 10.6697 15.1331 9.68556V7.26819C15.1331 6.28401 14.3324 5.4834 13.3482 5.4834H12C11.0158 5.4834 10.2151 6.2841 10.2151 7.26819V8.33726C10.2151 8.81395 10.4008 9.26223 10.7379 9.5993L12.0861 10.9476ZM11.5857 7.26819C11.5857 7.03976 11.7715 6.854 12 6.854H13.3482C13.5766 6.854 13.7625 7.03985 13.7625 7.26819V9.68556C13.7625 9.91399 13.5766 10.0998 13.3482 10.0998C13.2375 10.0998 13.1335 10.0567 13.0553 9.9785L11.7071 8.63029C11.6288 8.55198 11.5857 8.44791 11.5857 8.33735V7.26819Z" fill="#02528A"/>
<path d="M8.43343 18.1887C9.011 17.6227 9.15235 16.7582 8.78531 16.0376L8.58712 15.6486C8.1954 14.8796 7.33713 14.4888 6.4997 14.6981L5.87397 14.8545C5.31733 14.9937 4.85087 15.392 4.62618 15.9199L4.45924 16.3123C4.13158 17.0824 4.36504 17.9778 5.02704 18.4899L5.48957 18.8477C5.82098 19.1041 6.21845 19.2304 6.61465 19.2304C7.08357 19.2304 7.55086 19.0535 7.90502 18.7065L8.43343 18.1887ZM7.4741 17.2098L6.94587 17.7276C6.77884 17.8912 6.5134 17.9068 6.32819 17.7637L5.86566 17.4058C5.69634 17.2748 5.63668 17.0459 5.72047 16.849L5.88741 16.4567C5.94488 16.3217 6.06412 16.2198 6.20648 16.1843L6.83221 16.0278C6.87086 16.0183 6.9096 16.0136 6.94788 16.0136C7.12149 16.0136 7.28386 16.1098 7.36592 16.2709L7.56411 16.6599C7.65795 16.8441 7.62176 17.0651 7.4741 17.2098V17.2098Z" fill="#02528A"/>
<path d="M20.6679 26.1265C20.4221 26.7064 20.4509 27.3577 20.7468 27.9136C21.0428 28.4695 21.5672 28.857 22.1854 28.9767L23.5082 29.2329C23.6383 29.2582 23.7698 29.2705 23.9009 29.2705C24.3375 29.2705 24.7689 29.1328 25.126 28.8728C25.5903 28.5347 25.8963 28.0138 25.9653 27.4437L26.0971 26.3571C26.2081 25.4415 25.6922 24.5517 24.8426 24.1932L23.9076 23.7985C22.8541 23.3539 21.6338 23.8488 21.1873 24.9015L20.6679 26.1265ZM21.9298 26.6615L22.4492 25.4365C22.5632 25.1676 22.8256 25.0058 23.101 25.0058C23.1924 25.0058 23.2854 25.0236 23.3746 25.0613L24.3097 25.4559C24.5987 25.5778 24.7742 25.8806 24.7365 26.192L24.6047 27.2787C24.5808 27.4755 24.4794 27.6481 24.3192 27.7649C24.159 27.8815 23.9632 27.9252 23.7688 27.8874L22.446 27.6312C22.2357 27.5904 22.0573 27.4587 21.9567 27.2695C21.8559 27.0804 21.8461 26.8588 21.9298 26.6615V26.6615Z" fill="#02528A"/>
<path d="M36.1535 37.2439L37.3105 35.8686C38.0012 35.0475 37.9615 33.8447 37.2181 33.071L36.2291 32.0416C35.8362 31.6327 35.3077 31.4043 34.7408 31.3987C34.1768 31.3903 33.6406 31.6106 33.2397 32.0116L32.0956 33.1555C31.3524 33.8987 31.2772 35.0858 31.9206 35.917L32.8966 37.1777C33.2858 37.6804 33.8736 37.9761 34.5092 37.989C34.5237 37.9892 34.5381 37.9894 34.5525 37.9894C35.1721 37.9895 35.7536 37.7193 36.1535 37.2439V37.2439ZM34.5372 36.6187C34.3177 36.6143 34.1148 36.5122 33.9805 36.3387L33.0045 35.078C32.7823 34.7911 32.8083 34.3813 33.0648 34.1247L34.2089 32.9808C34.3455 32.8441 34.5267 32.7692 34.7196 32.7692H34.7271C34.9228 32.7711 35.1052 32.8499 35.2408 32.991L36.2298 34.0203C36.4865 34.2874 36.5001 34.7027 36.2617 34.9861L35.1047 36.3613C34.9634 36.5295 34.7521 36.6229 34.5372 36.6187V36.6187Z" fill="#02528A"/>
<path d="M34.0665 28.3703C34.6127 28.3703 35.0985 28.0861 35.3662 27.6101C35.6339 27.1342 35.6244 26.5714 35.3407 26.1048L34.581 24.8548C34.2421 24.2972 33.5885 24.0264 32.9544 24.1805L32.0772 24.3938C31.3276 24.5762 30.8445 25.2896 30.9535 26.0534L31.1017 27.0902C31.2061 27.82 31.8406 28.3703 32.5777 28.3703H34.0665ZM32.4585 26.8963L32.3104 25.8596C32.3015 25.7979 32.3406 25.7403 32.4011 25.7256L33.2783 25.5122H33.2784C33.2879 25.5098 33.2975 25.5087 33.3071 25.5087C33.3483 25.5087 33.3874 25.53 33.4096 25.5667L34.1693 26.8167C34.1936 26.8567 34.1943 26.8976 34.1714 26.9384C34.1485 26.9791 34.1131 26.9998 34.0665 26.9998H32.5776C32.5181 26.9997 32.4669 26.9552 32.4585 26.8963V26.8963Z" fill="#02528A"/>
<path d="M42.2357 29.8831C42.3929 29.4634 42.3763 29.008 42.189 28.6008L41.6925 27.5218C41.5024 27.1082 41.1462 26.7869 40.7154 26.6399C40.2845 26.4931 39.8061 26.5298 39.4029 26.7412L38.7513 27.0825C38.3523 27.2915 38.0604 27.644 37.9292 28.0749C37.7982 28.5058 37.8445 28.9611 38.0596 29.3568L38.6073 30.3647C38.9068 30.9159 39.4834 31.235 40.0789 31.235C40.3071 31.235 40.5383 31.1881 40.7576 31.0894L41.358 30.8193C41.7667 30.6352 42.0784 30.3028 42.2357 29.8831V29.8831ZM40.9521 29.4023C40.9359 29.4457 40.8939 29.5251 40.7956 29.5694L40.1952 29.8396C40.0539 29.9031 39.8855 29.8462 39.8116 29.7103L39.2639 28.7023C39.2121 28.607 39.2271 28.5181 39.2406 28.4736C39.2542 28.4291 39.2913 28.3469 39.3873 28.2965L40.039 27.9552C40.1373 27.9036 40.2279 27.9217 40.2731 27.9372C40.3182 27.9525 40.4009 27.9935 40.4474 28.0945L40.9438 29.1735C40.9889 29.2716 40.9684 29.3589 40.9521 29.4023Z" fill="#02528A"/>
<path d="M22.3781 38.2371L23.354 38.6634C23.6383 38.7877 23.9357 38.8467 24.2287 38.8467C25.0304 38.8467 25.8002 38.405 26.1848 37.6482L26.6513 36.7302C26.9212 36.1989 26.9641 35.5956 26.7721 35.0314C26.58 34.4673 26.178 34.0154 25.64 33.7592L24.6812 33.3024C23.6011 32.7879 22.3296 33.2199 21.7865 34.2856L21.303 35.2341C21.03 35.7697 20.9895 36.4016 21.1922 36.9677C21.3949 37.5337 21.8271 37.9964 22.3781 38.2371V38.2371ZM22.5241 35.8564L23.0077 34.908C23.153 34.6226 23.4378 34.4587 23.7361 34.4587C23.8552 34.4587 23.9764 34.4848 24.0918 34.5397L25.0507 34.9965C25.2522 35.0925 25.4028 35.2617 25.4747 35.473C25.5467 35.6843 25.5305 35.9103 25.4294 36.1093L24.963 37.0272C24.7663 37.4142 24.3004 37.5812 23.9028 37.4075L22.9269 36.9811C22.7175 36.8897 22.5598 36.7208 22.4828 36.5056C22.4059 36.2904 22.4205 36.06 22.5241 35.8564V35.8564Z" fill="#02528A"/>
<path d="M22.8245 20.1571H23.7773C24.5225 20.1571 25.1576 19.6494 25.3218 18.9225L25.7195 17.1614C25.8494 16.5862 25.6515 15.991 25.203 15.6081C24.7545 15.2254 24.1355 15.1233 23.5878 15.342L22.2375 15.8812C21.6322 16.1228 21.2412 16.7 21.2412 17.3517V18.5737C21.2411 19.4468 21.9515 20.1571 22.8245 20.1571V20.1571ZM22.6117 17.3517C22.6117 17.2641 22.6643 17.1865 22.7457 17.154L24.096 16.6148C24.1255 16.603 24.1528 16.5982 24.1777 16.5982C24.2403 16.5982 24.287 16.6282 24.3131 16.6505C24.3496 16.6817 24.4072 16.7502 24.3826 16.8593L23.9849 18.6205C23.9628 18.7182 23.8774 18.7865 23.7773 18.7865H22.8245C22.7072 18.7865 22.6117 18.691 22.6117 18.5736V17.3517Z" fill="#02528A"/>
<path d="M19.8906 8.03271H19.1799C18.8014 8.03271 18.4946 8.33955 18.4946 8.71801C18.4946 9.09648 18.8014 9.40331 19.1799 9.40331H19.8906C20.2692 9.40331 20.5759 9.09648 20.5759 8.71801C20.5759 8.33955 20.2692 8.03271 19.8906 8.03271Z" fill="#02528A"/>
<path d="M26.8884 6.88477C26.5099 6.88477 26.2031 7.1916 26.2031 7.57006C26.2031 7.94853 26.5099 8.25536 26.8884 8.25536H27.7631C28.1417 8.25536 28.4484 7.94853 28.4484 7.57006C28.4484 7.1916 28.1417 6.88477 27.7631 6.88477H26.8884Z" fill="#02528A"/>
<path d="M10.9299 14.4878H12.018C12.3966 14.4878 12.7033 14.181 12.7033 13.8025C12.7033 13.424 12.3966 13.1172 12.018 13.1172H10.9299C10.5514 13.1172 10.2446 13.424 10.2446 13.8025C10.2446 14.181 10.5514 14.4878 10.9299 14.4878Z" fill="#02528A"/>
<path d="M6.00415 22.3018C5.62559 22.3018 5.31885 22.6086 5.31885 22.9871C5.31885 23.3655 5.62559 23.6724 6.00415 23.6724H6.64915C7.02771 23.6724 7.33445 23.3655 7.33445 22.9871C7.33445 22.6086 7.02771 22.3018 6.64915 22.3018H6.00415Z" fill="#02528A"/>
<path d="M7.37092 11.6997C7.74948 11.6997 8.05622 11.3929 8.05622 11.0144C8.05622 10.6359 7.74948 10.3291 7.37092 10.3291H6.64917C6.27061 10.3291 5.96387 10.6359 5.96387 11.0144C5.96387 11.3929 6.27061 11.6997 6.64917 11.6997H7.37092Z" fill="#02528A"/>
<path d="M18.8264 22.3308C18.8264 21.9523 18.5197 21.6455 18.1411 21.6455H17.321C16.9425 21.6455 16.6357 21.9523 16.6357 22.3308C16.6357 22.7093 16.9425 23.0161 17.321 23.0161H18.1411C18.5196 23.0161 18.8264 22.7093 18.8264 22.3308Z" fill="#02528A"/>
<path d="M18.1411 32.769H18.8518C19.2304 32.769 19.5371 32.4622 19.5371 32.0837C19.5371 31.7053 19.2304 31.3984 18.8518 31.3984H18.1411C17.7626 31.3984 17.4558 31.7053 17.4558 32.0837C17.4558 32.4622 17.7626 32.769 18.1411 32.769Z" fill="#02528A"/>
<path d="M28.4372 31.6543C28.8158 31.6543 29.1225 31.3475 29.1225 30.969C29.1225 30.5905 28.8158 30.2837 28.4372 30.2837H27.3259C26.9474 30.2837 26.6406 30.5905 26.6406 30.969C26.6406 31.3475 26.9474 31.6543 27.3259 31.6543H28.4372Z" fill="#02528A"/>
<path d="M28.146 42.3149H28.8021C29.1807 42.3149 29.4874 42.0081 29.4874 41.6296C29.4874 41.2512 29.1807 40.9443 28.8021 40.9443H28.146C27.7674 40.9443 27.4607 41.2512 27.4607 41.6296C27.4607 42.0081 27.7674 42.3149 28.146 42.3149Z" fill="#02528A"/>
<path d="M40.7749 33.564H40.0994C39.7208 33.564 39.4141 33.8708 39.4141 34.2493C39.4141 34.6277 39.7208 34.9346 40.0994 34.9346H40.7749C41.1534 34.9346 41.4602 34.6277 41.4602 34.2493C41.4602 33.8708 41.1533 33.564 40.7749 33.564Z" fill="#02528A"/>
</g>
<defs>
<clipPath id="clip0">
<rect width="47" height="47" fill="white"/>
</clipPath>
</defs>
</svg>
