<svg width="47" height="53" viewBox="0 0 47 53" fill="none" xmlns="http://www.w3.org/2000/svg">
<path d="M46.6281 50.5369C46.264 49.0873 45.5019 47.036 43.9325 45.4084C44.7495 38.277 44.7631 32.4021 43.9794 26.41C43.9237 25.9842 43.5333 25.6844 43.1078 25.74C42.6822 25.7957 42.3822 26.1859 42.4379 26.6116C43.218 32.5769 43.1893 38.4345 42.3447 45.6044C42.3163 45.8455 42.4021 46.0859 42.5766 46.2546L42.6356 46.3109C42.6644 46.3384 42.6935 46.3659 42.722 46.3945C44.1156 47.7882 44.7953 49.6223 45.1202 50.9156C45.1735 51.1281 45.0606 51.2697 45.0096 51.3208C44.9589 51.3715 44.8185 51.4838 44.6077 51.4308C43.3237 51.1086 41.5007 50.4346 40.1076 49.0539C39.936 48.8839 39.6956 48.8032 39.4558 48.8358C28.8686 50.2732 18.1321 50.2732 7.54453 48.8358C7.30491 48.8032 7.06436 48.884 6.89283 49.0539C5.49976 50.4345 3.67678 51.1085 2.39285 51.4307C2.18204 51.4838 2.0416 51.3713 1.99092 51.3206C1.93982 51.2695 1.82685 51.1279 1.88033 50.9155C2.20515 49.6222 2.88474 47.7881 4.27853 46.3944C4.30703 46.3659 4.33605 46.3383 4.36497 46.3108L4.42384 46.2545C4.59848 46.0858 4.68429 45.8454 4.65579 45.6043C4.38135 43.2741 4.19748 41.1435 4.09374 39.0907C4.07218 38.6621 3.71129 38.331 3.27817 38.3536C2.8494 38.3753 2.5195 38.7404 2.54116 39.1692C2.64097 41.1451 2.81354 43.1898 3.06798 45.4082C1.49861 47.0358 0.736527 49.0871 0.372428 50.5366C0.201002 51.2191 0.395022 51.923 0.891473 52.4197C1.26863 52.7969 1.7656 52.9994 2.28174 52.9994C2.44405 52.9994 2.60822 52.9794 2.77135 52.9385C4.16069 52.5897 6.10897 51.8735 7.70487 50.4257C18.1884 51.8158 28.8123 51.8158 39.2957 50.4257C40.8916 51.8735 42.84 52.5898 44.2294 52.9385C44.9108 53.1094 45.6133 52.9155 46.109 52.4198C46.6054 51.9234 46.7994 51.2195 46.6281 50.5369V50.5369Z" fill="#02528A"/>
<path d="M2.44412 35.9637C2.44806 36.3906 2.79526 36.734 3.22134 36.734H3.22849C3.65778 36.7301 4.0026 36.3789 3.99877 35.9497C3.94176 29.6751 4.67929 23.9864 6.53243 16.5002C9.83699 17.5674 15.4579 18.8376 23.4864 18.8376C31.5353 18.8376 37.1646 17.5608 40.4658 16.492C41.0955 19.0356 41.587 21.3373 41.9633 23.5036C42.029 23.8816 42.3573 24.1481 42.7282 24.1481C42.7724 24.1481 42.8172 24.1443 42.8622 24.1365C43.2851 24.0631 43.5685 23.6607 43.495 23.2377C43.1053 20.9942 42.5951 18.6118 41.9395 15.9754C42.6628 15.7007 43.196 15.4636 43.5395 15.2999C44.0721 15.0459 44.3959 14.504 44.3643 13.9192C44.2181 11.2137 42.8647 9.01454 42.0709 7.94442C41.534 7.22078 40.559 6.99609 39.7524 7.41014C39.7523 7.41024 39.7523 7.41024 39.7523 7.41024C39.5134 7.53285 39.2553 7.6537 38.9782 7.77268C38.1627 4.91068 36.8528 2.94758 35.0773 1.93136C32.4946 0.453094 29.6075 1.34297 28.0565 1.82098C27.8335 1.88969 27.6407 1.94918 27.4815 1.99188C23.927 2.94716 21.0039 1.79683 18.6553 0.872434C17.3222 0.347689 16.27 -0.0664689 15.3411 0.00887963C13.6846 0.143408 11.0857 1.61929 7.9911 7.77123C7.71541 7.65277 7.45848 7.53254 7.22052 7.41035C6.41376 6.99609 5.43868 7.22099 4.90191 7.94463C4.10811 9.01474 2.75474 11.2138 2.60871 13.9193C2.57709 14.5041 2.90077 15.046 3.43339 15.3C3.78091 15.4656 4.32224 15.7063 5.05852 15.9852C3.17056 23.5856 2.38639 29.5969 2.44412 35.9637V35.9637ZM15.4669 1.55834C16.0344 1.51212 16.9856 1.88596 18.0859 2.31898C20.5119 3.27374 23.8348 4.58162 27.885 3.49316C28.0717 3.44299 28.2769 3.37967 28.5145 3.30649C29.9332 2.86922 32.3079 2.1373 34.3052 3.28048C35.7418 4.10268 36.8208 5.79797 37.5181 8.32313C36.6042 8.62909 35.5554 8.9195 34.3766 9.19208C27.2523 10.8395 19.7207 10.8395 12.5962 9.19208C11.4176 8.9196 10.3691 8.62919 9.45537 8.32334C11.5541 4.20757 13.7744 1.69578 15.4669 1.55834V1.55834ZM6.1505 8.87068C6.23217 8.76051 6.3837 8.72796 6.51046 8.79305C7.89171 9.50228 9.82144 10.1461 12.2461 10.7067C19.5997 12.407 27.3733 12.407 34.7269 10.7067C37.1517 10.1461 39.0815 9.50218 40.4625 8.79305C40.5893 8.72807 40.7408 8.76051 40.8225 8.87058C41.5044 9.7901 42.6617 11.6614 42.8073 13.9263C41.049 14.7537 34.7428 17.2829 23.4865 17.2829C12.2302 17.2829 5.92394 14.7539 4.16563 13.9265C4.31125 11.6615 5.46843 9.7902 6.1505 8.87068Z" fill="#02528A"/>
<path d="M30.3522 25.0185C30.221 24.9697 27.1174 23.8376 24.9941 25.2561C24.3116 25.7121 23.8347 26.3625 23.5003 27.0398C23.166 26.3625 22.6889 25.7121 22.0065 25.2561C19.8831 23.8375 16.7795 24.9696 16.6485 25.0185C16.3349 25.1355 16.1313 25.4401 16.1433 25.7747C16.1477 25.8959 16.2563 28.3971 17.6726 29.9835C17.088 30.1085 16.6935 30.2526 16.6485 30.2694C16.3349 30.3864 16.1313 30.691 16.1433 31.0255C16.1476 31.1459 16.2548 33.6066 17.6381 35.1947C17.0729 35.3178 16.6925 35.4565 16.6485 35.4729C16.3349 35.5899 16.1313 35.8945 16.1433 36.229C16.1483 36.3689 16.2906 39.6693 18.414 41.0879C19.2253 41.6299 20.1796 41.7996 21.0566 41.7996C22.1107 41.7996 23.0526 41.5546 23.5003 41.4164C23.9481 41.5546 24.8898 41.7996 25.944 41.7996C26.821 41.7996 27.7755 41.6299 28.5866 41.0879C30.7101 39.6693 30.8524 36.3689 30.8573 36.229C30.8694 35.8945 30.6658 35.5899 30.3522 35.4729C30.3081 35.4565 29.9277 35.3178 29.3625 35.1947C30.7457 33.6067 30.853 31.1459 30.8573 31.0255C30.8694 30.691 30.6658 30.3863 30.3522 30.2694C30.3072 30.2526 29.9126 30.1085 29.3281 29.9835C30.7444 28.3971 30.8531 25.8959 30.8573 25.7747C30.8694 25.4401 30.6658 25.1355 30.3522 25.0185V25.0185ZM24.5391 28.6559C24.7362 27.965 25.1249 27.0384 25.8577 26.5489C26.5905 26.0594 27.5955 26.055 28.3091 26.1373C28.6645 26.1784 28.9866 26.2448 29.2405 26.3079C29.2016 26.5668 29.1397 26.8899 29.0416 27.2338C28.8445 27.9247 28.4557 28.8513 27.7229 29.3408C26.9903 29.8304 25.9855 29.835 25.2717 29.7524C24.9163 29.7113 24.5941 29.6449 24.3403 29.5818C24.3791 29.323 24.441 28.9998 24.5391 28.6559ZM23.5002 30.962C23.6797 31.0175 23.9387 31.09 24.2526 31.1571C23.9437 31.5029 23.697 31.8919 23.5002 32.2907C23.3033 31.8919 23.0566 31.5029 22.7478 31.1571C23.0617 31.0899 23.3207 31.0175 23.5002 30.962ZM18.6915 31.3883C19.4054 31.3058 20.4101 31.3103 21.1429 31.7999C21.8755 32.2894 22.2643 33.2158 22.4614 33.9069C22.5595 34.2509 22.6214 34.5741 22.6603 34.8328C22.4064 34.896 22.0842 34.9624 21.7289 35.0035C21.0151 35.0859 20.0104 35.0814 19.2776 34.5919C18.5449 34.1024 18.1562 33.1758 17.9589 32.4848C17.8609 32.1408 17.7989 31.8178 17.7601 31.559C18.014 31.4957 18.3362 31.4293 18.6915 31.3883V31.3883ZM23.5003 36.2129C23.6732 36.2662 23.9198 36.3355 24.2181 36.4005C23.9255 36.7364 23.6897 37.1106 23.5003 37.4942C23.311 37.1106 23.0751 36.7364 22.7826 36.4005C23.0808 36.3355 23.3274 36.2662 23.5003 36.2129V36.2129ZM25.2717 35.0034C24.9172 34.9624 24.5957 34.8962 24.3421 34.8332C24.4696 33.9945 24.8363 32.4821 25.8576 31.7998C26.5905 31.3102 27.5954 31.3057 28.309 31.3882C28.6634 31.4291 28.9849 31.4953 29.2385 31.5584C29.1109 32.397 28.7442 33.9095 27.7229 34.5918C26.9903 35.0813 25.9858 35.0858 25.2717 35.0034V35.0034ZM18.6915 26.1373C19.4056 26.0551 20.4101 26.0593 21.1429 26.5489C21.8755 27.0384 22.2643 27.965 22.4614 28.6559C22.5595 28.9999 22.6214 29.3231 22.6603 29.5818C22.4064 29.6449 22.084 29.7113 21.7289 29.7524C21.0154 29.8349 20.0105 29.8305 19.2776 29.3408C18.5449 28.8513 18.1562 27.9247 17.9589 27.2338C17.8609 26.8898 17.7989 26.5666 17.7601 26.3079C18.014 26.2448 18.3362 26.1784 18.6915 26.1373V26.1373ZM21.7288 40.2069C21.0153 40.2895 20.0104 40.2849 19.2775 39.7953C18.5448 39.3058 18.1561 38.3792 17.9588 37.6882C17.8608 37.3442 17.7988 37.0212 17.76 36.7624C18.0139 36.6992 18.3362 36.6327 18.6914 36.5917C19.4055 36.5094 20.41 36.5137 21.1428 37.0033C21.8754 37.4928 22.2642 38.4193 22.4613 39.1103C22.5594 39.4543 22.6213 39.7774 22.6602 40.0362C22.4064 40.0993 22.084 40.1658 21.7288 40.2069ZM29.0416 37.6882C28.8445 38.3793 28.4557 39.3058 27.7229 39.7953C26.9903 40.2849 25.9855 40.2895 25.2717 40.2069C24.9163 40.1658 24.5941 40.0994 24.3403 40.0362C24.3791 39.7774 24.4411 39.4542 24.5391 39.1103C24.7362 38.4192 25.1249 37.4928 25.8577 37.0033C26.5905 36.5136 27.5955 36.5095 28.3091 36.5917C28.6645 36.6327 28.9866 36.6992 29.2405 36.7624C29.2016 37.0212 29.1397 37.3442 29.0416 37.6882Z" fill="#02528A"/>
</svg>
