<svg width="42" height="50" viewBox="0 0 42 50" fill="none" xmlns="http://www.w3.org/2000/svg">
<path d="M38.1076 14.5245L31.7188 6.49469V2.92967C31.7188 1.31425 30.4045 0 28.7891 0H12.2262C10.6108 0 9.29653 1.31425 9.29653 2.92967V6.49479L2.9076 14.5247C1.20507 16.6645 0 18.4666 0 22.1847V46.1612C0 48.2779 1.64716 50 3.67185 50H37.3433C39.3679 50 41.0152 48.2779 41.0152 46.1612V22.1847C41.0152 18.4666 39.81 16.6646 38.1076 14.5245ZM39.0621 23.1613V42.1873H20.5462V23.1613H39.0621ZM39.0268 21.2082H20.516C20.3206 18.1332 19.1847 16.4681 17.6385 14.5246L12.2981 7.81245H30.2712L36.5792 15.7406C37.9516 17.4656 38.8445 18.7662 39.0268 21.2082ZM11.2496 2.92967C11.2496 2.3912 11.6877 1.95311 12.2262 1.95311H28.789C29.3275 1.95311 29.7655 2.3912 29.7655 2.92967V5.85934H11.2496V2.92967ZM4.43601 15.7407L10.2731 8.40444L16.1101 15.7407C17.4825 17.4656 18.3754 18.7662 18.5577 21.2082H14.88C14.3407 21.2082 13.9034 21.6455 13.9034 22.1847C13.9034 22.724 14.3407 23.1613 14.88 23.1613H18.593V42.1873H1.95311V23.1613H6.09108C6.63033 23.1613 7.06763 22.724 7.06763 22.1847C7.06763 21.6455 6.63033 21.2082 6.09108 21.2082H1.98837C2.17069 18.7662 3.06356 17.4656 4.43601 15.7407ZM1.95311 46.1611V44.1404H18.5931V48.0468H3.67185C2.7241 48.0468 1.95311 47.2009 1.95311 46.1611ZM37.3433 48.0468H20.5462V44.1404H39.0621V46.1611C39.0621 47.2009 38.291 48.0468 37.3433 48.0468Z" fill="#02528A"/>
<path d="M29.8042 37.6358C32.5396 37.6358 34.7651 35.4103 34.7651 32.6748C34.7651 29.9394 32.5396 27.7139 29.8042 27.7139C27.0687 27.7139 24.8433 29.9394 24.8433 32.6748C24.8433 35.4103 27.0688 37.6358 29.8042 37.6358ZM29.8042 29.667C31.4627 29.667 32.812 31.0162 32.812 32.6748C32.812 34.3334 31.4628 35.6827 29.8042 35.6827C28.1456 35.6827 26.7964 34.3334 26.7964 32.6748C26.7964 31.0162 28.1457 29.667 29.8042 29.667Z" fill="#02528A"/>
<path d="M10.486 23.1616C11.0252 23.1616 11.4625 22.7243 11.4625 22.1851C11.4625 21.6458 11.0252 21.2085 10.486 21.2085H10.4852C9.94595 21.2085 9.50903 21.6458 9.50903 22.1851C9.50903 22.7243 9.94663 23.1616 10.486 23.1616V23.1616Z" fill="#02528A"/>
</svg>
