<svg width="45" height="45" viewBox="0 0 45 45" fill="none" xmlns="http://www.w3.org/2000/svg">
<path d="M44.25 36H0.749971C0.336006 36 0 36.3352 0 36.75C0 41.2987 3.70125 45 8.25003 45H36.7501C41.2988 45 45 41.2987 45 36.75C45 36.3352 44.6648 36 44.25 36ZM36.75 43.5H8.25003C4.78125 43.5 1.91549 40.8704 1.54125 37.4999H43.458C43.0837 40.8705 40.2187 43.5 36.75 43.5Z" fill="#02528A"/>
<path d="M22.5008 24.75C22.497 24.75 22.494 24.75 22.491 24.75C19.5352 24.75 16.6965 25.8383 14.499 27.8153L15.5018 28.9298C17.424 27.2018 19.9058 26.25 22.4918 26.25C22.4941 26.25 22.4978 26.25 22.5001 26.25C26.6566 26.25 30.2101 28.4205 31.5533 31.7783L32.9468 31.2217C31.3739 27.2902 27.273 24.75 22.5008 24.75Z" fill="#02528A"/>
<path d="M28.233 29.8153C24.4065 26.6555 18.723 27.1978 15.5625 31.0228L16.719 31.9776C19.3523 28.7901 24.0892 28.3371 27.2767 30.9711C27.7942 31.3994 28.2517 31.8944 28.6365 32.441L29.865 31.5793C29.403 30.9231 28.8539 30.3298 28.233 29.8153Z" fill="#02528A"/>
<path d="M26.6994 32.4644C24.3354 30.1477 20.5299 30.1882 18.2139 32.55L19.2856 33.6C21.0226 31.8285 23.8779 31.7992 25.6493 33.5348C26.5081 34.3755 27.0001 35.547 27.0001 36.75H28.5001C28.5001 35.1464 27.8439 33.5842 26.6994 32.4644Z" fill="#02528A"/>
<path d="M30.7829 27.75C30.7717 27.75 30.7612 27.75 30.75 27.75H30V29.25H30.753C35.0107 29.2666 38.6467 32.5575 39.003 36.8123L40.4969 36.6878C40.0777 31.6696 35.8125 27.75 30.7829 27.75Z" fill="#02528A"/>
<path d="M35.2224 32.4712C33.8783 31.2697 32.1458 30.6614 30.3466 30.7635C28.5466 30.8632 26.8937 31.659 25.6914 33.0022L26.8089 34.0027C27.7442 32.9579 29.0297 32.3385 30.4299 32.2604C31.8377 32.1877 33.1764 32.6542 34.2227 33.5887C35.1654 34.4325 35.7722 35.5882 35.9312 36.8445L37.42 36.6555C37.2151 35.0414 36.4344 33.5549 35.2224 32.4712Z" fill="#02528A"/>
<path d="M31.6463 33.8608C29.643 33.3463 27.5971 34.5613 27.0833 36.5638L28.5368 36.9358C28.8443 35.7343 30.0728 35.0061 31.2743 35.3143C32.0701 35.5176 32.6926 36.1393 32.8958 36.9358L34.3493 36.5638C34.0088 35.2363 32.9738 34.2006 31.6463 33.8608Z" fill="#02528A"/>
<path d="M15.0159 27.7669C12.4202 27.5554 9.8972 28.3654 7.91192 30.0506C5.92595 31.7359 4.71543 34.0939 4.50317 36.6889L5.99793 36.8119C6.17714 34.6152 7.20168 32.6201 8.88171 31.1951C10.5624 29.7694 12.697 29.0816 14.8937 29.2631C16.1125 29.3621 17.3154 29.7409 18.3729 30.3567L19.1282 29.0599C17.8779 28.3317 16.4559 27.8847 15.0159 27.7669Z" fill="#02528A"/>
<path d="M15.0758 30.7847C11.3866 30.3287 8.00551 32.9642 7.55103 36.6587L9.0398 36.8417C9.39304 33.9684 12.0181 31.9262 14.8921 32.2727C17.2868 32.5682 19.1656 34.4469 19.4604 36.8417L20.9507 36.6587C20.571 33.5792 18.1552 31.1635 15.0758 30.7847Z" fill="#02528A"/>
<path d="M15.1979 33.8797C14.2296 33.6263 13.2187 33.7665 12.3546 34.2712C11.4899 34.7775 10.8741 35.5904 10.6213 36.5594L12.0726 36.939C12.2248 36.3577 12.5946 35.8694 13.1129 35.5665C13.6312 35.2627 14.2379 35.1795 14.8191 35.3317C15.6051 35.5372 16.2216 36.1529 16.427 36.9397L17.8776 36.5594C17.5349 35.2486 16.5082 34.2217 15.1979 33.8797Z" fill="#02528A"/>
<path d="M22.5 33.75C20.8454 33.75 19.5 35.0955 19.5 36.75H21C21 35.9227 21.6727 35.2499 22.5001 35.2499C23.3273 35.2499 24.0001 35.9227 24.0001 36.75H25.5001C25.4999 35.0955 24.1545 33.75 22.5 33.75Z" fill="#02528A"/>
<path d="M13.5 3H7.5V4.50003H13.5V3Z" fill="#02528A"/>
<path d="M13.5 6H9V7.50003H13.5V6Z" fill="#02528A"/>
<path d="M5.84854 16.128C5.05356 14.7383 5.05356 13.0126 5.84854 11.6227C6.90604 9.77396 6.90604 7.47677 5.84854 5.62799C5.05356 4.23826 5.05356 2.51253 5.84854 1.12271C5.98125 0.890244 5.98055 0.605215 5.84625 0.373447C5.71204 0.142471 5.46454 0 5.19753 0H3V1.50003H4.05003C3.52954 3.1028 3.69451 4.88329 4.54652 6.37207C5.34149 7.7618 5.34149 9.48753 4.54652 10.8773C3.48902 12.7261 3.48902 15.0233 4.54652 16.8721C5.34149 18.2618 5.34149 19.9876 4.54652 21.3774C3.48902 23.2269 3.48902 25.5234 4.51576 27.3121C4.74524 27.8131 4.93948 28.3329 5.09329 28.8548L6.5318 28.4311C6.35777 27.8401 6.13805 27.2544 5.84854 26.6281C5.05356 25.2391 5.05356 23.5119 5.84854 22.1229C6.90604 20.274 6.90604 17.9767 5.84854 16.128Z" fill="#02528A"/>
<path d="M44.9985 5.4675C44.937 3.27296 43.1026 1.55399 40.9058 1.5975L19.0516 2.24024L17.9077 1.09652C17.1998 0.389268 16.2586 0 15.2588 0C15.2573 0 15.2558 0 15.255 0H8.30253C8.03332 0 7.78503 0.143965 7.65152 0.377227C6.59402 2.22601 6.59402 4.5232 7.65152 6.37198C8.44649 7.76171 8.44649 9.48753 7.65152 10.8773C6.59402 12.726 6.59402 15.0232 7.65152 16.872C8.44649 18.2617 8.44649 19.9875 7.65152 21.3773C6.59402 23.2268 6.59402 25.5233 7.65152 27.372C7.75427 27.552 7.84427 27.7388 7.92152 27.9316L9.31354 27.3735C9.21149 27.1178 9.09003 26.8666 8.95354 26.628C8.15856 25.239 8.15856 23.5118 8.95354 22.1228C10.011 20.274 10.011 17.9768 8.95354 16.128C8.15856 14.7383 8.15856 13.0126 8.95354 11.6227C9.15902 11.2627 9.32479 10.887 9.45003 10.5H15.2542C15.2557 10.5 15.2565 10.5 15.258 10.5C16.2585 10.5 17.1998 10.1101 17.9077 9.4028L19.0425 8.26805L40.785 9.54606C40.8629 9.55055 40.9717 9.54905 41.0174 9.55283C43.212 9.55283 44.9985 7.76786 44.9999 5.57262L44.9985 5.4675ZM41.0168 8.05271C40.9591 8.03997 40.9223 8.05122 40.8744 8.04894L18.7943 6.75149C18.5805 6.73576 18.3713 6.8182 18.2198 6.96973L16.8473 8.34223C16.4227 8.76595 15.8588 9 15.2572 9C15.2564 9 15.2557 9 15.2549 9H9.73497C9.80625 7.84046 9.54601 6.66378 8.95345 5.62729C8.22967 4.36131 8.16516 2.81558 8.7607 1.50003H15.2557C15.2565 1.50003 15.2572 1.50003 15.258 1.50003C15.858 1.50003 16.4227 1.73399 16.8473 2.15851L18.2198 3.53101C18.3652 3.67646 18.5693 3.76198 18.7718 3.75003L40.9485 3.09674C42.3488 3.05851 43.4603 4.14149 43.5 5.57174C43.4985 6.94046 42.3848 8.05271 41.0168 8.05271Z" fill="#02528A"/>
<path d="M11.9529 16.128C11.1579 14.7383 11.1579 13.0126 11.9521 11.6236C12.252 11.1016 12.4711 10.5398 12.6038 9.95329L11.1406 9.62256C11.0408 10.0628 10.8765 10.485 10.6508 10.8781C9.59334 12.7269 9.59334 15.0241 10.6508 16.8728C11.4458 18.2626 11.4458 19.9891 10.6501 21.3796C9.6713 23.0986 9.59484 25.1919 10.4453 26.9776L11.799 26.3334C11.1586 24.9894 11.217 23.4151 11.9528 22.1229C13.0104 20.274 13.0104 17.9768 11.9529 16.128Z" fill="#02528A"/>
<path d="M4.50003 3H3V4.50003H4.50003V3Z" fill="#02528A"/>
<path d="M5.25 6H3V7.50003H5.25V6Z" fill="#02528A"/>
<path d="M5.99997 9H3V10.5H5.99997V9Z" fill="#02528A"/>
</svg>
