<svg width="56" height="56" viewBox="0 0 56 56" fill="none" xmlns="http://www.w3.org/2000/svg">
<path d="M38.2208 26.214C38.2208 18.7818 31.684 12.7354 23.6492 12.7354C15.6144 12.7354 9.07764 18.7818 9.07764 26.214C9.07764 33.6462 15.6144 39.6927 23.6492 39.6927C31.684 39.6927 38.2208 33.6462 38.2208 26.214ZM10.7182 26.214C10.7182 19.6864 16.519 14.3759 23.6492 14.3759C30.7794 14.3759 36.5803 19.6864 36.5803 26.214C36.5803 32.7416 30.7794 38.0521 23.6492 38.0521C16.519 38.0521 10.7182 32.7415 10.7182 26.214V26.214Z" fill="#02528A"/>
<path d="M25.5372 32.9253C25.9991 33.0024 26.4565 33.0406 26.9064 33.0406C28.6429 33.0406 30.2632 32.4721 31.5697 31.3858C33.7651 29.5605 35.0209 27.0632 34.9289 24.7055C34.8539 22.7816 33.8932 21.1131 32.1506 19.8805C29.2451 17.825 26.9389 19.8436 25.086 21.4656C23.9389 22.4698 22.8554 23.4181 21.7691 23.4738C20.475 23.5403 19.7766 23.1597 19.0375 22.757C18.0136 22.1991 16.8532 21.5667 14.5373 22.3361C14.5287 22.3389 14.5212 22.3432 14.5133 22.3473C13.6283 22.5982 12.3403 23.3644 12.3646 25.6975C12.3833 27.5232 13.1458 29.0364 14.5695 30.0735C15.9517 31.0803 17.7339 31.4766 19.3863 31.4766C20.2098 31.4766 20.9994 31.3769 21.6929 31.2065C22.7619 32.0764 24.0976 32.6849 25.5372 32.9253V32.9253ZM21.8532 25.1121C23.5079 25.0272 24.8595 23.8441 26.1667 22.7C28.1422 20.9708 29.4424 19.974 31.2035 21.2197C32.5327 22.16 33.2346 23.3543 33.2897 24.7695C33.3608 26.5934 32.2999 28.6453 30.521 30.1244C29.2486 31.1823 27.5749 31.6023 25.8075 31.3072C23.9786 31.0018 22.3718 29.9724 21.5093 28.5535L21.2855 28.1848C20.4781 26.8539 19.689 25.553 18.8499 24.5106C19.5765 24.8649 20.496 25.1819 21.8532 25.1121V25.1121ZM15.5357 28.7473C14.5335 28.0173 14.0186 26.9855 14.0052 25.6803C13.9901 24.2273 14.652 23.9975 14.9923 23.9161C16.6441 23.6988 18.218 26.2909 19.8829 29.0357L20.1074 29.4057C20.1856 29.5344 20.2698 29.6599 20.3569 29.7835C18.7472 29.9685 16.8461 29.702 15.5357 28.7473Z" fill="#02528A"/>
<path d="M51.4268 45.4724C51.3328 43.062 50.1259 40.9693 47.9364 39.4205C46.313 38.272 44.6922 38.045 42.9817 38.7269C42.5905 38.8829 42.211 39.0817 41.8404 39.309C42.5339 28.6672 42.3772 17.8963 41.373 7.25795C41.6847 6.75818 42.2911 5.63483 42.6712 3.95275C42.8958 2.95857 42.4728 1.9808 41.5936 1.46157C40.7279 0.950423 39.6845 1.05029 38.9352 1.71577C38.5481 2.05945 38.1823 2.27253 37.5546 2.27253C36.7308 2.27253 36.345 1.89428 35.811 1.37078C35.1879 0.760097 34.4127 0 32.9187 0C31.4247 0 30.6495 0.760097 30.0267 1.37089C29.4929 1.89439 29.1071 2.27253 28.2834 2.27253C27.4595 2.27253 27.0738 1.89428 26.5399 1.37078C25.917 0.760097 25.1418 0 23.6479 0C22.154 0 21.3788 0.760097 20.756 1.37089C20.2221 1.89439 19.8364 2.27264 19.0127 2.27264C18.189 2.27264 17.8034 1.89439 17.2695 1.371C16.6466 0.760097 15.8713 0 14.3775 0C12.8838 0 12.1087 0.760097 11.4859 1.37089C10.9521 1.89439 10.5665 2.27253 9.74298 2.27253C9.11556 2.27253 8.74968 2.05945 8.3628 1.71577C7.61353 1.05018 6.57035 0.950422 5.70481 1.46135C4.82559 1.98048 4.40272 2.95813 4.62728 3.9522C5.00684 5.63275 5.61249 6.75556 5.92456 7.2562C5.75239 9.07577 5.60363 10.9048 5.48396 12.6995C5.45388 13.1516 5.79581 13.5424 6.24789 13.5726C6.70018 13.6028 7.09079 13.2607 7.12098 12.8087C7.23375 11.1176 7.37157 9.39561 7.53149 7.68017C18.2302 6.39033 29.0678 6.39022 39.7667 7.68017C40.7829 18.6058 40.8971 29.671 40.1086 40.5856C39.7676 40.8704 39.4318 41.1638 39.0993 41.455L38.8703 41.6552C38.5291 41.9531 38.494 42.4714 38.7919 42.8125C39.09 43.1537 39.6082 43.1888 39.9494 42.8909L40.1798 42.6893C42.8224 40.3758 44.5648 39.0449 46.9891 40.7596C48.7715 42.0206 49.7131 43.6277 49.7876 45.5361C49.8824 47.9677 48.4776 50.6954 46.1214 52.6545C44.4213 54.0679 42.1881 54.6294 39.8326 54.2359C37.4003 53.8295 35.2613 52.4567 34.1106 50.5635L33.8184 50.0824C32.5045 47.9169 31.2288 45.8143 29.8227 44.3814C29.9523 44.4495 30.084 44.5212 30.2198 44.5952C31.2554 45.1593 32.5445 45.8615 34.7477 45.7487C35.5477 45.7077 36.3506 45.4531 37.2024 44.9705C37.5965 44.7472 37.7351 44.2467 37.5117 43.8526C37.2885 43.4583 36.7881 43.32 36.3937 43.5432C35.7691 43.8972 35.2031 44.0827 34.6638 44.1104C32.9223 44.1997 31.991 43.692 31.0048 43.1547C29.6614 42.4227 28.2723 41.6657 25.3771 42.6276C25.3655 42.6314 25.3547 42.6368 25.3443 42.6428C23.5913 43.1289 22.9851 44.5192 22.8021 45.7169C17.7303 45.6838 12.6002 45.3585 7.53149 44.7472C6.6444 35.2107 6.44193 25.5551 6.93011 16.0377C6.9533 15.5853 6.60535 15.1998 6.15295 15.1765C5.69977 15.1535 5.31486 15.5012 5.29167 15.9536C4.79321 25.672 5.01001 35.5324 5.93363 45.2666C5.62419 45.7597 5.01001 46.8879 4.62695 48.5852C4.40217 49.5794 4.82483 50.5571 5.70382 51.0764C6.56936 51.5875 7.61298 51.4878 8.36258 50.8218C8.74935 50.4783 9.11524 50.2653 9.7432 50.2653C10.5674 50.2653 10.9532 50.6434 11.4872 51.1668C12.1101 51.7774 12.8855 52.5373 14.3795 52.5373C15.8729 52.5373 16.648 51.7775 17.2707 51.1669C17.8047 50.6434 18.1905 50.2653 19.0147 50.2653C19.8381 50.2653 20.2238 50.6433 20.7574 51.1666C21.3804 51.7773 22.1557 52.5373 23.6498 52.5373C24.3908 52.5373 24.9454 52.3447 25.3612 52.115C25.4024 52.1462 25.4417 52.1789 25.4839 52.2096C27.2271 53.4794 29.4774 53.9793 31.5658 53.9793C32.6581 53.9793 33.705 53.8417 34.6131 53.6069C35.9774 54.7458 37.7003 55.543 39.562 55.8541C40.1459 55.9517 40.7241 55.9999 41.2924 55.9999C43.4819 55.9999 45.5242 55.2841 47.1698 53.9162C49.9516 51.6035 51.5427 48.4469 51.4268 45.4724V45.4724ZM7.1364 6.07662C6.87268 5.59129 6.48984 4.75255 6.22743 3.5908C6.12888 3.15458 6.44095 2.93199 6.53896 2.87413C6.65764 2.80401 6.96708 2.67024 7.27335 2.94227C7.78219 3.39424 8.52271 3.91304 9.74309 3.91304C11.2368 3.91304 12.0119 3.15294 12.6347 2.54215C13.1685 2.01865 13.5541 1.64052 14.3776 1.64052C15.2014 1.64052 15.5871 2.01876 16.1209 2.54215C16.7438 3.15294 17.519 3.91304 19.0128 3.91304C20.5067 3.91304 21.2819 3.15294 21.9048 2.54215C22.4386 2.01865 22.8243 1.64052 23.6481 1.64052C24.4718 1.64052 24.8576 2.01876 25.3915 2.54226C26.0145 3.15305 26.7897 3.91315 28.2836 3.91315C29.7774 3.91315 30.5526 3.15305 31.1754 2.54226C31.7092 2.01876 32.095 1.64052 32.9189 1.64052C33.7428 1.64052 34.1285 2.01876 34.6626 2.54226C35.2856 3.15305 36.0608 3.91315 37.5547 3.91315C38.7753 3.91315 39.516 3.39435 40.0247 2.94238C40.3312 2.67013 40.6407 2.80401 40.7594 2.87424C40.8574 2.9321 41.1697 3.1548 41.071 3.59113C40.8085 4.75332 40.4254 5.59217 40.1623 6.07662C29.202 4.73888 18.0963 4.73888 7.1364 6.07662V6.07662ZM21.9061 49.9952C21.2834 49.3848 20.5083 48.6249 19.0148 48.6249C17.5205 48.6249 16.7453 49.3849 16.1224 49.9956C15.5887 50.5187 15.203 50.8969 14.3796 50.8969C13.5554 50.8969 13.1696 50.5187 12.6356 49.9954C12.0127 49.3848 11.2373 48.6249 9.74331 48.6249C8.52227 48.6249 7.78176 49.1436 7.27324 49.5955C6.96653 49.8678 6.65709 49.7341 6.5383 49.6639C6.4404 49.6061 6.12866 49.3836 6.22743 48.9469C6.50942 47.6971 6.93109 46.8215 7.19372 46.358C12.3609 46.9867 17.5921 47.3226 22.7643 47.3573C22.8799 48.6865 23.3265 49.8678 24.0854 50.8554C23.9563 50.8817 23.8128 50.8969 23.6502 50.8969C22.826 50.8969 22.4401 50.5187 21.9061 49.9952ZM26.45 50.8838C25.0895 49.8927 24.3906 48.4941 24.3724 46.7265C24.3526 44.8275 25.1884 44.3693 25.8495 44.2056C28.1424 43.8944 30.2192 47.3135 32.4158 50.9337L32.7087 51.416C32.8758 51.691 33.0601 51.9565 33.2593 52.2123C31.0452 52.5525 28.306 52.2357 26.45 50.8838V50.8838Z" fill="#02528A"/>
<path d="M46.5185 48.7745L46.4778 48.7984C46.0869 49.0276 45.9559 49.5302 46.1852 49.9209C46.3378 50.1813 46.612 50.3264 46.8935 50.3264C47.0345 50.3264 47.1773 50.2901 47.3077 50.2136L47.3485 50.1896C47.7394 49.9605 47.8704 49.4579 47.6411 49.0672C47.4118 48.6762 46.9095 48.5453 46.5185 48.7745Z" fill="#02528A"/>
<path d="M48.0597 48.4264C48.2007 48.4264 48.3434 48.3901 48.4739 48.3137L48.5147 48.2897C48.9055 48.0606 49.0366 47.5579 48.8074 47.1672C48.5782 46.7764 48.0756 46.6454 47.6848 46.8745L47.644 46.8985C47.2532 47.1276 47.1221 47.6302 47.3514 48.021C47.504 48.2814 47.7781 48.4264 48.0597 48.4264Z" fill="#02528A"/>
<path d="M45.3882 46.8457L45.3474 46.8697C44.9566 47.0989 44.8255 47.6015 45.0548 47.9922C45.2075 48.2526 45.4816 48.3977 45.7631 48.3977C45.9041 48.3977 46.0469 48.3614 46.1774 48.2849L46.2182 48.2609C46.609 48.0318 46.74 47.5292 46.5108 47.1385C46.2815 46.7475 45.7791 46.6166 45.3882 46.8457Z" fill="#02528A"/>
</svg>
